%TF.GenerationSoftware,KiCad,Pcbnew,5.1.6+dfsg1-1*%
%TF.CreationDate,2021-03-04T16:58:38+01:00*%
%TF.ProjectId,PCA9685,50434139-3638-4352-9e6b-696361645f70,rev?*%
%TF.SameCoordinates,Original*%
%TF.FileFunction,Copper,L1,Top*%
%TF.FilePolarity,Positive*%
%FSLAX46Y46*%
G04 Gerber Fmt 4.6, Leading zero omitted, Abs format (unit mm)*
G04 Created by KiCad (PCBNEW 5.1.6+dfsg1-1) date 2021-03-04 16:58:38*
%MOMM*%
%LPD*%
G01*
G04 APERTURE LIST*
%TA.AperFunction,ComponentPad*%
%ADD10O,1.700000X1.700000*%
%TD*%
%TA.AperFunction,ComponentPad*%
%ADD11R,1.700000X1.700000*%
%TD*%
%TA.AperFunction,ComponentPad*%
%ADD12O,1.700000X1.950000*%
%TD*%
%TA.AperFunction,ComponentPad*%
%ADD13R,3.000000X3.000000*%
%TD*%
%TA.AperFunction,ComponentPad*%
%ADD14C,3.000000*%
%TD*%
%TA.AperFunction,ViaPad*%
%ADD15C,0.800000*%
%TD*%
%TA.AperFunction,Conductor*%
%ADD16C,0.400000*%
%TD*%
%TA.AperFunction,Conductor*%
%ADD17C,0.800000*%
%TD*%
%TA.AperFunction,Conductor*%
%ADD18C,0.600000*%
%TD*%
%TA.AperFunction,Conductor*%
%ADD19C,1.000000*%
%TD*%
%TA.AperFunction,Conductor*%
%ADD20C,1.200000*%
%TD*%
G04 APERTURE END LIST*
D10*
%TO.P,J6,3*%
%TO.N,/servoFlag*%
X88900000Y-92964000D03*
%TO.P,J6,2*%
%TO.N,+5V*%
X86360000Y-92964000D03*
D11*
%TO.P,J6,1*%
%TO.N,GND*%
X83820000Y-92964000D03*
%TD*%
D10*
%TO.P,J10,3*%
%TO.N,/servo2.3*%
X78232000Y-88000000D03*
%TO.P,J10,2*%
%TO.N,+5V*%
X75692000Y-88000000D03*
D11*
%TO.P,J10,1*%
%TO.N,GND*%
X73152000Y-88000000D03*
%TD*%
D10*
%TO.P,J9,3*%
%TO.N,/servo2.2*%
X78232000Y-82000000D03*
%TO.P,J9,2*%
%TO.N,+5V*%
X75692000Y-82000000D03*
D11*
%TO.P,J9,1*%
%TO.N,GND*%
X73152000Y-82000000D03*
%TD*%
D10*
%TO.P,J8,3*%
%TO.N,/servo2.1*%
X78232000Y-76000000D03*
%TO.P,J8,2*%
%TO.N,+5V*%
X75692000Y-76000000D03*
D11*
%TO.P,J8,1*%
%TO.N,GND*%
X73152000Y-76000000D03*
%TD*%
D10*
%TO.P,J7,3*%
%TO.N,/servoManche*%
X108460000Y-93091000D03*
%TO.P,J7,2*%
%TO.N,+5V*%
X111000000Y-93091000D03*
D11*
%TO.P,J7,1*%
%TO.N,GND*%
X113540000Y-93091000D03*
%TD*%
D10*
%TO.P,J5,3*%
%TO.N,/servo1.3*%
X116920000Y-88000000D03*
%TO.P,J5,2*%
%TO.N,+5V*%
X119460000Y-88000000D03*
D11*
%TO.P,J5,1*%
%TO.N,GND*%
X122000000Y-88000000D03*
%TD*%
D10*
%TO.P,J4,3*%
%TO.N,/servo1.2*%
X116920000Y-82000000D03*
%TO.P,J4,2*%
%TO.N,+5V*%
X119460000Y-82000000D03*
D11*
%TO.P,J4,1*%
%TO.N,GND*%
X122000000Y-82000000D03*
%TD*%
D10*
%TO.P,J3,3*%
%TO.N,/servo1.1*%
X116920000Y-76000000D03*
%TO.P,J3,2*%
%TO.N,+5V*%
X119460000Y-76000000D03*
D11*
%TO.P,J3,1*%
%TO.N,GND*%
X122000000Y-76000000D03*
%TD*%
D12*
%TO.P,J2,4*%
%TO.N,/SCL*%
X91955000Y-76200000D03*
%TO.P,J2,3*%
%TO.N,/SDA*%
X89455000Y-76200000D03*
%TO.P,J2,2*%
%TO.N,GND*%
X86955000Y-76200000D03*
%TO.P,J2,1*%
%TO.N,+5V*%
%TA.AperFunction,ComponentPad*%
G36*
G01*
X83605000Y-76925000D02*
X83605000Y-75475000D01*
G75*
G02*
X83855000Y-75225000I250000J0D01*
G01*
X85055000Y-75225000D01*
G75*
G02*
X85305000Y-75475000I0J-250000D01*
G01*
X85305000Y-76925000D01*
G75*
G02*
X85055000Y-77175000I-250000J0D01*
G01*
X83855000Y-77175000D01*
G75*
G02*
X83605000Y-76925000I0J250000D01*
G01*
G37*
%TD.AperFunction*%
%TD*%
%TO.P,U2,28*%
%TO.N,+5V*%
%TA.AperFunction,SMDPad,CuDef*%
G36*
G01*
X96904000Y-81584000D02*
X96704000Y-81584000D01*
G75*
G02*
X96604000Y-81484000I0J100000D01*
G01*
X96604000Y-80209000D01*
G75*
G02*
X96704000Y-80109000I100000J0D01*
G01*
X96904000Y-80109000D01*
G75*
G02*
X97004000Y-80209000I0J-100000D01*
G01*
X97004000Y-81484000D01*
G75*
G02*
X96904000Y-81584000I-100000J0D01*
G01*
G37*
%TD.AperFunction*%
%TO.P,U2,27*%
%TO.N,/SDA*%
%TA.AperFunction,SMDPad,CuDef*%
G36*
G01*
X97554000Y-81584000D02*
X97354000Y-81584000D01*
G75*
G02*
X97254000Y-81484000I0J100000D01*
G01*
X97254000Y-80209000D01*
G75*
G02*
X97354000Y-80109000I100000J0D01*
G01*
X97554000Y-80109000D01*
G75*
G02*
X97654000Y-80209000I0J-100000D01*
G01*
X97654000Y-81484000D01*
G75*
G02*
X97554000Y-81584000I-100000J0D01*
G01*
G37*
%TD.AperFunction*%
%TO.P,U2,26*%
%TO.N,/SCL*%
%TA.AperFunction,SMDPad,CuDef*%
G36*
G01*
X98204000Y-81584000D02*
X98004000Y-81584000D01*
G75*
G02*
X97904000Y-81484000I0J100000D01*
G01*
X97904000Y-80209000D01*
G75*
G02*
X98004000Y-80109000I100000J0D01*
G01*
X98204000Y-80109000D01*
G75*
G02*
X98304000Y-80209000I0J-100000D01*
G01*
X98304000Y-81484000D01*
G75*
G02*
X98204000Y-81584000I-100000J0D01*
G01*
G37*
%TD.AperFunction*%
%TO.P,U2,25*%
%TO.N,GND*%
%TA.AperFunction,SMDPad,CuDef*%
G36*
G01*
X98854000Y-81584000D02*
X98654000Y-81584000D01*
G75*
G02*
X98554000Y-81484000I0J100000D01*
G01*
X98554000Y-80209000D01*
G75*
G02*
X98654000Y-80109000I100000J0D01*
G01*
X98854000Y-80109000D01*
G75*
G02*
X98954000Y-80209000I0J-100000D01*
G01*
X98954000Y-81484000D01*
G75*
G02*
X98854000Y-81584000I-100000J0D01*
G01*
G37*
%TD.AperFunction*%
%TO.P,U2,24*%
%TO.N,Net-(R2-Pad2)*%
%TA.AperFunction,SMDPad,CuDef*%
G36*
G01*
X99504000Y-81584000D02*
X99304000Y-81584000D01*
G75*
G02*
X99204000Y-81484000I0J100000D01*
G01*
X99204000Y-80209000D01*
G75*
G02*
X99304000Y-80109000I100000J0D01*
G01*
X99504000Y-80109000D01*
G75*
G02*
X99604000Y-80209000I0J-100000D01*
G01*
X99604000Y-81484000D01*
G75*
G02*
X99504000Y-81584000I-100000J0D01*
G01*
G37*
%TD.AperFunction*%
%TO.P,U2,23*%
%TO.N,GND*%
%TA.AperFunction,SMDPad,CuDef*%
G36*
G01*
X100154000Y-81584000D02*
X99954000Y-81584000D01*
G75*
G02*
X99854000Y-81484000I0J100000D01*
G01*
X99854000Y-80209000D01*
G75*
G02*
X99954000Y-80109000I100000J0D01*
G01*
X100154000Y-80109000D01*
G75*
G02*
X100254000Y-80209000I0J-100000D01*
G01*
X100254000Y-81484000D01*
G75*
G02*
X100154000Y-81584000I-100000J0D01*
G01*
G37*
%TD.AperFunction*%
%TO.P,U2,22*%
%TO.N,Net-(U2-Pad22)*%
%TA.AperFunction,SMDPad,CuDef*%
G36*
G01*
X100804000Y-81584000D02*
X100604000Y-81584000D01*
G75*
G02*
X100504000Y-81484000I0J100000D01*
G01*
X100504000Y-80209000D01*
G75*
G02*
X100604000Y-80109000I100000J0D01*
G01*
X100804000Y-80109000D01*
G75*
G02*
X100904000Y-80209000I0J-100000D01*
G01*
X100904000Y-81484000D01*
G75*
G02*
X100804000Y-81584000I-100000J0D01*
G01*
G37*
%TD.AperFunction*%
%TO.P,U2,21*%
%TO.N,Net-(U2-Pad21)*%
%TA.AperFunction,SMDPad,CuDef*%
G36*
G01*
X101454000Y-81584000D02*
X101254000Y-81584000D01*
G75*
G02*
X101154000Y-81484000I0J100000D01*
G01*
X101154000Y-80209000D01*
G75*
G02*
X101254000Y-80109000I100000J0D01*
G01*
X101454000Y-80109000D01*
G75*
G02*
X101554000Y-80209000I0J-100000D01*
G01*
X101554000Y-81484000D01*
G75*
G02*
X101454000Y-81584000I-100000J0D01*
G01*
G37*
%TD.AperFunction*%
%TO.P,U2,20*%
%TO.N,Net-(U2-Pad20)*%
%TA.AperFunction,SMDPad,CuDef*%
G36*
G01*
X102104000Y-81584000D02*
X101904000Y-81584000D01*
G75*
G02*
X101804000Y-81484000I0J100000D01*
G01*
X101804000Y-80209000D01*
G75*
G02*
X101904000Y-80109000I100000J0D01*
G01*
X102104000Y-80109000D01*
G75*
G02*
X102204000Y-80209000I0J-100000D01*
G01*
X102204000Y-81484000D01*
G75*
G02*
X102104000Y-81584000I-100000J0D01*
G01*
G37*
%TD.AperFunction*%
%TO.P,U2,19*%
%TO.N,Net-(U2-Pad19)*%
%TA.AperFunction,SMDPad,CuDef*%
G36*
G01*
X102754000Y-81584000D02*
X102554000Y-81584000D01*
G75*
G02*
X102454000Y-81484000I0J100000D01*
G01*
X102454000Y-80209000D01*
G75*
G02*
X102554000Y-80109000I100000J0D01*
G01*
X102754000Y-80109000D01*
G75*
G02*
X102854000Y-80209000I0J-100000D01*
G01*
X102854000Y-81484000D01*
G75*
G02*
X102754000Y-81584000I-100000J0D01*
G01*
G37*
%TD.AperFunction*%
%TO.P,U2,18*%
%TO.N,Net-(U2-Pad18)*%
%TA.AperFunction,SMDPad,CuDef*%
G36*
G01*
X103404000Y-81584000D02*
X103204000Y-81584000D01*
G75*
G02*
X103104000Y-81484000I0J100000D01*
G01*
X103104000Y-80209000D01*
G75*
G02*
X103204000Y-80109000I100000J0D01*
G01*
X103404000Y-80109000D01*
G75*
G02*
X103504000Y-80209000I0J-100000D01*
G01*
X103504000Y-81484000D01*
G75*
G02*
X103404000Y-81584000I-100000J0D01*
G01*
G37*
%TD.AperFunction*%
%TO.P,U2,17*%
%TO.N,Net-(U2-Pad17)*%
%TA.AperFunction,SMDPad,CuDef*%
G36*
G01*
X104054000Y-81584000D02*
X103854000Y-81584000D01*
G75*
G02*
X103754000Y-81484000I0J100000D01*
G01*
X103754000Y-80209000D01*
G75*
G02*
X103854000Y-80109000I100000J0D01*
G01*
X104054000Y-80109000D01*
G75*
G02*
X104154000Y-80209000I0J-100000D01*
G01*
X104154000Y-81484000D01*
G75*
G02*
X104054000Y-81584000I-100000J0D01*
G01*
G37*
%TD.AperFunction*%
%TO.P,U2,16*%
%TO.N,Net-(U2-Pad16)*%
%TA.AperFunction,SMDPad,CuDef*%
G36*
G01*
X104704000Y-81584000D02*
X104504000Y-81584000D01*
G75*
G02*
X104404000Y-81484000I0J100000D01*
G01*
X104404000Y-80209000D01*
G75*
G02*
X104504000Y-80109000I100000J0D01*
G01*
X104704000Y-80109000D01*
G75*
G02*
X104804000Y-80209000I0J-100000D01*
G01*
X104804000Y-81484000D01*
G75*
G02*
X104704000Y-81584000I-100000J0D01*
G01*
G37*
%TD.AperFunction*%
%TO.P,U2,15*%
%TO.N,Net-(U2-Pad15)*%
%TA.AperFunction,SMDPad,CuDef*%
G36*
G01*
X105354000Y-81584000D02*
X105154000Y-81584000D01*
G75*
G02*
X105054000Y-81484000I0J100000D01*
G01*
X105054000Y-80209000D01*
G75*
G02*
X105154000Y-80109000I100000J0D01*
G01*
X105354000Y-80109000D01*
G75*
G02*
X105454000Y-80209000I0J-100000D01*
G01*
X105454000Y-81484000D01*
G75*
G02*
X105354000Y-81584000I-100000J0D01*
G01*
G37*
%TD.AperFunction*%
%TO.P,U2,14*%
%TO.N,GND*%
%TA.AperFunction,SMDPad,CuDef*%
G36*
G01*
X105354000Y-87309000D02*
X105154000Y-87309000D01*
G75*
G02*
X105054000Y-87209000I0J100000D01*
G01*
X105054000Y-85934000D01*
G75*
G02*
X105154000Y-85834000I100000J0D01*
G01*
X105354000Y-85834000D01*
G75*
G02*
X105454000Y-85934000I0J-100000D01*
G01*
X105454000Y-87209000D01*
G75*
G02*
X105354000Y-87309000I-100000J0D01*
G01*
G37*
%TD.AperFunction*%
%TO.P,U2,13*%
%TO.N,/servoManche*%
%TA.AperFunction,SMDPad,CuDef*%
G36*
G01*
X104704000Y-87309000D02*
X104504000Y-87309000D01*
G75*
G02*
X104404000Y-87209000I0J100000D01*
G01*
X104404000Y-85934000D01*
G75*
G02*
X104504000Y-85834000I100000J0D01*
G01*
X104704000Y-85834000D01*
G75*
G02*
X104804000Y-85934000I0J-100000D01*
G01*
X104804000Y-87209000D01*
G75*
G02*
X104704000Y-87309000I-100000J0D01*
G01*
G37*
%TD.AperFunction*%
%TO.P,U2,12*%
%TO.N,/servoFlag*%
%TA.AperFunction,SMDPad,CuDef*%
G36*
G01*
X104054000Y-87309000D02*
X103854000Y-87309000D01*
G75*
G02*
X103754000Y-87209000I0J100000D01*
G01*
X103754000Y-85934000D01*
G75*
G02*
X103854000Y-85834000I100000J0D01*
G01*
X104054000Y-85834000D01*
G75*
G02*
X104154000Y-85934000I0J-100000D01*
G01*
X104154000Y-87209000D01*
G75*
G02*
X104054000Y-87309000I-100000J0D01*
G01*
G37*
%TD.AperFunction*%
%TO.P,U2,11*%
%TO.N,/servo1.3*%
%TA.AperFunction,SMDPad,CuDef*%
G36*
G01*
X103404000Y-87309000D02*
X103204000Y-87309000D01*
G75*
G02*
X103104000Y-87209000I0J100000D01*
G01*
X103104000Y-85934000D01*
G75*
G02*
X103204000Y-85834000I100000J0D01*
G01*
X103404000Y-85834000D01*
G75*
G02*
X103504000Y-85934000I0J-100000D01*
G01*
X103504000Y-87209000D01*
G75*
G02*
X103404000Y-87309000I-100000J0D01*
G01*
G37*
%TD.AperFunction*%
%TO.P,U2,10*%
%TO.N,/servo1.2*%
%TA.AperFunction,SMDPad,CuDef*%
G36*
G01*
X102754000Y-87309000D02*
X102554000Y-87309000D01*
G75*
G02*
X102454000Y-87209000I0J100000D01*
G01*
X102454000Y-85934000D01*
G75*
G02*
X102554000Y-85834000I100000J0D01*
G01*
X102754000Y-85834000D01*
G75*
G02*
X102854000Y-85934000I0J-100000D01*
G01*
X102854000Y-87209000D01*
G75*
G02*
X102754000Y-87309000I-100000J0D01*
G01*
G37*
%TD.AperFunction*%
%TO.P,U2,9*%
%TO.N,/servo1.1*%
%TA.AperFunction,SMDPad,CuDef*%
G36*
G01*
X102104000Y-87309000D02*
X101904000Y-87309000D01*
G75*
G02*
X101804000Y-87209000I0J100000D01*
G01*
X101804000Y-85934000D01*
G75*
G02*
X101904000Y-85834000I100000J0D01*
G01*
X102104000Y-85834000D01*
G75*
G02*
X102204000Y-85934000I0J-100000D01*
G01*
X102204000Y-87209000D01*
G75*
G02*
X102104000Y-87309000I-100000J0D01*
G01*
G37*
%TD.AperFunction*%
%TO.P,U2,8*%
%TO.N,/servo2.3*%
%TA.AperFunction,SMDPad,CuDef*%
G36*
G01*
X101454000Y-87309000D02*
X101254000Y-87309000D01*
G75*
G02*
X101154000Y-87209000I0J100000D01*
G01*
X101154000Y-85934000D01*
G75*
G02*
X101254000Y-85834000I100000J0D01*
G01*
X101454000Y-85834000D01*
G75*
G02*
X101554000Y-85934000I0J-100000D01*
G01*
X101554000Y-87209000D01*
G75*
G02*
X101454000Y-87309000I-100000J0D01*
G01*
G37*
%TD.AperFunction*%
%TO.P,U2,7*%
%TO.N,/servo2.2*%
%TA.AperFunction,SMDPad,CuDef*%
G36*
G01*
X100804000Y-87309000D02*
X100604000Y-87309000D01*
G75*
G02*
X100504000Y-87209000I0J100000D01*
G01*
X100504000Y-85934000D01*
G75*
G02*
X100604000Y-85834000I100000J0D01*
G01*
X100804000Y-85834000D01*
G75*
G02*
X100904000Y-85934000I0J-100000D01*
G01*
X100904000Y-87209000D01*
G75*
G02*
X100804000Y-87309000I-100000J0D01*
G01*
G37*
%TD.AperFunction*%
%TO.P,U2,6*%
%TO.N,/servo2.1*%
%TA.AperFunction,SMDPad,CuDef*%
G36*
G01*
X100154000Y-87309000D02*
X99954000Y-87309000D01*
G75*
G02*
X99854000Y-87209000I0J100000D01*
G01*
X99854000Y-85934000D01*
G75*
G02*
X99954000Y-85834000I100000J0D01*
G01*
X100154000Y-85834000D01*
G75*
G02*
X100254000Y-85934000I0J-100000D01*
G01*
X100254000Y-87209000D01*
G75*
G02*
X100154000Y-87309000I-100000J0D01*
G01*
G37*
%TD.AperFunction*%
%TO.P,U2,5*%
%TO.N,GND*%
%TA.AperFunction,SMDPad,CuDef*%
G36*
G01*
X99504000Y-87309000D02*
X99304000Y-87309000D01*
G75*
G02*
X99204000Y-87209000I0J100000D01*
G01*
X99204000Y-85934000D01*
G75*
G02*
X99304000Y-85834000I100000J0D01*
G01*
X99504000Y-85834000D01*
G75*
G02*
X99604000Y-85934000I0J-100000D01*
G01*
X99604000Y-87209000D01*
G75*
G02*
X99504000Y-87309000I-100000J0D01*
G01*
G37*
%TD.AperFunction*%
%TO.P,U2,4*%
%TA.AperFunction,SMDPad,CuDef*%
G36*
G01*
X98854000Y-87309000D02*
X98654000Y-87309000D01*
G75*
G02*
X98554000Y-87209000I0J100000D01*
G01*
X98554000Y-85934000D01*
G75*
G02*
X98654000Y-85834000I100000J0D01*
G01*
X98854000Y-85834000D01*
G75*
G02*
X98954000Y-85934000I0J-100000D01*
G01*
X98954000Y-87209000D01*
G75*
G02*
X98854000Y-87309000I-100000J0D01*
G01*
G37*
%TD.AperFunction*%
%TO.P,U2,3*%
%TO.N,+5V*%
%TA.AperFunction,SMDPad,CuDef*%
G36*
G01*
X98204000Y-87309000D02*
X98004000Y-87309000D01*
G75*
G02*
X97904000Y-87209000I0J100000D01*
G01*
X97904000Y-85934000D01*
G75*
G02*
X98004000Y-85834000I100000J0D01*
G01*
X98204000Y-85834000D01*
G75*
G02*
X98304000Y-85934000I0J-100000D01*
G01*
X98304000Y-87209000D01*
G75*
G02*
X98204000Y-87309000I-100000J0D01*
G01*
G37*
%TD.AperFunction*%
%TO.P,U2,2*%
%TO.N,GND*%
%TA.AperFunction,SMDPad,CuDef*%
G36*
G01*
X97554000Y-87309000D02*
X97354000Y-87309000D01*
G75*
G02*
X97254000Y-87209000I0J100000D01*
G01*
X97254000Y-85934000D01*
G75*
G02*
X97354000Y-85834000I100000J0D01*
G01*
X97554000Y-85834000D01*
G75*
G02*
X97654000Y-85934000I0J-100000D01*
G01*
X97654000Y-87209000D01*
G75*
G02*
X97554000Y-87309000I-100000J0D01*
G01*
G37*
%TD.AperFunction*%
%TO.P,U2,1*%
%TO.N,+5V*%
%TA.AperFunction,SMDPad,CuDef*%
G36*
G01*
X96904000Y-87309000D02*
X96704000Y-87309000D01*
G75*
G02*
X96604000Y-87209000I0J100000D01*
G01*
X96604000Y-85934000D01*
G75*
G02*
X96704000Y-85834000I100000J0D01*
G01*
X96904000Y-85834000D01*
G75*
G02*
X97004000Y-85934000I0J-100000D01*
G01*
X97004000Y-87209000D01*
G75*
G02*
X96904000Y-87309000I-100000J0D01*
G01*
G37*
%TD.AperFunction*%
%TD*%
D13*
%TO.P,U1,4*%
%TO.N,GND*%
X123190000Y-71120000D03*
%TO.P,U1,2*%
X82550000Y-71120000D03*
%TO.P,U1,3*%
%TO.N,+5V*%
X123190000Y-53340000D03*
%TO.P,U1,1*%
%TO.N,+12V*%
X82550000Y-53340000D03*
%TD*%
%TO.P,R5,2*%
%TO.N,Net-(D1-Pad2)*%
%TA.AperFunction,SMDPad,CuDef*%
G36*
G01*
X85690000Y-86683001D02*
X85690000Y-85782999D01*
G75*
G02*
X85939999Y-85533000I249999J0D01*
G01*
X86590001Y-85533000D01*
G75*
G02*
X86840000Y-85782999I0J-249999D01*
G01*
X86840000Y-86683001D01*
G75*
G02*
X86590001Y-86933000I-249999J0D01*
G01*
X85939999Y-86933000D01*
G75*
G02*
X85690000Y-86683001I0J249999D01*
G01*
G37*
%TD.AperFunction*%
%TO.P,R5,1*%
%TO.N,+5V*%
%TA.AperFunction,SMDPad,CuDef*%
G36*
G01*
X83640000Y-86683001D02*
X83640000Y-85782999D01*
G75*
G02*
X83889999Y-85533000I249999J0D01*
G01*
X84540001Y-85533000D01*
G75*
G02*
X84790000Y-85782999I0J-249999D01*
G01*
X84790000Y-86683001D01*
G75*
G02*
X84540001Y-86933000I-249999J0D01*
G01*
X83889999Y-86933000D01*
G75*
G02*
X83640000Y-86683001I0J249999D01*
G01*
G37*
%TD.AperFunction*%
%TD*%
%TO.P,R4,2*%
%TO.N,GND*%
%TA.AperFunction,SMDPad,CuDef*%
G36*
G01*
X111893001Y-76265000D02*
X110992999Y-76265000D01*
G75*
G02*
X110743000Y-76015001I0J249999D01*
G01*
X110743000Y-75364999D01*
G75*
G02*
X110992999Y-75115000I249999J0D01*
G01*
X111893001Y-75115000D01*
G75*
G02*
X112143000Y-75364999I0J-249999D01*
G01*
X112143000Y-76015001D01*
G75*
G02*
X111893001Y-76265000I-249999J0D01*
G01*
G37*
%TD.AperFunction*%
%TO.P,R4,1*%
%TO.N,Net-(R2-Pad2)*%
%TA.AperFunction,SMDPad,CuDef*%
G36*
G01*
X111893001Y-78315000D02*
X110992999Y-78315000D01*
G75*
G02*
X110743000Y-78065001I0J249999D01*
G01*
X110743000Y-77414999D01*
G75*
G02*
X110992999Y-77165000I249999J0D01*
G01*
X111893001Y-77165000D01*
G75*
G02*
X112143000Y-77414999I0J-249999D01*
G01*
X112143000Y-78065001D01*
G75*
G02*
X111893001Y-78315000I-249999J0D01*
G01*
G37*
%TD.AperFunction*%
%TD*%
%TO.P,R2,2*%
%TO.N,Net-(R2-Pad2)*%
%TA.AperFunction,SMDPad,CuDef*%
G36*
G01*
X108452999Y-77165000D02*
X109353001Y-77165000D01*
G75*
G02*
X109603000Y-77414999I0J-249999D01*
G01*
X109603000Y-78065001D01*
G75*
G02*
X109353001Y-78315000I-249999J0D01*
G01*
X108452999Y-78315000D01*
G75*
G02*
X108203000Y-78065001I0J249999D01*
G01*
X108203000Y-77414999D01*
G75*
G02*
X108452999Y-77165000I249999J0D01*
G01*
G37*
%TD.AperFunction*%
%TO.P,R2,1*%
%TO.N,+5V*%
%TA.AperFunction,SMDPad,CuDef*%
G36*
G01*
X108452999Y-75115000D02*
X109353001Y-75115000D01*
G75*
G02*
X109603000Y-75364999I0J-249999D01*
G01*
X109603000Y-76015001D01*
G75*
G02*
X109353001Y-76265000I-249999J0D01*
G01*
X108452999Y-76265000D01*
G75*
G02*
X108203000Y-76015001I0J249999D01*
G01*
X108203000Y-75364999D01*
G75*
G02*
X108452999Y-75115000I249999J0D01*
G01*
G37*
%TD.AperFunction*%
%TD*%
D14*
%TO.P,J1,2*%
%TO.N,GND*%
X74930000Y-66080000D03*
D13*
%TO.P,J1,1*%
%TO.N,+12V*%
X74930000Y-61000000D03*
%TD*%
%TO.P,D1,2*%
%TO.N,Net-(D1-Pad2)*%
%TA.AperFunction,SMDPad,CuDef*%
G36*
G01*
X90995000Y-85995500D02*
X90995000Y-86470500D01*
G75*
G02*
X90757500Y-86708000I-237500J0D01*
G01*
X90182500Y-86708000D01*
G75*
G02*
X89945000Y-86470500I0J237500D01*
G01*
X89945000Y-85995500D01*
G75*
G02*
X90182500Y-85758000I237500J0D01*
G01*
X90757500Y-85758000D01*
G75*
G02*
X90995000Y-85995500I0J-237500D01*
G01*
G37*
%TD.AperFunction*%
%TO.P,D1,1*%
%TO.N,GND*%
%TA.AperFunction,SMDPad,CuDef*%
G36*
G01*
X92745000Y-85995500D02*
X92745000Y-86470500D01*
G75*
G02*
X92507500Y-86708000I-237500J0D01*
G01*
X91932500Y-86708000D01*
G75*
G02*
X91695000Y-86470500I0J237500D01*
G01*
X91695000Y-85995500D01*
G75*
G02*
X91932500Y-85758000I237500J0D01*
G01*
X92507500Y-85758000D01*
G75*
G02*
X92745000Y-85995500I0J-237500D01*
G01*
G37*
%TD.AperFunction*%
%TD*%
%TO.P,C1,2*%
%TO.N,GND*%
%TA.AperFunction,SMDPad,CuDef*%
G36*
G01*
X92017000Y-84016001D02*
X92017000Y-83115999D01*
G75*
G02*
X92266999Y-82866000I249999J0D01*
G01*
X92917001Y-82866000D01*
G75*
G02*
X93167000Y-83115999I0J-249999D01*
G01*
X93167000Y-84016001D01*
G75*
G02*
X92917001Y-84266000I-249999J0D01*
G01*
X92266999Y-84266000D01*
G75*
G02*
X92017000Y-84016001I0J249999D01*
G01*
G37*
%TD.AperFunction*%
%TO.P,C1,1*%
%TO.N,+5V*%
%TA.AperFunction,SMDPad,CuDef*%
G36*
G01*
X89967000Y-84016001D02*
X89967000Y-83115999D01*
G75*
G02*
X90216999Y-82866000I249999J0D01*
G01*
X90867001Y-82866000D01*
G75*
G02*
X91117000Y-83115999I0J-249999D01*
G01*
X91117000Y-84016001D01*
G75*
G02*
X90867001Y-84266000I-249999J0D01*
G01*
X90216999Y-84266000D01*
G75*
G02*
X89967000Y-84016001I0J249999D01*
G01*
G37*
%TD.AperFunction*%
%TD*%
D15*
%TO.N,GND*%
X106299000Y-88519000D03*
X99250500Y-83629500D03*
X94107000Y-84836000D03*
X111443000Y-74104000D03*
%TO.N,/servo2.1*%
X95631000Y-89154000D03*
X80264000Y-78740000D03*
%TD*%
D16*
%TO.N,GND*%
X105254000Y-86571500D02*
X105254000Y-87982000D01*
X105254000Y-87982000D02*
X105791000Y-88519000D01*
X105791000Y-88519000D02*
X106299000Y-88519000D01*
X106299000Y-88519000D02*
X106299000Y-88519000D01*
X97503990Y-86265010D02*
X97503990Y-84614010D01*
X97454000Y-86315000D02*
X97503990Y-86265010D01*
X97454000Y-86571500D02*
X97454000Y-86315000D01*
X97503990Y-84614010D02*
X98425000Y-83693000D01*
X98425000Y-83693000D02*
X99187000Y-83693000D01*
X100054000Y-82826000D02*
X100054000Y-80846500D01*
X99631500Y-83248500D02*
X100054000Y-82826000D01*
X98754000Y-84126000D02*
X99250500Y-83629500D01*
X98754000Y-86571500D02*
X98754000Y-84126000D01*
X99441000Y-83439000D02*
X99631500Y-83248500D01*
X99187000Y-83693000D02*
X99441000Y-83439000D01*
X99404000Y-83476000D02*
X99441000Y-83439000D01*
X99404000Y-86571500D02*
X99404000Y-83476000D01*
X98704010Y-83413990D02*
X98425000Y-83693000D01*
X98704010Y-81000990D02*
X98704010Y-83413990D01*
X98754000Y-80951000D02*
X98704010Y-81000990D01*
X98754000Y-80846500D02*
X98754000Y-80951000D01*
X99250500Y-83629500D02*
X99441000Y-83439000D01*
D17*
X92220000Y-86233000D02*
X93472000Y-86233000D01*
X93472000Y-86233000D02*
X94107000Y-85598000D01*
X94107000Y-85598000D02*
X94107000Y-84836000D01*
X93472000Y-83566000D02*
X92592000Y-83566000D01*
X94107000Y-84201000D02*
X93472000Y-83566000D01*
X94107000Y-84836000D02*
X94107000Y-84201000D01*
D18*
X111443000Y-75690000D02*
X111443000Y-74104000D01*
X111443000Y-74104000D02*
X111443000Y-74104000D01*
D16*
%TO.N,+5V*%
X96804000Y-86644000D02*
X96774000Y-86674000D01*
X96804000Y-86571500D02*
X96804000Y-86644000D01*
D19*
X123190000Y-53340000D02*
X122809000Y-53340000D01*
X122809000Y-53340000D02*
X119460000Y-56689000D01*
X113411000Y-95123000D02*
X112522000Y-95123000D01*
X78486000Y-95123000D02*
X75692000Y-92329000D01*
X88011000Y-95123000D02*
X78486000Y-95123000D01*
X82296000Y-76200000D02*
X84455000Y-76200000D01*
X76708000Y-73279000D02*
X79375000Y-73279000D01*
X75692000Y-74295000D02*
X76708000Y-73279000D01*
X81661000Y-83679000D02*
X84215000Y-86233000D01*
X79375000Y-73279000D02*
X81661000Y-75565000D01*
X81661000Y-75565000D02*
X82296000Y-76200000D01*
X81661000Y-75565000D02*
X81661000Y-81026000D01*
X83439000Y-83566000D02*
X81661000Y-81788000D01*
X90542000Y-83566000D02*
X83439000Y-83566000D01*
X81661000Y-81788000D02*
X81661000Y-83679000D01*
X81661000Y-81026000D02*
X81661000Y-81788000D01*
X108903000Y-75690000D02*
X108903000Y-71818000D01*
X108903000Y-71818000D02*
X110363000Y-70358000D01*
X110363000Y-70358000D02*
X117475000Y-70358000D01*
X119460000Y-68373000D02*
X119460000Y-72089000D01*
X117475000Y-70358000D02*
X119460000Y-68373000D01*
X119460000Y-56689000D02*
X119460000Y-68373000D01*
D16*
X96804000Y-86571500D02*
X96804000Y-87854000D01*
X96804000Y-87854000D02*
X96520000Y-88138000D01*
X96520000Y-88138000D02*
X95123000Y-88138000D01*
X98104000Y-86571500D02*
X98104000Y-87697000D01*
X97663000Y-88138000D02*
X96520000Y-88138000D01*
X98104000Y-87697000D02*
X97663000Y-88138000D01*
D17*
X82677000Y-88138000D02*
X81661000Y-87122000D01*
X81661000Y-87122000D02*
X81661000Y-83679000D01*
X95123000Y-88138000D02*
X82677000Y-88138000D01*
D19*
X111000000Y-94293081D02*
X111000000Y-93091000D01*
X111829919Y-95123000D02*
X111000000Y-94293081D01*
X113411000Y-95123000D02*
X112903000Y-95123000D01*
X112903000Y-95123000D02*
X111829919Y-95123000D01*
X112903000Y-95123000D02*
X88011000Y-95123000D01*
X88011000Y-95123000D02*
X86995000Y-95123000D01*
X86360000Y-94488000D02*
X86360000Y-92964000D01*
X86995000Y-95123000D02*
X86360000Y-94488000D01*
X119460000Y-72089000D02*
X119460000Y-76000000D01*
X119460000Y-76000000D02*
X119460000Y-82000000D01*
X119460000Y-82000000D02*
X119460000Y-88000000D01*
X119460000Y-90131002D02*
X119507000Y-90178002D01*
X119460000Y-88000000D02*
X119460000Y-90131002D01*
X119507000Y-90178002D02*
X119507000Y-93472000D01*
X117856000Y-95123000D02*
X113411000Y-95123000D01*
X119507000Y-93472000D02*
X117856000Y-95123000D01*
X75692000Y-74295000D02*
X75692000Y-76000000D01*
X75692000Y-76000000D02*
X75692000Y-82000000D01*
X75692000Y-88000000D02*
X75692000Y-82000000D01*
X75692000Y-92329000D02*
X75692000Y-88000000D01*
D16*
X96804000Y-86571500D02*
X96804000Y-80846500D01*
D17*
%TO.N,Net-(D1-Pad2)*%
X86265000Y-86233000D02*
X90470000Y-86233000D01*
D20*
%TO.N,+12V*%
X81280000Y-54610000D02*
X82550000Y-53340000D01*
X74930000Y-61000000D02*
X79462000Y-61000000D01*
X82550000Y-57912000D02*
X82550000Y-53340000D01*
X79462000Y-61000000D02*
X82550000Y-57912000D01*
D16*
%TO.N,/SCL*%
X98104000Y-80846500D02*
X98104000Y-79054000D01*
X98104000Y-79054000D02*
X96393000Y-77343000D01*
X96393000Y-77343000D02*
X95631000Y-77343000D01*
D17*
X93098000Y-77343000D02*
X91955000Y-76200000D01*
X95631000Y-77343000D02*
X93098000Y-77343000D01*
D16*
%TO.N,/SDA*%
X97454000Y-80846500D02*
X97454000Y-79420000D01*
X97454000Y-79420000D02*
X96647000Y-78613000D01*
X96647000Y-78613000D02*
X95504000Y-78613000D01*
D17*
X91868000Y-78613000D02*
X89455000Y-76200000D01*
X95504000Y-78613000D02*
X91868000Y-78613000D01*
D16*
%TO.N,/servo1.1*%
X102004000Y-86571500D02*
X102004000Y-84686000D01*
X102004000Y-84686000D02*
X103505000Y-83185000D01*
X103505000Y-83185000D02*
X106045000Y-83185000D01*
D18*
X106045000Y-83185000D02*
X113030000Y-83185000D01*
X113030000Y-83185000D02*
X114808000Y-81407000D01*
X114808000Y-78112000D02*
X116920000Y-76000000D01*
X114808000Y-81407000D02*
X114808000Y-78112000D01*
D16*
%TO.N,/servo1.2*%
X102654000Y-86571500D02*
X102654000Y-85179000D01*
X102654000Y-85179000D02*
X103759000Y-84074000D01*
X103759000Y-84074000D02*
X106553000Y-84074000D01*
D18*
X114846000Y-84074000D02*
X116920000Y-82000000D01*
X106553000Y-84074000D02*
X114846000Y-84074000D01*
D16*
%TO.N,/servo1.3*%
X103304000Y-86571500D02*
X103304000Y-85545000D01*
X103304000Y-85545000D02*
X103886000Y-84963000D01*
X103886000Y-84963000D02*
X106299000Y-84963000D01*
D18*
X116920000Y-86567000D02*
X116920000Y-88000000D01*
X115316000Y-84963000D02*
X116920000Y-86567000D01*
X106299000Y-84963000D02*
X115316000Y-84963000D01*
D16*
%TO.N,/servoFlag*%
X103954000Y-86571500D02*
X103954000Y-87816000D01*
X103954000Y-87816000D02*
X103314500Y-88455500D01*
D18*
X101092000Y-92964000D02*
X88900000Y-92964000D01*
X103314500Y-90741500D02*
X101092000Y-92964000D01*
X103314500Y-88455500D02*
X103314500Y-90741500D01*
D16*
%TO.N,/servoManche*%
X104604000Y-86571500D02*
X104604000Y-88563000D01*
D18*
X106934000Y-93091000D02*
X108460000Y-93091000D01*
X104604000Y-90761000D02*
X106934000Y-93091000D01*
X104604000Y-88563000D02*
X104604000Y-90761000D01*
D16*
%TO.N,/servo2.1*%
X100054000Y-86571500D02*
X100054000Y-87525000D01*
X100054000Y-87525000D02*
X98425000Y-89154000D01*
X98425000Y-89154000D02*
X97282000Y-89154000D01*
D18*
X97282000Y-89154000D02*
X95631000Y-89154000D01*
X95631000Y-89154000D02*
X95631000Y-89154000D01*
X78232000Y-78232000D02*
X78232000Y-76000000D01*
X78740000Y-78740000D02*
X78232000Y-78232000D01*
X80264000Y-78740000D02*
X78740000Y-78740000D01*
D16*
%TO.N,/servo2.2*%
X98552000Y-90170000D02*
X97282000Y-90170000D01*
X100654010Y-86797990D02*
X100654010Y-88067990D01*
X100704000Y-86748000D02*
X100654010Y-86797990D01*
X100704000Y-86571500D02*
X100704000Y-86748000D01*
X100654010Y-88067990D02*
X98552000Y-90170000D01*
D18*
X80391000Y-84159000D02*
X78232000Y-82000000D01*
X80391000Y-87884000D02*
X80391000Y-84159000D01*
X82677000Y-90170000D02*
X80391000Y-87884000D01*
X97282000Y-90170000D02*
X82677000Y-90170000D01*
D16*
%TO.N,/servo2.3*%
X101354000Y-87922084D02*
X101346000Y-87930084D01*
X101354000Y-86571500D02*
X101354000Y-87922084D01*
X101346000Y-87930084D02*
X101346000Y-88646000D01*
X101346000Y-88646000D02*
X98806000Y-91186000D01*
X98806000Y-91186000D02*
X97409000Y-91186000D01*
D18*
X97409000Y-91186000D02*
X80264000Y-91186000D01*
X78232000Y-89154000D02*
X78232000Y-88000000D01*
X80264000Y-91186000D02*
X78232000Y-89154000D01*
D16*
%TO.N,Net-(R2-Pad2)*%
X99404000Y-80846500D02*
X99404000Y-78576000D01*
X99404000Y-78576000D02*
X100256000Y-77724000D01*
X100256000Y-77724000D02*
X100711000Y-77724000D01*
D18*
X108887000Y-77724000D02*
X108903000Y-77740000D01*
X100711000Y-77724000D02*
X108887000Y-77724000D01*
X108903000Y-77740000D02*
X111443000Y-77740000D01*
%TD*%
M02*
