%TF.GenerationSoftware,KiCad,Pcbnew,5.1.6+dfsg1-1*%
%TF.CreationDate,2021-03-04T16:58:38+01:00*%
%TF.ProjectId,PCA9685,50434139-3638-4352-9e6b-696361645f70,rev?*%
%TF.SameCoordinates,Original*%
%TF.FileFunction,Copper,L2,Bot*%
%TF.FilePolarity,Positive*%
%FSLAX46Y46*%
G04 Gerber Fmt 4.6, Leading zero omitted, Abs format (unit mm)*
G04 Created by KiCad (PCBNEW 5.1.6+dfsg1-1) date 2021-03-04 16:58:38*
%MOMM*%
%LPD*%
G01*
G04 APERTURE LIST*
%TA.AperFunction,ComponentPad*%
%ADD10O,1.700000X1.700000*%
%TD*%
%TA.AperFunction,ComponentPad*%
%ADD11R,1.700000X1.700000*%
%TD*%
%TA.AperFunction,ComponentPad*%
%ADD12O,1.700000X1.950000*%
%TD*%
%TA.AperFunction,ComponentPad*%
%ADD13R,3.000000X3.000000*%
%TD*%
%TA.AperFunction,ComponentPad*%
%ADD14C,3.000000*%
%TD*%
%TA.AperFunction,ViaPad*%
%ADD15C,0.800000*%
%TD*%
%TA.AperFunction,Conductor*%
%ADD16C,0.600000*%
%TD*%
%TA.AperFunction,Conductor*%
%ADD17C,0.254000*%
%TD*%
G04 APERTURE END LIST*
D10*
%TO.P,J6,3*%
%TO.N,/servoFlag*%
X88900000Y-92964000D03*
%TO.P,J6,2*%
%TO.N,+5V*%
X86360000Y-92964000D03*
D11*
%TO.P,J6,1*%
%TO.N,GND*%
X83820000Y-92964000D03*
%TD*%
D10*
%TO.P,J10,3*%
%TO.N,/servo2.3*%
X78232000Y-88000000D03*
%TO.P,J10,2*%
%TO.N,+5V*%
X75692000Y-88000000D03*
D11*
%TO.P,J10,1*%
%TO.N,GND*%
X73152000Y-88000000D03*
%TD*%
D10*
%TO.P,J9,3*%
%TO.N,/servo2.2*%
X78232000Y-82000000D03*
%TO.P,J9,2*%
%TO.N,+5V*%
X75692000Y-82000000D03*
D11*
%TO.P,J9,1*%
%TO.N,GND*%
X73152000Y-82000000D03*
%TD*%
D10*
%TO.P,J8,3*%
%TO.N,/servo2.1*%
X78232000Y-76000000D03*
%TO.P,J8,2*%
%TO.N,+5V*%
X75692000Y-76000000D03*
D11*
%TO.P,J8,1*%
%TO.N,GND*%
X73152000Y-76000000D03*
%TD*%
D10*
%TO.P,J7,3*%
%TO.N,/servoManche*%
X108460000Y-93091000D03*
%TO.P,J7,2*%
%TO.N,+5V*%
X111000000Y-93091000D03*
D11*
%TO.P,J7,1*%
%TO.N,GND*%
X113540000Y-93091000D03*
%TD*%
D10*
%TO.P,J5,3*%
%TO.N,/servo1.3*%
X116920000Y-88000000D03*
%TO.P,J5,2*%
%TO.N,+5V*%
X119460000Y-88000000D03*
D11*
%TO.P,J5,1*%
%TO.N,GND*%
X122000000Y-88000000D03*
%TD*%
D10*
%TO.P,J4,3*%
%TO.N,/servo1.2*%
X116920000Y-82000000D03*
%TO.P,J4,2*%
%TO.N,+5V*%
X119460000Y-82000000D03*
D11*
%TO.P,J4,1*%
%TO.N,GND*%
X122000000Y-82000000D03*
%TD*%
D10*
%TO.P,J3,3*%
%TO.N,/servo1.1*%
X116920000Y-76000000D03*
%TO.P,J3,2*%
%TO.N,+5V*%
X119460000Y-76000000D03*
D11*
%TO.P,J3,1*%
%TO.N,GND*%
X122000000Y-76000000D03*
%TD*%
D12*
%TO.P,J2,4*%
%TO.N,/SCL*%
X91955000Y-76200000D03*
%TO.P,J2,3*%
%TO.N,/SDA*%
X89455000Y-76200000D03*
%TO.P,J2,2*%
%TO.N,GND*%
X86955000Y-76200000D03*
%TO.P,J2,1*%
%TO.N,+5V*%
%TA.AperFunction,ComponentPad*%
G36*
G01*
X83605000Y-76925000D02*
X83605000Y-75475000D01*
G75*
G02*
X83855000Y-75225000I250000J0D01*
G01*
X85055000Y-75225000D01*
G75*
G02*
X85305000Y-75475000I0J-250000D01*
G01*
X85305000Y-76925000D01*
G75*
G02*
X85055000Y-77175000I-250000J0D01*
G01*
X83855000Y-77175000D01*
G75*
G02*
X83605000Y-76925000I0J250000D01*
G01*
G37*
%TD.AperFunction*%
%TD*%
D13*
%TO.P,U1,4*%
%TO.N,GND*%
X123190000Y-71120000D03*
%TO.P,U1,2*%
X82550000Y-71120000D03*
%TO.P,U1,3*%
%TO.N,+5V*%
X123190000Y-53340000D03*
%TO.P,U1,1*%
%TO.N,+12V*%
X82550000Y-53340000D03*
%TD*%
D14*
%TO.P,J1,2*%
%TO.N,GND*%
X74930000Y-66080000D03*
D13*
%TO.P,J1,1*%
%TO.N,+12V*%
X74930000Y-61000000D03*
%TD*%
D15*
%TO.N,GND*%
X106299000Y-88519000D03*
X99250500Y-83629500D03*
X94107000Y-84836000D03*
X111443000Y-74104000D03*
%TO.N,/servo2.1*%
X95631000Y-89154000D03*
X80264000Y-78740000D03*
%TD*%
D16*
%TO.N,/servo2.1*%
X95631000Y-89154000D02*
X84074000Y-89154000D01*
X84074000Y-89154000D02*
X81026000Y-86106000D01*
X81026000Y-86106000D02*
X81026000Y-79502000D01*
X81026000Y-79502000D02*
X80264000Y-78740000D01*
X80264000Y-78740000D02*
X80264000Y-78740000D01*
%TD*%
D17*
%TO.N,GND*%
G36*
X80411928Y-54840000D02*
G01*
X80424188Y-54964482D01*
X80460498Y-55084180D01*
X80519463Y-55194494D01*
X80598815Y-55291185D01*
X80695506Y-55370537D01*
X80805820Y-55429502D01*
X80925518Y-55465812D01*
X81050000Y-55478072D01*
X84050000Y-55478072D01*
X84174482Y-55465812D01*
X84294180Y-55429502D01*
X84404494Y-55370537D01*
X84501185Y-55291185D01*
X84580537Y-55194494D01*
X84639502Y-55084180D01*
X84675812Y-54964482D01*
X84688072Y-54840000D01*
X84688072Y-52127000D01*
X121051928Y-52127000D01*
X121051928Y-54840000D01*
X121064188Y-54964482D01*
X121100498Y-55084180D01*
X121159463Y-55194494D01*
X121238815Y-55291185D01*
X121335506Y-55370537D01*
X121445820Y-55429502D01*
X121565518Y-55465812D01*
X121690000Y-55478072D01*
X124690000Y-55478072D01*
X124814482Y-55465812D01*
X124934180Y-55429502D01*
X125044494Y-55370537D01*
X125141185Y-55291185D01*
X125220537Y-55194494D01*
X125279502Y-55084180D01*
X125315812Y-54964482D01*
X125328072Y-54840000D01*
X125328072Y-52127000D01*
X127780250Y-52127000D01*
X127575271Y-52263962D01*
X127263962Y-52575271D01*
X127019369Y-52941331D01*
X126850890Y-53348075D01*
X126765000Y-53779872D01*
X126765000Y-54220128D01*
X126850890Y-54651925D01*
X127019369Y-55058669D01*
X127263962Y-55424729D01*
X127575271Y-55736038D01*
X127941331Y-55980631D01*
X128348075Y-56149110D01*
X128779872Y-56235000D01*
X129220128Y-56235000D01*
X129651925Y-56149110D01*
X130058669Y-55980631D01*
X130424729Y-55736038D01*
X130736038Y-55424729D01*
X130873000Y-55219750D01*
X130873000Y-90780250D01*
X130736038Y-90575271D01*
X130424729Y-90263962D01*
X130058669Y-90019369D01*
X129651925Y-89850890D01*
X129220128Y-89765000D01*
X128779872Y-89765000D01*
X128348075Y-89850890D01*
X127941331Y-90019369D01*
X127575271Y-90263962D01*
X127263962Y-90575271D01*
X127019369Y-90941331D01*
X126850890Y-91348075D01*
X126765000Y-91779872D01*
X126765000Y-92220128D01*
X126850890Y-92651925D01*
X127019369Y-93058669D01*
X127263962Y-93424729D01*
X127575271Y-93736038D01*
X127780250Y-93873000D01*
X115027702Y-93873000D01*
X115025000Y-93376750D01*
X114866250Y-93218000D01*
X113667000Y-93218000D01*
X113667000Y-93238000D01*
X113413000Y-93238000D01*
X113413000Y-93218000D01*
X113393000Y-93218000D01*
X113393000Y-92964000D01*
X113413000Y-92964000D01*
X113413000Y-91764750D01*
X113667000Y-91764750D01*
X113667000Y-92964000D01*
X114866250Y-92964000D01*
X115025000Y-92805250D01*
X115028072Y-92241000D01*
X115015812Y-92116518D01*
X114979502Y-91996820D01*
X114920537Y-91886506D01*
X114841185Y-91789815D01*
X114744494Y-91710463D01*
X114634180Y-91651498D01*
X114514482Y-91615188D01*
X114390000Y-91602928D01*
X113825750Y-91606000D01*
X113667000Y-91764750D01*
X113413000Y-91764750D01*
X113254250Y-91606000D01*
X112690000Y-91602928D01*
X112565518Y-91615188D01*
X112445820Y-91651498D01*
X112335506Y-91710463D01*
X112238815Y-91789815D01*
X112159463Y-91886506D01*
X112100498Y-91996820D01*
X112078487Y-92069380D01*
X111946632Y-91937525D01*
X111703411Y-91775010D01*
X111433158Y-91663068D01*
X111146260Y-91606000D01*
X110853740Y-91606000D01*
X110566842Y-91663068D01*
X110296589Y-91775010D01*
X110053368Y-91937525D01*
X109846525Y-92144368D01*
X109730000Y-92318760D01*
X109613475Y-92144368D01*
X109406632Y-91937525D01*
X109163411Y-91775010D01*
X108893158Y-91663068D01*
X108606260Y-91606000D01*
X108313740Y-91606000D01*
X108026842Y-91663068D01*
X107756589Y-91775010D01*
X107513368Y-91937525D01*
X107306525Y-92144368D01*
X107144010Y-92387589D01*
X107032068Y-92657842D01*
X106975000Y-92944740D01*
X106975000Y-93237260D01*
X107032068Y-93524158D01*
X107144010Y-93794411D01*
X107196521Y-93873000D01*
X90078620Y-93873000D01*
X90215990Y-93667411D01*
X90327932Y-93397158D01*
X90385000Y-93110260D01*
X90385000Y-92817740D01*
X90327932Y-92530842D01*
X90215990Y-92260589D01*
X90053475Y-92017368D01*
X89846632Y-91810525D01*
X89603411Y-91648010D01*
X89333158Y-91536068D01*
X89046260Y-91479000D01*
X88753740Y-91479000D01*
X88466842Y-91536068D01*
X88196589Y-91648010D01*
X87953368Y-91810525D01*
X87746525Y-92017368D01*
X87630000Y-92191760D01*
X87513475Y-92017368D01*
X87306632Y-91810525D01*
X87063411Y-91648010D01*
X86793158Y-91536068D01*
X86506260Y-91479000D01*
X86213740Y-91479000D01*
X85926842Y-91536068D01*
X85656589Y-91648010D01*
X85413368Y-91810525D01*
X85281513Y-91942380D01*
X85259502Y-91869820D01*
X85200537Y-91759506D01*
X85121185Y-91662815D01*
X85024494Y-91583463D01*
X84914180Y-91524498D01*
X84794482Y-91488188D01*
X84670000Y-91475928D01*
X84105750Y-91479000D01*
X83947000Y-91637750D01*
X83947000Y-92837000D01*
X83967000Y-92837000D01*
X83967000Y-93091000D01*
X83947000Y-93091000D01*
X83947000Y-93111000D01*
X83693000Y-93111000D01*
X83693000Y-93091000D01*
X82493750Y-93091000D01*
X82335000Y-93249750D01*
X82331928Y-93814000D01*
X82337739Y-93873000D01*
X68219750Y-93873000D01*
X68424729Y-93736038D01*
X68736038Y-93424729D01*
X68980631Y-93058669D01*
X69149110Y-92651925D01*
X69235000Y-92220128D01*
X69235000Y-92114000D01*
X82331928Y-92114000D01*
X82335000Y-92678250D01*
X82493750Y-92837000D01*
X83693000Y-92837000D01*
X83693000Y-91637750D01*
X83534250Y-91479000D01*
X82970000Y-91475928D01*
X82845518Y-91488188D01*
X82725820Y-91524498D01*
X82615506Y-91583463D01*
X82518815Y-91662815D01*
X82439463Y-91759506D01*
X82380498Y-91869820D01*
X82344188Y-91989518D01*
X82331928Y-92114000D01*
X69235000Y-92114000D01*
X69235000Y-91779872D01*
X69149110Y-91348075D01*
X68980631Y-90941331D01*
X68736038Y-90575271D01*
X68424729Y-90263962D01*
X68058669Y-90019369D01*
X67651925Y-89850890D01*
X67220128Y-89765000D01*
X66779872Y-89765000D01*
X66348075Y-89850890D01*
X65941331Y-90019369D01*
X65575271Y-90263962D01*
X65263962Y-90575271D01*
X65127000Y-90780250D01*
X65127000Y-88850000D01*
X71663928Y-88850000D01*
X71676188Y-88974482D01*
X71712498Y-89094180D01*
X71771463Y-89204494D01*
X71850815Y-89301185D01*
X71947506Y-89380537D01*
X72057820Y-89439502D01*
X72177518Y-89475812D01*
X72302000Y-89488072D01*
X72866250Y-89485000D01*
X73025000Y-89326250D01*
X73025000Y-88127000D01*
X71825750Y-88127000D01*
X71667000Y-88285750D01*
X71663928Y-88850000D01*
X65127000Y-88850000D01*
X65127000Y-87150000D01*
X71663928Y-87150000D01*
X71667000Y-87714250D01*
X71825750Y-87873000D01*
X73025000Y-87873000D01*
X73025000Y-86673750D01*
X73279000Y-86673750D01*
X73279000Y-87873000D01*
X73299000Y-87873000D01*
X73299000Y-88127000D01*
X73279000Y-88127000D01*
X73279000Y-89326250D01*
X73437750Y-89485000D01*
X74002000Y-89488072D01*
X74126482Y-89475812D01*
X74246180Y-89439502D01*
X74356494Y-89380537D01*
X74453185Y-89301185D01*
X74532537Y-89204494D01*
X74591502Y-89094180D01*
X74613513Y-89021620D01*
X74745368Y-89153475D01*
X74988589Y-89315990D01*
X75258842Y-89427932D01*
X75545740Y-89485000D01*
X75838260Y-89485000D01*
X76125158Y-89427932D01*
X76395411Y-89315990D01*
X76638632Y-89153475D01*
X76845475Y-88946632D01*
X76962000Y-88772240D01*
X77078525Y-88946632D01*
X77285368Y-89153475D01*
X77528589Y-89315990D01*
X77798842Y-89427932D01*
X78085740Y-89485000D01*
X78378260Y-89485000D01*
X78665158Y-89427932D01*
X78935411Y-89315990D01*
X79178632Y-89153475D01*
X79385475Y-88946632D01*
X79547990Y-88703411D01*
X79659932Y-88433158D01*
X79717000Y-88146260D01*
X79717000Y-87853740D01*
X79659932Y-87566842D01*
X79547990Y-87296589D01*
X79385475Y-87053368D01*
X79178632Y-86846525D01*
X78935411Y-86684010D01*
X78665158Y-86572068D01*
X78378260Y-86515000D01*
X78085740Y-86515000D01*
X77798842Y-86572068D01*
X77528589Y-86684010D01*
X77285368Y-86846525D01*
X77078525Y-87053368D01*
X76962000Y-87227760D01*
X76845475Y-87053368D01*
X76638632Y-86846525D01*
X76395411Y-86684010D01*
X76125158Y-86572068D01*
X75838260Y-86515000D01*
X75545740Y-86515000D01*
X75258842Y-86572068D01*
X74988589Y-86684010D01*
X74745368Y-86846525D01*
X74613513Y-86978380D01*
X74591502Y-86905820D01*
X74532537Y-86795506D01*
X74453185Y-86698815D01*
X74356494Y-86619463D01*
X74246180Y-86560498D01*
X74126482Y-86524188D01*
X74002000Y-86511928D01*
X73437750Y-86515000D01*
X73279000Y-86673750D01*
X73025000Y-86673750D01*
X72866250Y-86515000D01*
X72302000Y-86511928D01*
X72177518Y-86524188D01*
X72057820Y-86560498D01*
X71947506Y-86619463D01*
X71850815Y-86698815D01*
X71771463Y-86795506D01*
X71712498Y-86905820D01*
X71676188Y-87025518D01*
X71663928Y-87150000D01*
X65127000Y-87150000D01*
X65127000Y-82850000D01*
X71663928Y-82850000D01*
X71676188Y-82974482D01*
X71712498Y-83094180D01*
X71771463Y-83204494D01*
X71850815Y-83301185D01*
X71947506Y-83380537D01*
X72057820Y-83439502D01*
X72177518Y-83475812D01*
X72302000Y-83488072D01*
X72866250Y-83485000D01*
X73025000Y-83326250D01*
X73025000Y-82127000D01*
X71825750Y-82127000D01*
X71667000Y-82285750D01*
X71663928Y-82850000D01*
X65127000Y-82850000D01*
X65127000Y-81150000D01*
X71663928Y-81150000D01*
X71667000Y-81714250D01*
X71825750Y-81873000D01*
X73025000Y-81873000D01*
X73025000Y-80673750D01*
X73279000Y-80673750D01*
X73279000Y-81873000D01*
X73299000Y-81873000D01*
X73299000Y-82127000D01*
X73279000Y-82127000D01*
X73279000Y-83326250D01*
X73437750Y-83485000D01*
X74002000Y-83488072D01*
X74126482Y-83475812D01*
X74246180Y-83439502D01*
X74356494Y-83380537D01*
X74453185Y-83301185D01*
X74532537Y-83204494D01*
X74591502Y-83094180D01*
X74613513Y-83021620D01*
X74745368Y-83153475D01*
X74988589Y-83315990D01*
X75258842Y-83427932D01*
X75545740Y-83485000D01*
X75838260Y-83485000D01*
X76125158Y-83427932D01*
X76395411Y-83315990D01*
X76638632Y-83153475D01*
X76845475Y-82946632D01*
X76962000Y-82772240D01*
X77078525Y-82946632D01*
X77285368Y-83153475D01*
X77528589Y-83315990D01*
X77798842Y-83427932D01*
X78085740Y-83485000D01*
X78378260Y-83485000D01*
X78665158Y-83427932D01*
X78935411Y-83315990D01*
X79178632Y-83153475D01*
X79385475Y-82946632D01*
X79547990Y-82703411D01*
X79659932Y-82433158D01*
X79717000Y-82146260D01*
X79717000Y-81853740D01*
X79659932Y-81566842D01*
X79547990Y-81296589D01*
X79385475Y-81053368D01*
X79178632Y-80846525D01*
X78935411Y-80684010D01*
X78665158Y-80572068D01*
X78378260Y-80515000D01*
X78085740Y-80515000D01*
X77798842Y-80572068D01*
X77528589Y-80684010D01*
X77285368Y-80846525D01*
X77078525Y-81053368D01*
X76962000Y-81227760D01*
X76845475Y-81053368D01*
X76638632Y-80846525D01*
X76395411Y-80684010D01*
X76125158Y-80572068D01*
X75838260Y-80515000D01*
X75545740Y-80515000D01*
X75258842Y-80572068D01*
X74988589Y-80684010D01*
X74745368Y-80846525D01*
X74613513Y-80978380D01*
X74591502Y-80905820D01*
X74532537Y-80795506D01*
X74453185Y-80698815D01*
X74356494Y-80619463D01*
X74246180Y-80560498D01*
X74126482Y-80524188D01*
X74002000Y-80511928D01*
X73437750Y-80515000D01*
X73279000Y-80673750D01*
X73025000Y-80673750D01*
X72866250Y-80515000D01*
X72302000Y-80511928D01*
X72177518Y-80524188D01*
X72057820Y-80560498D01*
X71947506Y-80619463D01*
X71850815Y-80698815D01*
X71771463Y-80795506D01*
X71712498Y-80905820D01*
X71676188Y-81025518D01*
X71663928Y-81150000D01*
X65127000Y-81150000D01*
X65127000Y-78638061D01*
X79229000Y-78638061D01*
X79229000Y-78841939D01*
X79268774Y-79041898D01*
X79346795Y-79230256D01*
X79460063Y-79399774D01*
X79604226Y-79543937D01*
X79773744Y-79657205D01*
X79919142Y-79717431D01*
X80091001Y-79889290D01*
X80091000Y-86060068D01*
X80086476Y-86106000D01*
X80091000Y-86151931D01*
X80104529Y-86289291D01*
X80157993Y-86465539D01*
X80244814Y-86627971D01*
X80361656Y-86770344D01*
X80397341Y-86799630D01*
X83380370Y-89782659D01*
X83409656Y-89818344D01*
X83552028Y-89935186D01*
X83714460Y-90022007D01*
X83876645Y-90071205D01*
X83890708Y-90075471D01*
X84074000Y-90093524D01*
X84119932Y-90089000D01*
X95183705Y-90089000D01*
X95329102Y-90149226D01*
X95529061Y-90189000D01*
X95732939Y-90189000D01*
X95932898Y-90149226D01*
X96121256Y-90071205D01*
X96290774Y-89957937D01*
X96434937Y-89813774D01*
X96548205Y-89644256D01*
X96626226Y-89455898D01*
X96666000Y-89255939D01*
X96666000Y-89052061D01*
X96626226Y-88852102D01*
X96548205Y-88663744D01*
X96434937Y-88494226D01*
X96290774Y-88350063D01*
X96121256Y-88236795D01*
X95932898Y-88158774D01*
X95732939Y-88119000D01*
X95529061Y-88119000D01*
X95329102Y-88158774D01*
X95183705Y-88219000D01*
X84461289Y-88219000D01*
X84096029Y-87853740D01*
X115435000Y-87853740D01*
X115435000Y-88146260D01*
X115492068Y-88433158D01*
X115604010Y-88703411D01*
X115766525Y-88946632D01*
X115973368Y-89153475D01*
X116216589Y-89315990D01*
X116486842Y-89427932D01*
X116773740Y-89485000D01*
X117066260Y-89485000D01*
X117353158Y-89427932D01*
X117623411Y-89315990D01*
X117866632Y-89153475D01*
X118073475Y-88946632D01*
X118190000Y-88772240D01*
X118306525Y-88946632D01*
X118513368Y-89153475D01*
X118756589Y-89315990D01*
X119026842Y-89427932D01*
X119313740Y-89485000D01*
X119606260Y-89485000D01*
X119893158Y-89427932D01*
X120163411Y-89315990D01*
X120406632Y-89153475D01*
X120538487Y-89021620D01*
X120560498Y-89094180D01*
X120619463Y-89204494D01*
X120698815Y-89301185D01*
X120795506Y-89380537D01*
X120905820Y-89439502D01*
X121025518Y-89475812D01*
X121150000Y-89488072D01*
X121714250Y-89485000D01*
X121873000Y-89326250D01*
X121873000Y-88127000D01*
X122127000Y-88127000D01*
X122127000Y-89326250D01*
X122285750Y-89485000D01*
X122850000Y-89488072D01*
X122974482Y-89475812D01*
X123094180Y-89439502D01*
X123204494Y-89380537D01*
X123301185Y-89301185D01*
X123380537Y-89204494D01*
X123439502Y-89094180D01*
X123475812Y-88974482D01*
X123488072Y-88850000D01*
X123485000Y-88285750D01*
X123326250Y-88127000D01*
X122127000Y-88127000D01*
X121873000Y-88127000D01*
X121853000Y-88127000D01*
X121853000Y-87873000D01*
X121873000Y-87873000D01*
X121873000Y-86673750D01*
X122127000Y-86673750D01*
X122127000Y-87873000D01*
X123326250Y-87873000D01*
X123485000Y-87714250D01*
X123488072Y-87150000D01*
X123475812Y-87025518D01*
X123439502Y-86905820D01*
X123380537Y-86795506D01*
X123301185Y-86698815D01*
X123204494Y-86619463D01*
X123094180Y-86560498D01*
X122974482Y-86524188D01*
X122850000Y-86511928D01*
X122285750Y-86515000D01*
X122127000Y-86673750D01*
X121873000Y-86673750D01*
X121714250Y-86515000D01*
X121150000Y-86511928D01*
X121025518Y-86524188D01*
X120905820Y-86560498D01*
X120795506Y-86619463D01*
X120698815Y-86698815D01*
X120619463Y-86795506D01*
X120560498Y-86905820D01*
X120538487Y-86978380D01*
X120406632Y-86846525D01*
X120163411Y-86684010D01*
X119893158Y-86572068D01*
X119606260Y-86515000D01*
X119313740Y-86515000D01*
X119026842Y-86572068D01*
X118756589Y-86684010D01*
X118513368Y-86846525D01*
X118306525Y-87053368D01*
X118190000Y-87227760D01*
X118073475Y-87053368D01*
X117866632Y-86846525D01*
X117623411Y-86684010D01*
X117353158Y-86572068D01*
X117066260Y-86515000D01*
X116773740Y-86515000D01*
X116486842Y-86572068D01*
X116216589Y-86684010D01*
X115973368Y-86846525D01*
X115766525Y-87053368D01*
X115604010Y-87296589D01*
X115492068Y-87566842D01*
X115435000Y-87853740D01*
X84096029Y-87853740D01*
X81961000Y-85718711D01*
X81961000Y-81853740D01*
X115435000Y-81853740D01*
X115435000Y-82146260D01*
X115492068Y-82433158D01*
X115604010Y-82703411D01*
X115766525Y-82946632D01*
X115973368Y-83153475D01*
X116216589Y-83315990D01*
X116486842Y-83427932D01*
X116773740Y-83485000D01*
X117066260Y-83485000D01*
X117353158Y-83427932D01*
X117623411Y-83315990D01*
X117866632Y-83153475D01*
X118073475Y-82946632D01*
X118190000Y-82772240D01*
X118306525Y-82946632D01*
X118513368Y-83153475D01*
X118756589Y-83315990D01*
X119026842Y-83427932D01*
X119313740Y-83485000D01*
X119606260Y-83485000D01*
X119893158Y-83427932D01*
X120163411Y-83315990D01*
X120406632Y-83153475D01*
X120538487Y-83021620D01*
X120560498Y-83094180D01*
X120619463Y-83204494D01*
X120698815Y-83301185D01*
X120795506Y-83380537D01*
X120905820Y-83439502D01*
X121025518Y-83475812D01*
X121150000Y-83488072D01*
X121714250Y-83485000D01*
X121873000Y-83326250D01*
X121873000Y-82127000D01*
X122127000Y-82127000D01*
X122127000Y-83326250D01*
X122285750Y-83485000D01*
X122850000Y-83488072D01*
X122974482Y-83475812D01*
X123094180Y-83439502D01*
X123204494Y-83380537D01*
X123301185Y-83301185D01*
X123380537Y-83204494D01*
X123439502Y-83094180D01*
X123475812Y-82974482D01*
X123488072Y-82850000D01*
X123485000Y-82285750D01*
X123326250Y-82127000D01*
X122127000Y-82127000D01*
X121873000Y-82127000D01*
X121853000Y-82127000D01*
X121853000Y-81873000D01*
X121873000Y-81873000D01*
X121873000Y-80673750D01*
X122127000Y-80673750D01*
X122127000Y-81873000D01*
X123326250Y-81873000D01*
X123485000Y-81714250D01*
X123488072Y-81150000D01*
X123475812Y-81025518D01*
X123439502Y-80905820D01*
X123380537Y-80795506D01*
X123301185Y-80698815D01*
X123204494Y-80619463D01*
X123094180Y-80560498D01*
X122974482Y-80524188D01*
X122850000Y-80511928D01*
X122285750Y-80515000D01*
X122127000Y-80673750D01*
X121873000Y-80673750D01*
X121714250Y-80515000D01*
X121150000Y-80511928D01*
X121025518Y-80524188D01*
X120905820Y-80560498D01*
X120795506Y-80619463D01*
X120698815Y-80698815D01*
X120619463Y-80795506D01*
X120560498Y-80905820D01*
X120538487Y-80978380D01*
X120406632Y-80846525D01*
X120163411Y-80684010D01*
X119893158Y-80572068D01*
X119606260Y-80515000D01*
X119313740Y-80515000D01*
X119026842Y-80572068D01*
X118756589Y-80684010D01*
X118513368Y-80846525D01*
X118306525Y-81053368D01*
X118190000Y-81227760D01*
X118073475Y-81053368D01*
X117866632Y-80846525D01*
X117623411Y-80684010D01*
X117353158Y-80572068D01*
X117066260Y-80515000D01*
X116773740Y-80515000D01*
X116486842Y-80572068D01*
X116216589Y-80684010D01*
X115973368Y-80846525D01*
X115766525Y-81053368D01*
X115604010Y-81296589D01*
X115492068Y-81566842D01*
X115435000Y-81853740D01*
X81961000Y-81853740D01*
X81961000Y-79547935D01*
X81965524Y-79502000D01*
X81947472Y-79318708D01*
X81915959Y-79214828D01*
X81894007Y-79142460D01*
X81807186Y-78980028D01*
X81690344Y-78837656D01*
X81654659Y-78808370D01*
X81241431Y-78395142D01*
X81181205Y-78249744D01*
X81067937Y-78080226D01*
X80923774Y-77936063D01*
X80754256Y-77822795D01*
X80565898Y-77744774D01*
X80365939Y-77705000D01*
X80162061Y-77705000D01*
X79962102Y-77744774D01*
X79773744Y-77822795D01*
X79604226Y-77936063D01*
X79460063Y-78080226D01*
X79346795Y-78249744D01*
X79268774Y-78438102D01*
X79229000Y-78638061D01*
X65127000Y-78638061D01*
X65127000Y-76850000D01*
X71663928Y-76850000D01*
X71676188Y-76974482D01*
X71712498Y-77094180D01*
X71771463Y-77204494D01*
X71850815Y-77301185D01*
X71947506Y-77380537D01*
X72057820Y-77439502D01*
X72177518Y-77475812D01*
X72302000Y-77488072D01*
X72866250Y-77485000D01*
X73025000Y-77326250D01*
X73025000Y-76127000D01*
X71825750Y-76127000D01*
X71667000Y-76285750D01*
X71663928Y-76850000D01*
X65127000Y-76850000D01*
X65127000Y-75150000D01*
X71663928Y-75150000D01*
X71667000Y-75714250D01*
X71825750Y-75873000D01*
X73025000Y-75873000D01*
X73025000Y-74673750D01*
X73279000Y-74673750D01*
X73279000Y-75873000D01*
X73299000Y-75873000D01*
X73299000Y-76127000D01*
X73279000Y-76127000D01*
X73279000Y-77326250D01*
X73437750Y-77485000D01*
X74002000Y-77488072D01*
X74126482Y-77475812D01*
X74246180Y-77439502D01*
X74356494Y-77380537D01*
X74453185Y-77301185D01*
X74532537Y-77204494D01*
X74591502Y-77094180D01*
X74613513Y-77021620D01*
X74745368Y-77153475D01*
X74988589Y-77315990D01*
X75258842Y-77427932D01*
X75545740Y-77485000D01*
X75838260Y-77485000D01*
X76125158Y-77427932D01*
X76395411Y-77315990D01*
X76638632Y-77153475D01*
X76845475Y-76946632D01*
X76962000Y-76772240D01*
X77078525Y-76946632D01*
X77285368Y-77153475D01*
X77528589Y-77315990D01*
X77798842Y-77427932D01*
X78085740Y-77485000D01*
X78378260Y-77485000D01*
X78665158Y-77427932D01*
X78935411Y-77315990D01*
X79178632Y-77153475D01*
X79385475Y-76946632D01*
X79547990Y-76703411D01*
X79659932Y-76433158D01*
X79717000Y-76146260D01*
X79717000Y-75853740D01*
X79659932Y-75566842D01*
X79621890Y-75475000D01*
X82966928Y-75475000D01*
X82966928Y-76925000D01*
X82983992Y-77098254D01*
X83034528Y-77264850D01*
X83116595Y-77418386D01*
X83227038Y-77552962D01*
X83361614Y-77663405D01*
X83515150Y-77745472D01*
X83681746Y-77796008D01*
X83855000Y-77813072D01*
X85055000Y-77813072D01*
X85228254Y-77796008D01*
X85394850Y-77745472D01*
X85548386Y-77663405D01*
X85682962Y-77552962D01*
X85793405Y-77418386D01*
X85849714Y-77313039D01*
X85865951Y-77334429D01*
X86083807Y-77527496D01*
X86335142Y-77674352D01*
X86598110Y-77766476D01*
X86828000Y-77645155D01*
X86828000Y-76327000D01*
X86808000Y-76327000D01*
X86808000Y-76073000D01*
X86828000Y-76073000D01*
X86828000Y-74754845D01*
X87082000Y-74754845D01*
X87082000Y-76073000D01*
X87102000Y-76073000D01*
X87102000Y-76327000D01*
X87082000Y-76327000D01*
X87082000Y-77645155D01*
X87311890Y-77766476D01*
X87574858Y-77674352D01*
X87826193Y-77527496D01*
X88044049Y-77334429D01*
X88200538Y-77128278D01*
X88214294Y-77154014D01*
X88399866Y-77380134D01*
X88625987Y-77565706D01*
X88883967Y-77703599D01*
X89163890Y-77788513D01*
X89455000Y-77817185D01*
X89746111Y-77788513D01*
X90026034Y-77703599D01*
X90284014Y-77565706D01*
X90510134Y-77380134D01*
X90695706Y-77154014D01*
X90705000Y-77136626D01*
X90714294Y-77154014D01*
X90899866Y-77380134D01*
X91125987Y-77565706D01*
X91383967Y-77703599D01*
X91663890Y-77788513D01*
X91955000Y-77817185D01*
X92246111Y-77788513D01*
X92526034Y-77703599D01*
X92784014Y-77565706D01*
X93010134Y-77380134D01*
X93195706Y-77154014D01*
X93333599Y-76896033D01*
X93418513Y-76616110D01*
X93440000Y-76397949D01*
X93440000Y-76002050D01*
X93425393Y-75853740D01*
X115435000Y-75853740D01*
X115435000Y-76146260D01*
X115492068Y-76433158D01*
X115604010Y-76703411D01*
X115766525Y-76946632D01*
X115973368Y-77153475D01*
X116216589Y-77315990D01*
X116486842Y-77427932D01*
X116773740Y-77485000D01*
X117066260Y-77485000D01*
X117353158Y-77427932D01*
X117623411Y-77315990D01*
X117866632Y-77153475D01*
X118073475Y-76946632D01*
X118190000Y-76772240D01*
X118306525Y-76946632D01*
X118513368Y-77153475D01*
X118756589Y-77315990D01*
X119026842Y-77427932D01*
X119313740Y-77485000D01*
X119606260Y-77485000D01*
X119893158Y-77427932D01*
X120163411Y-77315990D01*
X120406632Y-77153475D01*
X120538487Y-77021620D01*
X120560498Y-77094180D01*
X120619463Y-77204494D01*
X120698815Y-77301185D01*
X120795506Y-77380537D01*
X120905820Y-77439502D01*
X121025518Y-77475812D01*
X121150000Y-77488072D01*
X121714250Y-77485000D01*
X121873000Y-77326250D01*
X121873000Y-76127000D01*
X122127000Y-76127000D01*
X122127000Y-77326250D01*
X122285750Y-77485000D01*
X122850000Y-77488072D01*
X122974482Y-77475812D01*
X123094180Y-77439502D01*
X123204494Y-77380537D01*
X123301185Y-77301185D01*
X123380537Y-77204494D01*
X123439502Y-77094180D01*
X123475812Y-76974482D01*
X123488072Y-76850000D01*
X123485000Y-76285750D01*
X123326250Y-76127000D01*
X122127000Y-76127000D01*
X121873000Y-76127000D01*
X121853000Y-76127000D01*
X121853000Y-75873000D01*
X121873000Y-75873000D01*
X121873000Y-74673750D01*
X122127000Y-74673750D01*
X122127000Y-75873000D01*
X123326250Y-75873000D01*
X123485000Y-75714250D01*
X123488072Y-75150000D01*
X123475812Y-75025518D01*
X123439502Y-74905820D01*
X123380537Y-74795506D01*
X123301185Y-74698815D01*
X123204494Y-74619463D01*
X123094180Y-74560498D01*
X122974482Y-74524188D01*
X122850000Y-74511928D01*
X122285750Y-74515000D01*
X122127000Y-74673750D01*
X121873000Y-74673750D01*
X121714250Y-74515000D01*
X121150000Y-74511928D01*
X121025518Y-74524188D01*
X120905820Y-74560498D01*
X120795506Y-74619463D01*
X120698815Y-74698815D01*
X120619463Y-74795506D01*
X120560498Y-74905820D01*
X120538487Y-74978380D01*
X120406632Y-74846525D01*
X120163411Y-74684010D01*
X119893158Y-74572068D01*
X119606260Y-74515000D01*
X119313740Y-74515000D01*
X119026842Y-74572068D01*
X118756589Y-74684010D01*
X118513368Y-74846525D01*
X118306525Y-75053368D01*
X118190000Y-75227760D01*
X118073475Y-75053368D01*
X117866632Y-74846525D01*
X117623411Y-74684010D01*
X117353158Y-74572068D01*
X117066260Y-74515000D01*
X116773740Y-74515000D01*
X116486842Y-74572068D01*
X116216589Y-74684010D01*
X115973368Y-74846525D01*
X115766525Y-75053368D01*
X115604010Y-75296589D01*
X115492068Y-75566842D01*
X115435000Y-75853740D01*
X93425393Y-75853740D01*
X93418513Y-75783889D01*
X93333599Y-75503966D01*
X93195706Y-75245986D01*
X93010134Y-75019866D01*
X92784013Y-74834294D01*
X92526033Y-74696401D01*
X92246110Y-74611487D01*
X91955000Y-74582815D01*
X91663889Y-74611487D01*
X91383966Y-74696401D01*
X91125986Y-74834294D01*
X90899866Y-75019866D01*
X90714294Y-75245987D01*
X90705000Y-75263374D01*
X90695706Y-75245986D01*
X90510134Y-75019866D01*
X90284013Y-74834294D01*
X90026033Y-74696401D01*
X89746110Y-74611487D01*
X89455000Y-74582815D01*
X89163889Y-74611487D01*
X88883966Y-74696401D01*
X88625986Y-74834294D01*
X88399866Y-75019866D01*
X88214294Y-75245987D01*
X88200538Y-75271722D01*
X88044049Y-75065571D01*
X87826193Y-74872504D01*
X87574858Y-74725648D01*
X87311890Y-74633524D01*
X87082000Y-74754845D01*
X86828000Y-74754845D01*
X86598110Y-74633524D01*
X86335142Y-74725648D01*
X86083807Y-74872504D01*
X85865951Y-75065571D01*
X85849714Y-75086961D01*
X85793405Y-74981614D01*
X85682962Y-74847038D01*
X85548386Y-74736595D01*
X85394850Y-74654528D01*
X85228254Y-74603992D01*
X85055000Y-74586928D01*
X83855000Y-74586928D01*
X83681746Y-74603992D01*
X83515150Y-74654528D01*
X83361614Y-74736595D01*
X83227038Y-74847038D01*
X83116595Y-74981614D01*
X83034528Y-75135150D01*
X82983992Y-75301746D01*
X82966928Y-75475000D01*
X79621890Y-75475000D01*
X79547990Y-75296589D01*
X79385475Y-75053368D01*
X79178632Y-74846525D01*
X78935411Y-74684010D01*
X78665158Y-74572068D01*
X78378260Y-74515000D01*
X78085740Y-74515000D01*
X77798842Y-74572068D01*
X77528589Y-74684010D01*
X77285368Y-74846525D01*
X77078525Y-75053368D01*
X76962000Y-75227760D01*
X76845475Y-75053368D01*
X76638632Y-74846525D01*
X76395411Y-74684010D01*
X76125158Y-74572068D01*
X75838260Y-74515000D01*
X75545740Y-74515000D01*
X75258842Y-74572068D01*
X74988589Y-74684010D01*
X74745368Y-74846525D01*
X74613513Y-74978380D01*
X74591502Y-74905820D01*
X74532537Y-74795506D01*
X74453185Y-74698815D01*
X74356494Y-74619463D01*
X74246180Y-74560498D01*
X74126482Y-74524188D01*
X74002000Y-74511928D01*
X73437750Y-74515000D01*
X73279000Y-74673750D01*
X73025000Y-74673750D01*
X72866250Y-74515000D01*
X72302000Y-74511928D01*
X72177518Y-74524188D01*
X72057820Y-74560498D01*
X71947506Y-74619463D01*
X71850815Y-74698815D01*
X71771463Y-74795506D01*
X71712498Y-74905820D01*
X71676188Y-75025518D01*
X71663928Y-75150000D01*
X65127000Y-75150000D01*
X65127000Y-72620000D01*
X80411928Y-72620000D01*
X80424188Y-72744482D01*
X80460498Y-72864180D01*
X80519463Y-72974494D01*
X80598815Y-73071185D01*
X80695506Y-73150537D01*
X80805820Y-73209502D01*
X80925518Y-73245812D01*
X81050000Y-73258072D01*
X82264250Y-73255000D01*
X82423000Y-73096250D01*
X82423000Y-71247000D01*
X82677000Y-71247000D01*
X82677000Y-73096250D01*
X82835750Y-73255000D01*
X84050000Y-73258072D01*
X84174482Y-73245812D01*
X84294180Y-73209502D01*
X84404494Y-73150537D01*
X84501185Y-73071185D01*
X84580537Y-72974494D01*
X84639502Y-72864180D01*
X84675812Y-72744482D01*
X84688072Y-72620000D01*
X121051928Y-72620000D01*
X121064188Y-72744482D01*
X121100498Y-72864180D01*
X121159463Y-72974494D01*
X121238815Y-73071185D01*
X121335506Y-73150537D01*
X121445820Y-73209502D01*
X121565518Y-73245812D01*
X121690000Y-73258072D01*
X122904250Y-73255000D01*
X123063000Y-73096250D01*
X123063000Y-71247000D01*
X123317000Y-71247000D01*
X123317000Y-73096250D01*
X123475750Y-73255000D01*
X124690000Y-73258072D01*
X124814482Y-73245812D01*
X124934180Y-73209502D01*
X125044494Y-73150537D01*
X125141185Y-73071185D01*
X125220537Y-72974494D01*
X125279502Y-72864180D01*
X125315812Y-72744482D01*
X125328072Y-72620000D01*
X125325000Y-71405750D01*
X125166250Y-71247000D01*
X123317000Y-71247000D01*
X123063000Y-71247000D01*
X121213750Y-71247000D01*
X121055000Y-71405750D01*
X121051928Y-72620000D01*
X84688072Y-72620000D01*
X84685000Y-71405750D01*
X84526250Y-71247000D01*
X82677000Y-71247000D01*
X82423000Y-71247000D01*
X80573750Y-71247000D01*
X80415000Y-71405750D01*
X80411928Y-72620000D01*
X65127000Y-72620000D01*
X65127000Y-69620000D01*
X80411928Y-69620000D01*
X80415000Y-70834250D01*
X80573750Y-70993000D01*
X82423000Y-70993000D01*
X82423000Y-69143750D01*
X82677000Y-69143750D01*
X82677000Y-70993000D01*
X84526250Y-70993000D01*
X84685000Y-70834250D01*
X84688072Y-69620000D01*
X121051928Y-69620000D01*
X121055000Y-70834250D01*
X121213750Y-70993000D01*
X123063000Y-70993000D01*
X123063000Y-69143750D01*
X123317000Y-69143750D01*
X123317000Y-70993000D01*
X125166250Y-70993000D01*
X125325000Y-70834250D01*
X125328072Y-69620000D01*
X125315812Y-69495518D01*
X125279502Y-69375820D01*
X125220537Y-69265506D01*
X125141185Y-69168815D01*
X125044494Y-69089463D01*
X124934180Y-69030498D01*
X124814482Y-68994188D01*
X124690000Y-68981928D01*
X123475750Y-68985000D01*
X123317000Y-69143750D01*
X123063000Y-69143750D01*
X122904250Y-68985000D01*
X121690000Y-68981928D01*
X121565518Y-68994188D01*
X121445820Y-69030498D01*
X121335506Y-69089463D01*
X121238815Y-69168815D01*
X121159463Y-69265506D01*
X121100498Y-69375820D01*
X121064188Y-69495518D01*
X121051928Y-69620000D01*
X84688072Y-69620000D01*
X84675812Y-69495518D01*
X84639502Y-69375820D01*
X84580537Y-69265506D01*
X84501185Y-69168815D01*
X84404494Y-69089463D01*
X84294180Y-69030498D01*
X84174482Y-68994188D01*
X84050000Y-68981928D01*
X82835750Y-68985000D01*
X82677000Y-69143750D01*
X82423000Y-69143750D01*
X82264250Y-68985000D01*
X81050000Y-68981928D01*
X80925518Y-68994188D01*
X80805820Y-69030498D01*
X80695506Y-69089463D01*
X80598815Y-69168815D01*
X80519463Y-69265506D01*
X80460498Y-69375820D01*
X80424188Y-69495518D01*
X80411928Y-69620000D01*
X65127000Y-69620000D01*
X65127000Y-67571653D01*
X73617952Y-67571653D01*
X73773962Y-67887214D01*
X74148745Y-68078020D01*
X74553551Y-68192044D01*
X74972824Y-68224902D01*
X75390451Y-68175334D01*
X75790383Y-68045243D01*
X76086038Y-67887214D01*
X76242048Y-67571653D01*
X74930000Y-66259605D01*
X73617952Y-67571653D01*
X65127000Y-67571653D01*
X65127000Y-66122824D01*
X72785098Y-66122824D01*
X72834666Y-66540451D01*
X72964757Y-66940383D01*
X73122786Y-67236038D01*
X73438347Y-67392048D01*
X74750395Y-66080000D01*
X75109605Y-66080000D01*
X76421653Y-67392048D01*
X76737214Y-67236038D01*
X76928020Y-66861255D01*
X77042044Y-66456449D01*
X77074902Y-66037176D01*
X77025334Y-65619549D01*
X76895243Y-65219617D01*
X76737214Y-64923962D01*
X76421653Y-64767952D01*
X75109605Y-66080000D01*
X74750395Y-66080000D01*
X73438347Y-64767952D01*
X73122786Y-64923962D01*
X72931980Y-65298745D01*
X72817956Y-65703551D01*
X72785098Y-66122824D01*
X65127000Y-66122824D01*
X65127000Y-64588347D01*
X73617952Y-64588347D01*
X74930000Y-65900395D01*
X76242048Y-64588347D01*
X76086038Y-64272786D01*
X75711255Y-64081980D01*
X75306449Y-63967956D01*
X74887176Y-63935098D01*
X74469549Y-63984666D01*
X74069617Y-64114757D01*
X73773962Y-64272786D01*
X73617952Y-64588347D01*
X65127000Y-64588347D01*
X65127000Y-59500000D01*
X72791928Y-59500000D01*
X72791928Y-62500000D01*
X72804188Y-62624482D01*
X72840498Y-62744180D01*
X72899463Y-62854494D01*
X72978815Y-62951185D01*
X73075506Y-63030537D01*
X73185820Y-63089502D01*
X73305518Y-63125812D01*
X73430000Y-63138072D01*
X76430000Y-63138072D01*
X76554482Y-63125812D01*
X76674180Y-63089502D01*
X76784494Y-63030537D01*
X76881185Y-62951185D01*
X76960537Y-62854494D01*
X77019502Y-62744180D01*
X77055812Y-62624482D01*
X77068072Y-62500000D01*
X77068072Y-59500000D01*
X77055812Y-59375518D01*
X77019502Y-59255820D01*
X76960537Y-59145506D01*
X76881185Y-59048815D01*
X76784494Y-58969463D01*
X76674180Y-58910498D01*
X76554482Y-58874188D01*
X76430000Y-58861928D01*
X73430000Y-58861928D01*
X73305518Y-58874188D01*
X73185820Y-58910498D01*
X73075506Y-58969463D01*
X72978815Y-59048815D01*
X72899463Y-59145506D01*
X72840498Y-59255820D01*
X72804188Y-59375518D01*
X72791928Y-59500000D01*
X65127000Y-59500000D01*
X65127000Y-55219750D01*
X65263962Y-55424729D01*
X65575271Y-55736038D01*
X65941331Y-55980631D01*
X66348075Y-56149110D01*
X66779872Y-56235000D01*
X67220128Y-56235000D01*
X67651925Y-56149110D01*
X68058669Y-55980631D01*
X68424729Y-55736038D01*
X68736038Y-55424729D01*
X68980631Y-55058669D01*
X69149110Y-54651925D01*
X69235000Y-54220128D01*
X69235000Y-53779872D01*
X69149110Y-53348075D01*
X68980631Y-52941331D01*
X68736038Y-52575271D01*
X68424729Y-52263962D01*
X68219750Y-52127000D01*
X80411928Y-52127000D01*
X80411928Y-54840000D01*
G37*
X80411928Y-54840000D02*
X80424188Y-54964482D01*
X80460498Y-55084180D01*
X80519463Y-55194494D01*
X80598815Y-55291185D01*
X80695506Y-55370537D01*
X80805820Y-55429502D01*
X80925518Y-55465812D01*
X81050000Y-55478072D01*
X84050000Y-55478072D01*
X84174482Y-55465812D01*
X84294180Y-55429502D01*
X84404494Y-55370537D01*
X84501185Y-55291185D01*
X84580537Y-55194494D01*
X84639502Y-55084180D01*
X84675812Y-54964482D01*
X84688072Y-54840000D01*
X84688072Y-52127000D01*
X121051928Y-52127000D01*
X121051928Y-54840000D01*
X121064188Y-54964482D01*
X121100498Y-55084180D01*
X121159463Y-55194494D01*
X121238815Y-55291185D01*
X121335506Y-55370537D01*
X121445820Y-55429502D01*
X121565518Y-55465812D01*
X121690000Y-55478072D01*
X124690000Y-55478072D01*
X124814482Y-55465812D01*
X124934180Y-55429502D01*
X125044494Y-55370537D01*
X125141185Y-55291185D01*
X125220537Y-55194494D01*
X125279502Y-55084180D01*
X125315812Y-54964482D01*
X125328072Y-54840000D01*
X125328072Y-52127000D01*
X127780250Y-52127000D01*
X127575271Y-52263962D01*
X127263962Y-52575271D01*
X127019369Y-52941331D01*
X126850890Y-53348075D01*
X126765000Y-53779872D01*
X126765000Y-54220128D01*
X126850890Y-54651925D01*
X127019369Y-55058669D01*
X127263962Y-55424729D01*
X127575271Y-55736038D01*
X127941331Y-55980631D01*
X128348075Y-56149110D01*
X128779872Y-56235000D01*
X129220128Y-56235000D01*
X129651925Y-56149110D01*
X130058669Y-55980631D01*
X130424729Y-55736038D01*
X130736038Y-55424729D01*
X130873000Y-55219750D01*
X130873000Y-90780250D01*
X130736038Y-90575271D01*
X130424729Y-90263962D01*
X130058669Y-90019369D01*
X129651925Y-89850890D01*
X129220128Y-89765000D01*
X128779872Y-89765000D01*
X128348075Y-89850890D01*
X127941331Y-90019369D01*
X127575271Y-90263962D01*
X127263962Y-90575271D01*
X127019369Y-90941331D01*
X126850890Y-91348075D01*
X126765000Y-91779872D01*
X126765000Y-92220128D01*
X126850890Y-92651925D01*
X127019369Y-93058669D01*
X127263962Y-93424729D01*
X127575271Y-93736038D01*
X127780250Y-93873000D01*
X115027702Y-93873000D01*
X115025000Y-93376750D01*
X114866250Y-93218000D01*
X113667000Y-93218000D01*
X113667000Y-93238000D01*
X113413000Y-93238000D01*
X113413000Y-93218000D01*
X113393000Y-93218000D01*
X113393000Y-92964000D01*
X113413000Y-92964000D01*
X113413000Y-91764750D01*
X113667000Y-91764750D01*
X113667000Y-92964000D01*
X114866250Y-92964000D01*
X115025000Y-92805250D01*
X115028072Y-92241000D01*
X115015812Y-92116518D01*
X114979502Y-91996820D01*
X114920537Y-91886506D01*
X114841185Y-91789815D01*
X114744494Y-91710463D01*
X114634180Y-91651498D01*
X114514482Y-91615188D01*
X114390000Y-91602928D01*
X113825750Y-91606000D01*
X113667000Y-91764750D01*
X113413000Y-91764750D01*
X113254250Y-91606000D01*
X112690000Y-91602928D01*
X112565518Y-91615188D01*
X112445820Y-91651498D01*
X112335506Y-91710463D01*
X112238815Y-91789815D01*
X112159463Y-91886506D01*
X112100498Y-91996820D01*
X112078487Y-92069380D01*
X111946632Y-91937525D01*
X111703411Y-91775010D01*
X111433158Y-91663068D01*
X111146260Y-91606000D01*
X110853740Y-91606000D01*
X110566842Y-91663068D01*
X110296589Y-91775010D01*
X110053368Y-91937525D01*
X109846525Y-92144368D01*
X109730000Y-92318760D01*
X109613475Y-92144368D01*
X109406632Y-91937525D01*
X109163411Y-91775010D01*
X108893158Y-91663068D01*
X108606260Y-91606000D01*
X108313740Y-91606000D01*
X108026842Y-91663068D01*
X107756589Y-91775010D01*
X107513368Y-91937525D01*
X107306525Y-92144368D01*
X107144010Y-92387589D01*
X107032068Y-92657842D01*
X106975000Y-92944740D01*
X106975000Y-93237260D01*
X107032068Y-93524158D01*
X107144010Y-93794411D01*
X107196521Y-93873000D01*
X90078620Y-93873000D01*
X90215990Y-93667411D01*
X90327932Y-93397158D01*
X90385000Y-93110260D01*
X90385000Y-92817740D01*
X90327932Y-92530842D01*
X90215990Y-92260589D01*
X90053475Y-92017368D01*
X89846632Y-91810525D01*
X89603411Y-91648010D01*
X89333158Y-91536068D01*
X89046260Y-91479000D01*
X88753740Y-91479000D01*
X88466842Y-91536068D01*
X88196589Y-91648010D01*
X87953368Y-91810525D01*
X87746525Y-92017368D01*
X87630000Y-92191760D01*
X87513475Y-92017368D01*
X87306632Y-91810525D01*
X87063411Y-91648010D01*
X86793158Y-91536068D01*
X86506260Y-91479000D01*
X86213740Y-91479000D01*
X85926842Y-91536068D01*
X85656589Y-91648010D01*
X85413368Y-91810525D01*
X85281513Y-91942380D01*
X85259502Y-91869820D01*
X85200537Y-91759506D01*
X85121185Y-91662815D01*
X85024494Y-91583463D01*
X84914180Y-91524498D01*
X84794482Y-91488188D01*
X84670000Y-91475928D01*
X84105750Y-91479000D01*
X83947000Y-91637750D01*
X83947000Y-92837000D01*
X83967000Y-92837000D01*
X83967000Y-93091000D01*
X83947000Y-93091000D01*
X83947000Y-93111000D01*
X83693000Y-93111000D01*
X83693000Y-93091000D01*
X82493750Y-93091000D01*
X82335000Y-93249750D01*
X82331928Y-93814000D01*
X82337739Y-93873000D01*
X68219750Y-93873000D01*
X68424729Y-93736038D01*
X68736038Y-93424729D01*
X68980631Y-93058669D01*
X69149110Y-92651925D01*
X69235000Y-92220128D01*
X69235000Y-92114000D01*
X82331928Y-92114000D01*
X82335000Y-92678250D01*
X82493750Y-92837000D01*
X83693000Y-92837000D01*
X83693000Y-91637750D01*
X83534250Y-91479000D01*
X82970000Y-91475928D01*
X82845518Y-91488188D01*
X82725820Y-91524498D01*
X82615506Y-91583463D01*
X82518815Y-91662815D01*
X82439463Y-91759506D01*
X82380498Y-91869820D01*
X82344188Y-91989518D01*
X82331928Y-92114000D01*
X69235000Y-92114000D01*
X69235000Y-91779872D01*
X69149110Y-91348075D01*
X68980631Y-90941331D01*
X68736038Y-90575271D01*
X68424729Y-90263962D01*
X68058669Y-90019369D01*
X67651925Y-89850890D01*
X67220128Y-89765000D01*
X66779872Y-89765000D01*
X66348075Y-89850890D01*
X65941331Y-90019369D01*
X65575271Y-90263962D01*
X65263962Y-90575271D01*
X65127000Y-90780250D01*
X65127000Y-88850000D01*
X71663928Y-88850000D01*
X71676188Y-88974482D01*
X71712498Y-89094180D01*
X71771463Y-89204494D01*
X71850815Y-89301185D01*
X71947506Y-89380537D01*
X72057820Y-89439502D01*
X72177518Y-89475812D01*
X72302000Y-89488072D01*
X72866250Y-89485000D01*
X73025000Y-89326250D01*
X73025000Y-88127000D01*
X71825750Y-88127000D01*
X71667000Y-88285750D01*
X71663928Y-88850000D01*
X65127000Y-88850000D01*
X65127000Y-87150000D01*
X71663928Y-87150000D01*
X71667000Y-87714250D01*
X71825750Y-87873000D01*
X73025000Y-87873000D01*
X73025000Y-86673750D01*
X73279000Y-86673750D01*
X73279000Y-87873000D01*
X73299000Y-87873000D01*
X73299000Y-88127000D01*
X73279000Y-88127000D01*
X73279000Y-89326250D01*
X73437750Y-89485000D01*
X74002000Y-89488072D01*
X74126482Y-89475812D01*
X74246180Y-89439502D01*
X74356494Y-89380537D01*
X74453185Y-89301185D01*
X74532537Y-89204494D01*
X74591502Y-89094180D01*
X74613513Y-89021620D01*
X74745368Y-89153475D01*
X74988589Y-89315990D01*
X75258842Y-89427932D01*
X75545740Y-89485000D01*
X75838260Y-89485000D01*
X76125158Y-89427932D01*
X76395411Y-89315990D01*
X76638632Y-89153475D01*
X76845475Y-88946632D01*
X76962000Y-88772240D01*
X77078525Y-88946632D01*
X77285368Y-89153475D01*
X77528589Y-89315990D01*
X77798842Y-89427932D01*
X78085740Y-89485000D01*
X78378260Y-89485000D01*
X78665158Y-89427932D01*
X78935411Y-89315990D01*
X79178632Y-89153475D01*
X79385475Y-88946632D01*
X79547990Y-88703411D01*
X79659932Y-88433158D01*
X79717000Y-88146260D01*
X79717000Y-87853740D01*
X79659932Y-87566842D01*
X79547990Y-87296589D01*
X79385475Y-87053368D01*
X79178632Y-86846525D01*
X78935411Y-86684010D01*
X78665158Y-86572068D01*
X78378260Y-86515000D01*
X78085740Y-86515000D01*
X77798842Y-86572068D01*
X77528589Y-86684010D01*
X77285368Y-86846525D01*
X77078525Y-87053368D01*
X76962000Y-87227760D01*
X76845475Y-87053368D01*
X76638632Y-86846525D01*
X76395411Y-86684010D01*
X76125158Y-86572068D01*
X75838260Y-86515000D01*
X75545740Y-86515000D01*
X75258842Y-86572068D01*
X74988589Y-86684010D01*
X74745368Y-86846525D01*
X74613513Y-86978380D01*
X74591502Y-86905820D01*
X74532537Y-86795506D01*
X74453185Y-86698815D01*
X74356494Y-86619463D01*
X74246180Y-86560498D01*
X74126482Y-86524188D01*
X74002000Y-86511928D01*
X73437750Y-86515000D01*
X73279000Y-86673750D01*
X73025000Y-86673750D01*
X72866250Y-86515000D01*
X72302000Y-86511928D01*
X72177518Y-86524188D01*
X72057820Y-86560498D01*
X71947506Y-86619463D01*
X71850815Y-86698815D01*
X71771463Y-86795506D01*
X71712498Y-86905820D01*
X71676188Y-87025518D01*
X71663928Y-87150000D01*
X65127000Y-87150000D01*
X65127000Y-82850000D01*
X71663928Y-82850000D01*
X71676188Y-82974482D01*
X71712498Y-83094180D01*
X71771463Y-83204494D01*
X71850815Y-83301185D01*
X71947506Y-83380537D01*
X72057820Y-83439502D01*
X72177518Y-83475812D01*
X72302000Y-83488072D01*
X72866250Y-83485000D01*
X73025000Y-83326250D01*
X73025000Y-82127000D01*
X71825750Y-82127000D01*
X71667000Y-82285750D01*
X71663928Y-82850000D01*
X65127000Y-82850000D01*
X65127000Y-81150000D01*
X71663928Y-81150000D01*
X71667000Y-81714250D01*
X71825750Y-81873000D01*
X73025000Y-81873000D01*
X73025000Y-80673750D01*
X73279000Y-80673750D01*
X73279000Y-81873000D01*
X73299000Y-81873000D01*
X73299000Y-82127000D01*
X73279000Y-82127000D01*
X73279000Y-83326250D01*
X73437750Y-83485000D01*
X74002000Y-83488072D01*
X74126482Y-83475812D01*
X74246180Y-83439502D01*
X74356494Y-83380537D01*
X74453185Y-83301185D01*
X74532537Y-83204494D01*
X74591502Y-83094180D01*
X74613513Y-83021620D01*
X74745368Y-83153475D01*
X74988589Y-83315990D01*
X75258842Y-83427932D01*
X75545740Y-83485000D01*
X75838260Y-83485000D01*
X76125158Y-83427932D01*
X76395411Y-83315990D01*
X76638632Y-83153475D01*
X76845475Y-82946632D01*
X76962000Y-82772240D01*
X77078525Y-82946632D01*
X77285368Y-83153475D01*
X77528589Y-83315990D01*
X77798842Y-83427932D01*
X78085740Y-83485000D01*
X78378260Y-83485000D01*
X78665158Y-83427932D01*
X78935411Y-83315990D01*
X79178632Y-83153475D01*
X79385475Y-82946632D01*
X79547990Y-82703411D01*
X79659932Y-82433158D01*
X79717000Y-82146260D01*
X79717000Y-81853740D01*
X79659932Y-81566842D01*
X79547990Y-81296589D01*
X79385475Y-81053368D01*
X79178632Y-80846525D01*
X78935411Y-80684010D01*
X78665158Y-80572068D01*
X78378260Y-80515000D01*
X78085740Y-80515000D01*
X77798842Y-80572068D01*
X77528589Y-80684010D01*
X77285368Y-80846525D01*
X77078525Y-81053368D01*
X76962000Y-81227760D01*
X76845475Y-81053368D01*
X76638632Y-80846525D01*
X76395411Y-80684010D01*
X76125158Y-80572068D01*
X75838260Y-80515000D01*
X75545740Y-80515000D01*
X75258842Y-80572068D01*
X74988589Y-80684010D01*
X74745368Y-80846525D01*
X74613513Y-80978380D01*
X74591502Y-80905820D01*
X74532537Y-80795506D01*
X74453185Y-80698815D01*
X74356494Y-80619463D01*
X74246180Y-80560498D01*
X74126482Y-80524188D01*
X74002000Y-80511928D01*
X73437750Y-80515000D01*
X73279000Y-80673750D01*
X73025000Y-80673750D01*
X72866250Y-80515000D01*
X72302000Y-80511928D01*
X72177518Y-80524188D01*
X72057820Y-80560498D01*
X71947506Y-80619463D01*
X71850815Y-80698815D01*
X71771463Y-80795506D01*
X71712498Y-80905820D01*
X71676188Y-81025518D01*
X71663928Y-81150000D01*
X65127000Y-81150000D01*
X65127000Y-78638061D01*
X79229000Y-78638061D01*
X79229000Y-78841939D01*
X79268774Y-79041898D01*
X79346795Y-79230256D01*
X79460063Y-79399774D01*
X79604226Y-79543937D01*
X79773744Y-79657205D01*
X79919142Y-79717431D01*
X80091001Y-79889290D01*
X80091000Y-86060068D01*
X80086476Y-86106000D01*
X80091000Y-86151931D01*
X80104529Y-86289291D01*
X80157993Y-86465539D01*
X80244814Y-86627971D01*
X80361656Y-86770344D01*
X80397341Y-86799630D01*
X83380370Y-89782659D01*
X83409656Y-89818344D01*
X83552028Y-89935186D01*
X83714460Y-90022007D01*
X83876645Y-90071205D01*
X83890708Y-90075471D01*
X84074000Y-90093524D01*
X84119932Y-90089000D01*
X95183705Y-90089000D01*
X95329102Y-90149226D01*
X95529061Y-90189000D01*
X95732939Y-90189000D01*
X95932898Y-90149226D01*
X96121256Y-90071205D01*
X96290774Y-89957937D01*
X96434937Y-89813774D01*
X96548205Y-89644256D01*
X96626226Y-89455898D01*
X96666000Y-89255939D01*
X96666000Y-89052061D01*
X96626226Y-88852102D01*
X96548205Y-88663744D01*
X96434937Y-88494226D01*
X96290774Y-88350063D01*
X96121256Y-88236795D01*
X95932898Y-88158774D01*
X95732939Y-88119000D01*
X95529061Y-88119000D01*
X95329102Y-88158774D01*
X95183705Y-88219000D01*
X84461289Y-88219000D01*
X84096029Y-87853740D01*
X115435000Y-87853740D01*
X115435000Y-88146260D01*
X115492068Y-88433158D01*
X115604010Y-88703411D01*
X115766525Y-88946632D01*
X115973368Y-89153475D01*
X116216589Y-89315990D01*
X116486842Y-89427932D01*
X116773740Y-89485000D01*
X117066260Y-89485000D01*
X117353158Y-89427932D01*
X117623411Y-89315990D01*
X117866632Y-89153475D01*
X118073475Y-88946632D01*
X118190000Y-88772240D01*
X118306525Y-88946632D01*
X118513368Y-89153475D01*
X118756589Y-89315990D01*
X119026842Y-89427932D01*
X119313740Y-89485000D01*
X119606260Y-89485000D01*
X119893158Y-89427932D01*
X120163411Y-89315990D01*
X120406632Y-89153475D01*
X120538487Y-89021620D01*
X120560498Y-89094180D01*
X120619463Y-89204494D01*
X120698815Y-89301185D01*
X120795506Y-89380537D01*
X120905820Y-89439502D01*
X121025518Y-89475812D01*
X121150000Y-89488072D01*
X121714250Y-89485000D01*
X121873000Y-89326250D01*
X121873000Y-88127000D01*
X122127000Y-88127000D01*
X122127000Y-89326250D01*
X122285750Y-89485000D01*
X122850000Y-89488072D01*
X122974482Y-89475812D01*
X123094180Y-89439502D01*
X123204494Y-89380537D01*
X123301185Y-89301185D01*
X123380537Y-89204494D01*
X123439502Y-89094180D01*
X123475812Y-88974482D01*
X123488072Y-88850000D01*
X123485000Y-88285750D01*
X123326250Y-88127000D01*
X122127000Y-88127000D01*
X121873000Y-88127000D01*
X121853000Y-88127000D01*
X121853000Y-87873000D01*
X121873000Y-87873000D01*
X121873000Y-86673750D01*
X122127000Y-86673750D01*
X122127000Y-87873000D01*
X123326250Y-87873000D01*
X123485000Y-87714250D01*
X123488072Y-87150000D01*
X123475812Y-87025518D01*
X123439502Y-86905820D01*
X123380537Y-86795506D01*
X123301185Y-86698815D01*
X123204494Y-86619463D01*
X123094180Y-86560498D01*
X122974482Y-86524188D01*
X122850000Y-86511928D01*
X122285750Y-86515000D01*
X122127000Y-86673750D01*
X121873000Y-86673750D01*
X121714250Y-86515000D01*
X121150000Y-86511928D01*
X121025518Y-86524188D01*
X120905820Y-86560498D01*
X120795506Y-86619463D01*
X120698815Y-86698815D01*
X120619463Y-86795506D01*
X120560498Y-86905820D01*
X120538487Y-86978380D01*
X120406632Y-86846525D01*
X120163411Y-86684010D01*
X119893158Y-86572068D01*
X119606260Y-86515000D01*
X119313740Y-86515000D01*
X119026842Y-86572068D01*
X118756589Y-86684010D01*
X118513368Y-86846525D01*
X118306525Y-87053368D01*
X118190000Y-87227760D01*
X118073475Y-87053368D01*
X117866632Y-86846525D01*
X117623411Y-86684010D01*
X117353158Y-86572068D01*
X117066260Y-86515000D01*
X116773740Y-86515000D01*
X116486842Y-86572068D01*
X116216589Y-86684010D01*
X115973368Y-86846525D01*
X115766525Y-87053368D01*
X115604010Y-87296589D01*
X115492068Y-87566842D01*
X115435000Y-87853740D01*
X84096029Y-87853740D01*
X81961000Y-85718711D01*
X81961000Y-81853740D01*
X115435000Y-81853740D01*
X115435000Y-82146260D01*
X115492068Y-82433158D01*
X115604010Y-82703411D01*
X115766525Y-82946632D01*
X115973368Y-83153475D01*
X116216589Y-83315990D01*
X116486842Y-83427932D01*
X116773740Y-83485000D01*
X117066260Y-83485000D01*
X117353158Y-83427932D01*
X117623411Y-83315990D01*
X117866632Y-83153475D01*
X118073475Y-82946632D01*
X118190000Y-82772240D01*
X118306525Y-82946632D01*
X118513368Y-83153475D01*
X118756589Y-83315990D01*
X119026842Y-83427932D01*
X119313740Y-83485000D01*
X119606260Y-83485000D01*
X119893158Y-83427932D01*
X120163411Y-83315990D01*
X120406632Y-83153475D01*
X120538487Y-83021620D01*
X120560498Y-83094180D01*
X120619463Y-83204494D01*
X120698815Y-83301185D01*
X120795506Y-83380537D01*
X120905820Y-83439502D01*
X121025518Y-83475812D01*
X121150000Y-83488072D01*
X121714250Y-83485000D01*
X121873000Y-83326250D01*
X121873000Y-82127000D01*
X122127000Y-82127000D01*
X122127000Y-83326250D01*
X122285750Y-83485000D01*
X122850000Y-83488072D01*
X122974482Y-83475812D01*
X123094180Y-83439502D01*
X123204494Y-83380537D01*
X123301185Y-83301185D01*
X123380537Y-83204494D01*
X123439502Y-83094180D01*
X123475812Y-82974482D01*
X123488072Y-82850000D01*
X123485000Y-82285750D01*
X123326250Y-82127000D01*
X122127000Y-82127000D01*
X121873000Y-82127000D01*
X121853000Y-82127000D01*
X121853000Y-81873000D01*
X121873000Y-81873000D01*
X121873000Y-80673750D01*
X122127000Y-80673750D01*
X122127000Y-81873000D01*
X123326250Y-81873000D01*
X123485000Y-81714250D01*
X123488072Y-81150000D01*
X123475812Y-81025518D01*
X123439502Y-80905820D01*
X123380537Y-80795506D01*
X123301185Y-80698815D01*
X123204494Y-80619463D01*
X123094180Y-80560498D01*
X122974482Y-80524188D01*
X122850000Y-80511928D01*
X122285750Y-80515000D01*
X122127000Y-80673750D01*
X121873000Y-80673750D01*
X121714250Y-80515000D01*
X121150000Y-80511928D01*
X121025518Y-80524188D01*
X120905820Y-80560498D01*
X120795506Y-80619463D01*
X120698815Y-80698815D01*
X120619463Y-80795506D01*
X120560498Y-80905820D01*
X120538487Y-80978380D01*
X120406632Y-80846525D01*
X120163411Y-80684010D01*
X119893158Y-80572068D01*
X119606260Y-80515000D01*
X119313740Y-80515000D01*
X119026842Y-80572068D01*
X118756589Y-80684010D01*
X118513368Y-80846525D01*
X118306525Y-81053368D01*
X118190000Y-81227760D01*
X118073475Y-81053368D01*
X117866632Y-80846525D01*
X117623411Y-80684010D01*
X117353158Y-80572068D01*
X117066260Y-80515000D01*
X116773740Y-80515000D01*
X116486842Y-80572068D01*
X116216589Y-80684010D01*
X115973368Y-80846525D01*
X115766525Y-81053368D01*
X115604010Y-81296589D01*
X115492068Y-81566842D01*
X115435000Y-81853740D01*
X81961000Y-81853740D01*
X81961000Y-79547935D01*
X81965524Y-79502000D01*
X81947472Y-79318708D01*
X81915959Y-79214828D01*
X81894007Y-79142460D01*
X81807186Y-78980028D01*
X81690344Y-78837656D01*
X81654659Y-78808370D01*
X81241431Y-78395142D01*
X81181205Y-78249744D01*
X81067937Y-78080226D01*
X80923774Y-77936063D01*
X80754256Y-77822795D01*
X80565898Y-77744774D01*
X80365939Y-77705000D01*
X80162061Y-77705000D01*
X79962102Y-77744774D01*
X79773744Y-77822795D01*
X79604226Y-77936063D01*
X79460063Y-78080226D01*
X79346795Y-78249744D01*
X79268774Y-78438102D01*
X79229000Y-78638061D01*
X65127000Y-78638061D01*
X65127000Y-76850000D01*
X71663928Y-76850000D01*
X71676188Y-76974482D01*
X71712498Y-77094180D01*
X71771463Y-77204494D01*
X71850815Y-77301185D01*
X71947506Y-77380537D01*
X72057820Y-77439502D01*
X72177518Y-77475812D01*
X72302000Y-77488072D01*
X72866250Y-77485000D01*
X73025000Y-77326250D01*
X73025000Y-76127000D01*
X71825750Y-76127000D01*
X71667000Y-76285750D01*
X71663928Y-76850000D01*
X65127000Y-76850000D01*
X65127000Y-75150000D01*
X71663928Y-75150000D01*
X71667000Y-75714250D01*
X71825750Y-75873000D01*
X73025000Y-75873000D01*
X73025000Y-74673750D01*
X73279000Y-74673750D01*
X73279000Y-75873000D01*
X73299000Y-75873000D01*
X73299000Y-76127000D01*
X73279000Y-76127000D01*
X73279000Y-77326250D01*
X73437750Y-77485000D01*
X74002000Y-77488072D01*
X74126482Y-77475812D01*
X74246180Y-77439502D01*
X74356494Y-77380537D01*
X74453185Y-77301185D01*
X74532537Y-77204494D01*
X74591502Y-77094180D01*
X74613513Y-77021620D01*
X74745368Y-77153475D01*
X74988589Y-77315990D01*
X75258842Y-77427932D01*
X75545740Y-77485000D01*
X75838260Y-77485000D01*
X76125158Y-77427932D01*
X76395411Y-77315990D01*
X76638632Y-77153475D01*
X76845475Y-76946632D01*
X76962000Y-76772240D01*
X77078525Y-76946632D01*
X77285368Y-77153475D01*
X77528589Y-77315990D01*
X77798842Y-77427932D01*
X78085740Y-77485000D01*
X78378260Y-77485000D01*
X78665158Y-77427932D01*
X78935411Y-77315990D01*
X79178632Y-77153475D01*
X79385475Y-76946632D01*
X79547990Y-76703411D01*
X79659932Y-76433158D01*
X79717000Y-76146260D01*
X79717000Y-75853740D01*
X79659932Y-75566842D01*
X79621890Y-75475000D01*
X82966928Y-75475000D01*
X82966928Y-76925000D01*
X82983992Y-77098254D01*
X83034528Y-77264850D01*
X83116595Y-77418386D01*
X83227038Y-77552962D01*
X83361614Y-77663405D01*
X83515150Y-77745472D01*
X83681746Y-77796008D01*
X83855000Y-77813072D01*
X85055000Y-77813072D01*
X85228254Y-77796008D01*
X85394850Y-77745472D01*
X85548386Y-77663405D01*
X85682962Y-77552962D01*
X85793405Y-77418386D01*
X85849714Y-77313039D01*
X85865951Y-77334429D01*
X86083807Y-77527496D01*
X86335142Y-77674352D01*
X86598110Y-77766476D01*
X86828000Y-77645155D01*
X86828000Y-76327000D01*
X86808000Y-76327000D01*
X86808000Y-76073000D01*
X86828000Y-76073000D01*
X86828000Y-74754845D01*
X87082000Y-74754845D01*
X87082000Y-76073000D01*
X87102000Y-76073000D01*
X87102000Y-76327000D01*
X87082000Y-76327000D01*
X87082000Y-77645155D01*
X87311890Y-77766476D01*
X87574858Y-77674352D01*
X87826193Y-77527496D01*
X88044049Y-77334429D01*
X88200538Y-77128278D01*
X88214294Y-77154014D01*
X88399866Y-77380134D01*
X88625987Y-77565706D01*
X88883967Y-77703599D01*
X89163890Y-77788513D01*
X89455000Y-77817185D01*
X89746111Y-77788513D01*
X90026034Y-77703599D01*
X90284014Y-77565706D01*
X90510134Y-77380134D01*
X90695706Y-77154014D01*
X90705000Y-77136626D01*
X90714294Y-77154014D01*
X90899866Y-77380134D01*
X91125987Y-77565706D01*
X91383967Y-77703599D01*
X91663890Y-77788513D01*
X91955000Y-77817185D01*
X92246111Y-77788513D01*
X92526034Y-77703599D01*
X92784014Y-77565706D01*
X93010134Y-77380134D01*
X93195706Y-77154014D01*
X93333599Y-76896033D01*
X93418513Y-76616110D01*
X93440000Y-76397949D01*
X93440000Y-76002050D01*
X93425393Y-75853740D01*
X115435000Y-75853740D01*
X115435000Y-76146260D01*
X115492068Y-76433158D01*
X115604010Y-76703411D01*
X115766525Y-76946632D01*
X115973368Y-77153475D01*
X116216589Y-77315990D01*
X116486842Y-77427932D01*
X116773740Y-77485000D01*
X117066260Y-77485000D01*
X117353158Y-77427932D01*
X117623411Y-77315990D01*
X117866632Y-77153475D01*
X118073475Y-76946632D01*
X118190000Y-76772240D01*
X118306525Y-76946632D01*
X118513368Y-77153475D01*
X118756589Y-77315990D01*
X119026842Y-77427932D01*
X119313740Y-77485000D01*
X119606260Y-77485000D01*
X119893158Y-77427932D01*
X120163411Y-77315990D01*
X120406632Y-77153475D01*
X120538487Y-77021620D01*
X120560498Y-77094180D01*
X120619463Y-77204494D01*
X120698815Y-77301185D01*
X120795506Y-77380537D01*
X120905820Y-77439502D01*
X121025518Y-77475812D01*
X121150000Y-77488072D01*
X121714250Y-77485000D01*
X121873000Y-77326250D01*
X121873000Y-76127000D01*
X122127000Y-76127000D01*
X122127000Y-77326250D01*
X122285750Y-77485000D01*
X122850000Y-77488072D01*
X122974482Y-77475812D01*
X123094180Y-77439502D01*
X123204494Y-77380537D01*
X123301185Y-77301185D01*
X123380537Y-77204494D01*
X123439502Y-77094180D01*
X123475812Y-76974482D01*
X123488072Y-76850000D01*
X123485000Y-76285750D01*
X123326250Y-76127000D01*
X122127000Y-76127000D01*
X121873000Y-76127000D01*
X121853000Y-76127000D01*
X121853000Y-75873000D01*
X121873000Y-75873000D01*
X121873000Y-74673750D01*
X122127000Y-74673750D01*
X122127000Y-75873000D01*
X123326250Y-75873000D01*
X123485000Y-75714250D01*
X123488072Y-75150000D01*
X123475812Y-75025518D01*
X123439502Y-74905820D01*
X123380537Y-74795506D01*
X123301185Y-74698815D01*
X123204494Y-74619463D01*
X123094180Y-74560498D01*
X122974482Y-74524188D01*
X122850000Y-74511928D01*
X122285750Y-74515000D01*
X122127000Y-74673750D01*
X121873000Y-74673750D01*
X121714250Y-74515000D01*
X121150000Y-74511928D01*
X121025518Y-74524188D01*
X120905820Y-74560498D01*
X120795506Y-74619463D01*
X120698815Y-74698815D01*
X120619463Y-74795506D01*
X120560498Y-74905820D01*
X120538487Y-74978380D01*
X120406632Y-74846525D01*
X120163411Y-74684010D01*
X119893158Y-74572068D01*
X119606260Y-74515000D01*
X119313740Y-74515000D01*
X119026842Y-74572068D01*
X118756589Y-74684010D01*
X118513368Y-74846525D01*
X118306525Y-75053368D01*
X118190000Y-75227760D01*
X118073475Y-75053368D01*
X117866632Y-74846525D01*
X117623411Y-74684010D01*
X117353158Y-74572068D01*
X117066260Y-74515000D01*
X116773740Y-74515000D01*
X116486842Y-74572068D01*
X116216589Y-74684010D01*
X115973368Y-74846525D01*
X115766525Y-75053368D01*
X115604010Y-75296589D01*
X115492068Y-75566842D01*
X115435000Y-75853740D01*
X93425393Y-75853740D01*
X93418513Y-75783889D01*
X93333599Y-75503966D01*
X93195706Y-75245986D01*
X93010134Y-75019866D01*
X92784013Y-74834294D01*
X92526033Y-74696401D01*
X92246110Y-74611487D01*
X91955000Y-74582815D01*
X91663889Y-74611487D01*
X91383966Y-74696401D01*
X91125986Y-74834294D01*
X90899866Y-75019866D01*
X90714294Y-75245987D01*
X90705000Y-75263374D01*
X90695706Y-75245986D01*
X90510134Y-75019866D01*
X90284013Y-74834294D01*
X90026033Y-74696401D01*
X89746110Y-74611487D01*
X89455000Y-74582815D01*
X89163889Y-74611487D01*
X88883966Y-74696401D01*
X88625986Y-74834294D01*
X88399866Y-75019866D01*
X88214294Y-75245987D01*
X88200538Y-75271722D01*
X88044049Y-75065571D01*
X87826193Y-74872504D01*
X87574858Y-74725648D01*
X87311890Y-74633524D01*
X87082000Y-74754845D01*
X86828000Y-74754845D01*
X86598110Y-74633524D01*
X86335142Y-74725648D01*
X86083807Y-74872504D01*
X85865951Y-75065571D01*
X85849714Y-75086961D01*
X85793405Y-74981614D01*
X85682962Y-74847038D01*
X85548386Y-74736595D01*
X85394850Y-74654528D01*
X85228254Y-74603992D01*
X85055000Y-74586928D01*
X83855000Y-74586928D01*
X83681746Y-74603992D01*
X83515150Y-74654528D01*
X83361614Y-74736595D01*
X83227038Y-74847038D01*
X83116595Y-74981614D01*
X83034528Y-75135150D01*
X82983992Y-75301746D01*
X82966928Y-75475000D01*
X79621890Y-75475000D01*
X79547990Y-75296589D01*
X79385475Y-75053368D01*
X79178632Y-74846525D01*
X78935411Y-74684010D01*
X78665158Y-74572068D01*
X78378260Y-74515000D01*
X78085740Y-74515000D01*
X77798842Y-74572068D01*
X77528589Y-74684010D01*
X77285368Y-74846525D01*
X77078525Y-75053368D01*
X76962000Y-75227760D01*
X76845475Y-75053368D01*
X76638632Y-74846525D01*
X76395411Y-74684010D01*
X76125158Y-74572068D01*
X75838260Y-74515000D01*
X75545740Y-74515000D01*
X75258842Y-74572068D01*
X74988589Y-74684010D01*
X74745368Y-74846525D01*
X74613513Y-74978380D01*
X74591502Y-74905820D01*
X74532537Y-74795506D01*
X74453185Y-74698815D01*
X74356494Y-74619463D01*
X74246180Y-74560498D01*
X74126482Y-74524188D01*
X74002000Y-74511928D01*
X73437750Y-74515000D01*
X73279000Y-74673750D01*
X73025000Y-74673750D01*
X72866250Y-74515000D01*
X72302000Y-74511928D01*
X72177518Y-74524188D01*
X72057820Y-74560498D01*
X71947506Y-74619463D01*
X71850815Y-74698815D01*
X71771463Y-74795506D01*
X71712498Y-74905820D01*
X71676188Y-75025518D01*
X71663928Y-75150000D01*
X65127000Y-75150000D01*
X65127000Y-72620000D01*
X80411928Y-72620000D01*
X80424188Y-72744482D01*
X80460498Y-72864180D01*
X80519463Y-72974494D01*
X80598815Y-73071185D01*
X80695506Y-73150537D01*
X80805820Y-73209502D01*
X80925518Y-73245812D01*
X81050000Y-73258072D01*
X82264250Y-73255000D01*
X82423000Y-73096250D01*
X82423000Y-71247000D01*
X82677000Y-71247000D01*
X82677000Y-73096250D01*
X82835750Y-73255000D01*
X84050000Y-73258072D01*
X84174482Y-73245812D01*
X84294180Y-73209502D01*
X84404494Y-73150537D01*
X84501185Y-73071185D01*
X84580537Y-72974494D01*
X84639502Y-72864180D01*
X84675812Y-72744482D01*
X84688072Y-72620000D01*
X121051928Y-72620000D01*
X121064188Y-72744482D01*
X121100498Y-72864180D01*
X121159463Y-72974494D01*
X121238815Y-73071185D01*
X121335506Y-73150537D01*
X121445820Y-73209502D01*
X121565518Y-73245812D01*
X121690000Y-73258072D01*
X122904250Y-73255000D01*
X123063000Y-73096250D01*
X123063000Y-71247000D01*
X123317000Y-71247000D01*
X123317000Y-73096250D01*
X123475750Y-73255000D01*
X124690000Y-73258072D01*
X124814482Y-73245812D01*
X124934180Y-73209502D01*
X125044494Y-73150537D01*
X125141185Y-73071185D01*
X125220537Y-72974494D01*
X125279502Y-72864180D01*
X125315812Y-72744482D01*
X125328072Y-72620000D01*
X125325000Y-71405750D01*
X125166250Y-71247000D01*
X123317000Y-71247000D01*
X123063000Y-71247000D01*
X121213750Y-71247000D01*
X121055000Y-71405750D01*
X121051928Y-72620000D01*
X84688072Y-72620000D01*
X84685000Y-71405750D01*
X84526250Y-71247000D01*
X82677000Y-71247000D01*
X82423000Y-71247000D01*
X80573750Y-71247000D01*
X80415000Y-71405750D01*
X80411928Y-72620000D01*
X65127000Y-72620000D01*
X65127000Y-69620000D01*
X80411928Y-69620000D01*
X80415000Y-70834250D01*
X80573750Y-70993000D01*
X82423000Y-70993000D01*
X82423000Y-69143750D01*
X82677000Y-69143750D01*
X82677000Y-70993000D01*
X84526250Y-70993000D01*
X84685000Y-70834250D01*
X84688072Y-69620000D01*
X121051928Y-69620000D01*
X121055000Y-70834250D01*
X121213750Y-70993000D01*
X123063000Y-70993000D01*
X123063000Y-69143750D01*
X123317000Y-69143750D01*
X123317000Y-70993000D01*
X125166250Y-70993000D01*
X125325000Y-70834250D01*
X125328072Y-69620000D01*
X125315812Y-69495518D01*
X125279502Y-69375820D01*
X125220537Y-69265506D01*
X125141185Y-69168815D01*
X125044494Y-69089463D01*
X124934180Y-69030498D01*
X124814482Y-68994188D01*
X124690000Y-68981928D01*
X123475750Y-68985000D01*
X123317000Y-69143750D01*
X123063000Y-69143750D01*
X122904250Y-68985000D01*
X121690000Y-68981928D01*
X121565518Y-68994188D01*
X121445820Y-69030498D01*
X121335506Y-69089463D01*
X121238815Y-69168815D01*
X121159463Y-69265506D01*
X121100498Y-69375820D01*
X121064188Y-69495518D01*
X121051928Y-69620000D01*
X84688072Y-69620000D01*
X84675812Y-69495518D01*
X84639502Y-69375820D01*
X84580537Y-69265506D01*
X84501185Y-69168815D01*
X84404494Y-69089463D01*
X84294180Y-69030498D01*
X84174482Y-68994188D01*
X84050000Y-68981928D01*
X82835750Y-68985000D01*
X82677000Y-69143750D01*
X82423000Y-69143750D01*
X82264250Y-68985000D01*
X81050000Y-68981928D01*
X80925518Y-68994188D01*
X80805820Y-69030498D01*
X80695506Y-69089463D01*
X80598815Y-69168815D01*
X80519463Y-69265506D01*
X80460498Y-69375820D01*
X80424188Y-69495518D01*
X80411928Y-69620000D01*
X65127000Y-69620000D01*
X65127000Y-67571653D01*
X73617952Y-67571653D01*
X73773962Y-67887214D01*
X74148745Y-68078020D01*
X74553551Y-68192044D01*
X74972824Y-68224902D01*
X75390451Y-68175334D01*
X75790383Y-68045243D01*
X76086038Y-67887214D01*
X76242048Y-67571653D01*
X74930000Y-66259605D01*
X73617952Y-67571653D01*
X65127000Y-67571653D01*
X65127000Y-66122824D01*
X72785098Y-66122824D01*
X72834666Y-66540451D01*
X72964757Y-66940383D01*
X73122786Y-67236038D01*
X73438347Y-67392048D01*
X74750395Y-66080000D01*
X75109605Y-66080000D01*
X76421653Y-67392048D01*
X76737214Y-67236038D01*
X76928020Y-66861255D01*
X77042044Y-66456449D01*
X77074902Y-66037176D01*
X77025334Y-65619549D01*
X76895243Y-65219617D01*
X76737214Y-64923962D01*
X76421653Y-64767952D01*
X75109605Y-66080000D01*
X74750395Y-66080000D01*
X73438347Y-64767952D01*
X73122786Y-64923962D01*
X72931980Y-65298745D01*
X72817956Y-65703551D01*
X72785098Y-66122824D01*
X65127000Y-66122824D01*
X65127000Y-64588347D01*
X73617952Y-64588347D01*
X74930000Y-65900395D01*
X76242048Y-64588347D01*
X76086038Y-64272786D01*
X75711255Y-64081980D01*
X75306449Y-63967956D01*
X74887176Y-63935098D01*
X74469549Y-63984666D01*
X74069617Y-64114757D01*
X73773962Y-64272786D01*
X73617952Y-64588347D01*
X65127000Y-64588347D01*
X65127000Y-59500000D01*
X72791928Y-59500000D01*
X72791928Y-62500000D01*
X72804188Y-62624482D01*
X72840498Y-62744180D01*
X72899463Y-62854494D01*
X72978815Y-62951185D01*
X73075506Y-63030537D01*
X73185820Y-63089502D01*
X73305518Y-63125812D01*
X73430000Y-63138072D01*
X76430000Y-63138072D01*
X76554482Y-63125812D01*
X76674180Y-63089502D01*
X76784494Y-63030537D01*
X76881185Y-62951185D01*
X76960537Y-62854494D01*
X77019502Y-62744180D01*
X77055812Y-62624482D01*
X77068072Y-62500000D01*
X77068072Y-59500000D01*
X77055812Y-59375518D01*
X77019502Y-59255820D01*
X76960537Y-59145506D01*
X76881185Y-59048815D01*
X76784494Y-58969463D01*
X76674180Y-58910498D01*
X76554482Y-58874188D01*
X76430000Y-58861928D01*
X73430000Y-58861928D01*
X73305518Y-58874188D01*
X73185820Y-58910498D01*
X73075506Y-58969463D01*
X72978815Y-59048815D01*
X72899463Y-59145506D01*
X72840498Y-59255820D01*
X72804188Y-59375518D01*
X72791928Y-59500000D01*
X65127000Y-59500000D01*
X65127000Y-55219750D01*
X65263962Y-55424729D01*
X65575271Y-55736038D01*
X65941331Y-55980631D01*
X66348075Y-56149110D01*
X66779872Y-56235000D01*
X67220128Y-56235000D01*
X67651925Y-56149110D01*
X68058669Y-55980631D01*
X68424729Y-55736038D01*
X68736038Y-55424729D01*
X68980631Y-55058669D01*
X69149110Y-54651925D01*
X69235000Y-54220128D01*
X69235000Y-53779872D01*
X69149110Y-53348075D01*
X68980631Y-52941331D01*
X68736038Y-52575271D01*
X68424729Y-52263962D01*
X68219750Y-52127000D01*
X80411928Y-52127000D01*
X80411928Y-54840000D01*
%TD*%
M02*
