M48
; DRILL file {KiCad 5.1.6+dfsg1-1} date Thu Mar  4 16:58:54 2021
; FORMAT={-:-/ absolute / inch / decimal}
; #@! TF.CreationDate,2021-03-04T16:58:54+01:00
; #@! TF.GenerationSoftware,Kicad,Pcbnew,5.1.6+dfsg1-1
; #@! TF.FileFunction,Plated,1,2,PTH
FMAT,2
INCH
T1C0.0157
T2C0.0354
T3C0.0374
T4C0.0394
T5C0.0598
%
G90
G05
T1
X3.16Y-3.1
X3.705Y-3.34
X3.765Y-3.51
X3.9075Y-3.2925
X4.185Y-3.485
X4.3875Y-2.9175
T2
X3.25Y-2.1
X3.25Y-2.8
X4.85Y-2.1
X4.85Y-2.8
T3
X3.325Y-3.0
X3.4234Y-3.0
X3.5219Y-3.0
X3.6203Y-3.0
T4
X4.6031Y-3.4646
X4.7031Y-3.4646
X4.8031Y-3.4646
X2.88Y-3.4646
X2.98Y-3.4646
X3.08Y-3.4646
X3.3Y-3.66
X3.4Y-3.66
X3.5Y-3.66
X4.2701Y-3.665
X4.3701Y-3.665
X4.4701Y-3.665
X2.88Y-3.2283
X2.98Y-3.2283
X3.08Y-3.2283
X2.88Y-2.9921
X2.98Y-2.9921
X3.08Y-2.9921
X4.6031Y-2.9921
X4.7031Y-2.9921
X4.8031Y-2.9921
X4.6031Y-3.2283
X4.7031Y-3.2283
X4.8031Y-3.2283
T5
X2.95Y-2.4016
X2.95Y-2.6016
T0
M30
