%TF.GenerationSoftware,KiCad,Pcbnew,5.1.6+dfsg1-1*%
%TF.CreationDate,2021-03-04T16:58:38+01:00*%
%TF.ProjectId,PCA9685,50434139-3638-4352-9e6b-696361645f70,rev?*%
%TF.SameCoordinates,Original*%
%TF.FileFunction,Legend,Top*%
%TF.FilePolarity,Positive*%
%FSLAX46Y46*%
G04 Gerber Fmt 4.6, Leading zero omitted, Abs format (unit mm)*
G04 Created by KiCad (PCBNEW 5.1.6+dfsg1-1) date 2021-03-04 16:58:38*
%MOMM*%
%LPD*%
G01*
G04 APERTURE LIST*
%ADD10C,0.120000*%
%ADD11C,0.150000*%
%ADD12C,0.250000*%
G04 APERTURE END LIST*
D10*
X97028000Y-87884000D02*
G75*
G03*
X97028000Y-87884000I-254000J0D01*
G01*
X83820000Y-91186000D02*
X83820000Y-90170000D01*
X113792000Y-90932000D02*
X113792000Y-89916000D01*
D11*
X121412095Y-91448000D02*
X121316857Y-91400380D01*
X121174000Y-91400380D01*
X121031142Y-91448000D01*
X120935904Y-91543238D01*
X120888285Y-91638476D01*
X120840666Y-91828952D01*
X120840666Y-91971809D01*
X120888285Y-92162285D01*
X120935904Y-92257523D01*
X121031142Y-92352761D01*
X121174000Y-92400380D01*
X121269238Y-92400380D01*
X121412095Y-92352761D01*
X121459714Y-92305142D01*
X121459714Y-91971809D01*
X121269238Y-91971809D01*
X121888285Y-92400380D02*
X121888285Y-91400380D01*
X122459714Y-92400380D01*
X122459714Y-91400380D01*
X122935904Y-92400380D02*
X122935904Y-91400380D01*
X123174000Y-91400380D01*
X123316857Y-91448000D01*
X123412095Y-91543238D01*
X123459714Y-91638476D01*
X123507333Y-91828952D01*
X123507333Y-91971809D01*
X123459714Y-92162285D01*
X123412095Y-92257523D01*
X123316857Y-92352761D01*
X123174000Y-92400380D01*
X122935904Y-92400380D01*
D10*
X122174000Y-89916000D02*
X122174000Y-90932000D01*
X122174000Y-84074000D02*
X122174000Y-86106000D01*
X122174000Y-77978000D02*
X122174000Y-80010000D01*
X122174000Y-73152000D02*
X122174000Y-73914000D01*
D11*
X72263095Y-91829000D02*
X72167857Y-91781380D01*
X72025000Y-91781380D01*
X71882142Y-91829000D01*
X71786904Y-91924238D01*
X71739285Y-92019476D01*
X71691666Y-92209952D01*
X71691666Y-92352809D01*
X71739285Y-92543285D01*
X71786904Y-92638523D01*
X71882142Y-92733761D01*
X72025000Y-92781380D01*
X72120238Y-92781380D01*
X72263095Y-92733761D01*
X72310714Y-92686142D01*
X72310714Y-92352809D01*
X72120238Y-92352809D01*
X72739285Y-92781380D02*
X72739285Y-91781380D01*
X73310714Y-92781380D01*
X73310714Y-91781380D01*
X73786904Y-92781380D02*
X73786904Y-91781380D01*
X74025000Y-91781380D01*
X74167857Y-91829000D01*
X74263095Y-91924238D01*
X74310714Y-92019476D01*
X74358333Y-92209952D01*
X74358333Y-92352809D01*
X74310714Y-92543285D01*
X74263095Y-92638523D01*
X74167857Y-92733761D01*
X74025000Y-92781380D01*
X73786904Y-92781380D01*
D10*
X73025000Y-90043000D02*
X73025000Y-91186000D01*
X73025000Y-84074000D02*
X73025000Y-86106000D01*
X73025000Y-78232000D02*
X73025000Y-80010000D01*
X73025000Y-72517000D02*
X73025000Y-73914000D01*
D12*
X74238095Y-69500000D02*
X74142857Y-69452380D01*
X74000000Y-69452380D01*
X73857142Y-69500000D01*
X73761904Y-69595238D01*
X73714285Y-69690476D01*
X73666666Y-69880952D01*
X73666666Y-70023809D01*
X73714285Y-70214285D01*
X73761904Y-70309523D01*
X73857142Y-70404761D01*
X74000000Y-70452380D01*
X74095238Y-70452380D01*
X74238095Y-70404761D01*
X74285714Y-70357142D01*
X74285714Y-70023809D01*
X74095238Y-70023809D01*
X74714285Y-70452380D02*
X74714285Y-69452380D01*
X75285714Y-70452380D01*
X75285714Y-69452380D01*
X75761904Y-70452380D02*
X75761904Y-69452380D01*
X76000000Y-69452380D01*
X76142857Y-69500000D01*
X76238095Y-69595238D01*
X76285714Y-69690476D01*
X76333333Y-69880952D01*
X76333333Y-70023809D01*
X76285714Y-70214285D01*
X76238095Y-70309523D01*
X76142857Y-70404761D01*
X76000000Y-70452380D01*
X75761904Y-70452380D01*
D11*
X128103571Y-74664404D02*
X128103571Y-74331071D01*
X128627380Y-74188214D02*
X128627380Y-74664404D01*
X127627380Y-74664404D01*
X127627380Y-74188214D01*
X128627380Y-73759642D02*
X127627380Y-73759642D01*
X128627380Y-73188214D01*
X127627380Y-73188214D01*
X128341666Y-72759642D02*
X128341666Y-72283452D01*
X128627380Y-72854880D02*
X127627380Y-72521547D01*
X128627380Y-72188214D01*
X128532142Y-71283452D02*
X128579761Y-71331071D01*
X128627380Y-71473928D01*
X128627380Y-71569166D01*
X128579761Y-71712023D01*
X128484523Y-71807261D01*
X128389285Y-71854880D01*
X128198809Y-71902500D01*
X128055952Y-71902500D01*
X127865476Y-71854880D01*
X127770238Y-71807261D01*
X127675000Y-71712023D01*
X127627380Y-71569166D01*
X127627380Y-71473928D01*
X127675000Y-71331071D01*
X127722619Y-71283452D01*
X128627380Y-69521547D02*
X128151190Y-69854880D01*
X128627380Y-70092976D02*
X127627380Y-70092976D01*
X127627380Y-69712023D01*
X127675000Y-69616785D01*
X127722619Y-69569166D01*
X127817857Y-69521547D01*
X127960714Y-69521547D01*
X128055952Y-69569166D01*
X128103571Y-69616785D01*
X128151190Y-69712023D01*
X128151190Y-70092976D01*
X128627380Y-68950119D02*
X128579761Y-69045357D01*
X128532142Y-69092976D01*
X128436904Y-69140595D01*
X128151190Y-69140595D01*
X128055952Y-69092976D01*
X128008333Y-69045357D01*
X127960714Y-68950119D01*
X127960714Y-68807261D01*
X128008333Y-68712023D01*
X128055952Y-68664404D01*
X128151190Y-68616785D01*
X128436904Y-68616785D01*
X128532142Y-68664404D01*
X128579761Y-68712023D01*
X128627380Y-68807261D01*
X128627380Y-68950119D01*
X128627380Y-68188214D02*
X127627380Y-68188214D01*
X128008333Y-68188214D02*
X127960714Y-68092976D01*
X127960714Y-67902500D01*
X128008333Y-67807261D01*
X128055952Y-67759642D01*
X128151190Y-67712023D01*
X128436904Y-67712023D01*
X128532142Y-67759642D01*
X128579761Y-67807261D01*
X128627380Y-67902500D01*
X128627380Y-68092976D01*
X128579761Y-68188214D01*
X128627380Y-67140595D02*
X128579761Y-67235833D01*
X128532142Y-67283452D01*
X128436904Y-67331071D01*
X128151190Y-67331071D01*
X128055952Y-67283452D01*
X128008333Y-67235833D01*
X127960714Y-67140595D01*
X127960714Y-66997738D01*
X128008333Y-66902500D01*
X128055952Y-66854880D01*
X128151190Y-66807261D01*
X128436904Y-66807261D01*
X128532142Y-66854880D01*
X128579761Y-66902500D01*
X128627380Y-66997738D01*
X128627380Y-67140595D01*
X127960714Y-66521547D02*
X127960714Y-66140595D01*
X127627380Y-66378690D02*
X128484523Y-66378690D01*
X128579761Y-66331071D01*
X128627380Y-66235833D01*
X128627380Y-66140595D01*
X128627380Y-65807261D02*
X127960714Y-65807261D01*
X127627380Y-65807261D02*
X127675000Y-65854880D01*
X127722619Y-65807261D01*
X127675000Y-65759642D01*
X127627380Y-65807261D01*
X127722619Y-65807261D01*
X127960714Y-64902500D02*
X128960714Y-64902500D01*
X128579761Y-64902500D02*
X128627380Y-64997738D01*
X128627380Y-65188214D01*
X128579761Y-65283452D01*
X128532142Y-65331071D01*
X128436904Y-65378690D01*
X128151190Y-65378690D01*
X128055952Y-65331071D01*
X128008333Y-65283452D01*
X127960714Y-65188214D01*
X127960714Y-64997738D01*
X128008333Y-64902500D01*
X127960714Y-63997738D02*
X128627380Y-63997738D01*
X127960714Y-64426309D02*
X128484523Y-64426309D01*
X128579761Y-64378690D01*
X128627380Y-64283452D01*
X128627380Y-64140595D01*
X128579761Y-64045357D01*
X128532142Y-63997738D01*
X128579761Y-63140595D02*
X128627380Y-63235833D01*
X128627380Y-63426309D01*
X128579761Y-63521547D01*
X128484523Y-63569166D01*
X128103571Y-63569166D01*
X128008333Y-63521547D01*
X127960714Y-63426309D01*
X127960714Y-63235833D01*
X128008333Y-63140595D01*
X128103571Y-63092976D01*
X128198809Y-63092976D01*
X128294047Y-63569166D01*
X127722619Y-61950119D02*
X127675000Y-61902500D01*
X127627380Y-61807261D01*
X127627380Y-61569166D01*
X127675000Y-61473928D01*
X127722619Y-61426309D01*
X127817857Y-61378690D01*
X127913095Y-61378690D01*
X128055952Y-61426309D01*
X128627380Y-61997738D01*
X128627380Y-61378690D01*
X127627380Y-60759642D02*
X127627380Y-60664404D01*
X127675000Y-60569166D01*
X127722619Y-60521547D01*
X127817857Y-60473928D01*
X128008333Y-60426309D01*
X128246428Y-60426309D01*
X128436904Y-60473928D01*
X128532142Y-60521547D01*
X128579761Y-60569166D01*
X128627380Y-60664404D01*
X128627380Y-60759642D01*
X128579761Y-60854880D01*
X128532142Y-60902500D01*
X128436904Y-60950119D01*
X128246428Y-60997738D01*
X128008333Y-60997738D01*
X127817857Y-60950119D01*
X127722619Y-60902500D01*
X127675000Y-60854880D01*
X127627380Y-60759642D01*
X127722619Y-60045357D02*
X127675000Y-59997738D01*
X127627380Y-59902500D01*
X127627380Y-59664404D01*
X127675000Y-59569166D01*
X127722619Y-59521547D01*
X127817857Y-59473928D01*
X127913095Y-59473928D01*
X128055952Y-59521547D01*
X128627380Y-60092976D01*
X128627380Y-59473928D01*
X128627380Y-58521547D02*
X128627380Y-59092976D01*
X128627380Y-58807261D02*
X127627380Y-58807261D01*
X127770238Y-58902500D01*
X127865476Y-58997738D01*
X127913095Y-59092976D01*
X130277380Y-74664404D02*
X129277380Y-74664404D01*
X129277380Y-74283452D01*
X129325000Y-74188214D01*
X129372619Y-74140595D01*
X129467857Y-74092976D01*
X129610714Y-74092976D01*
X129705952Y-74140595D01*
X129753571Y-74188214D01*
X129801190Y-74283452D01*
X129801190Y-74664404D01*
X130182142Y-73092976D02*
X130229761Y-73140595D01*
X130277380Y-73283452D01*
X130277380Y-73378690D01*
X130229761Y-73521547D01*
X130134523Y-73616785D01*
X130039285Y-73664404D01*
X129848809Y-73712023D01*
X129705952Y-73712023D01*
X129515476Y-73664404D01*
X129420238Y-73616785D01*
X129325000Y-73521547D01*
X129277380Y-73378690D01*
X129277380Y-73283452D01*
X129325000Y-73140595D01*
X129372619Y-73092976D01*
X129753571Y-72331071D02*
X129801190Y-72188214D01*
X129848809Y-72140595D01*
X129944047Y-72092976D01*
X130086904Y-72092976D01*
X130182142Y-72140595D01*
X130229761Y-72188214D01*
X130277380Y-72283452D01*
X130277380Y-72664404D01*
X129277380Y-72664404D01*
X129277380Y-72331071D01*
X129325000Y-72235833D01*
X129372619Y-72188214D01*
X129467857Y-72140595D01*
X129563095Y-72140595D01*
X129658333Y-72188214D01*
X129705952Y-72235833D01*
X129753571Y-72331071D01*
X129753571Y-72664404D01*
X130277380Y-70902500D02*
X129277380Y-70902500D01*
X129658333Y-70902500D02*
X129610714Y-70807261D01*
X129610714Y-70616785D01*
X129658333Y-70521547D01*
X129705952Y-70473928D01*
X129801190Y-70426309D01*
X130086904Y-70426309D01*
X130182142Y-70473928D01*
X130229761Y-70521547D01*
X130277380Y-70616785D01*
X130277380Y-70807261D01*
X130229761Y-70902500D01*
X129610714Y-70092976D02*
X130277380Y-69854880D01*
X129610714Y-69616785D02*
X130277380Y-69854880D01*
X130515476Y-69950119D01*
X130563095Y-69997738D01*
X130610714Y-70092976D01*
X130277380Y-67902500D02*
X129801190Y-68235833D01*
X130277380Y-68473928D02*
X129277380Y-68473928D01*
X129277380Y-68092976D01*
X129325000Y-67997738D01*
X129372619Y-67950119D01*
X129467857Y-67902500D01*
X129610714Y-67902500D01*
X129705952Y-67950119D01*
X129753571Y-67997738D01*
X129801190Y-68092976D01*
X129801190Y-68473928D01*
X130277380Y-67331071D02*
X130229761Y-67426309D01*
X130182142Y-67473928D01*
X130086904Y-67521547D01*
X129801190Y-67521547D01*
X129705952Y-67473928D01*
X129658333Y-67426309D01*
X129610714Y-67331071D01*
X129610714Y-67188214D01*
X129658333Y-67092976D01*
X129705952Y-67045357D01*
X129801190Y-66997738D01*
X130086904Y-66997738D01*
X130182142Y-67045357D01*
X130229761Y-67092976D01*
X130277380Y-67188214D01*
X130277380Y-67331071D01*
X130277380Y-66569166D02*
X129277380Y-66569166D01*
X129658333Y-66569166D02*
X129610714Y-66473928D01*
X129610714Y-66283452D01*
X129658333Y-66188214D01*
X129705952Y-66140595D01*
X129801190Y-66092976D01*
X130086904Y-66092976D01*
X130182142Y-66140595D01*
X130229761Y-66188214D01*
X130277380Y-66283452D01*
X130277380Y-66473928D01*
X130229761Y-66569166D01*
X130277380Y-65664404D02*
X129610714Y-65664404D01*
X129277380Y-65664404D02*
X129325000Y-65712023D01*
X129372619Y-65664404D01*
X129325000Y-65616785D01*
X129277380Y-65664404D01*
X129372619Y-65664404D01*
X129610714Y-65188214D02*
X130277380Y-65188214D01*
X129705952Y-65188214D02*
X129658333Y-65140595D01*
X129610714Y-65045357D01*
X129610714Y-64902500D01*
X129658333Y-64807261D01*
X129753571Y-64759642D01*
X130277380Y-64759642D01*
X130277380Y-63521547D02*
X129277380Y-63521547D01*
X129277380Y-63283452D01*
X129325000Y-63140595D01*
X129420238Y-63045357D01*
X129515476Y-62997738D01*
X129705952Y-62950119D01*
X129848809Y-62950119D01*
X130039285Y-62997738D01*
X130134523Y-63045357D01*
X130229761Y-63140595D01*
X130277380Y-63283452D01*
X130277380Y-63521547D01*
X129610714Y-62092976D02*
X130277380Y-62092976D01*
X129610714Y-62521547D02*
X130134523Y-62521547D01*
X130229761Y-62473928D01*
X130277380Y-62378690D01*
X130277380Y-62235833D01*
X130229761Y-62140595D01*
X130182142Y-62092976D01*
X129610714Y-61616785D02*
X130610714Y-61616785D01*
X129658333Y-61616785D02*
X129610714Y-61521547D01*
X129610714Y-61331071D01*
X129658333Y-61235833D01*
X129705952Y-61188214D01*
X129801190Y-61140595D01*
X130086904Y-61140595D01*
X130182142Y-61188214D01*
X130229761Y-61235833D01*
X130277380Y-61331071D01*
X130277380Y-61521547D01*
X130229761Y-61616785D01*
X130277380Y-60712023D02*
X129610714Y-60712023D01*
X129801190Y-60712023D02*
X129705952Y-60664404D01*
X129658333Y-60616785D01*
X129610714Y-60521547D01*
X129610714Y-60426309D01*
X130277380Y-59664404D02*
X129753571Y-59664404D01*
X129658333Y-59712023D01*
X129610714Y-59807261D01*
X129610714Y-59997738D01*
X129658333Y-60092976D01*
X130229761Y-59664404D02*
X130277380Y-59759642D01*
X130277380Y-59997738D01*
X130229761Y-60092976D01*
X130134523Y-60140595D01*
X130039285Y-60140595D01*
X129944047Y-60092976D01*
X129896428Y-59997738D01*
X129896428Y-59759642D01*
X129848809Y-59664404D01*
X129610714Y-59331071D02*
X129610714Y-58950119D01*
X129277380Y-59188214D02*
X130134523Y-59188214D01*
X130229761Y-59140595D01*
X130277380Y-59045357D01*
X130277380Y-58950119D01*
D12*
X65502976Y-70428571D02*
X64907738Y-70761904D01*
X65502976Y-71000000D02*
X64252976Y-71000000D01*
X64252976Y-70619047D01*
X64312500Y-70523809D01*
X64372023Y-70476190D01*
X64491071Y-70428571D01*
X64669642Y-70428571D01*
X64788690Y-70476190D01*
X64848214Y-70523809D01*
X64907738Y-70619047D01*
X64907738Y-71000000D01*
X65502976Y-69857142D02*
X65443452Y-69952380D01*
X65383928Y-70000000D01*
X65264880Y-70047619D01*
X64907738Y-70047619D01*
X64788690Y-70000000D01*
X64729166Y-69952380D01*
X64669642Y-69857142D01*
X64669642Y-69714285D01*
X64729166Y-69619047D01*
X64788690Y-69571428D01*
X64907738Y-69523809D01*
X65264880Y-69523809D01*
X65383928Y-69571428D01*
X65443452Y-69619047D01*
X65502976Y-69714285D01*
X65502976Y-69857142D01*
X65502976Y-69095238D02*
X64252976Y-69095238D01*
X64729166Y-69095238D02*
X64669642Y-69000000D01*
X64669642Y-68809523D01*
X64729166Y-68714285D01*
X64788690Y-68666666D01*
X64907738Y-68619047D01*
X65264880Y-68619047D01*
X65383928Y-68666666D01*
X65443452Y-68714285D01*
X65502976Y-68809523D01*
X65502976Y-69000000D01*
X65443452Y-69095238D01*
X65502976Y-68047619D02*
X65443452Y-68142857D01*
X65383928Y-68190476D01*
X65264880Y-68238095D01*
X64907738Y-68238095D01*
X64788690Y-68190476D01*
X64729166Y-68142857D01*
X64669642Y-68047619D01*
X64669642Y-67904761D01*
X64729166Y-67809523D01*
X64788690Y-67761904D01*
X64907738Y-67714285D01*
X65264880Y-67714285D01*
X65383928Y-67761904D01*
X65443452Y-67809523D01*
X65502976Y-67904761D01*
X65502976Y-68047619D01*
X64669642Y-67428571D02*
X64669642Y-67047619D01*
X64252976Y-67285714D02*
X65324404Y-67285714D01*
X65443452Y-67238095D01*
X65502976Y-67142857D01*
X65502976Y-67047619D01*
X64372023Y-66000000D02*
X64312500Y-65952380D01*
X64252976Y-65857142D01*
X64252976Y-65619047D01*
X64312500Y-65523809D01*
X64372023Y-65476190D01*
X64491071Y-65428571D01*
X64610119Y-65428571D01*
X64788690Y-65476190D01*
X65502976Y-66047619D01*
X65502976Y-65428571D01*
X64252976Y-64809523D02*
X64252976Y-64714285D01*
X64312500Y-64619047D01*
X64372023Y-64571428D01*
X64491071Y-64523809D01*
X64729166Y-64476190D01*
X65026785Y-64476190D01*
X65264880Y-64523809D01*
X65383928Y-64571428D01*
X65443452Y-64619047D01*
X65502976Y-64714285D01*
X65502976Y-64809523D01*
X65443452Y-64904761D01*
X65383928Y-64952380D01*
X65264880Y-65000000D01*
X65026785Y-65047619D01*
X64729166Y-65047619D01*
X64491071Y-65000000D01*
X64372023Y-64952380D01*
X64312500Y-64904761D01*
X64252976Y-64809523D01*
X64372023Y-64095238D02*
X64312500Y-64047619D01*
X64252976Y-63952380D01*
X64252976Y-63714285D01*
X64312500Y-63619047D01*
X64372023Y-63571428D01*
X64491071Y-63523809D01*
X64610119Y-63523809D01*
X64788690Y-63571428D01*
X65502976Y-64142857D01*
X65502976Y-63523809D01*
X65502976Y-62571428D02*
X65502976Y-63142857D01*
X65502976Y-62857142D02*
X64252976Y-62857142D01*
X64431547Y-62952380D01*
X64550595Y-63047619D01*
X64610119Y-63142857D01*
X65145833Y-61428571D02*
X65145833Y-60952380D01*
X65502976Y-61523809D02*
X64252976Y-61190476D01*
X65502976Y-60857142D01*
X67508928Y-72190476D02*
X67568452Y-72238095D01*
X67627976Y-72380952D01*
X67627976Y-72476190D01*
X67568452Y-72619047D01*
X67449404Y-72714285D01*
X67330357Y-72761904D01*
X67092261Y-72809523D01*
X66913690Y-72809523D01*
X66675595Y-72761904D01*
X66556547Y-72714285D01*
X66437500Y-72619047D01*
X66377976Y-72476190D01*
X66377976Y-72380952D01*
X66437500Y-72238095D01*
X66497023Y-72190476D01*
X67627976Y-71333333D02*
X66973214Y-71333333D01*
X66854166Y-71380952D01*
X66794642Y-71476190D01*
X66794642Y-71666666D01*
X66854166Y-71761904D01*
X67568452Y-71333333D02*
X67627976Y-71428571D01*
X67627976Y-71666666D01*
X67568452Y-71761904D01*
X67449404Y-71809523D01*
X67330357Y-71809523D01*
X67211309Y-71761904D01*
X67151785Y-71666666D01*
X67151785Y-71428571D01*
X67092261Y-71333333D01*
X67627976Y-70857142D02*
X66794642Y-70857142D01*
X67032738Y-70857142D02*
X66913690Y-70809523D01*
X66854166Y-70761904D01*
X66794642Y-70666666D01*
X66794642Y-70571428D01*
X66794642Y-70380952D02*
X66794642Y-70000000D01*
X66377976Y-70238095D02*
X67449404Y-70238095D01*
X67568452Y-70190476D01*
X67627976Y-70095238D01*
X67627976Y-70000000D01*
X67568452Y-69285714D02*
X67627976Y-69380952D01*
X67627976Y-69571428D01*
X67568452Y-69666666D01*
X67449404Y-69714285D01*
X66973214Y-69714285D01*
X66854166Y-69666666D01*
X66794642Y-69571428D01*
X66794642Y-69380952D01*
X66854166Y-69285714D01*
X66973214Y-69238095D01*
X67092261Y-69238095D01*
X67211309Y-69714285D01*
X67568452Y-68095238D02*
X67627976Y-67952380D01*
X67627976Y-67714285D01*
X67568452Y-67619047D01*
X67508928Y-67571428D01*
X67389880Y-67523809D01*
X67270833Y-67523809D01*
X67151785Y-67571428D01*
X67092261Y-67619047D01*
X67032738Y-67714285D01*
X66973214Y-67904761D01*
X66913690Y-68000000D01*
X66854166Y-68047619D01*
X66735119Y-68095238D01*
X66616071Y-68095238D01*
X66497023Y-68047619D01*
X66437500Y-68000000D01*
X66377976Y-67904761D01*
X66377976Y-67666666D01*
X66437500Y-67523809D01*
X67568452Y-66714285D02*
X67627976Y-66809523D01*
X67627976Y-67000000D01*
X67568452Y-67095238D01*
X67449404Y-67142857D01*
X66973214Y-67142857D01*
X66854166Y-67095238D01*
X66794642Y-67000000D01*
X66794642Y-66809523D01*
X66854166Y-66714285D01*
X66973214Y-66666666D01*
X67092261Y-66666666D01*
X67211309Y-67142857D01*
X67627976Y-66238095D02*
X66794642Y-66238095D01*
X67032738Y-66238095D02*
X66913690Y-66190476D01*
X66854166Y-66142857D01*
X66794642Y-66047619D01*
X66794642Y-65952380D01*
X66794642Y-65714285D02*
X67627976Y-65476190D01*
X66794642Y-65238095D01*
X67627976Y-64714285D02*
X67568452Y-64809523D01*
X67508928Y-64857142D01*
X67389880Y-64904761D01*
X67032738Y-64904761D01*
X66913690Y-64857142D01*
X66854166Y-64809523D01*
X66794642Y-64714285D01*
X66794642Y-64571428D01*
X66854166Y-64476190D01*
X66913690Y-64428571D01*
X67032738Y-64380952D01*
X67389880Y-64380952D01*
X67508928Y-64428571D01*
X67568452Y-64476190D01*
X67627976Y-64571428D01*
X67627976Y-64714285D01*
X67627976Y-63952380D02*
X66794642Y-63952380D01*
X66913690Y-63952380D02*
X66854166Y-63904761D01*
X66794642Y-63809523D01*
X66794642Y-63666666D01*
X66854166Y-63571428D01*
X66973214Y-63523809D01*
X67627976Y-63523809D01*
X66973214Y-63523809D02*
X66854166Y-63476190D01*
X66794642Y-63380952D01*
X66794642Y-63238095D01*
X66854166Y-63142857D01*
X66973214Y-63095238D01*
X67627976Y-63095238D01*
X67627976Y-62476190D02*
X67568452Y-62571428D01*
X67508928Y-62619047D01*
X67389880Y-62666666D01*
X67032738Y-62666666D01*
X66913690Y-62619047D01*
X66854166Y-62571428D01*
X66794642Y-62476190D01*
X66794642Y-62333333D01*
X66854166Y-62238095D01*
X66913690Y-62190476D01*
X67032738Y-62142857D01*
X67389880Y-62142857D01*
X67508928Y-62190476D01*
X67568452Y-62238095D01*
X67627976Y-62333333D01*
X67627976Y-62476190D01*
X66794642Y-61857142D02*
X66794642Y-61476190D01*
X66377976Y-61714285D02*
X67449404Y-61714285D01*
X67568452Y-61666666D01*
X67627976Y-61571428D01*
X67627976Y-61476190D01*
X67568452Y-60761904D02*
X67627976Y-60857142D01*
X67627976Y-61047619D01*
X67568452Y-61142857D01*
X67449404Y-61190476D01*
X66973214Y-61190476D01*
X66854166Y-61142857D01*
X66794642Y-61047619D01*
X66794642Y-60857142D01*
X66854166Y-60761904D01*
X66973214Y-60714285D01*
X67092261Y-60714285D01*
X67211309Y-61190476D01*
X66794642Y-59857142D02*
X67627976Y-59857142D01*
X66794642Y-60285714D02*
X67449404Y-60285714D01*
X67568452Y-60238095D01*
X67627976Y-60142857D01*
X67627976Y-60000000D01*
X67568452Y-59904761D01*
X67508928Y-59857142D01*
X67627976Y-59380952D02*
X66794642Y-59380952D01*
X67032738Y-59380952D02*
X66913690Y-59333333D01*
X66854166Y-59285714D01*
X66794642Y-59190476D01*
X66794642Y-59095238D01*
D10*
%TO.C,J6*%
X90230000Y-94294000D02*
X90230000Y-91634000D01*
X85090000Y-94294000D02*
X90230000Y-94294000D01*
X85090000Y-91634000D02*
X90230000Y-91634000D01*
X85090000Y-94294000D02*
X85090000Y-91634000D01*
X83820000Y-94294000D02*
X82490000Y-94294000D01*
X82490000Y-94294000D02*
X82490000Y-92964000D01*
%TO.C,J10*%
X79562000Y-89330000D02*
X79562000Y-86670000D01*
X74422000Y-89330000D02*
X79562000Y-89330000D01*
X74422000Y-86670000D02*
X79562000Y-86670000D01*
X74422000Y-89330000D02*
X74422000Y-86670000D01*
X73152000Y-89330000D02*
X71822000Y-89330000D01*
X71822000Y-89330000D02*
X71822000Y-88000000D01*
%TO.C,J9*%
X79562000Y-83330000D02*
X79562000Y-80670000D01*
X74422000Y-83330000D02*
X79562000Y-83330000D01*
X74422000Y-80670000D02*
X79562000Y-80670000D01*
X74422000Y-83330000D02*
X74422000Y-80670000D01*
X73152000Y-83330000D02*
X71822000Y-83330000D01*
X71822000Y-83330000D02*
X71822000Y-82000000D01*
%TO.C,J8*%
X79562000Y-77330000D02*
X79562000Y-74670000D01*
X74422000Y-77330000D02*
X79562000Y-77330000D01*
X74422000Y-74670000D02*
X79562000Y-74670000D01*
X74422000Y-77330000D02*
X74422000Y-74670000D01*
X73152000Y-77330000D02*
X71822000Y-77330000D01*
X71822000Y-77330000D02*
X71822000Y-76000000D01*
%TO.C,J7*%
X107130000Y-91761000D02*
X107130000Y-94421000D01*
X112270000Y-91761000D02*
X107130000Y-91761000D01*
X112270000Y-94421000D02*
X107130000Y-94421000D01*
X112270000Y-91761000D02*
X112270000Y-94421000D01*
X113540000Y-91761000D02*
X114870000Y-91761000D01*
X114870000Y-91761000D02*
X114870000Y-93091000D01*
%TO.C,J5*%
X115590000Y-86670000D02*
X115590000Y-89330000D01*
X120730000Y-86670000D02*
X115590000Y-86670000D01*
X120730000Y-89330000D02*
X115590000Y-89330000D01*
X120730000Y-86670000D02*
X120730000Y-89330000D01*
X122000000Y-86670000D02*
X123330000Y-86670000D01*
X123330000Y-86670000D02*
X123330000Y-88000000D01*
%TO.C,J4*%
X115590000Y-80670000D02*
X115590000Y-83330000D01*
X120730000Y-80670000D02*
X115590000Y-80670000D01*
X120730000Y-83330000D02*
X115590000Y-83330000D01*
X120730000Y-80670000D02*
X120730000Y-83330000D01*
X122000000Y-80670000D02*
X123330000Y-80670000D01*
X123330000Y-80670000D02*
X123330000Y-82000000D01*
%TO.C,J3*%
X115590000Y-74670000D02*
X115590000Y-77330000D01*
X120730000Y-74670000D02*
X115590000Y-74670000D01*
X120730000Y-77330000D02*
X115590000Y-77330000D01*
X120730000Y-74670000D02*
X120730000Y-77330000D01*
X122000000Y-74670000D02*
X123330000Y-74670000D01*
X123330000Y-74670000D02*
X123330000Y-76000000D01*
%TO.C,J2*%
X81895000Y-73740000D02*
X81895000Y-79710000D01*
X81895000Y-79710000D02*
X94515000Y-79710000D01*
X94515000Y-79710000D02*
X94515000Y-73740000D01*
X94515000Y-73740000D02*
X81895000Y-73740000D01*
X85205000Y-73750000D02*
X85205000Y-74500000D01*
X85205000Y-74500000D02*
X91205000Y-74500000D01*
X91205000Y-74500000D02*
X91205000Y-73750000D01*
X91205000Y-73750000D02*
X85205000Y-73750000D01*
X81905000Y-73750000D02*
X81905000Y-74500000D01*
X81905000Y-74500000D02*
X83705000Y-74500000D01*
X83705000Y-74500000D02*
X83705000Y-73750000D01*
X83705000Y-73750000D02*
X81905000Y-73750000D01*
X92705000Y-73750000D02*
X92705000Y-74500000D01*
X92705000Y-74500000D02*
X94505000Y-74500000D01*
X94505000Y-74500000D02*
X94505000Y-73750000D01*
X94505000Y-73750000D02*
X92705000Y-73750000D01*
X81905000Y-76000000D02*
X82655000Y-76000000D01*
X82655000Y-76000000D02*
X82655000Y-78950000D01*
X82655000Y-78950000D02*
X88205000Y-78950000D01*
X94505000Y-76000000D02*
X93755000Y-76000000D01*
X93755000Y-76000000D02*
X93755000Y-78950000D01*
X93755000Y-78950000D02*
X88205000Y-78950000D01*
X82855000Y-73450000D02*
X81605000Y-73450000D01*
X81605000Y-73450000D02*
X81605000Y-74700000D01*
%TO.C,U2*%
X105989000Y-83709000D02*
X105989000Y-81399000D01*
X105989000Y-81399000D02*
X105714000Y-81399000D01*
X105989000Y-83709000D02*
X105989000Y-86019000D01*
X105989000Y-86019000D02*
X105714000Y-86019000D01*
X96069000Y-83709000D02*
X96069000Y-81399000D01*
X96069000Y-81399000D02*
X96344000Y-81399000D01*
X96069000Y-83709000D02*
X96069000Y-86019000D01*
X96069000Y-86019000D02*
X96344000Y-86019000D01*
X96344000Y-86019000D02*
X96344000Y-87309000D01*
%TO.C,U1*%
X124460000Y-52070000D02*
X124460000Y-72390000D01*
X124460000Y-72390000D02*
X81280000Y-72390000D01*
X81280000Y-72390000D02*
X81280000Y-52070000D01*
X81280000Y-52070000D02*
X124460000Y-52070000D01*
X106680000Y-71120000D02*
X106680000Y-60960000D01*
X106680000Y-60960000D02*
X118110000Y-60960000D01*
X118110000Y-60960000D02*
X118110000Y-71120000D01*
X118110000Y-71120000D02*
X106680000Y-71120000D01*
X91440000Y-54610000D02*
X91440000Y-63500000D01*
X91440000Y-63500000D02*
X104140000Y-63500000D01*
X104140000Y-63500000D02*
X104140000Y-54610000D01*
X104140000Y-54610000D02*
X91440000Y-54610000D01*
X107950000Y-54610000D02*
X107950000Y-57150000D01*
X107950000Y-57150000D02*
X118110000Y-57150000D01*
X118110000Y-57150000D02*
X118110000Y-54610000D01*
X118110000Y-54610000D02*
X107950000Y-54610000D01*
X122446051Y-62230000D02*
G75*
G03*
X122446051Y-62230000I-1796051J0D01*
G01*
X87630000Y-62230000D02*
G75*
G03*
X87630000Y-62230000I-2540000J0D01*
G01*
%TO.C,R5*%
X84978748Y-85523000D02*
X85501252Y-85523000D01*
X84978748Y-86943000D02*
X85501252Y-86943000D01*
%TO.C,R4*%
X110733000Y-76976252D02*
X110733000Y-76453748D01*
X112153000Y-76976252D02*
X112153000Y-76453748D01*
%TO.C,R2*%
X109613000Y-76453748D02*
X109613000Y-76976252D01*
X108193000Y-76453748D02*
X108193000Y-76976252D01*
%TO.C,J1*%
X72390000Y-68620000D02*
X72390000Y-58460000D01*
X71120000Y-68620000D02*
X78740000Y-68620000D01*
X78740000Y-68620000D02*
X78740000Y-58460000D01*
X78740000Y-58460000D02*
X71120000Y-58460000D01*
X71120000Y-58460000D02*
X71120000Y-68620000D01*
%TO.C,D1*%
X90545000Y-86968000D02*
X93005000Y-86968000D01*
X93005000Y-86968000D02*
X93005000Y-85498000D01*
X93005000Y-85498000D02*
X90545000Y-85498000D01*
%TO.C,C1*%
X91305748Y-82856000D02*
X91828252Y-82856000D01*
X91305748Y-84276000D02*
X91828252Y-84276000D01*
%TD*%
%TO.C,J6*%
D11*
X82166666Y-95404761D02*
X82309523Y-95452380D01*
X82547619Y-95452380D01*
X82642857Y-95404761D01*
X82690476Y-95357142D01*
X82738095Y-95261904D01*
X82738095Y-95166666D01*
X82690476Y-95071428D01*
X82642857Y-95023809D01*
X82547619Y-94976190D01*
X82357142Y-94928571D01*
X82261904Y-94880952D01*
X82214285Y-94833333D01*
X82166666Y-94738095D01*
X82166666Y-94642857D01*
X82214285Y-94547619D01*
X82261904Y-94500000D01*
X82357142Y-94452380D01*
X82595238Y-94452380D01*
X82738095Y-94500000D01*
X83547619Y-95404761D02*
X83452380Y-95452380D01*
X83261904Y-95452380D01*
X83166666Y-95404761D01*
X83119047Y-95309523D01*
X83119047Y-94928571D01*
X83166666Y-94833333D01*
X83261904Y-94785714D01*
X83452380Y-94785714D01*
X83547619Y-94833333D01*
X83595238Y-94928571D01*
X83595238Y-95023809D01*
X83119047Y-95119047D01*
X84023809Y-95452380D02*
X84023809Y-94785714D01*
X84023809Y-94976190D02*
X84071428Y-94880952D01*
X84119047Y-94833333D01*
X84214285Y-94785714D01*
X84309523Y-94785714D01*
X84547619Y-94785714D02*
X84785714Y-95452380D01*
X85023809Y-94785714D01*
X85547619Y-95452380D02*
X85452380Y-95404761D01*
X85404761Y-95357142D01*
X85357142Y-95261904D01*
X85357142Y-94976190D01*
X85404761Y-94880952D01*
X85452380Y-94833333D01*
X85547619Y-94785714D01*
X85690476Y-94785714D01*
X85785714Y-94833333D01*
X85833333Y-94880952D01*
X85880952Y-94976190D01*
X85880952Y-95261904D01*
X85833333Y-95357142D01*
X85785714Y-95404761D01*
X85690476Y-95452380D01*
X85547619Y-95452380D01*
X87404761Y-94928571D02*
X87071428Y-94928571D01*
X87071428Y-95452380D02*
X87071428Y-94452380D01*
X87547619Y-94452380D01*
X88071428Y-95452380D02*
X87976190Y-95404761D01*
X87928571Y-95309523D01*
X87928571Y-94452380D01*
X88880952Y-95452380D02*
X88880952Y-94928571D01*
X88833333Y-94833333D01*
X88738095Y-94785714D01*
X88547619Y-94785714D01*
X88452380Y-94833333D01*
X88880952Y-95404761D02*
X88785714Y-95452380D01*
X88547619Y-95452380D01*
X88452380Y-95404761D01*
X88404761Y-95309523D01*
X88404761Y-95214285D01*
X88452380Y-95119047D01*
X88547619Y-95071428D01*
X88785714Y-95071428D01*
X88880952Y-95023809D01*
X89785714Y-94785714D02*
X89785714Y-95595238D01*
X89738095Y-95690476D01*
X89690476Y-95738095D01*
X89595238Y-95785714D01*
X89452380Y-95785714D01*
X89357142Y-95738095D01*
X89785714Y-95404761D02*
X89690476Y-95452380D01*
X89500000Y-95452380D01*
X89404761Y-95404761D01*
X89357142Y-95357142D01*
X89309523Y-95261904D01*
X89309523Y-94976190D01*
X89357142Y-94880952D01*
X89404761Y-94833333D01*
X89500000Y-94785714D01*
X89690476Y-94785714D01*
X89785714Y-94833333D01*
%TO.C,J10*%
X63571428Y-88568761D02*
X63714285Y-88616380D01*
X63952380Y-88616380D01*
X64047619Y-88568761D01*
X64095238Y-88521142D01*
X64142857Y-88425904D01*
X64142857Y-88330666D01*
X64095238Y-88235428D01*
X64047619Y-88187809D01*
X63952380Y-88140190D01*
X63761904Y-88092571D01*
X63666666Y-88044952D01*
X63619047Y-87997333D01*
X63571428Y-87902095D01*
X63571428Y-87806857D01*
X63619047Y-87711619D01*
X63666666Y-87664000D01*
X63761904Y-87616380D01*
X64000000Y-87616380D01*
X64142857Y-87664000D01*
X64952380Y-88568761D02*
X64857142Y-88616380D01*
X64666666Y-88616380D01*
X64571428Y-88568761D01*
X64523809Y-88473523D01*
X64523809Y-88092571D01*
X64571428Y-87997333D01*
X64666666Y-87949714D01*
X64857142Y-87949714D01*
X64952380Y-87997333D01*
X65000000Y-88092571D01*
X65000000Y-88187809D01*
X64523809Y-88283047D01*
X65428571Y-88616380D02*
X65428571Y-87949714D01*
X65428571Y-88140190D02*
X65476190Y-88044952D01*
X65523809Y-87997333D01*
X65619047Y-87949714D01*
X65714285Y-87949714D01*
X65952380Y-87949714D02*
X66190476Y-88616380D01*
X66428571Y-87949714D01*
X66952380Y-88616380D02*
X66857142Y-88568761D01*
X66809523Y-88521142D01*
X66761904Y-88425904D01*
X66761904Y-88140190D01*
X66809523Y-88044952D01*
X66857142Y-87997333D01*
X66952380Y-87949714D01*
X67095238Y-87949714D01*
X67190476Y-87997333D01*
X67238095Y-88044952D01*
X67285714Y-88140190D01*
X67285714Y-88425904D01*
X67238095Y-88521142D01*
X67190476Y-88568761D01*
X67095238Y-88616380D01*
X66952380Y-88616380D01*
X68428571Y-87711619D02*
X68476190Y-87664000D01*
X68571428Y-87616380D01*
X68809523Y-87616380D01*
X68904761Y-87664000D01*
X68952380Y-87711619D01*
X69000000Y-87806857D01*
X69000000Y-87902095D01*
X68952380Y-88044952D01*
X68380952Y-88616380D01*
X69000000Y-88616380D01*
X69428571Y-88521142D02*
X69476190Y-88568761D01*
X69428571Y-88616380D01*
X69380952Y-88568761D01*
X69428571Y-88521142D01*
X69428571Y-88616380D01*
X69809523Y-87616380D02*
X70428571Y-87616380D01*
X70095238Y-87997333D01*
X70238095Y-87997333D01*
X70333333Y-88044952D01*
X70380952Y-88092571D01*
X70428571Y-88187809D01*
X70428571Y-88425904D01*
X70380952Y-88521142D01*
X70333333Y-88568761D01*
X70238095Y-88616380D01*
X69952380Y-88616380D01*
X69857142Y-88568761D01*
X69809523Y-88521142D01*
%TO.C,J9*%
X63571428Y-82759761D02*
X63714285Y-82807380D01*
X63952380Y-82807380D01*
X64047619Y-82759761D01*
X64095238Y-82712142D01*
X64142857Y-82616904D01*
X64142857Y-82521666D01*
X64095238Y-82426428D01*
X64047619Y-82378809D01*
X63952380Y-82331190D01*
X63761904Y-82283571D01*
X63666666Y-82235952D01*
X63619047Y-82188333D01*
X63571428Y-82093095D01*
X63571428Y-81997857D01*
X63619047Y-81902619D01*
X63666666Y-81855000D01*
X63761904Y-81807380D01*
X64000000Y-81807380D01*
X64142857Y-81855000D01*
X64952380Y-82759761D02*
X64857142Y-82807380D01*
X64666666Y-82807380D01*
X64571428Y-82759761D01*
X64523809Y-82664523D01*
X64523809Y-82283571D01*
X64571428Y-82188333D01*
X64666666Y-82140714D01*
X64857142Y-82140714D01*
X64952380Y-82188333D01*
X65000000Y-82283571D01*
X65000000Y-82378809D01*
X64523809Y-82474047D01*
X65428571Y-82807380D02*
X65428571Y-82140714D01*
X65428571Y-82331190D02*
X65476190Y-82235952D01*
X65523809Y-82188333D01*
X65619047Y-82140714D01*
X65714285Y-82140714D01*
X65952380Y-82140714D02*
X66190476Y-82807380D01*
X66428571Y-82140714D01*
X66952380Y-82807380D02*
X66857142Y-82759761D01*
X66809523Y-82712142D01*
X66761904Y-82616904D01*
X66761904Y-82331190D01*
X66809523Y-82235952D01*
X66857142Y-82188333D01*
X66952380Y-82140714D01*
X67095238Y-82140714D01*
X67190476Y-82188333D01*
X67238095Y-82235952D01*
X67285714Y-82331190D01*
X67285714Y-82616904D01*
X67238095Y-82712142D01*
X67190476Y-82759761D01*
X67095238Y-82807380D01*
X66952380Y-82807380D01*
X68428571Y-81902619D02*
X68476190Y-81855000D01*
X68571428Y-81807380D01*
X68809523Y-81807380D01*
X68904761Y-81855000D01*
X68952380Y-81902619D01*
X69000000Y-81997857D01*
X69000000Y-82093095D01*
X68952380Y-82235952D01*
X68380952Y-82807380D01*
X69000000Y-82807380D01*
X69428571Y-82712142D02*
X69476190Y-82759761D01*
X69428571Y-82807380D01*
X69380952Y-82759761D01*
X69428571Y-82712142D01*
X69428571Y-82807380D01*
X69857142Y-81902619D02*
X69904761Y-81855000D01*
X70000000Y-81807380D01*
X70238095Y-81807380D01*
X70333333Y-81855000D01*
X70380952Y-81902619D01*
X70428571Y-81997857D01*
X70428571Y-82093095D01*
X70380952Y-82235952D01*
X69809523Y-82807380D01*
X70428571Y-82807380D01*
%TO.C,J8*%
X63571428Y-76912761D02*
X63714285Y-76960380D01*
X63952380Y-76960380D01*
X64047619Y-76912761D01*
X64095238Y-76865142D01*
X64142857Y-76769904D01*
X64142857Y-76674666D01*
X64095238Y-76579428D01*
X64047619Y-76531809D01*
X63952380Y-76484190D01*
X63761904Y-76436571D01*
X63666666Y-76388952D01*
X63619047Y-76341333D01*
X63571428Y-76246095D01*
X63571428Y-76150857D01*
X63619047Y-76055619D01*
X63666666Y-76008000D01*
X63761904Y-75960380D01*
X64000000Y-75960380D01*
X64142857Y-76008000D01*
X64952380Y-76912761D02*
X64857142Y-76960380D01*
X64666666Y-76960380D01*
X64571428Y-76912761D01*
X64523809Y-76817523D01*
X64523809Y-76436571D01*
X64571428Y-76341333D01*
X64666666Y-76293714D01*
X64857142Y-76293714D01*
X64952380Y-76341333D01*
X65000000Y-76436571D01*
X65000000Y-76531809D01*
X64523809Y-76627047D01*
X65428571Y-76960380D02*
X65428571Y-76293714D01*
X65428571Y-76484190D02*
X65476190Y-76388952D01*
X65523809Y-76341333D01*
X65619047Y-76293714D01*
X65714285Y-76293714D01*
X65952380Y-76293714D02*
X66190476Y-76960380D01*
X66428571Y-76293714D01*
X66952380Y-76960380D02*
X66857142Y-76912761D01*
X66809523Y-76865142D01*
X66761904Y-76769904D01*
X66761904Y-76484190D01*
X66809523Y-76388952D01*
X66857142Y-76341333D01*
X66952380Y-76293714D01*
X67095238Y-76293714D01*
X67190476Y-76341333D01*
X67238095Y-76388952D01*
X67285714Y-76484190D01*
X67285714Y-76769904D01*
X67238095Y-76865142D01*
X67190476Y-76912761D01*
X67095238Y-76960380D01*
X66952380Y-76960380D01*
X68428571Y-76055619D02*
X68476190Y-76008000D01*
X68571428Y-75960380D01*
X68809523Y-75960380D01*
X68904761Y-76008000D01*
X68952380Y-76055619D01*
X69000000Y-76150857D01*
X69000000Y-76246095D01*
X68952380Y-76388952D01*
X68380952Y-76960380D01*
X69000000Y-76960380D01*
X69428571Y-76865142D02*
X69476190Y-76912761D01*
X69428571Y-76960380D01*
X69380952Y-76912761D01*
X69428571Y-76865142D01*
X69428571Y-76960380D01*
X70428571Y-76960380D02*
X69857142Y-76960380D01*
X70142857Y-76960380D02*
X70142857Y-75960380D01*
X70047619Y-76103238D01*
X69952380Y-76198476D01*
X69857142Y-76246095D01*
%TO.C,J7*%
X105976190Y-95404761D02*
X106119047Y-95452380D01*
X106357142Y-95452380D01*
X106452380Y-95404761D01*
X106500000Y-95357142D01*
X106547619Y-95261904D01*
X106547619Y-95166666D01*
X106500000Y-95071428D01*
X106452380Y-95023809D01*
X106357142Y-94976190D01*
X106166666Y-94928571D01*
X106071428Y-94880952D01*
X106023809Y-94833333D01*
X105976190Y-94738095D01*
X105976190Y-94642857D01*
X106023809Y-94547619D01*
X106071428Y-94500000D01*
X106166666Y-94452380D01*
X106404761Y-94452380D01*
X106547619Y-94500000D01*
X107357142Y-95404761D02*
X107261904Y-95452380D01*
X107071428Y-95452380D01*
X106976190Y-95404761D01*
X106928571Y-95309523D01*
X106928571Y-94928571D01*
X106976190Y-94833333D01*
X107071428Y-94785714D01*
X107261904Y-94785714D01*
X107357142Y-94833333D01*
X107404761Y-94928571D01*
X107404761Y-95023809D01*
X106928571Y-95119047D01*
X107833333Y-95452380D02*
X107833333Y-94785714D01*
X107833333Y-94976190D02*
X107880952Y-94880952D01*
X107928571Y-94833333D01*
X108023809Y-94785714D01*
X108119047Y-94785714D01*
X108357142Y-94785714D02*
X108595238Y-95452380D01*
X108833333Y-94785714D01*
X109357142Y-95452380D02*
X109261904Y-95404761D01*
X109214285Y-95357142D01*
X109166666Y-95261904D01*
X109166666Y-94976190D01*
X109214285Y-94880952D01*
X109261904Y-94833333D01*
X109357142Y-94785714D01*
X109500000Y-94785714D01*
X109595238Y-94833333D01*
X109642857Y-94880952D01*
X109690476Y-94976190D01*
X109690476Y-95261904D01*
X109642857Y-95357142D01*
X109595238Y-95404761D01*
X109500000Y-95452380D01*
X109357142Y-95452380D01*
X110880952Y-95452380D02*
X110880952Y-94452380D01*
X111214285Y-95166666D01*
X111547619Y-94452380D01*
X111547619Y-95452380D01*
X112452380Y-95452380D02*
X112452380Y-94928571D01*
X112404761Y-94833333D01*
X112309523Y-94785714D01*
X112119047Y-94785714D01*
X112023809Y-94833333D01*
X112452380Y-95404761D02*
X112357142Y-95452380D01*
X112119047Y-95452380D01*
X112023809Y-95404761D01*
X111976190Y-95309523D01*
X111976190Y-95214285D01*
X112023809Y-95119047D01*
X112119047Y-95071428D01*
X112357142Y-95071428D01*
X112452380Y-95023809D01*
X112928571Y-94785714D02*
X112928571Y-95452380D01*
X112928571Y-94880952D02*
X112976190Y-94833333D01*
X113071428Y-94785714D01*
X113214285Y-94785714D01*
X113309523Y-94833333D01*
X113357142Y-94928571D01*
X113357142Y-95452380D01*
X114261904Y-95404761D02*
X114166666Y-95452380D01*
X113976190Y-95452380D01*
X113880952Y-95404761D01*
X113833333Y-95357142D01*
X113785714Y-95261904D01*
X113785714Y-94976190D01*
X113833333Y-94880952D01*
X113880952Y-94833333D01*
X113976190Y-94785714D01*
X114166666Y-94785714D01*
X114261904Y-94833333D01*
X114690476Y-95452380D02*
X114690476Y-94452380D01*
X115119047Y-95452380D02*
X115119047Y-94928571D01*
X115071428Y-94833333D01*
X114976190Y-94785714D01*
X114833333Y-94785714D01*
X114738095Y-94833333D01*
X114690476Y-94880952D01*
X115976190Y-95404761D02*
X115880952Y-95452380D01*
X115690476Y-95452380D01*
X115595238Y-95404761D01*
X115547619Y-95309523D01*
X115547619Y-94928571D01*
X115595238Y-94833333D01*
X115690476Y-94785714D01*
X115880952Y-94785714D01*
X115976190Y-94833333D01*
X116023809Y-94928571D01*
X116023809Y-95023809D01*
X115547619Y-95119047D01*
%TO.C,J5*%
X124524428Y-88441761D02*
X124667285Y-88489380D01*
X124905380Y-88489380D01*
X125000619Y-88441761D01*
X125048238Y-88394142D01*
X125095857Y-88298904D01*
X125095857Y-88203666D01*
X125048238Y-88108428D01*
X125000619Y-88060809D01*
X124905380Y-88013190D01*
X124714904Y-87965571D01*
X124619666Y-87917952D01*
X124572047Y-87870333D01*
X124524428Y-87775095D01*
X124524428Y-87679857D01*
X124572047Y-87584619D01*
X124619666Y-87537000D01*
X124714904Y-87489380D01*
X124953000Y-87489380D01*
X125095857Y-87537000D01*
X125905380Y-88441761D02*
X125810142Y-88489380D01*
X125619666Y-88489380D01*
X125524428Y-88441761D01*
X125476809Y-88346523D01*
X125476809Y-87965571D01*
X125524428Y-87870333D01*
X125619666Y-87822714D01*
X125810142Y-87822714D01*
X125905380Y-87870333D01*
X125953000Y-87965571D01*
X125953000Y-88060809D01*
X125476809Y-88156047D01*
X126381571Y-88489380D02*
X126381571Y-87822714D01*
X126381571Y-88013190D02*
X126429190Y-87917952D01*
X126476809Y-87870333D01*
X126572047Y-87822714D01*
X126667285Y-87822714D01*
X126905380Y-87822714D02*
X127143476Y-88489380D01*
X127381571Y-87822714D01*
X127905380Y-88489380D02*
X127810142Y-88441761D01*
X127762523Y-88394142D01*
X127714904Y-88298904D01*
X127714904Y-88013190D01*
X127762523Y-87917952D01*
X127810142Y-87870333D01*
X127905380Y-87822714D01*
X128048238Y-87822714D01*
X128143476Y-87870333D01*
X128191095Y-87917952D01*
X128238714Y-88013190D01*
X128238714Y-88298904D01*
X128191095Y-88394142D01*
X128143476Y-88441761D01*
X128048238Y-88489380D01*
X127905380Y-88489380D01*
X129953000Y-88489380D02*
X129381571Y-88489380D01*
X129667285Y-88489380D02*
X129667285Y-87489380D01*
X129572047Y-87632238D01*
X129476809Y-87727476D01*
X129381571Y-87775095D01*
X130381571Y-88394142D02*
X130429190Y-88441761D01*
X130381571Y-88489380D01*
X130333952Y-88441761D01*
X130381571Y-88394142D01*
X130381571Y-88489380D01*
X130762523Y-87489380D02*
X131381571Y-87489380D01*
X131048238Y-87870333D01*
X131191095Y-87870333D01*
X131286333Y-87917952D01*
X131333952Y-87965571D01*
X131381571Y-88060809D01*
X131381571Y-88298904D01*
X131333952Y-88394142D01*
X131286333Y-88441761D01*
X131191095Y-88489380D01*
X130905380Y-88489380D01*
X130810142Y-88441761D01*
X130762523Y-88394142D01*
%TO.C,J4*%
X124524428Y-82632761D02*
X124667285Y-82680380D01*
X124905380Y-82680380D01*
X125000619Y-82632761D01*
X125048238Y-82585142D01*
X125095857Y-82489904D01*
X125095857Y-82394666D01*
X125048238Y-82299428D01*
X125000619Y-82251809D01*
X124905380Y-82204190D01*
X124714904Y-82156571D01*
X124619666Y-82108952D01*
X124572047Y-82061333D01*
X124524428Y-81966095D01*
X124524428Y-81870857D01*
X124572047Y-81775619D01*
X124619666Y-81728000D01*
X124714904Y-81680380D01*
X124953000Y-81680380D01*
X125095857Y-81728000D01*
X125905380Y-82632761D02*
X125810142Y-82680380D01*
X125619666Y-82680380D01*
X125524428Y-82632761D01*
X125476809Y-82537523D01*
X125476809Y-82156571D01*
X125524428Y-82061333D01*
X125619666Y-82013714D01*
X125810142Y-82013714D01*
X125905380Y-82061333D01*
X125953000Y-82156571D01*
X125953000Y-82251809D01*
X125476809Y-82347047D01*
X126381571Y-82680380D02*
X126381571Y-82013714D01*
X126381571Y-82204190D02*
X126429190Y-82108952D01*
X126476809Y-82061333D01*
X126572047Y-82013714D01*
X126667285Y-82013714D01*
X126905380Y-82013714D02*
X127143476Y-82680380D01*
X127381571Y-82013714D01*
X127905380Y-82680380D02*
X127810142Y-82632761D01*
X127762523Y-82585142D01*
X127714904Y-82489904D01*
X127714904Y-82204190D01*
X127762523Y-82108952D01*
X127810142Y-82061333D01*
X127905380Y-82013714D01*
X128048238Y-82013714D01*
X128143476Y-82061333D01*
X128191095Y-82108952D01*
X128238714Y-82204190D01*
X128238714Y-82489904D01*
X128191095Y-82585142D01*
X128143476Y-82632761D01*
X128048238Y-82680380D01*
X127905380Y-82680380D01*
X129953000Y-82680380D02*
X129381571Y-82680380D01*
X129667285Y-82680380D02*
X129667285Y-81680380D01*
X129572047Y-81823238D01*
X129476809Y-81918476D01*
X129381571Y-81966095D01*
X130381571Y-82585142D02*
X130429190Y-82632761D01*
X130381571Y-82680380D01*
X130333952Y-82632761D01*
X130381571Y-82585142D01*
X130381571Y-82680380D01*
X130810142Y-81775619D02*
X130857761Y-81728000D01*
X130953000Y-81680380D01*
X131191095Y-81680380D01*
X131286333Y-81728000D01*
X131333952Y-81775619D01*
X131381571Y-81870857D01*
X131381571Y-81966095D01*
X131333952Y-82108952D01*
X130762523Y-82680380D01*
X131381571Y-82680380D01*
%TO.C,J3*%
X124571428Y-76817761D02*
X124714285Y-76865380D01*
X124952380Y-76865380D01*
X125047619Y-76817761D01*
X125095238Y-76770142D01*
X125142857Y-76674904D01*
X125142857Y-76579666D01*
X125095238Y-76484428D01*
X125047619Y-76436809D01*
X124952380Y-76389190D01*
X124761904Y-76341571D01*
X124666666Y-76293952D01*
X124619047Y-76246333D01*
X124571428Y-76151095D01*
X124571428Y-76055857D01*
X124619047Y-75960619D01*
X124666666Y-75913000D01*
X124761904Y-75865380D01*
X125000000Y-75865380D01*
X125142857Y-75913000D01*
X125952380Y-76817761D02*
X125857142Y-76865380D01*
X125666666Y-76865380D01*
X125571428Y-76817761D01*
X125523809Y-76722523D01*
X125523809Y-76341571D01*
X125571428Y-76246333D01*
X125666666Y-76198714D01*
X125857142Y-76198714D01*
X125952380Y-76246333D01*
X126000000Y-76341571D01*
X126000000Y-76436809D01*
X125523809Y-76532047D01*
X126428571Y-76865380D02*
X126428571Y-76198714D01*
X126428571Y-76389190D02*
X126476190Y-76293952D01*
X126523809Y-76246333D01*
X126619047Y-76198714D01*
X126714285Y-76198714D01*
X126952380Y-76198714D02*
X127190476Y-76865380D01*
X127428571Y-76198714D01*
X127952380Y-76865380D02*
X127857142Y-76817761D01*
X127809523Y-76770142D01*
X127761904Y-76674904D01*
X127761904Y-76389190D01*
X127809523Y-76293952D01*
X127857142Y-76246333D01*
X127952380Y-76198714D01*
X128095238Y-76198714D01*
X128190476Y-76246333D01*
X128238095Y-76293952D01*
X128285714Y-76389190D01*
X128285714Y-76674904D01*
X128238095Y-76770142D01*
X128190476Y-76817761D01*
X128095238Y-76865380D01*
X127952380Y-76865380D01*
X130000000Y-76865380D02*
X129428571Y-76865380D01*
X129714285Y-76865380D02*
X129714285Y-75865380D01*
X129619047Y-76008238D01*
X129523809Y-76103476D01*
X129428571Y-76151095D01*
X130428571Y-76770142D02*
X130476190Y-76817761D01*
X130428571Y-76865380D01*
X130380952Y-76817761D01*
X130428571Y-76770142D01*
X130428571Y-76865380D01*
X131428571Y-76865380D02*
X130857142Y-76865380D01*
X131142857Y-76865380D02*
X131142857Y-75865380D01*
X131047619Y-76008238D01*
X130952380Y-76103476D01*
X130857142Y-76151095D01*
%TO.C,J2*%
X82809523Y-81452380D02*
X82809523Y-80452380D01*
X83238095Y-80547619D02*
X83285714Y-80500000D01*
X83380952Y-80452380D01*
X83619047Y-80452380D01*
X83714285Y-80500000D01*
X83761904Y-80547619D01*
X83809523Y-80642857D01*
X83809523Y-80738095D01*
X83761904Y-80880952D01*
X83190476Y-81452380D01*
X83809523Y-81452380D01*
X84809523Y-81357142D02*
X84761904Y-81404761D01*
X84619047Y-81452380D01*
X84523809Y-81452380D01*
X84380952Y-81404761D01*
X84285714Y-81309523D01*
X84238095Y-81214285D01*
X84190476Y-81023809D01*
X84190476Y-80880952D01*
X84238095Y-80690476D01*
X84285714Y-80595238D01*
X84380952Y-80500000D01*
X84523809Y-80452380D01*
X84619047Y-80452380D01*
X84761904Y-80500000D01*
X84809523Y-80547619D01*
X85000000Y-81547619D02*
X85761904Y-81547619D01*
X86000000Y-81452380D02*
X86000000Y-80785714D01*
X86000000Y-80880952D02*
X86047619Y-80833333D01*
X86142857Y-80785714D01*
X86285714Y-80785714D01*
X86380952Y-80833333D01*
X86428571Y-80928571D01*
X86428571Y-81452380D01*
X86428571Y-80928571D02*
X86476190Y-80833333D01*
X86571428Y-80785714D01*
X86714285Y-80785714D01*
X86809523Y-80833333D01*
X86857142Y-80928571D01*
X86857142Y-81452380D01*
X87761904Y-81452380D02*
X87761904Y-80928571D01*
X87714285Y-80833333D01*
X87619047Y-80785714D01*
X87428571Y-80785714D01*
X87333333Y-80833333D01*
X87761904Y-81404761D02*
X87666666Y-81452380D01*
X87428571Y-81452380D01*
X87333333Y-81404761D01*
X87285714Y-81309523D01*
X87285714Y-81214285D01*
X87333333Y-81119047D01*
X87428571Y-81071428D01*
X87666666Y-81071428D01*
X87761904Y-81023809D01*
X88238095Y-81452380D02*
X88238095Y-80785714D01*
X88238095Y-80452380D02*
X88190476Y-80500000D01*
X88238095Y-80547619D01*
X88285714Y-80500000D01*
X88238095Y-80452380D01*
X88238095Y-80547619D01*
X88714285Y-80785714D02*
X88714285Y-81452380D01*
X88714285Y-80880952D02*
X88761904Y-80833333D01*
X88857142Y-80785714D01*
X89000000Y-80785714D01*
X89095238Y-80833333D01*
X89142857Y-80928571D01*
X89142857Y-81452380D01*
X89380952Y-81547619D02*
X90142857Y-81547619D01*
X90809523Y-81404761D02*
X90714285Y-81452380D01*
X90523809Y-81452380D01*
X90428571Y-81404761D01*
X90380952Y-81357142D01*
X90333333Y-81261904D01*
X90333333Y-80976190D01*
X90380952Y-80880952D01*
X90428571Y-80833333D01*
X90523809Y-80785714D01*
X90714285Y-80785714D01*
X90809523Y-80833333D01*
X91666666Y-81452380D02*
X91666666Y-80928571D01*
X91619047Y-80833333D01*
X91523809Y-80785714D01*
X91333333Y-80785714D01*
X91238095Y-80833333D01*
X91666666Y-81404761D02*
X91571428Y-81452380D01*
X91333333Y-81452380D01*
X91238095Y-81404761D01*
X91190476Y-81309523D01*
X91190476Y-81214285D01*
X91238095Y-81119047D01*
X91333333Y-81071428D01*
X91571428Y-81071428D01*
X91666666Y-81023809D01*
X92142857Y-81452380D02*
X92142857Y-80785714D01*
X92142857Y-80976190D02*
X92190476Y-80880952D01*
X92238095Y-80833333D01*
X92333333Y-80785714D01*
X92428571Y-80785714D01*
X93190476Y-81452380D02*
X93190476Y-80452380D01*
X93190476Y-81404761D02*
X93095238Y-81452380D01*
X92904761Y-81452380D01*
X92809523Y-81404761D01*
X92761904Y-81357142D01*
X92714285Y-81261904D01*
X92714285Y-80976190D01*
X92761904Y-80880952D01*
X92809523Y-80833333D01*
X92904761Y-80785714D01*
X93095238Y-80785714D01*
X93190476Y-80833333D01*
%TO.C,U2*%
X98833333Y-79452380D02*
X98833333Y-78452380D01*
X99214285Y-78452380D01*
X99309523Y-78500000D01*
X99357142Y-78547619D01*
X99404761Y-78642857D01*
X99404761Y-78785714D01*
X99357142Y-78880952D01*
X99309523Y-78928571D01*
X99214285Y-78976190D01*
X98833333Y-78976190D01*
X100404761Y-79357142D02*
X100357142Y-79404761D01*
X100214285Y-79452380D01*
X100119047Y-79452380D01*
X99976190Y-79404761D01*
X99880952Y-79309523D01*
X99833333Y-79214285D01*
X99785714Y-79023809D01*
X99785714Y-78880952D01*
X99833333Y-78690476D01*
X99880952Y-78595238D01*
X99976190Y-78500000D01*
X100119047Y-78452380D01*
X100214285Y-78452380D01*
X100357142Y-78500000D01*
X100404761Y-78547619D01*
X100785714Y-79166666D02*
X101261904Y-79166666D01*
X100690476Y-79452380D02*
X101023809Y-78452380D01*
X101357142Y-79452380D01*
X101738095Y-79452380D02*
X101928571Y-79452380D01*
X102023809Y-79404761D01*
X102071428Y-79357142D01*
X102166666Y-79214285D01*
X102214285Y-79023809D01*
X102214285Y-78642857D01*
X102166666Y-78547619D01*
X102119047Y-78500000D01*
X102023809Y-78452380D01*
X101833333Y-78452380D01*
X101738095Y-78500000D01*
X101690476Y-78547619D01*
X101642857Y-78642857D01*
X101642857Y-78880952D01*
X101690476Y-78976190D01*
X101738095Y-79023809D01*
X101833333Y-79071428D01*
X102023809Y-79071428D01*
X102119047Y-79023809D01*
X102166666Y-78976190D01*
X102214285Y-78880952D01*
X103071428Y-78452380D02*
X102880952Y-78452380D01*
X102785714Y-78500000D01*
X102738095Y-78547619D01*
X102642857Y-78690476D01*
X102595238Y-78880952D01*
X102595238Y-79261904D01*
X102642857Y-79357142D01*
X102690476Y-79404761D01*
X102785714Y-79452380D01*
X102976190Y-79452380D01*
X103071428Y-79404761D01*
X103119047Y-79357142D01*
X103166666Y-79261904D01*
X103166666Y-79023809D01*
X103119047Y-78928571D01*
X103071428Y-78880952D01*
X102976190Y-78833333D01*
X102785714Y-78833333D01*
X102690476Y-78880952D01*
X102642857Y-78928571D01*
X102595238Y-79023809D01*
X103738095Y-78880952D02*
X103642857Y-78833333D01*
X103595238Y-78785714D01*
X103547619Y-78690476D01*
X103547619Y-78642857D01*
X103595238Y-78547619D01*
X103642857Y-78500000D01*
X103738095Y-78452380D01*
X103928571Y-78452380D01*
X104023809Y-78500000D01*
X104071428Y-78547619D01*
X104119047Y-78642857D01*
X104119047Y-78690476D01*
X104071428Y-78785714D01*
X104023809Y-78833333D01*
X103928571Y-78880952D01*
X103738095Y-78880952D01*
X103642857Y-78928571D01*
X103595238Y-78976190D01*
X103547619Y-79071428D01*
X103547619Y-79261904D01*
X103595238Y-79357142D01*
X103642857Y-79404761D01*
X103738095Y-79452380D01*
X103928571Y-79452380D01*
X104023809Y-79404761D01*
X104071428Y-79357142D01*
X104119047Y-79261904D01*
X104119047Y-79071428D01*
X104071428Y-78976190D01*
X104023809Y-78928571D01*
X103928571Y-78880952D01*
X105023809Y-78452380D02*
X104547619Y-78452380D01*
X104500000Y-78928571D01*
X104547619Y-78880952D01*
X104642857Y-78833333D01*
X104880952Y-78833333D01*
X104976190Y-78880952D01*
X105023809Y-78928571D01*
X105071428Y-79023809D01*
X105071428Y-79261904D01*
X105023809Y-79357142D01*
X104976190Y-79404761D01*
X104880952Y-79452380D01*
X104642857Y-79452380D01*
X104547619Y-79404761D01*
X104500000Y-79357142D01*
X105500000Y-79452380D02*
X105500000Y-78452380D01*
X105880952Y-78452380D01*
X105976190Y-78500000D01*
X106023809Y-78547619D01*
X106071428Y-78642857D01*
X106071428Y-78785714D01*
X106023809Y-78880952D01*
X105976190Y-78928571D01*
X105880952Y-78976190D01*
X105500000Y-78976190D01*
X106404761Y-78452380D02*
X106642857Y-79452380D01*
X106833333Y-78738095D01*
X107023809Y-79452380D01*
X107261904Y-78452380D01*
%TO.C,U1*%
X97833333Y-74452380D02*
X97357142Y-74452380D01*
X97357142Y-73452380D01*
X98166666Y-74452380D02*
X98166666Y-73452380D01*
X98500000Y-74166666D01*
X98833333Y-73452380D01*
X98833333Y-74452380D01*
X99261904Y-73547619D02*
X99309523Y-73500000D01*
X99404761Y-73452380D01*
X99642857Y-73452380D01*
X99738095Y-73500000D01*
X99785714Y-73547619D01*
X99833333Y-73642857D01*
X99833333Y-73738095D01*
X99785714Y-73880952D01*
X99214285Y-74452380D01*
X99833333Y-74452380D01*
X100738095Y-73452380D02*
X100261904Y-73452380D01*
X100214285Y-73928571D01*
X100261904Y-73880952D01*
X100357142Y-73833333D01*
X100595238Y-73833333D01*
X100690476Y-73880952D01*
X100738095Y-73928571D01*
X100785714Y-74023809D01*
X100785714Y-74261904D01*
X100738095Y-74357142D01*
X100690476Y-74404761D01*
X100595238Y-74452380D01*
X100357142Y-74452380D01*
X100261904Y-74404761D01*
X100214285Y-74357142D01*
X101261904Y-74452380D02*
X101452380Y-74452380D01*
X101547619Y-74404761D01*
X101595238Y-74357142D01*
X101690476Y-74214285D01*
X101738095Y-74023809D01*
X101738095Y-73642857D01*
X101690476Y-73547619D01*
X101642857Y-73500000D01*
X101547619Y-73452380D01*
X101357142Y-73452380D01*
X101261904Y-73500000D01*
X101214285Y-73547619D01*
X101166666Y-73642857D01*
X101166666Y-73880952D01*
X101214285Y-73976190D01*
X101261904Y-74023809D01*
X101357142Y-74071428D01*
X101547619Y-74071428D01*
X101642857Y-74023809D01*
X101690476Y-73976190D01*
X101738095Y-73880952D01*
X102595238Y-73452380D02*
X102404761Y-73452380D01*
X102309523Y-73500000D01*
X102261904Y-73547619D01*
X102166666Y-73690476D01*
X102119047Y-73880952D01*
X102119047Y-74261904D01*
X102166666Y-74357142D01*
X102214285Y-74404761D01*
X102309523Y-74452380D01*
X102500000Y-74452380D01*
X102595238Y-74404761D01*
X102642857Y-74357142D01*
X102690476Y-74261904D01*
X102690476Y-74023809D01*
X102642857Y-73928571D01*
X102595238Y-73880952D01*
X102500000Y-73833333D01*
X102309523Y-73833333D01*
X102214285Y-73880952D01*
X102166666Y-73928571D01*
X102119047Y-74023809D01*
%TO.C,R5*%
X85073333Y-85035380D02*
X84740000Y-84559190D01*
X84501904Y-85035380D02*
X84501904Y-84035380D01*
X84882857Y-84035380D01*
X84978095Y-84083000D01*
X85025714Y-84130619D01*
X85073333Y-84225857D01*
X85073333Y-84368714D01*
X85025714Y-84463952D01*
X84978095Y-84511571D01*
X84882857Y-84559190D01*
X84501904Y-84559190D01*
X85978095Y-84035380D02*
X85501904Y-84035380D01*
X85454285Y-84511571D01*
X85501904Y-84463952D01*
X85597142Y-84416333D01*
X85835238Y-84416333D01*
X85930476Y-84463952D01*
X85978095Y-84511571D01*
X86025714Y-84606809D01*
X86025714Y-84844904D01*
X85978095Y-84940142D01*
X85930476Y-84987761D01*
X85835238Y-85035380D01*
X85597142Y-85035380D01*
X85501904Y-84987761D01*
X85454285Y-84940142D01*
%TO.C,R4*%
X112833333Y-74452380D02*
X112500000Y-73976190D01*
X112261904Y-74452380D02*
X112261904Y-73452380D01*
X112642857Y-73452380D01*
X112738095Y-73500000D01*
X112785714Y-73547619D01*
X112833333Y-73642857D01*
X112833333Y-73785714D01*
X112785714Y-73880952D01*
X112738095Y-73928571D01*
X112642857Y-73976190D01*
X112261904Y-73976190D01*
X113690476Y-73785714D02*
X113690476Y-74452380D01*
X113452380Y-73404761D02*
X113214285Y-74119047D01*
X113833333Y-74119047D01*
%TO.C,R2*%
X106833333Y-74452380D02*
X106500000Y-73976190D01*
X106261904Y-74452380D02*
X106261904Y-73452380D01*
X106642857Y-73452380D01*
X106738095Y-73500000D01*
X106785714Y-73547619D01*
X106833333Y-73642857D01*
X106833333Y-73785714D01*
X106785714Y-73880952D01*
X106738095Y-73928571D01*
X106642857Y-73976190D01*
X106261904Y-73976190D01*
X107214285Y-73547619D02*
X107261904Y-73500000D01*
X107357142Y-73452380D01*
X107595238Y-73452380D01*
X107690476Y-73500000D01*
X107738095Y-73547619D01*
X107785714Y-73642857D01*
X107785714Y-73738095D01*
X107738095Y-73880952D01*
X107166666Y-74452380D01*
X107785714Y-74452380D01*
%TO.C,J1*%
X70714285Y-57747142D02*
X70666666Y-57794761D01*
X70523809Y-57842380D01*
X70428571Y-57842380D01*
X70285714Y-57794761D01*
X70190476Y-57699523D01*
X70142857Y-57604285D01*
X70095238Y-57413809D01*
X70095238Y-57270952D01*
X70142857Y-57080476D01*
X70190476Y-56985238D01*
X70285714Y-56890000D01*
X70428571Y-56842380D01*
X70523809Y-56842380D01*
X70666666Y-56890000D01*
X70714285Y-56937619D01*
X71285714Y-57842380D02*
X71190476Y-57794761D01*
X71142857Y-57747142D01*
X71095238Y-57651904D01*
X71095238Y-57366190D01*
X71142857Y-57270952D01*
X71190476Y-57223333D01*
X71285714Y-57175714D01*
X71428571Y-57175714D01*
X71523809Y-57223333D01*
X71571428Y-57270952D01*
X71619047Y-57366190D01*
X71619047Y-57651904D01*
X71571428Y-57747142D01*
X71523809Y-57794761D01*
X71428571Y-57842380D01*
X71285714Y-57842380D01*
X72047619Y-57175714D02*
X72047619Y-57842380D01*
X72047619Y-57270952D02*
X72095238Y-57223333D01*
X72190476Y-57175714D01*
X72333333Y-57175714D01*
X72428571Y-57223333D01*
X72476190Y-57318571D01*
X72476190Y-57842380D01*
X72952380Y-57175714D02*
X72952380Y-57842380D01*
X72952380Y-57270952D02*
X73000000Y-57223333D01*
X73095238Y-57175714D01*
X73238095Y-57175714D01*
X73333333Y-57223333D01*
X73380952Y-57318571D01*
X73380952Y-57842380D01*
X73619047Y-57937619D02*
X74380952Y-57937619D01*
X74619047Y-57842380D02*
X74619047Y-56842380D01*
X74619047Y-57223333D02*
X74714285Y-57175714D01*
X74904761Y-57175714D01*
X75000000Y-57223333D01*
X75047619Y-57270952D01*
X75095238Y-57366190D01*
X75095238Y-57651904D01*
X75047619Y-57747142D01*
X75000000Y-57794761D01*
X74904761Y-57842380D01*
X74714285Y-57842380D01*
X74619047Y-57794761D01*
X75952380Y-57842380D02*
X75952380Y-57318571D01*
X75904761Y-57223333D01*
X75809523Y-57175714D01*
X75619047Y-57175714D01*
X75523809Y-57223333D01*
X75952380Y-57794761D02*
X75857142Y-57842380D01*
X75619047Y-57842380D01*
X75523809Y-57794761D01*
X75476190Y-57699523D01*
X75476190Y-57604285D01*
X75523809Y-57509047D01*
X75619047Y-57461428D01*
X75857142Y-57461428D01*
X75952380Y-57413809D01*
X76285714Y-57175714D02*
X76666666Y-57175714D01*
X76428571Y-56842380D02*
X76428571Y-57699523D01*
X76476190Y-57794761D01*
X76571428Y-57842380D01*
X76666666Y-57842380D01*
X76761904Y-57937619D02*
X77523809Y-57937619D01*
X77761904Y-57175714D02*
X77761904Y-58175714D01*
X77761904Y-57223333D02*
X77857142Y-57175714D01*
X78047619Y-57175714D01*
X78142857Y-57223333D01*
X78190476Y-57270952D01*
X78238095Y-57366190D01*
X78238095Y-57651904D01*
X78190476Y-57747142D01*
X78142857Y-57794761D01*
X78047619Y-57842380D01*
X77857142Y-57842380D01*
X77761904Y-57794761D01*
X78571428Y-57175714D02*
X78761904Y-57842380D01*
X78952380Y-57366190D01*
X79142857Y-57842380D01*
X79333333Y-57175714D01*
X79714285Y-57842380D02*
X79714285Y-57175714D01*
X79714285Y-57366190D02*
X79761904Y-57270952D01*
X79809523Y-57223333D01*
X79904761Y-57175714D01*
X80000000Y-57175714D01*
%TO.C,D1*%
X90357142Y-88452380D02*
X89880952Y-88452380D01*
X89880952Y-87452380D01*
X90690476Y-87928571D02*
X91023809Y-87928571D01*
X91166666Y-88452380D02*
X90690476Y-88452380D01*
X90690476Y-87452380D01*
X91166666Y-87452380D01*
X91595238Y-88452380D02*
X91595238Y-87452380D01*
X91833333Y-87452380D01*
X91976190Y-87500000D01*
X92071428Y-87595238D01*
X92119047Y-87690476D01*
X92166666Y-87880952D01*
X92166666Y-88023809D01*
X92119047Y-88214285D01*
X92071428Y-88309523D01*
X91976190Y-88404761D01*
X91833333Y-88452380D01*
X91595238Y-88452380D01*
%TO.C,C1*%
X94833333Y-83357142D02*
X94785714Y-83404761D01*
X94642857Y-83452380D01*
X94547619Y-83452380D01*
X94404761Y-83404761D01*
X94309523Y-83309523D01*
X94261904Y-83214285D01*
X94214285Y-83023809D01*
X94214285Y-82880952D01*
X94261904Y-82690476D01*
X94309523Y-82595238D01*
X94404761Y-82500000D01*
X94547619Y-82452380D01*
X94642857Y-82452380D01*
X94785714Y-82500000D01*
X94833333Y-82547619D01*
X95785714Y-83452380D02*
X95214285Y-83452380D01*
X95500000Y-83452380D02*
X95500000Y-82452380D01*
X95404761Y-82595238D01*
X95309523Y-82690476D01*
X95214285Y-82738095D01*
%TD*%
M02*
