%TF.GenerationSoftware,KiCad,Pcbnew,5.1.6+dfsg1-1*%
%TF.CreationDate,2021-03-04T16:58:38+01:00*%
%TF.ProjectId,PCA9685,50434139-3638-4352-9e6b-696361645f70,rev?*%
%TF.SameCoordinates,Original*%
%TF.FileFunction,Paste,Top*%
%TF.FilePolarity,Positive*%
%FSLAX46Y46*%
G04 Gerber Fmt 4.6, Leading zero omitted, Abs format (unit mm)*
G04 Created by KiCad (PCBNEW 5.1.6+dfsg1-1) date 2021-03-04 16:58:38*
%MOMM*%
%LPD*%
G01*
G04 APERTURE LIST*
G04 APERTURE END LIST*
%TO.C,U2*%
G36*
G01*
X96904000Y-81584000D02*
X96704000Y-81584000D01*
G75*
G02*
X96604000Y-81484000I0J100000D01*
G01*
X96604000Y-80209000D01*
G75*
G02*
X96704000Y-80109000I100000J0D01*
G01*
X96904000Y-80109000D01*
G75*
G02*
X97004000Y-80209000I0J-100000D01*
G01*
X97004000Y-81484000D01*
G75*
G02*
X96904000Y-81584000I-100000J0D01*
G01*
G37*
G36*
G01*
X97554000Y-81584000D02*
X97354000Y-81584000D01*
G75*
G02*
X97254000Y-81484000I0J100000D01*
G01*
X97254000Y-80209000D01*
G75*
G02*
X97354000Y-80109000I100000J0D01*
G01*
X97554000Y-80109000D01*
G75*
G02*
X97654000Y-80209000I0J-100000D01*
G01*
X97654000Y-81484000D01*
G75*
G02*
X97554000Y-81584000I-100000J0D01*
G01*
G37*
G36*
G01*
X98204000Y-81584000D02*
X98004000Y-81584000D01*
G75*
G02*
X97904000Y-81484000I0J100000D01*
G01*
X97904000Y-80209000D01*
G75*
G02*
X98004000Y-80109000I100000J0D01*
G01*
X98204000Y-80109000D01*
G75*
G02*
X98304000Y-80209000I0J-100000D01*
G01*
X98304000Y-81484000D01*
G75*
G02*
X98204000Y-81584000I-100000J0D01*
G01*
G37*
G36*
G01*
X98854000Y-81584000D02*
X98654000Y-81584000D01*
G75*
G02*
X98554000Y-81484000I0J100000D01*
G01*
X98554000Y-80209000D01*
G75*
G02*
X98654000Y-80109000I100000J0D01*
G01*
X98854000Y-80109000D01*
G75*
G02*
X98954000Y-80209000I0J-100000D01*
G01*
X98954000Y-81484000D01*
G75*
G02*
X98854000Y-81584000I-100000J0D01*
G01*
G37*
G36*
G01*
X99504000Y-81584000D02*
X99304000Y-81584000D01*
G75*
G02*
X99204000Y-81484000I0J100000D01*
G01*
X99204000Y-80209000D01*
G75*
G02*
X99304000Y-80109000I100000J0D01*
G01*
X99504000Y-80109000D01*
G75*
G02*
X99604000Y-80209000I0J-100000D01*
G01*
X99604000Y-81484000D01*
G75*
G02*
X99504000Y-81584000I-100000J0D01*
G01*
G37*
G36*
G01*
X100154000Y-81584000D02*
X99954000Y-81584000D01*
G75*
G02*
X99854000Y-81484000I0J100000D01*
G01*
X99854000Y-80209000D01*
G75*
G02*
X99954000Y-80109000I100000J0D01*
G01*
X100154000Y-80109000D01*
G75*
G02*
X100254000Y-80209000I0J-100000D01*
G01*
X100254000Y-81484000D01*
G75*
G02*
X100154000Y-81584000I-100000J0D01*
G01*
G37*
G36*
G01*
X100804000Y-81584000D02*
X100604000Y-81584000D01*
G75*
G02*
X100504000Y-81484000I0J100000D01*
G01*
X100504000Y-80209000D01*
G75*
G02*
X100604000Y-80109000I100000J0D01*
G01*
X100804000Y-80109000D01*
G75*
G02*
X100904000Y-80209000I0J-100000D01*
G01*
X100904000Y-81484000D01*
G75*
G02*
X100804000Y-81584000I-100000J0D01*
G01*
G37*
G36*
G01*
X101454000Y-81584000D02*
X101254000Y-81584000D01*
G75*
G02*
X101154000Y-81484000I0J100000D01*
G01*
X101154000Y-80209000D01*
G75*
G02*
X101254000Y-80109000I100000J0D01*
G01*
X101454000Y-80109000D01*
G75*
G02*
X101554000Y-80209000I0J-100000D01*
G01*
X101554000Y-81484000D01*
G75*
G02*
X101454000Y-81584000I-100000J0D01*
G01*
G37*
G36*
G01*
X102104000Y-81584000D02*
X101904000Y-81584000D01*
G75*
G02*
X101804000Y-81484000I0J100000D01*
G01*
X101804000Y-80209000D01*
G75*
G02*
X101904000Y-80109000I100000J0D01*
G01*
X102104000Y-80109000D01*
G75*
G02*
X102204000Y-80209000I0J-100000D01*
G01*
X102204000Y-81484000D01*
G75*
G02*
X102104000Y-81584000I-100000J0D01*
G01*
G37*
G36*
G01*
X102754000Y-81584000D02*
X102554000Y-81584000D01*
G75*
G02*
X102454000Y-81484000I0J100000D01*
G01*
X102454000Y-80209000D01*
G75*
G02*
X102554000Y-80109000I100000J0D01*
G01*
X102754000Y-80109000D01*
G75*
G02*
X102854000Y-80209000I0J-100000D01*
G01*
X102854000Y-81484000D01*
G75*
G02*
X102754000Y-81584000I-100000J0D01*
G01*
G37*
G36*
G01*
X103404000Y-81584000D02*
X103204000Y-81584000D01*
G75*
G02*
X103104000Y-81484000I0J100000D01*
G01*
X103104000Y-80209000D01*
G75*
G02*
X103204000Y-80109000I100000J0D01*
G01*
X103404000Y-80109000D01*
G75*
G02*
X103504000Y-80209000I0J-100000D01*
G01*
X103504000Y-81484000D01*
G75*
G02*
X103404000Y-81584000I-100000J0D01*
G01*
G37*
G36*
G01*
X104054000Y-81584000D02*
X103854000Y-81584000D01*
G75*
G02*
X103754000Y-81484000I0J100000D01*
G01*
X103754000Y-80209000D01*
G75*
G02*
X103854000Y-80109000I100000J0D01*
G01*
X104054000Y-80109000D01*
G75*
G02*
X104154000Y-80209000I0J-100000D01*
G01*
X104154000Y-81484000D01*
G75*
G02*
X104054000Y-81584000I-100000J0D01*
G01*
G37*
G36*
G01*
X104704000Y-81584000D02*
X104504000Y-81584000D01*
G75*
G02*
X104404000Y-81484000I0J100000D01*
G01*
X104404000Y-80209000D01*
G75*
G02*
X104504000Y-80109000I100000J0D01*
G01*
X104704000Y-80109000D01*
G75*
G02*
X104804000Y-80209000I0J-100000D01*
G01*
X104804000Y-81484000D01*
G75*
G02*
X104704000Y-81584000I-100000J0D01*
G01*
G37*
G36*
G01*
X105354000Y-81584000D02*
X105154000Y-81584000D01*
G75*
G02*
X105054000Y-81484000I0J100000D01*
G01*
X105054000Y-80209000D01*
G75*
G02*
X105154000Y-80109000I100000J0D01*
G01*
X105354000Y-80109000D01*
G75*
G02*
X105454000Y-80209000I0J-100000D01*
G01*
X105454000Y-81484000D01*
G75*
G02*
X105354000Y-81584000I-100000J0D01*
G01*
G37*
G36*
G01*
X105354000Y-87309000D02*
X105154000Y-87309000D01*
G75*
G02*
X105054000Y-87209000I0J100000D01*
G01*
X105054000Y-85934000D01*
G75*
G02*
X105154000Y-85834000I100000J0D01*
G01*
X105354000Y-85834000D01*
G75*
G02*
X105454000Y-85934000I0J-100000D01*
G01*
X105454000Y-87209000D01*
G75*
G02*
X105354000Y-87309000I-100000J0D01*
G01*
G37*
G36*
G01*
X104704000Y-87309000D02*
X104504000Y-87309000D01*
G75*
G02*
X104404000Y-87209000I0J100000D01*
G01*
X104404000Y-85934000D01*
G75*
G02*
X104504000Y-85834000I100000J0D01*
G01*
X104704000Y-85834000D01*
G75*
G02*
X104804000Y-85934000I0J-100000D01*
G01*
X104804000Y-87209000D01*
G75*
G02*
X104704000Y-87309000I-100000J0D01*
G01*
G37*
G36*
G01*
X104054000Y-87309000D02*
X103854000Y-87309000D01*
G75*
G02*
X103754000Y-87209000I0J100000D01*
G01*
X103754000Y-85934000D01*
G75*
G02*
X103854000Y-85834000I100000J0D01*
G01*
X104054000Y-85834000D01*
G75*
G02*
X104154000Y-85934000I0J-100000D01*
G01*
X104154000Y-87209000D01*
G75*
G02*
X104054000Y-87309000I-100000J0D01*
G01*
G37*
G36*
G01*
X103404000Y-87309000D02*
X103204000Y-87309000D01*
G75*
G02*
X103104000Y-87209000I0J100000D01*
G01*
X103104000Y-85934000D01*
G75*
G02*
X103204000Y-85834000I100000J0D01*
G01*
X103404000Y-85834000D01*
G75*
G02*
X103504000Y-85934000I0J-100000D01*
G01*
X103504000Y-87209000D01*
G75*
G02*
X103404000Y-87309000I-100000J0D01*
G01*
G37*
G36*
G01*
X102754000Y-87309000D02*
X102554000Y-87309000D01*
G75*
G02*
X102454000Y-87209000I0J100000D01*
G01*
X102454000Y-85934000D01*
G75*
G02*
X102554000Y-85834000I100000J0D01*
G01*
X102754000Y-85834000D01*
G75*
G02*
X102854000Y-85934000I0J-100000D01*
G01*
X102854000Y-87209000D01*
G75*
G02*
X102754000Y-87309000I-100000J0D01*
G01*
G37*
G36*
G01*
X102104000Y-87309000D02*
X101904000Y-87309000D01*
G75*
G02*
X101804000Y-87209000I0J100000D01*
G01*
X101804000Y-85934000D01*
G75*
G02*
X101904000Y-85834000I100000J0D01*
G01*
X102104000Y-85834000D01*
G75*
G02*
X102204000Y-85934000I0J-100000D01*
G01*
X102204000Y-87209000D01*
G75*
G02*
X102104000Y-87309000I-100000J0D01*
G01*
G37*
G36*
G01*
X101454000Y-87309000D02*
X101254000Y-87309000D01*
G75*
G02*
X101154000Y-87209000I0J100000D01*
G01*
X101154000Y-85934000D01*
G75*
G02*
X101254000Y-85834000I100000J0D01*
G01*
X101454000Y-85834000D01*
G75*
G02*
X101554000Y-85934000I0J-100000D01*
G01*
X101554000Y-87209000D01*
G75*
G02*
X101454000Y-87309000I-100000J0D01*
G01*
G37*
G36*
G01*
X100804000Y-87309000D02*
X100604000Y-87309000D01*
G75*
G02*
X100504000Y-87209000I0J100000D01*
G01*
X100504000Y-85934000D01*
G75*
G02*
X100604000Y-85834000I100000J0D01*
G01*
X100804000Y-85834000D01*
G75*
G02*
X100904000Y-85934000I0J-100000D01*
G01*
X100904000Y-87209000D01*
G75*
G02*
X100804000Y-87309000I-100000J0D01*
G01*
G37*
G36*
G01*
X100154000Y-87309000D02*
X99954000Y-87309000D01*
G75*
G02*
X99854000Y-87209000I0J100000D01*
G01*
X99854000Y-85934000D01*
G75*
G02*
X99954000Y-85834000I100000J0D01*
G01*
X100154000Y-85834000D01*
G75*
G02*
X100254000Y-85934000I0J-100000D01*
G01*
X100254000Y-87209000D01*
G75*
G02*
X100154000Y-87309000I-100000J0D01*
G01*
G37*
G36*
G01*
X99504000Y-87309000D02*
X99304000Y-87309000D01*
G75*
G02*
X99204000Y-87209000I0J100000D01*
G01*
X99204000Y-85934000D01*
G75*
G02*
X99304000Y-85834000I100000J0D01*
G01*
X99504000Y-85834000D01*
G75*
G02*
X99604000Y-85934000I0J-100000D01*
G01*
X99604000Y-87209000D01*
G75*
G02*
X99504000Y-87309000I-100000J0D01*
G01*
G37*
G36*
G01*
X98854000Y-87309000D02*
X98654000Y-87309000D01*
G75*
G02*
X98554000Y-87209000I0J100000D01*
G01*
X98554000Y-85934000D01*
G75*
G02*
X98654000Y-85834000I100000J0D01*
G01*
X98854000Y-85834000D01*
G75*
G02*
X98954000Y-85934000I0J-100000D01*
G01*
X98954000Y-87209000D01*
G75*
G02*
X98854000Y-87309000I-100000J0D01*
G01*
G37*
G36*
G01*
X98204000Y-87309000D02*
X98004000Y-87309000D01*
G75*
G02*
X97904000Y-87209000I0J100000D01*
G01*
X97904000Y-85934000D01*
G75*
G02*
X98004000Y-85834000I100000J0D01*
G01*
X98204000Y-85834000D01*
G75*
G02*
X98304000Y-85934000I0J-100000D01*
G01*
X98304000Y-87209000D01*
G75*
G02*
X98204000Y-87309000I-100000J0D01*
G01*
G37*
G36*
G01*
X97554000Y-87309000D02*
X97354000Y-87309000D01*
G75*
G02*
X97254000Y-87209000I0J100000D01*
G01*
X97254000Y-85934000D01*
G75*
G02*
X97354000Y-85834000I100000J0D01*
G01*
X97554000Y-85834000D01*
G75*
G02*
X97654000Y-85934000I0J-100000D01*
G01*
X97654000Y-87209000D01*
G75*
G02*
X97554000Y-87309000I-100000J0D01*
G01*
G37*
G36*
G01*
X96904000Y-87309000D02*
X96704000Y-87309000D01*
G75*
G02*
X96604000Y-87209000I0J100000D01*
G01*
X96604000Y-85934000D01*
G75*
G02*
X96704000Y-85834000I100000J0D01*
G01*
X96904000Y-85834000D01*
G75*
G02*
X97004000Y-85934000I0J-100000D01*
G01*
X97004000Y-87209000D01*
G75*
G02*
X96904000Y-87309000I-100000J0D01*
G01*
G37*
%TD*%
%TO.C,R5*%
G36*
G01*
X85690000Y-86683001D02*
X85690000Y-85782999D01*
G75*
G02*
X85939999Y-85533000I249999J0D01*
G01*
X86590001Y-85533000D01*
G75*
G02*
X86840000Y-85782999I0J-249999D01*
G01*
X86840000Y-86683001D01*
G75*
G02*
X86590001Y-86933000I-249999J0D01*
G01*
X85939999Y-86933000D01*
G75*
G02*
X85690000Y-86683001I0J249999D01*
G01*
G37*
G36*
G01*
X83640000Y-86683001D02*
X83640000Y-85782999D01*
G75*
G02*
X83889999Y-85533000I249999J0D01*
G01*
X84540001Y-85533000D01*
G75*
G02*
X84790000Y-85782999I0J-249999D01*
G01*
X84790000Y-86683001D01*
G75*
G02*
X84540001Y-86933000I-249999J0D01*
G01*
X83889999Y-86933000D01*
G75*
G02*
X83640000Y-86683001I0J249999D01*
G01*
G37*
%TD*%
%TO.C,R4*%
G36*
G01*
X111893001Y-76265000D02*
X110992999Y-76265000D01*
G75*
G02*
X110743000Y-76015001I0J249999D01*
G01*
X110743000Y-75364999D01*
G75*
G02*
X110992999Y-75115000I249999J0D01*
G01*
X111893001Y-75115000D01*
G75*
G02*
X112143000Y-75364999I0J-249999D01*
G01*
X112143000Y-76015001D01*
G75*
G02*
X111893001Y-76265000I-249999J0D01*
G01*
G37*
G36*
G01*
X111893001Y-78315000D02*
X110992999Y-78315000D01*
G75*
G02*
X110743000Y-78065001I0J249999D01*
G01*
X110743000Y-77414999D01*
G75*
G02*
X110992999Y-77165000I249999J0D01*
G01*
X111893001Y-77165000D01*
G75*
G02*
X112143000Y-77414999I0J-249999D01*
G01*
X112143000Y-78065001D01*
G75*
G02*
X111893001Y-78315000I-249999J0D01*
G01*
G37*
%TD*%
%TO.C,R2*%
G36*
G01*
X108452999Y-77165000D02*
X109353001Y-77165000D01*
G75*
G02*
X109603000Y-77414999I0J-249999D01*
G01*
X109603000Y-78065001D01*
G75*
G02*
X109353001Y-78315000I-249999J0D01*
G01*
X108452999Y-78315000D01*
G75*
G02*
X108203000Y-78065001I0J249999D01*
G01*
X108203000Y-77414999D01*
G75*
G02*
X108452999Y-77165000I249999J0D01*
G01*
G37*
G36*
G01*
X108452999Y-75115000D02*
X109353001Y-75115000D01*
G75*
G02*
X109603000Y-75364999I0J-249999D01*
G01*
X109603000Y-76015001D01*
G75*
G02*
X109353001Y-76265000I-249999J0D01*
G01*
X108452999Y-76265000D01*
G75*
G02*
X108203000Y-76015001I0J249999D01*
G01*
X108203000Y-75364999D01*
G75*
G02*
X108452999Y-75115000I249999J0D01*
G01*
G37*
%TD*%
%TO.C,D1*%
G36*
G01*
X90995000Y-85995500D02*
X90995000Y-86470500D01*
G75*
G02*
X90757500Y-86708000I-237500J0D01*
G01*
X90182500Y-86708000D01*
G75*
G02*
X89945000Y-86470500I0J237500D01*
G01*
X89945000Y-85995500D01*
G75*
G02*
X90182500Y-85758000I237500J0D01*
G01*
X90757500Y-85758000D01*
G75*
G02*
X90995000Y-85995500I0J-237500D01*
G01*
G37*
G36*
G01*
X92745000Y-85995500D02*
X92745000Y-86470500D01*
G75*
G02*
X92507500Y-86708000I-237500J0D01*
G01*
X91932500Y-86708000D01*
G75*
G02*
X91695000Y-86470500I0J237500D01*
G01*
X91695000Y-85995500D01*
G75*
G02*
X91932500Y-85758000I237500J0D01*
G01*
X92507500Y-85758000D01*
G75*
G02*
X92745000Y-85995500I0J-237500D01*
G01*
G37*
%TD*%
%TO.C,C1*%
G36*
G01*
X92017000Y-84016001D02*
X92017000Y-83115999D01*
G75*
G02*
X92266999Y-82866000I249999J0D01*
G01*
X92917001Y-82866000D01*
G75*
G02*
X93167000Y-83115999I0J-249999D01*
G01*
X93167000Y-84016001D01*
G75*
G02*
X92917001Y-84266000I-249999J0D01*
G01*
X92266999Y-84266000D01*
G75*
G02*
X92017000Y-84016001I0J249999D01*
G01*
G37*
G36*
G01*
X89967000Y-84016001D02*
X89967000Y-83115999D01*
G75*
G02*
X90216999Y-82866000I249999J0D01*
G01*
X90867001Y-82866000D01*
G75*
G02*
X91117000Y-83115999I0J-249999D01*
G01*
X91117000Y-84016001D01*
G75*
G02*
X90867001Y-84266000I-249999J0D01*
G01*
X90216999Y-84266000D01*
G75*
G02*
X89967000Y-84016001I0J249999D01*
G01*
G37*
%TD*%
M02*
