%TF.GenerationSoftware,KiCad,Pcbnew,5.1.6+dfsg1-1*%
%TF.CreationDate,2021-03-04T16:58:38+01:00*%
%TF.ProjectId,PCA9685,50434139-3638-4352-9e6b-696361645f70,rev?*%
%TF.SameCoordinates,Original*%
%TF.FileFunction,Soldermask,Top*%
%TF.FilePolarity,Negative*%
%FSLAX46Y46*%
G04 Gerber Fmt 4.6, Leading zero omitted, Abs format (unit mm)*
G04 Created by KiCad (PCBNEW 5.1.6+dfsg1-1) date 2021-03-04 16:58:38*
%MOMM*%
%LPD*%
G01*
G04 APERTURE LIST*
%ADD10O,1.800000X1.800000*%
%ADD11R,1.800000X1.800000*%
%ADD12C,3.300000*%
%ADD13O,1.800000X2.050000*%
%ADD14R,3.100000X3.100000*%
%ADD15C,3.100000*%
G04 APERTURE END LIST*
D10*
%TO.C,J6*%
X88900000Y-92964000D03*
X86360000Y-92964000D03*
D11*
X83820000Y-92964000D03*
%TD*%
D10*
%TO.C,J10*%
X78232000Y-88000000D03*
X75692000Y-88000000D03*
D11*
X73152000Y-88000000D03*
%TD*%
D10*
%TO.C,J9*%
X78232000Y-82000000D03*
X75692000Y-82000000D03*
D11*
X73152000Y-82000000D03*
%TD*%
D10*
%TO.C,J8*%
X78232000Y-76000000D03*
X75692000Y-76000000D03*
D11*
X73152000Y-76000000D03*
%TD*%
D10*
%TO.C,J7*%
X108460000Y-93091000D03*
X111000000Y-93091000D03*
D11*
X113540000Y-93091000D03*
%TD*%
D10*
%TO.C,J5*%
X116920000Y-88000000D03*
X119460000Y-88000000D03*
D11*
X122000000Y-88000000D03*
%TD*%
D10*
%TO.C,J4*%
X116920000Y-82000000D03*
X119460000Y-82000000D03*
D11*
X122000000Y-82000000D03*
%TD*%
D10*
%TO.C,J3*%
X116920000Y-76000000D03*
X119460000Y-76000000D03*
D11*
X122000000Y-76000000D03*
%TD*%
D12*
%TO.C,REF\u002A\u002A*%
X67000000Y-54000000D03*
%TD*%
%TO.C,REF\u002A\u002A*%
X67000000Y-92000000D03*
%TD*%
%TO.C,REF\u002A\u002A*%
X129000000Y-92000000D03*
%TD*%
%TO.C,REF\u002A\u002A*%
X129000000Y-54000000D03*
%TD*%
D13*
%TO.C,J2*%
X91955000Y-76200000D03*
X89455000Y-76200000D03*
X86955000Y-76200000D03*
G36*
G01*
X83555000Y-76960294D02*
X83555000Y-75439706D01*
G75*
G02*
X83819706Y-75175000I264706J0D01*
G01*
X85090294Y-75175000D01*
G75*
G02*
X85355000Y-75439706I0J-264706D01*
G01*
X85355000Y-76960294D01*
G75*
G02*
X85090294Y-77225000I-264706J0D01*
G01*
X83819706Y-77225000D01*
G75*
G02*
X83555000Y-76960294I0J264706D01*
G01*
G37*
%TD*%
%TO.C,U2*%
G36*
G01*
X96929000Y-81634000D02*
X96679000Y-81634000D01*
G75*
G02*
X96554000Y-81509000I0J125000D01*
G01*
X96554000Y-80184000D01*
G75*
G02*
X96679000Y-80059000I125000J0D01*
G01*
X96929000Y-80059000D01*
G75*
G02*
X97054000Y-80184000I0J-125000D01*
G01*
X97054000Y-81509000D01*
G75*
G02*
X96929000Y-81634000I-125000J0D01*
G01*
G37*
G36*
G01*
X97579000Y-81634000D02*
X97329000Y-81634000D01*
G75*
G02*
X97204000Y-81509000I0J125000D01*
G01*
X97204000Y-80184000D01*
G75*
G02*
X97329000Y-80059000I125000J0D01*
G01*
X97579000Y-80059000D01*
G75*
G02*
X97704000Y-80184000I0J-125000D01*
G01*
X97704000Y-81509000D01*
G75*
G02*
X97579000Y-81634000I-125000J0D01*
G01*
G37*
G36*
G01*
X98229000Y-81634000D02*
X97979000Y-81634000D01*
G75*
G02*
X97854000Y-81509000I0J125000D01*
G01*
X97854000Y-80184000D01*
G75*
G02*
X97979000Y-80059000I125000J0D01*
G01*
X98229000Y-80059000D01*
G75*
G02*
X98354000Y-80184000I0J-125000D01*
G01*
X98354000Y-81509000D01*
G75*
G02*
X98229000Y-81634000I-125000J0D01*
G01*
G37*
G36*
G01*
X98879000Y-81634000D02*
X98629000Y-81634000D01*
G75*
G02*
X98504000Y-81509000I0J125000D01*
G01*
X98504000Y-80184000D01*
G75*
G02*
X98629000Y-80059000I125000J0D01*
G01*
X98879000Y-80059000D01*
G75*
G02*
X99004000Y-80184000I0J-125000D01*
G01*
X99004000Y-81509000D01*
G75*
G02*
X98879000Y-81634000I-125000J0D01*
G01*
G37*
G36*
G01*
X99529000Y-81634000D02*
X99279000Y-81634000D01*
G75*
G02*
X99154000Y-81509000I0J125000D01*
G01*
X99154000Y-80184000D01*
G75*
G02*
X99279000Y-80059000I125000J0D01*
G01*
X99529000Y-80059000D01*
G75*
G02*
X99654000Y-80184000I0J-125000D01*
G01*
X99654000Y-81509000D01*
G75*
G02*
X99529000Y-81634000I-125000J0D01*
G01*
G37*
G36*
G01*
X100179000Y-81634000D02*
X99929000Y-81634000D01*
G75*
G02*
X99804000Y-81509000I0J125000D01*
G01*
X99804000Y-80184000D01*
G75*
G02*
X99929000Y-80059000I125000J0D01*
G01*
X100179000Y-80059000D01*
G75*
G02*
X100304000Y-80184000I0J-125000D01*
G01*
X100304000Y-81509000D01*
G75*
G02*
X100179000Y-81634000I-125000J0D01*
G01*
G37*
G36*
G01*
X100829000Y-81634000D02*
X100579000Y-81634000D01*
G75*
G02*
X100454000Y-81509000I0J125000D01*
G01*
X100454000Y-80184000D01*
G75*
G02*
X100579000Y-80059000I125000J0D01*
G01*
X100829000Y-80059000D01*
G75*
G02*
X100954000Y-80184000I0J-125000D01*
G01*
X100954000Y-81509000D01*
G75*
G02*
X100829000Y-81634000I-125000J0D01*
G01*
G37*
G36*
G01*
X101479000Y-81634000D02*
X101229000Y-81634000D01*
G75*
G02*
X101104000Y-81509000I0J125000D01*
G01*
X101104000Y-80184000D01*
G75*
G02*
X101229000Y-80059000I125000J0D01*
G01*
X101479000Y-80059000D01*
G75*
G02*
X101604000Y-80184000I0J-125000D01*
G01*
X101604000Y-81509000D01*
G75*
G02*
X101479000Y-81634000I-125000J0D01*
G01*
G37*
G36*
G01*
X102129000Y-81634000D02*
X101879000Y-81634000D01*
G75*
G02*
X101754000Y-81509000I0J125000D01*
G01*
X101754000Y-80184000D01*
G75*
G02*
X101879000Y-80059000I125000J0D01*
G01*
X102129000Y-80059000D01*
G75*
G02*
X102254000Y-80184000I0J-125000D01*
G01*
X102254000Y-81509000D01*
G75*
G02*
X102129000Y-81634000I-125000J0D01*
G01*
G37*
G36*
G01*
X102779000Y-81634000D02*
X102529000Y-81634000D01*
G75*
G02*
X102404000Y-81509000I0J125000D01*
G01*
X102404000Y-80184000D01*
G75*
G02*
X102529000Y-80059000I125000J0D01*
G01*
X102779000Y-80059000D01*
G75*
G02*
X102904000Y-80184000I0J-125000D01*
G01*
X102904000Y-81509000D01*
G75*
G02*
X102779000Y-81634000I-125000J0D01*
G01*
G37*
G36*
G01*
X103429000Y-81634000D02*
X103179000Y-81634000D01*
G75*
G02*
X103054000Y-81509000I0J125000D01*
G01*
X103054000Y-80184000D01*
G75*
G02*
X103179000Y-80059000I125000J0D01*
G01*
X103429000Y-80059000D01*
G75*
G02*
X103554000Y-80184000I0J-125000D01*
G01*
X103554000Y-81509000D01*
G75*
G02*
X103429000Y-81634000I-125000J0D01*
G01*
G37*
G36*
G01*
X104079000Y-81634000D02*
X103829000Y-81634000D01*
G75*
G02*
X103704000Y-81509000I0J125000D01*
G01*
X103704000Y-80184000D01*
G75*
G02*
X103829000Y-80059000I125000J0D01*
G01*
X104079000Y-80059000D01*
G75*
G02*
X104204000Y-80184000I0J-125000D01*
G01*
X104204000Y-81509000D01*
G75*
G02*
X104079000Y-81634000I-125000J0D01*
G01*
G37*
G36*
G01*
X104729000Y-81634000D02*
X104479000Y-81634000D01*
G75*
G02*
X104354000Y-81509000I0J125000D01*
G01*
X104354000Y-80184000D01*
G75*
G02*
X104479000Y-80059000I125000J0D01*
G01*
X104729000Y-80059000D01*
G75*
G02*
X104854000Y-80184000I0J-125000D01*
G01*
X104854000Y-81509000D01*
G75*
G02*
X104729000Y-81634000I-125000J0D01*
G01*
G37*
G36*
G01*
X105379000Y-81634000D02*
X105129000Y-81634000D01*
G75*
G02*
X105004000Y-81509000I0J125000D01*
G01*
X105004000Y-80184000D01*
G75*
G02*
X105129000Y-80059000I125000J0D01*
G01*
X105379000Y-80059000D01*
G75*
G02*
X105504000Y-80184000I0J-125000D01*
G01*
X105504000Y-81509000D01*
G75*
G02*
X105379000Y-81634000I-125000J0D01*
G01*
G37*
G36*
G01*
X105379000Y-87359000D02*
X105129000Y-87359000D01*
G75*
G02*
X105004000Y-87234000I0J125000D01*
G01*
X105004000Y-85909000D01*
G75*
G02*
X105129000Y-85784000I125000J0D01*
G01*
X105379000Y-85784000D01*
G75*
G02*
X105504000Y-85909000I0J-125000D01*
G01*
X105504000Y-87234000D01*
G75*
G02*
X105379000Y-87359000I-125000J0D01*
G01*
G37*
G36*
G01*
X104729000Y-87359000D02*
X104479000Y-87359000D01*
G75*
G02*
X104354000Y-87234000I0J125000D01*
G01*
X104354000Y-85909000D01*
G75*
G02*
X104479000Y-85784000I125000J0D01*
G01*
X104729000Y-85784000D01*
G75*
G02*
X104854000Y-85909000I0J-125000D01*
G01*
X104854000Y-87234000D01*
G75*
G02*
X104729000Y-87359000I-125000J0D01*
G01*
G37*
G36*
G01*
X104079000Y-87359000D02*
X103829000Y-87359000D01*
G75*
G02*
X103704000Y-87234000I0J125000D01*
G01*
X103704000Y-85909000D01*
G75*
G02*
X103829000Y-85784000I125000J0D01*
G01*
X104079000Y-85784000D01*
G75*
G02*
X104204000Y-85909000I0J-125000D01*
G01*
X104204000Y-87234000D01*
G75*
G02*
X104079000Y-87359000I-125000J0D01*
G01*
G37*
G36*
G01*
X103429000Y-87359000D02*
X103179000Y-87359000D01*
G75*
G02*
X103054000Y-87234000I0J125000D01*
G01*
X103054000Y-85909000D01*
G75*
G02*
X103179000Y-85784000I125000J0D01*
G01*
X103429000Y-85784000D01*
G75*
G02*
X103554000Y-85909000I0J-125000D01*
G01*
X103554000Y-87234000D01*
G75*
G02*
X103429000Y-87359000I-125000J0D01*
G01*
G37*
G36*
G01*
X102779000Y-87359000D02*
X102529000Y-87359000D01*
G75*
G02*
X102404000Y-87234000I0J125000D01*
G01*
X102404000Y-85909000D01*
G75*
G02*
X102529000Y-85784000I125000J0D01*
G01*
X102779000Y-85784000D01*
G75*
G02*
X102904000Y-85909000I0J-125000D01*
G01*
X102904000Y-87234000D01*
G75*
G02*
X102779000Y-87359000I-125000J0D01*
G01*
G37*
G36*
G01*
X102129000Y-87359000D02*
X101879000Y-87359000D01*
G75*
G02*
X101754000Y-87234000I0J125000D01*
G01*
X101754000Y-85909000D01*
G75*
G02*
X101879000Y-85784000I125000J0D01*
G01*
X102129000Y-85784000D01*
G75*
G02*
X102254000Y-85909000I0J-125000D01*
G01*
X102254000Y-87234000D01*
G75*
G02*
X102129000Y-87359000I-125000J0D01*
G01*
G37*
G36*
G01*
X101479000Y-87359000D02*
X101229000Y-87359000D01*
G75*
G02*
X101104000Y-87234000I0J125000D01*
G01*
X101104000Y-85909000D01*
G75*
G02*
X101229000Y-85784000I125000J0D01*
G01*
X101479000Y-85784000D01*
G75*
G02*
X101604000Y-85909000I0J-125000D01*
G01*
X101604000Y-87234000D01*
G75*
G02*
X101479000Y-87359000I-125000J0D01*
G01*
G37*
G36*
G01*
X100829000Y-87359000D02*
X100579000Y-87359000D01*
G75*
G02*
X100454000Y-87234000I0J125000D01*
G01*
X100454000Y-85909000D01*
G75*
G02*
X100579000Y-85784000I125000J0D01*
G01*
X100829000Y-85784000D01*
G75*
G02*
X100954000Y-85909000I0J-125000D01*
G01*
X100954000Y-87234000D01*
G75*
G02*
X100829000Y-87359000I-125000J0D01*
G01*
G37*
G36*
G01*
X100179000Y-87359000D02*
X99929000Y-87359000D01*
G75*
G02*
X99804000Y-87234000I0J125000D01*
G01*
X99804000Y-85909000D01*
G75*
G02*
X99929000Y-85784000I125000J0D01*
G01*
X100179000Y-85784000D01*
G75*
G02*
X100304000Y-85909000I0J-125000D01*
G01*
X100304000Y-87234000D01*
G75*
G02*
X100179000Y-87359000I-125000J0D01*
G01*
G37*
G36*
G01*
X99529000Y-87359000D02*
X99279000Y-87359000D01*
G75*
G02*
X99154000Y-87234000I0J125000D01*
G01*
X99154000Y-85909000D01*
G75*
G02*
X99279000Y-85784000I125000J0D01*
G01*
X99529000Y-85784000D01*
G75*
G02*
X99654000Y-85909000I0J-125000D01*
G01*
X99654000Y-87234000D01*
G75*
G02*
X99529000Y-87359000I-125000J0D01*
G01*
G37*
G36*
G01*
X98879000Y-87359000D02*
X98629000Y-87359000D01*
G75*
G02*
X98504000Y-87234000I0J125000D01*
G01*
X98504000Y-85909000D01*
G75*
G02*
X98629000Y-85784000I125000J0D01*
G01*
X98879000Y-85784000D01*
G75*
G02*
X99004000Y-85909000I0J-125000D01*
G01*
X99004000Y-87234000D01*
G75*
G02*
X98879000Y-87359000I-125000J0D01*
G01*
G37*
G36*
G01*
X98229000Y-87359000D02*
X97979000Y-87359000D01*
G75*
G02*
X97854000Y-87234000I0J125000D01*
G01*
X97854000Y-85909000D01*
G75*
G02*
X97979000Y-85784000I125000J0D01*
G01*
X98229000Y-85784000D01*
G75*
G02*
X98354000Y-85909000I0J-125000D01*
G01*
X98354000Y-87234000D01*
G75*
G02*
X98229000Y-87359000I-125000J0D01*
G01*
G37*
G36*
G01*
X97579000Y-87359000D02*
X97329000Y-87359000D01*
G75*
G02*
X97204000Y-87234000I0J125000D01*
G01*
X97204000Y-85909000D01*
G75*
G02*
X97329000Y-85784000I125000J0D01*
G01*
X97579000Y-85784000D01*
G75*
G02*
X97704000Y-85909000I0J-125000D01*
G01*
X97704000Y-87234000D01*
G75*
G02*
X97579000Y-87359000I-125000J0D01*
G01*
G37*
G36*
G01*
X96929000Y-87359000D02*
X96679000Y-87359000D01*
G75*
G02*
X96554000Y-87234000I0J125000D01*
G01*
X96554000Y-85909000D01*
G75*
G02*
X96679000Y-85784000I125000J0D01*
G01*
X96929000Y-85784000D01*
G75*
G02*
X97054000Y-85909000I0J-125000D01*
G01*
X97054000Y-87234000D01*
G75*
G02*
X96929000Y-87359000I-125000J0D01*
G01*
G37*
%TD*%
D14*
%TO.C,U1*%
X123190000Y-71120000D03*
X82550000Y-71120000D03*
X123190000Y-53340000D03*
X82550000Y-53340000D03*
%TD*%
%TO.C,R5*%
G36*
G01*
X85640000Y-86711262D02*
X85640000Y-85754738D01*
G75*
G02*
X85911738Y-85483000I271738J0D01*
G01*
X86618262Y-85483000D01*
G75*
G02*
X86890000Y-85754738I0J-271738D01*
G01*
X86890000Y-86711262D01*
G75*
G02*
X86618262Y-86983000I-271738J0D01*
G01*
X85911738Y-86983000D01*
G75*
G02*
X85640000Y-86711262I0J271738D01*
G01*
G37*
G36*
G01*
X83590000Y-86711262D02*
X83590000Y-85754738D01*
G75*
G02*
X83861738Y-85483000I271738J0D01*
G01*
X84568262Y-85483000D01*
G75*
G02*
X84840000Y-85754738I0J-271738D01*
G01*
X84840000Y-86711262D01*
G75*
G02*
X84568262Y-86983000I-271738J0D01*
G01*
X83861738Y-86983000D01*
G75*
G02*
X83590000Y-86711262I0J271738D01*
G01*
G37*
%TD*%
%TO.C,R4*%
G36*
G01*
X111921262Y-76315000D02*
X110964738Y-76315000D01*
G75*
G02*
X110693000Y-76043262I0J271738D01*
G01*
X110693000Y-75336738D01*
G75*
G02*
X110964738Y-75065000I271738J0D01*
G01*
X111921262Y-75065000D01*
G75*
G02*
X112193000Y-75336738I0J-271738D01*
G01*
X112193000Y-76043262D01*
G75*
G02*
X111921262Y-76315000I-271738J0D01*
G01*
G37*
G36*
G01*
X111921262Y-78365000D02*
X110964738Y-78365000D01*
G75*
G02*
X110693000Y-78093262I0J271738D01*
G01*
X110693000Y-77386738D01*
G75*
G02*
X110964738Y-77115000I271738J0D01*
G01*
X111921262Y-77115000D01*
G75*
G02*
X112193000Y-77386738I0J-271738D01*
G01*
X112193000Y-78093262D01*
G75*
G02*
X111921262Y-78365000I-271738J0D01*
G01*
G37*
%TD*%
%TO.C,R2*%
G36*
G01*
X108424738Y-77115000D02*
X109381262Y-77115000D01*
G75*
G02*
X109653000Y-77386738I0J-271738D01*
G01*
X109653000Y-78093262D01*
G75*
G02*
X109381262Y-78365000I-271738J0D01*
G01*
X108424738Y-78365000D01*
G75*
G02*
X108153000Y-78093262I0J271738D01*
G01*
X108153000Y-77386738D01*
G75*
G02*
X108424738Y-77115000I271738J0D01*
G01*
G37*
G36*
G01*
X108424738Y-75065000D02*
X109381262Y-75065000D01*
G75*
G02*
X109653000Y-75336738I0J-271738D01*
G01*
X109653000Y-76043262D01*
G75*
G02*
X109381262Y-76315000I-271738J0D01*
G01*
X108424738Y-76315000D01*
G75*
G02*
X108153000Y-76043262I0J271738D01*
G01*
X108153000Y-75336738D01*
G75*
G02*
X108424738Y-75065000I271738J0D01*
G01*
G37*
%TD*%
D15*
%TO.C,J1*%
X74930000Y-66080000D03*
D14*
X74930000Y-61000000D03*
%TD*%
%TO.C,D1*%
G36*
G01*
X91045000Y-85970500D02*
X91045000Y-86495500D01*
G75*
G02*
X90782500Y-86758000I-262500J0D01*
G01*
X90157500Y-86758000D01*
G75*
G02*
X89895000Y-86495500I0J262500D01*
G01*
X89895000Y-85970500D01*
G75*
G02*
X90157500Y-85708000I262500J0D01*
G01*
X90782500Y-85708000D01*
G75*
G02*
X91045000Y-85970500I0J-262500D01*
G01*
G37*
G36*
G01*
X92795000Y-85970500D02*
X92795000Y-86495500D01*
G75*
G02*
X92532500Y-86758000I-262500J0D01*
G01*
X91907500Y-86758000D01*
G75*
G02*
X91645000Y-86495500I0J262500D01*
G01*
X91645000Y-85970500D01*
G75*
G02*
X91907500Y-85708000I262500J0D01*
G01*
X92532500Y-85708000D01*
G75*
G02*
X92795000Y-85970500I0J-262500D01*
G01*
G37*
%TD*%
%TO.C,C1*%
G36*
G01*
X91967000Y-84044262D02*
X91967000Y-83087738D01*
G75*
G02*
X92238738Y-82816000I271738J0D01*
G01*
X92945262Y-82816000D01*
G75*
G02*
X93217000Y-83087738I0J-271738D01*
G01*
X93217000Y-84044262D01*
G75*
G02*
X92945262Y-84316000I-271738J0D01*
G01*
X92238738Y-84316000D01*
G75*
G02*
X91967000Y-84044262I0J271738D01*
G01*
G37*
G36*
G01*
X89917000Y-84044262D02*
X89917000Y-83087738D01*
G75*
G02*
X90188738Y-82816000I271738J0D01*
G01*
X90895262Y-82816000D01*
G75*
G02*
X91167000Y-83087738I0J-271738D01*
G01*
X91167000Y-84044262D01*
G75*
G02*
X90895262Y-84316000I-271738J0D01*
G01*
X90188738Y-84316000D01*
G75*
G02*
X89917000Y-84044262I0J271738D01*
G01*
G37*
%TD*%
M02*
