%TF.GenerationSoftware,KiCad,Pcbnew,5.1.6+dfsg1-1*%
%TF.CreationDate,2021-03-04T16:54:05+01:00*%
%TF.ProjectId,pcb_robot_2021A,7063625f-726f-4626-9f74-5f3230323141,2.0*%
%TF.SameCoordinates,Original*%
%TF.FileFunction,Legend,Top*%
%TF.FilePolarity,Positive*%
%FSLAX46Y46*%
G04 Gerber Fmt 4.6, Leading zero omitted, Abs format (unit mm)*
G04 Created by KiCad (PCBNEW 5.1.6+dfsg1-1) date 2021-03-04 16:54:05*
%MOMM*%
%LPD*%
G01*
G04 APERTURE LIST*
%ADD10C,0.150000*%
%ADD11C,0.500000*%
%ADD12C,0.120000*%
G04 APERTURE END LIST*
D10*
X110238095Y-61000000D02*
X110142857Y-60952380D01*
X110000000Y-60952380D01*
X109857142Y-61000000D01*
X109761904Y-61095238D01*
X109714285Y-61190476D01*
X109666666Y-61380952D01*
X109666666Y-61523809D01*
X109714285Y-61714285D01*
X109761904Y-61809523D01*
X109857142Y-61904761D01*
X110000000Y-61952380D01*
X110095238Y-61952380D01*
X110238095Y-61904761D01*
X110285714Y-61857142D01*
X110285714Y-61523809D01*
X110095238Y-61523809D01*
X110714285Y-61952380D02*
X110714285Y-60952380D01*
X111285714Y-61952380D01*
X111285714Y-60952380D01*
X111761904Y-61952380D02*
X111761904Y-60952380D01*
X112000000Y-60952380D01*
X112142857Y-61000000D01*
X112238095Y-61095238D01*
X112285714Y-61190476D01*
X112333333Y-61380952D01*
X112333333Y-61523809D01*
X112285714Y-61714285D01*
X112238095Y-61809523D01*
X112142857Y-61904761D01*
X112000000Y-61952380D01*
X111761904Y-61952380D01*
X157238095Y-57952380D02*
X157238095Y-58761904D01*
X157285714Y-58857142D01*
X157333333Y-58904761D01*
X157428571Y-58952380D01*
X157619047Y-58952380D01*
X157714285Y-58904761D01*
X157761904Y-58857142D01*
X157809523Y-58761904D01*
X157809523Y-57952380D01*
X158238095Y-58904761D02*
X158380952Y-58952380D01*
X158619047Y-58952380D01*
X158714285Y-58904761D01*
X158761904Y-58857142D01*
X158809523Y-58761904D01*
X158809523Y-58666666D01*
X158761904Y-58571428D01*
X158714285Y-58523809D01*
X158619047Y-58476190D01*
X158428571Y-58428571D01*
X158333333Y-58380952D01*
X158285714Y-58333333D01*
X158238095Y-58238095D01*
X158238095Y-58142857D01*
X158285714Y-58047619D01*
X158333333Y-58000000D01*
X158428571Y-57952380D01*
X158666666Y-57952380D01*
X158809523Y-58000000D01*
X159571428Y-58428571D02*
X159714285Y-58476190D01*
X159761904Y-58523809D01*
X159809523Y-58619047D01*
X159809523Y-58761904D01*
X159761904Y-58857142D01*
X159714285Y-58904761D01*
X159619047Y-58952380D01*
X159238095Y-58952380D01*
X159238095Y-57952380D01*
X159571428Y-57952380D01*
X159666666Y-58000000D01*
X159714285Y-58047619D01*
X159761904Y-58142857D01*
X159761904Y-58238095D01*
X159714285Y-58333333D01*
X159666666Y-58380952D01*
X159571428Y-58428571D01*
X159238095Y-58428571D01*
X201287571Y-109646404D02*
X201287571Y-109313071D01*
X201811380Y-109170214D02*
X201811380Y-109646404D01*
X200811380Y-109646404D01*
X200811380Y-109170214D01*
X201811380Y-108741642D02*
X200811380Y-108741642D01*
X201811380Y-108170214D01*
X200811380Y-108170214D01*
X201525666Y-107741642D02*
X201525666Y-107265452D01*
X201811380Y-107836880D02*
X200811380Y-107503547D01*
X201811380Y-107170214D01*
X201716142Y-106265452D02*
X201763761Y-106313071D01*
X201811380Y-106455928D01*
X201811380Y-106551166D01*
X201763761Y-106694023D01*
X201668523Y-106789261D01*
X201573285Y-106836880D01*
X201382809Y-106884500D01*
X201239952Y-106884500D01*
X201049476Y-106836880D01*
X200954238Y-106789261D01*
X200859000Y-106694023D01*
X200811380Y-106551166D01*
X200811380Y-106455928D01*
X200859000Y-106313071D01*
X200906619Y-106265452D01*
X201811380Y-104503547D02*
X201335190Y-104836880D01*
X201811380Y-105074976D02*
X200811380Y-105074976D01*
X200811380Y-104694023D01*
X200859000Y-104598785D01*
X200906619Y-104551166D01*
X201001857Y-104503547D01*
X201144714Y-104503547D01*
X201239952Y-104551166D01*
X201287571Y-104598785D01*
X201335190Y-104694023D01*
X201335190Y-105074976D01*
X201811380Y-103932119D02*
X201763761Y-104027357D01*
X201716142Y-104074976D01*
X201620904Y-104122595D01*
X201335190Y-104122595D01*
X201239952Y-104074976D01*
X201192333Y-104027357D01*
X201144714Y-103932119D01*
X201144714Y-103789261D01*
X201192333Y-103694023D01*
X201239952Y-103646404D01*
X201335190Y-103598785D01*
X201620904Y-103598785D01*
X201716142Y-103646404D01*
X201763761Y-103694023D01*
X201811380Y-103789261D01*
X201811380Y-103932119D01*
X201811380Y-103170214D02*
X200811380Y-103170214D01*
X201192333Y-103170214D02*
X201144714Y-103074976D01*
X201144714Y-102884500D01*
X201192333Y-102789261D01*
X201239952Y-102741642D01*
X201335190Y-102694023D01*
X201620904Y-102694023D01*
X201716142Y-102741642D01*
X201763761Y-102789261D01*
X201811380Y-102884500D01*
X201811380Y-103074976D01*
X201763761Y-103170214D01*
X201811380Y-102122595D02*
X201763761Y-102217833D01*
X201716142Y-102265452D01*
X201620904Y-102313071D01*
X201335190Y-102313071D01*
X201239952Y-102265452D01*
X201192333Y-102217833D01*
X201144714Y-102122595D01*
X201144714Y-101979738D01*
X201192333Y-101884500D01*
X201239952Y-101836880D01*
X201335190Y-101789261D01*
X201620904Y-101789261D01*
X201716142Y-101836880D01*
X201763761Y-101884500D01*
X201811380Y-101979738D01*
X201811380Y-102122595D01*
X201144714Y-101503547D02*
X201144714Y-101122595D01*
X200811380Y-101360690D02*
X201668523Y-101360690D01*
X201763761Y-101313071D01*
X201811380Y-101217833D01*
X201811380Y-101122595D01*
X201811380Y-100789261D02*
X201144714Y-100789261D01*
X200811380Y-100789261D02*
X200859000Y-100836880D01*
X200906619Y-100789261D01*
X200859000Y-100741642D01*
X200811380Y-100789261D01*
X200906619Y-100789261D01*
X201144714Y-99884500D02*
X202144714Y-99884500D01*
X201763761Y-99884500D02*
X201811380Y-99979738D01*
X201811380Y-100170214D01*
X201763761Y-100265452D01*
X201716142Y-100313071D01*
X201620904Y-100360690D01*
X201335190Y-100360690D01*
X201239952Y-100313071D01*
X201192333Y-100265452D01*
X201144714Y-100170214D01*
X201144714Y-99979738D01*
X201192333Y-99884500D01*
X201144714Y-98979738D02*
X201811380Y-98979738D01*
X201144714Y-99408309D02*
X201668523Y-99408309D01*
X201763761Y-99360690D01*
X201811380Y-99265452D01*
X201811380Y-99122595D01*
X201763761Y-99027357D01*
X201716142Y-98979738D01*
X201763761Y-98122595D02*
X201811380Y-98217833D01*
X201811380Y-98408309D01*
X201763761Y-98503547D01*
X201668523Y-98551166D01*
X201287571Y-98551166D01*
X201192333Y-98503547D01*
X201144714Y-98408309D01*
X201144714Y-98217833D01*
X201192333Y-98122595D01*
X201287571Y-98074976D01*
X201382809Y-98074976D01*
X201478047Y-98551166D01*
X200906619Y-96932119D02*
X200859000Y-96884500D01*
X200811380Y-96789261D01*
X200811380Y-96551166D01*
X200859000Y-96455928D01*
X200906619Y-96408309D01*
X201001857Y-96360690D01*
X201097095Y-96360690D01*
X201239952Y-96408309D01*
X201811380Y-96979738D01*
X201811380Y-96360690D01*
X200811380Y-95741642D02*
X200811380Y-95646404D01*
X200859000Y-95551166D01*
X200906619Y-95503547D01*
X201001857Y-95455928D01*
X201192333Y-95408309D01*
X201430428Y-95408309D01*
X201620904Y-95455928D01*
X201716142Y-95503547D01*
X201763761Y-95551166D01*
X201811380Y-95646404D01*
X201811380Y-95741642D01*
X201763761Y-95836880D01*
X201716142Y-95884500D01*
X201620904Y-95932119D01*
X201430428Y-95979738D01*
X201192333Y-95979738D01*
X201001857Y-95932119D01*
X200906619Y-95884500D01*
X200859000Y-95836880D01*
X200811380Y-95741642D01*
X200906619Y-95027357D02*
X200859000Y-94979738D01*
X200811380Y-94884500D01*
X200811380Y-94646404D01*
X200859000Y-94551166D01*
X200906619Y-94503547D01*
X201001857Y-94455928D01*
X201097095Y-94455928D01*
X201239952Y-94503547D01*
X201811380Y-95074976D01*
X201811380Y-94455928D01*
X201811380Y-93503547D02*
X201811380Y-94074976D01*
X201811380Y-93789261D02*
X200811380Y-93789261D01*
X200954238Y-93884500D01*
X201049476Y-93979738D01*
X201097095Y-94074976D01*
X203461380Y-109646404D02*
X202461380Y-109646404D01*
X202461380Y-109265452D01*
X202509000Y-109170214D01*
X202556619Y-109122595D01*
X202651857Y-109074976D01*
X202794714Y-109074976D01*
X202889952Y-109122595D01*
X202937571Y-109170214D01*
X202985190Y-109265452D01*
X202985190Y-109646404D01*
X203366142Y-108074976D02*
X203413761Y-108122595D01*
X203461380Y-108265452D01*
X203461380Y-108360690D01*
X203413761Y-108503547D01*
X203318523Y-108598785D01*
X203223285Y-108646404D01*
X203032809Y-108694023D01*
X202889952Y-108694023D01*
X202699476Y-108646404D01*
X202604238Y-108598785D01*
X202509000Y-108503547D01*
X202461380Y-108360690D01*
X202461380Y-108265452D01*
X202509000Y-108122595D01*
X202556619Y-108074976D01*
X202937571Y-107313071D02*
X202985190Y-107170214D01*
X203032809Y-107122595D01*
X203128047Y-107074976D01*
X203270904Y-107074976D01*
X203366142Y-107122595D01*
X203413761Y-107170214D01*
X203461380Y-107265452D01*
X203461380Y-107646404D01*
X202461380Y-107646404D01*
X202461380Y-107313071D01*
X202509000Y-107217833D01*
X202556619Y-107170214D01*
X202651857Y-107122595D01*
X202747095Y-107122595D01*
X202842333Y-107170214D01*
X202889952Y-107217833D01*
X202937571Y-107313071D01*
X202937571Y-107646404D01*
X203461380Y-105884500D02*
X202461380Y-105884500D01*
X202842333Y-105884500D02*
X202794714Y-105789261D01*
X202794714Y-105598785D01*
X202842333Y-105503547D01*
X202889952Y-105455928D01*
X202985190Y-105408309D01*
X203270904Y-105408309D01*
X203366142Y-105455928D01*
X203413761Y-105503547D01*
X203461380Y-105598785D01*
X203461380Y-105789261D01*
X203413761Y-105884500D01*
X202794714Y-105074976D02*
X203461380Y-104836880D01*
X202794714Y-104598785D02*
X203461380Y-104836880D01*
X203699476Y-104932119D01*
X203747095Y-104979738D01*
X203794714Y-105074976D01*
X203461380Y-102884500D02*
X202985190Y-103217833D01*
X203461380Y-103455928D02*
X202461380Y-103455928D01*
X202461380Y-103074976D01*
X202509000Y-102979738D01*
X202556619Y-102932119D01*
X202651857Y-102884500D01*
X202794714Y-102884500D01*
X202889952Y-102932119D01*
X202937571Y-102979738D01*
X202985190Y-103074976D01*
X202985190Y-103455928D01*
X203461380Y-102313071D02*
X203413761Y-102408309D01*
X203366142Y-102455928D01*
X203270904Y-102503547D01*
X202985190Y-102503547D01*
X202889952Y-102455928D01*
X202842333Y-102408309D01*
X202794714Y-102313071D01*
X202794714Y-102170214D01*
X202842333Y-102074976D01*
X202889952Y-102027357D01*
X202985190Y-101979738D01*
X203270904Y-101979738D01*
X203366142Y-102027357D01*
X203413761Y-102074976D01*
X203461380Y-102170214D01*
X203461380Y-102313071D01*
X203461380Y-101551166D02*
X202461380Y-101551166D01*
X202842333Y-101551166D02*
X202794714Y-101455928D01*
X202794714Y-101265452D01*
X202842333Y-101170214D01*
X202889952Y-101122595D01*
X202985190Y-101074976D01*
X203270904Y-101074976D01*
X203366142Y-101122595D01*
X203413761Y-101170214D01*
X203461380Y-101265452D01*
X203461380Y-101455928D01*
X203413761Y-101551166D01*
X203461380Y-100646404D02*
X202794714Y-100646404D01*
X202461380Y-100646404D02*
X202509000Y-100694023D01*
X202556619Y-100646404D01*
X202509000Y-100598785D01*
X202461380Y-100646404D01*
X202556619Y-100646404D01*
X202794714Y-100170214D02*
X203461380Y-100170214D01*
X202889952Y-100170214D02*
X202842333Y-100122595D01*
X202794714Y-100027357D01*
X202794714Y-99884500D01*
X202842333Y-99789261D01*
X202937571Y-99741642D01*
X203461380Y-99741642D01*
X203461380Y-98503547D02*
X202461380Y-98503547D01*
X202461380Y-98265452D01*
X202509000Y-98122595D01*
X202604238Y-98027357D01*
X202699476Y-97979738D01*
X202889952Y-97932119D01*
X203032809Y-97932119D01*
X203223285Y-97979738D01*
X203318523Y-98027357D01*
X203413761Y-98122595D01*
X203461380Y-98265452D01*
X203461380Y-98503547D01*
X202794714Y-97074976D02*
X203461380Y-97074976D01*
X202794714Y-97503547D02*
X203318523Y-97503547D01*
X203413761Y-97455928D01*
X203461380Y-97360690D01*
X203461380Y-97217833D01*
X203413761Y-97122595D01*
X203366142Y-97074976D01*
X202794714Y-96598785D02*
X203794714Y-96598785D01*
X202842333Y-96598785D02*
X202794714Y-96503547D01*
X202794714Y-96313071D01*
X202842333Y-96217833D01*
X202889952Y-96170214D01*
X202985190Y-96122595D01*
X203270904Y-96122595D01*
X203366142Y-96170214D01*
X203413761Y-96217833D01*
X203461380Y-96313071D01*
X203461380Y-96503547D01*
X203413761Y-96598785D01*
X203461380Y-95694023D02*
X202794714Y-95694023D01*
X202985190Y-95694023D02*
X202889952Y-95646404D01*
X202842333Y-95598785D01*
X202794714Y-95503547D01*
X202794714Y-95408309D01*
X203461380Y-94646404D02*
X202937571Y-94646404D01*
X202842333Y-94694023D01*
X202794714Y-94789261D01*
X202794714Y-94979738D01*
X202842333Y-95074976D01*
X203413761Y-94646404D02*
X203461380Y-94741642D01*
X203461380Y-94979738D01*
X203413761Y-95074976D01*
X203318523Y-95122595D01*
X203223285Y-95122595D01*
X203128047Y-95074976D01*
X203080428Y-94979738D01*
X203080428Y-94741642D01*
X203032809Y-94646404D01*
X202794714Y-94313071D02*
X202794714Y-93932119D01*
X202461380Y-94170214D02*
X203318523Y-94170214D01*
X203413761Y-94122595D01*
X203461380Y-94027357D01*
X203461380Y-93932119D01*
D11*
X168428571Y-45857142D02*
X167595238Y-44428571D01*
X167000000Y-45857142D02*
X167000000Y-42857142D01*
X167952380Y-42857142D01*
X168190476Y-43000000D01*
X168309523Y-43142857D01*
X168428571Y-43428571D01*
X168428571Y-43857142D01*
X168309523Y-44142857D01*
X168190476Y-44285714D01*
X167952380Y-44428571D01*
X167000000Y-44428571D01*
X169857142Y-45857142D02*
X169619047Y-45714285D01*
X169500000Y-45571428D01*
X169380952Y-45285714D01*
X169380952Y-44428571D01*
X169500000Y-44142857D01*
X169619047Y-44000000D01*
X169857142Y-43857142D01*
X170214285Y-43857142D01*
X170452380Y-44000000D01*
X170571428Y-44142857D01*
X170690476Y-44428571D01*
X170690476Y-45285714D01*
X170571428Y-45571428D01*
X170452380Y-45714285D01*
X170214285Y-45857142D01*
X169857142Y-45857142D01*
X171761904Y-45857142D02*
X171761904Y-42857142D01*
X171761904Y-44000000D02*
X172000000Y-43857142D01*
X172476190Y-43857142D01*
X172714285Y-44000000D01*
X172833333Y-44142857D01*
X172952380Y-44428571D01*
X172952380Y-45285714D01*
X172833333Y-45571428D01*
X172714285Y-45714285D01*
X172476190Y-45857142D01*
X172000000Y-45857142D01*
X171761904Y-45714285D01*
X174380952Y-45857142D02*
X174142857Y-45714285D01*
X174023809Y-45571428D01*
X173904761Y-45285714D01*
X173904761Y-44428571D01*
X174023809Y-44142857D01*
X174142857Y-44000000D01*
X174380952Y-43857142D01*
X174738095Y-43857142D01*
X174976190Y-44000000D01*
X175095238Y-44142857D01*
X175214285Y-44428571D01*
X175214285Y-45285714D01*
X175095238Y-45571428D01*
X174976190Y-45714285D01*
X174738095Y-45857142D01*
X174380952Y-45857142D01*
X175928571Y-43857142D02*
X176880952Y-43857142D01*
X176285714Y-42857142D02*
X176285714Y-45428571D01*
X176404761Y-45714285D01*
X176642857Y-45857142D01*
X176880952Y-45857142D01*
X179500000Y-43142857D02*
X179619047Y-43000000D01*
X179857142Y-42857142D01*
X180452380Y-42857142D01*
X180690476Y-43000000D01*
X180809523Y-43142857D01*
X180928571Y-43428571D01*
X180928571Y-43714285D01*
X180809523Y-44142857D01*
X179380952Y-45857142D01*
X180928571Y-45857142D01*
X182476190Y-42857142D02*
X182714285Y-42857142D01*
X182952380Y-43000000D01*
X183071428Y-43142857D01*
X183190476Y-43428571D01*
X183309523Y-44000000D01*
X183309523Y-44714285D01*
X183190476Y-45285714D01*
X183071428Y-45571428D01*
X182952380Y-45714285D01*
X182714285Y-45857142D01*
X182476190Y-45857142D01*
X182238095Y-45714285D01*
X182119047Y-45571428D01*
X182000000Y-45285714D01*
X181880952Y-44714285D01*
X181880952Y-44000000D01*
X182000000Y-43428571D01*
X182119047Y-43142857D01*
X182238095Y-43000000D01*
X182476190Y-42857142D01*
X184261904Y-43142857D02*
X184380952Y-43000000D01*
X184619047Y-42857142D01*
X185214285Y-42857142D01*
X185452380Y-43000000D01*
X185571428Y-43142857D01*
X185690476Y-43428571D01*
X185690476Y-43714285D01*
X185571428Y-44142857D01*
X184142857Y-45857142D01*
X185690476Y-45857142D01*
X188071428Y-45857142D02*
X186642857Y-45857142D01*
X187357142Y-45857142D02*
X187357142Y-42857142D01*
X187119047Y-43285714D01*
X186880952Y-43571428D01*
X186642857Y-43714285D01*
X190928571Y-45000000D02*
X192119047Y-45000000D01*
X190690476Y-45857142D02*
X191523809Y-42857142D01*
X192357142Y-45857142D01*
X166345238Y-50571428D02*
X166226190Y-50714285D01*
X165869047Y-50857142D01*
X165630952Y-50857142D01*
X165273809Y-50714285D01*
X165035714Y-50428571D01*
X164916666Y-50142857D01*
X164797619Y-49571428D01*
X164797619Y-49142857D01*
X164916666Y-48571428D01*
X165035714Y-48285714D01*
X165273809Y-48000000D01*
X165630952Y-47857142D01*
X165869047Y-47857142D01*
X166226190Y-48000000D01*
X166345238Y-48142857D01*
X168488095Y-50857142D02*
X168488095Y-49285714D01*
X168369047Y-49000000D01*
X168130952Y-48857142D01*
X167654761Y-48857142D01*
X167416666Y-49000000D01*
X168488095Y-50714285D02*
X168250000Y-50857142D01*
X167654761Y-50857142D01*
X167416666Y-50714285D01*
X167297619Y-50428571D01*
X167297619Y-50142857D01*
X167416666Y-49857142D01*
X167654761Y-49714285D01*
X168250000Y-49714285D01*
X168488095Y-49571428D01*
X169678571Y-50857142D02*
X169678571Y-48857142D01*
X169678571Y-49428571D02*
X169797619Y-49142857D01*
X169916666Y-49000000D01*
X170154761Y-48857142D01*
X170392857Y-48857142D01*
X170869047Y-48857142D02*
X171821428Y-48857142D01*
X171226190Y-47857142D02*
X171226190Y-50428571D01*
X171345238Y-50714285D01*
X171583333Y-50857142D01*
X171821428Y-50857142D01*
X173607142Y-50714285D02*
X173369047Y-50857142D01*
X172892857Y-50857142D01*
X172654761Y-50714285D01*
X172535714Y-50428571D01*
X172535714Y-49285714D01*
X172654761Y-49000000D01*
X172892857Y-48857142D01*
X173369047Y-48857142D01*
X173607142Y-49000000D01*
X173726190Y-49285714D01*
X173726190Y-49571428D01*
X172535714Y-49857142D01*
X176702380Y-48857142D02*
X176702380Y-51857142D01*
X176702380Y-49000000D02*
X176940476Y-48857142D01*
X177416666Y-48857142D01*
X177654761Y-49000000D01*
X177773809Y-49142857D01*
X177892857Y-49428571D01*
X177892857Y-50285714D01*
X177773809Y-50571428D01*
X177654761Y-50714285D01*
X177416666Y-50857142D01*
X176940476Y-50857142D01*
X176702380Y-50714285D01*
X178964285Y-50857142D02*
X178964285Y-48857142D01*
X178964285Y-49428571D02*
X179083333Y-49142857D01*
X179202380Y-49000000D01*
X179440476Y-48857142D01*
X179678571Y-48857142D01*
X180511904Y-50857142D02*
X180511904Y-48857142D01*
X180511904Y-47857142D02*
X180392857Y-48000000D01*
X180511904Y-48142857D01*
X180630952Y-48000000D01*
X180511904Y-47857142D01*
X180511904Y-48142857D01*
X181702380Y-48857142D02*
X181702380Y-50857142D01*
X181702380Y-49142857D02*
X181821428Y-49000000D01*
X182059523Y-48857142D01*
X182416666Y-48857142D01*
X182654761Y-49000000D01*
X182773809Y-49285714D01*
X182773809Y-50857142D01*
X185035714Y-50714285D02*
X184797619Y-50857142D01*
X184321428Y-50857142D01*
X184083333Y-50714285D01*
X183964285Y-50571428D01*
X183845238Y-50285714D01*
X183845238Y-49428571D01*
X183964285Y-49142857D01*
X184083333Y-49000000D01*
X184321428Y-48857142D01*
X184797619Y-48857142D01*
X185035714Y-49000000D01*
X186107142Y-50857142D02*
X186107142Y-48857142D01*
X186107142Y-47857142D02*
X185988095Y-48000000D01*
X186107142Y-48142857D01*
X186226190Y-48000000D01*
X186107142Y-47857142D01*
X186107142Y-48142857D01*
X187297619Y-48857142D02*
X187297619Y-51857142D01*
X187297619Y-49000000D02*
X187535714Y-48857142D01*
X188011904Y-48857142D01*
X188250000Y-49000000D01*
X188369047Y-49142857D01*
X188488095Y-49428571D01*
X188488095Y-50285714D01*
X188369047Y-50571428D01*
X188250000Y-50714285D01*
X188011904Y-50857142D01*
X187535714Y-50857142D01*
X187297619Y-50714285D01*
X190630952Y-50857142D02*
X190630952Y-49285714D01*
X190511904Y-49000000D01*
X190273809Y-48857142D01*
X189797619Y-48857142D01*
X189559523Y-49000000D01*
X190630952Y-50714285D02*
X190392857Y-50857142D01*
X189797619Y-50857142D01*
X189559523Y-50714285D01*
X189440476Y-50428571D01*
X189440476Y-50142857D01*
X189559523Y-49857142D01*
X189797619Y-49714285D01*
X190392857Y-49714285D01*
X190630952Y-49571428D01*
X192178571Y-50857142D02*
X191940476Y-50714285D01*
X191821428Y-50428571D01*
X191821428Y-47857142D01*
X194083333Y-50714285D02*
X193845238Y-50857142D01*
X193369047Y-50857142D01*
X193130952Y-50714285D01*
X193011904Y-50428571D01*
X193011904Y-49285714D01*
X193130952Y-49000000D01*
X193369047Y-48857142D01*
X193845238Y-48857142D01*
X194083333Y-49000000D01*
X194202380Y-49285714D01*
X194202380Y-49571428D01*
X193011904Y-49857142D01*
D12*
%TO.C,R1*%
X117423000Y-65134748D02*
X117423000Y-65657252D01*
X116003000Y-65134748D02*
X116003000Y-65657252D01*
%TO.C,J10*%
X186262000Y-90063000D02*
X192232000Y-90063000D01*
X192232000Y-90063000D02*
X192232000Y-77443000D01*
X192232000Y-77443000D02*
X186262000Y-77443000D01*
X186262000Y-77443000D02*
X186262000Y-90063000D01*
X186272000Y-86753000D02*
X187022000Y-86753000D01*
X187022000Y-86753000D02*
X187022000Y-80753000D01*
X187022000Y-80753000D02*
X186272000Y-80753000D01*
X186272000Y-80753000D02*
X186272000Y-86753000D01*
X186272000Y-90053000D02*
X187022000Y-90053000D01*
X187022000Y-90053000D02*
X187022000Y-88253000D01*
X187022000Y-88253000D02*
X186272000Y-88253000D01*
X186272000Y-88253000D02*
X186272000Y-90053000D01*
X186272000Y-79253000D02*
X187022000Y-79253000D01*
X187022000Y-79253000D02*
X187022000Y-77453000D01*
X187022000Y-77453000D02*
X186272000Y-77453000D01*
X186272000Y-77453000D02*
X186272000Y-79253000D01*
X188522000Y-90053000D02*
X188522000Y-89303000D01*
X188522000Y-89303000D02*
X191472000Y-89303000D01*
X191472000Y-89303000D02*
X191472000Y-83753000D01*
X188522000Y-77453000D02*
X188522000Y-78203000D01*
X188522000Y-78203000D02*
X191472000Y-78203000D01*
X191472000Y-78203000D02*
X191472000Y-83753000D01*
X185972000Y-89103000D02*
X185972000Y-90353000D01*
X185972000Y-90353000D02*
X187222000Y-90353000D01*
%TO.C,J4*%
X176460000Y-107440000D02*
X170490000Y-107440000D01*
X170490000Y-107440000D02*
X170490000Y-117560000D01*
X170490000Y-117560000D02*
X176460000Y-117560000D01*
X176460000Y-117560000D02*
X176460000Y-107440000D01*
X176450000Y-110750000D02*
X175700000Y-110750000D01*
X175700000Y-110750000D02*
X175700000Y-114250000D01*
X175700000Y-114250000D02*
X176450000Y-114250000D01*
X176450000Y-114250000D02*
X176450000Y-110750000D01*
X176450000Y-107450000D02*
X175700000Y-107450000D01*
X175700000Y-107450000D02*
X175700000Y-109250000D01*
X175700000Y-109250000D02*
X176450000Y-109250000D01*
X176450000Y-109250000D02*
X176450000Y-107450000D01*
X176450000Y-115750000D02*
X175700000Y-115750000D01*
X175700000Y-115750000D02*
X175700000Y-117550000D01*
X175700000Y-117550000D02*
X176450000Y-117550000D01*
X176450000Y-117550000D02*
X176450000Y-115750000D01*
X174200000Y-107450000D02*
X174200000Y-108200000D01*
X174200000Y-108200000D02*
X171250000Y-108200000D01*
X171250000Y-108200000D02*
X171250000Y-112500000D01*
X174200000Y-117550000D02*
X174200000Y-116800000D01*
X174200000Y-116800000D02*
X171250000Y-116800000D01*
X171250000Y-116800000D02*
X171250000Y-112500000D01*
X176750000Y-108400000D02*
X176750000Y-107150000D01*
X176750000Y-107150000D02*
X175500000Y-107150000D01*
%TO.C,J15*%
X121078000Y-102850000D02*
X115108000Y-102850000D01*
X115108000Y-102850000D02*
X115108000Y-115470000D01*
X115108000Y-115470000D02*
X121078000Y-115470000D01*
X121078000Y-115470000D02*
X121078000Y-102850000D01*
X121068000Y-106160000D02*
X120318000Y-106160000D01*
X120318000Y-106160000D02*
X120318000Y-112160000D01*
X120318000Y-112160000D02*
X121068000Y-112160000D01*
X121068000Y-112160000D02*
X121068000Y-106160000D01*
X121068000Y-102860000D02*
X120318000Y-102860000D01*
X120318000Y-102860000D02*
X120318000Y-104660000D01*
X120318000Y-104660000D02*
X121068000Y-104660000D01*
X121068000Y-104660000D02*
X121068000Y-102860000D01*
X121068000Y-113660000D02*
X120318000Y-113660000D01*
X120318000Y-113660000D02*
X120318000Y-115460000D01*
X120318000Y-115460000D02*
X121068000Y-115460000D01*
X121068000Y-115460000D02*
X121068000Y-113660000D01*
X118818000Y-102860000D02*
X118818000Y-103610000D01*
X118818000Y-103610000D02*
X115868000Y-103610000D01*
X115868000Y-103610000D02*
X115868000Y-109160000D01*
X118818000Y-115460000D02*
X118818000Y-114710000D01*
X118818000Y-114710000D02*
X115868000Y-114710000D01*
X115868000Y-114710000D02*
X115868000Y-109160000D01*
X121368000Y-103810000D02*
X121368000Y-102560000D01*
X121368000Y-102560000D02*
X120118000Y-102560000D01*
%TO.C,J16*%
X140460000Y-54717000D02*
X134490000Y-54717000D01*
X134490000Y-54717000D02*
X134490000Y-67337000D01*
X134490000Y-67337000D02*
X140460000Y-67337000D01*
X140460000Y-67337000D02*
X140460000Y-54717000D01*
X140450000Y-58027000D02*
X139700000Y-58027000D01*
X139700000Y-58027000D02*
X139700000Y-64027000D01*
X139700000Y-64027000D02*
X140450000Y-64027000D01*
X140450000Y-64027000D02*
X140450000Y-58027000D01*
X140450000Y-54727000D02*
X139700000Y-54727000D01*
X139700000Y-54727000D02*
X139700000Y-56527000D01*
X139700000Y-56527000D02*
X140450000Y-56527000D01*
X140450000Y-56527000D02*
X140450000Y-54727000D01*
X140450000Y-65527000D02*
X139700000Y-65527000D01*
X139700000Y-65527000D02*
X139700000Y-67327000D01*
X139700000Y-67327000D02*
X140450000Y-67327000D01*
X140450000Y-67327000D02*
X140450000Y-65527000D01*
X138200000Y-54727000D02*
X138200000Y-55477000D01*
X138200000Y-55477000D02*
X135250000Y-55477000D01*
X135250000Y-55477000D02*
X135250000Y-61027000D01*
X138200000Y-67327000D02*
X138200000Y-66577000D01*
X138200000Y-66577000D02*
X135250000Y-66577000D01*
X135250000Y-66577000D02*
X135250000Y-61027000D01*
X140750000Y-55677000D02*
X140750000Y-54427000D01*
X140750000Y-54427000D02*
X139500000Y-54427000D01*
%TO.C,J9*%
X127460000Y-73440000D02*
X121490000Y-73440000D01*
X121490000Y-73440000D02*
X121490000Y-83560000D01*
X121490000Y-83560000D02*
X127460000Y-83560000D01*
X127460000Y-83560000D02*
X127460000Y-73440000D01*
X127450000Y-76750000D02*
X126700000Y-76750000D01*
X126700000Y-76750000D02*
X126700000Y-80250000D01*
X126700000Y-80250000D02*
X127450000Y-80250000D01*
X127450000Y-80250000D02*
X127450000Y-76750000D01*
X127450000Y-73450000D02*
X126700000Y-73450000D01*
X126700000Y-73450000D02*
X126700000Y-75250000D01*
X126700000Y-75250000D02*
X127450000Y-75250000D01*
X127450000Y-75250000D02*
X127450000Y-73450000D01*
X127450000Y-81750000D02*
X126700000Y-81750000D01*
X126700000Y-81750000D02*
X126700000Y-83550000D01*
X126700000Y-83550000D02*
X127450000Y-83550000D01*
X127450000Y-83550000D02*
X127450000Y-81750000D01*
X125200000Y-73450000D02*
X125200000Y-74200000D01*
X125200000Y-74200000D02*
X122250000Y-74200000D01*
X122250000Y-74200000D02*
X122250000Y-78500000D01*
X125200000Y-83550000D02*
X125200000Y-82800000D01*
X125200000Y-82800000D02*
X122250000Y-82800000D01*
X122250000Y-82800000D02*
X122250000Y-78500000D01*
X127750000Y-74400000D02*
X127750000Y-73150000D01*
X127750000Y-73150000D02*
X126500000Y-73150000D01*
%TO.C,J8*%
X136318000Y-69830000D02*
X130348000Y-69830000D01*
X130348000Y-69830000D02*
X130348000Y-79950000D01*
X130348000Y-79950000D02*
X136318000Y-79950000D01*
X136318000Y-79950000D02*
X136318000Y-69830000D01*
X136308000Y-73140000D02*
X135558000Y-73140000D01*
X135558000Y-73140000D02*
X135558000Y-76640000D01*
X135558000Y-76640000D02*
X136308000Y-76640000D01*
X136308000Y-76640000D02*
X136308000Y-73140000D01*
X136308000Y-69840000D02*
X135558000Y-69840000D01*
X135558000Y-69840000D02*
X135558000Y-71640000D01*
X135558000Y-71640000D02*
X136308000Y-71640000D01*
X136308000Y-71640000D02*
X136308000Y-69840000D01*
X136308000Y-78140000D02*
X135558000Y-78140000D01*
X135558000Y-78140000D02*
X135558000Y-79940000D01*
X135558000Y-79940000D02*
X136308000Y-79940000D01*
X136308000Y-79940000D02*
X136308000Y-78140000D01*
X134058000Y-69840000D02*
X134058000Y-70590000D01*
X134058000Y-70590000D02*
X131108000Y-70590000D01*
X131108000Y-70590000D02*
X131108000Y-74890000D01*
X134058000Y-79940000D02*
X134058000Y-79190000D01*
X134058000Y-79190000D02*
X131108000Y-79190000D01*
X131108000Y-79190000D02*
X131108000Y-74890000D01*
X136608000Y-70790000D02*
X136608000Y-69540000D01*
X136608000Y-69540000D02*
X135358000Y-69540000D01*
%TO.C,J12*%
X108460000Y-60620000D02*
X108460000Y-50460000D01*
X107190000Y-60620000D02*
X114810000Y-60620000D01*
X114810000Y-60620000D02*
X114810000Y-50460000D01*
X114810000Y-50460000D02*
X107190000Y-50460000D01*
X107190000Y-50460000D02*
X107190000Y-60620000D01*
%TO.C,J7*%
X176460000Y-95357000D02*
X170490000Y-95357000D01*
X170490000Y-95357000D02*
X170490000Y-105477000D01*
X170490000Y-105477000D02*
X176460000Y-105477000D01*
X176460000Y-105477000D02*
X176460000Y-95357000D01*
X176450000Y-98667000D02*
X175700000Y-98667000D01*
X175700000Y-98667000D02*
X175700000Y-102167000D01*
X175700000Y-102167000D02*
X176450000Y-102167000D01*
X176450000Y-102167000D02*
X176450000Y-98667000D01*
X176450000Y-95367000D02*
X175700000Y-95367000D01*
X175700000Y-95367000D02*
X175700000Y-97167000D01*
X175700000Y-97167000D02*
X176450000Y-97167000D01*
X176450000Y-97167000D02*
X176450000Y-95367000D01*
X176450000Y-103667000D02*
X175700000Y-103667000D01*
X175700000Y-103667000D02*
X175700000Y-105467000D01*
X175700000Y-105467000D02*
X176450000Y-105467000D01*
X176450000Y-105467000D02*
X176450000Y-103667000D01*
X174200000Y-95367000D02*
X174200000Y-96117000D01*
X174200000Y-96117000D02*
X171250000Y-96117000D01*
X171250000Y-96117000D02*
X171250000Y-100417000D01*
X174200000Y-105467000D02*
X174200000Y-104717000D01*
X174200000Y-104717000D02*
X171250000Y-104717000D01*
X171250000Y-104717000D02*
X171250000Y-100417000D01*
X176750000Y-96317000D02*
X176750000Y-95067000D01*
X176750000Y-95067000D02*
X175500000Y-95067000D01*
%TO.C,J20*%
X199648000Y-76768000D02*
X202308000Y-76768000D01*
X199648000Y-66548000D02*
X199648000Y-76768000D01*
X202308000Y-66548000D02*
X202308000Y-76768000D01*
X199648000Y-66548000D02*
X202308000Y-66548000D01*
X199648000Y-65278000D02*
X199648000Y-63948000D01*
X199648000Y-63948000D02*
X200978000Y-63948000D01*
%TO.C,U6*%
X191824000Y-73070000D02*
X191824000Y-74530000D01*
X188664000Y-73070000D02*
X188664000Y-75230000D01*
X188664000Y-73070000D02*
X189594000Y-73070000D01*
X191824000Y-73070000D02*
X190894000Y-73070000D01*
%TO.C,U7*%
X197412000Y-75610000D02*
X197412000Y-77070000D01*
X194252000Y-75610000D02*
X194252000Y-77770000D01*
X194252000Y-75610000D02*
X195182000Y-75610000D01*
X197412000Y-75610000D02*
X196482000Y-75610000D01*
%TO.C,U3*%
X175634000Y-65534000D02*
X175634000Y-66994000D01*
X172474000Y-65534000D02*
X172474000Y-67694000D01*
X172474000Y-65534000D02*
X173404000Y-65534000D01*
X175634000Y-65534000D02*
X174704000Y-65534000D01*
%TO.C,U5*%
X186236000Y-70530000D02*
X186236000Y-71990000D01*
X183076000Y-70530000D02*
X183076000Y-72690000D01*
X183076000Y-70530000D02*
X184006000Y-70530000D01*
X186236000Y-70530000D02*
X185306000Y-70530000D01*
%TO.C,U4*%
X181222000Y-68074000D02*
X181222000Y-69534000D01*
X178062000Y-68074000D02*
X178062000Y-70234000D01*
X178062000Y-68074000D02*
X178992000Y-68074000D01*
X181222000Y-68074000D02*
X180292000Y-68074000D01*
D10*
%TO.C,U2*%
X162560000Y-72390000D02*
X160020000Y-72390000D01*
X160020000Y-72390000D02*
X160020000Y-74930000D01*
X160020000Y-74930000D02*
X162560000Y-74930000D01*
X162560000Y-74930000D02*
X162560000Y-72390000D01*
X153670000Y-80010000D02*
X153670000Y-76200000D01*
X153670000Y-76200000D02*
X156210000Y-76200000D01*
X156210000Y-76200000D02*
X156210000Y-80010000D01*
X156210000Y-80010000D02*
X153670000Y-80010000D01*
X152400000Y-93980000D02*
X165100000Y-93980000D01*
X165100000Y-81280000D02*
X152400000Y-81280000D01*
X152400000Y-81280000D02*
X152400000Y-93980000D01*
X165100000Y-81280000D02*
X165100000Y-93980000D01*
X153670000Y-115570000D02*
X153670000Y-116840000D01*
X154940000Y-115570000D02*
X154940000Y-116840000D01*
X156210000Y-115570000D02*
X156210000Y-116840000D01*
X157480000Y-115570000D02*
X157480000Y-116840000D01*
X158750000Y-115570000D02*
X158750000Y-116840000D01*
X160020000Y-115570000D02*
X160020000Y-116840000D01*
X161290000Y-115570000D02*
X161290000Y-116840000D01*
X162560000Y-115570000D02*
X162560000Y-116840000D01*
X163830000Y-115570000D02*
X163830000Y-116840000D01*
X152400000Y-116840000D02*
X153670000Y-115570000D01*
X153670000Y-115570000D02*
X163830000Y-115570000D01*
X163830000Y-115570000D02*
X165100000Y-116840000D01*
X165100000Y-116840000D02*
X165100000Y-104140000D01*
X165100000Y-104140000D02*
X152400000Y-104140000D01*
X152400000Y-104140000D02*
X152400000Y-116840000D01*
X167640000Y-116840000D02*
X167640000Y-55880000D01*
X149860000Y-55880000D02*
X149860000Y-116840000D01*
X154940000Y-55880000D02*
X154940000Y-54610000D01*
X154940000Y-54610000D02*
X162560000Y-54610000D01*
X162560000Y-54610000D02*
X162560000Y-55880000D01*
X154940000Y-60960000D02*
X162560000Y-60960000D01*
X162560000Y-60960000D02*
X162560000Y-55880000D01*
X154940000Y-60960000D02*
X154940000Y-55880000D01*
X161290000Y-100330000D02*
X156210000Y-100330000D01*
X156210000Y-100330000D02*
X156210000Y-97790000D01*
X156210000Y-97790000D02*
X161290000Y-97790000D01*
X161290000Y-97790000D02*
X161290000Y-100330000D01*
X167640000Y-116840000D02*
X149860000Y-116840000D01*
X149860000Y-55880000D02*
X167640000Y-55880000D01*
D12*
%TO.C,U1*%
X121629000Y-42440000D02*
X133350000Y-42440000D01*
X121629000Y-51060000D02*
X133350000Y-51060000D01*
X121629000Y-42440000D02*
X121629000Y-51060000D01*
X133350000Y-42440000D02*
X133350000Y-51060000D01*
X121389000Y-50060000D02*
X121389000Y-51300000D01*
X121389000Y-51300000D02*
X122629000Y-51300000D01*
%TO.C,R3*%
X118002000Y-60967252D02*
X118002000Y-60444748D01*
X119422000Y-60967252D02*
X119422000Y-60444748D01*
%TO.C,R2*%
X113336000Y-68841252D02*
X113336000Y-68318748D01*
X114756000Y-68841252D02*
X114756000Y-68318748D01*
%TO.C,J26*%
X184750000Y-82240000D02*
X183500000Y-82240000D01*
X184750000Y-83490000D02*
X184750000Y-82240000D01*
X179250000Y-89390000D02*
X179250000Y-86340000D01*
X182200000Y-89390000D02*
X179250000Y-89390000D01*
X182200000Y-90140000D02*
X182200000Y-89390000D01*
X179250000Y-83290000D02*
X179250000Y-86340000D01*
X182200000Y-83290000D02*
X179250000Y-83290000D01*
X182200000Y-82540000D02*
X182200000Y-83290000D01*
X184450000Y-90140000D02*
X184450000Y-88340000D01*
X183700000Y-90140000D02*
X184450000Y-90140000D01*
X183700000Y-88340000D02*
X183700000Y-90140000D01*
X184450000Y-88340000D02*
X183700000Y-88340000D01*
X184450000Y-84340000D02*
X184450000Y-82540000D01*
X183700000Y-84340000D02*
X184450000Y-84340000D01*
X183700000Y-82540000D02*
X183700000Y-84340000D01*
X184450000Y-82540000D02*
X183700000Y-82540000D01*
X184450000Y-86840000D02*
X184450000Y-85840000D01*
X183700000Y-86840000D02*
X184450000Y-86840000D01*
X183700000Y-85840000D02*
X183700000Y-86840000D01*
X184450000Y-85840000D02*
X183700000Y-85840000D01*
X184460000Y-90150000D02*
X184460000Y-82530000D01*
X178490000Y-90150000D02*
X184460000Y-90150000D01*
X178490000Y-82530000D02*
X178490000Y-90150000D01*
X184460000Y-82530000D02*
X178490000Y-82530000D01*
%TO.C,J25*%
X176460000Y-85070000D02*
X170490000Y-85070000D01*
X170490000Y-85070000D02*
X170490000Y-92690000D01*
X170490000Y-92690000D02*
X176460000Y-92690000D01*
X176460000Y-92690000D02*
X176460000Y-85070000D01*
X176450000Y-88380000D02*
X175700000Y-88380000D01*
X175700000Y-88380000D02*
X175700000Y-89380000D01*
X175700000Y-89380000D02*
X176450000Y-89380000D01*
X176450000Y-89380000D02*
X176450000Y-88380000D01*
X176450000Y-85080000D02*
X175700000Y-85080000D01*
X175700000Y-85080000D02*
X175700000Y-86880000D01*
X175700000Y-86880000D02*
X176450000Y-86880000D01*
X176450000Y-86880000D02*
X176450000Y-85080000D01*
X176450000Y-90880000D02*
X175700000Y-90880000D01*
X175700000Y-90880000D02*
X175700000Y-92680000D01*
X175700000Y-92680000D02*
X176450000Y-92680000D01*
X176450000Y-92680000D02*
X176450000Y-90880000D01*
X174200000Y-85080000D02*
X174200000Y-85830000D01*
X174200000Y-85830000D02*
X171250000Y-85830000D01*
X171250000Y-85830000D02*
X171250000Y-88880000D01*
X174200000Y-92680000D02*
X174200000Y-91930000D01*
X174200000Y-91930000D02*
X171250000Y-91930000D01*
X171250000Y-91930000D02*
X171250000Y-88880000D01*
X176750000Y-86030000D02*
X176750000Y-84780000D01*
X176750000Y-84780000D02*
X175500000Y-84780000D01*
%TO.C,J24*%
X137080000Y-87610000D02*
X131110000Y-87610000D01*
X131110000Y-87610000D02*
X131110000Y-95230000D01*
X131110000Y-95230000D02*
X137080000Y-95230000D01*
X137080000Y-95230000D02*
X137080000Y-87610000D01*
X137070000Y-90920000D02*
X136320000Y-90920000D01*
X136320000Y-90920000D02*
X136320000Y-91920000D01*
X136320000Y-91920000D02*
X137070000Y-91920000D01*
X137070000Y-91920000D02*
X137070000Y-90920000D01*
X137070000Y-87620000D02*
X136320000Y-87620000D01*
X136320000Y-87620000D02*
X136320000Y-89420000D01*
X136320000Y-89420000D02*
X137070000Y-89420000D01*
X137070000Y-89420000D02*
X137070000Y-87620000D01*
X137070000Y-93420000D02*
X136320000Y-93420000D01*
X136320000Y-93420000D02*
X136320000Y-95220000D01*
X136320000Y-95220000D02*
X137070000Y-95220000D01*
X137070000Y-95220000D02*
X137070000Y-93420000D01*
X134820000Y-87620000D02*
X134820000Y-88370000D01*
X134820000Y-88370000D02*
X131870000Y-88370000D01*
X131870000Y-88370000D02*
X131870000Y-91420000D01*
X134820000Y-95220000D02*
X134820000Y-94470000D01*
X134820000Y-94470000D02*
X131870000Y-94470000D01*
X131870000Y-94470000D02*
X131870000Y-91420000D01*
X137370000Y-88570000D02*
X137370000Y-87320000D01*
X137370000Y-87320000D02*
X136120000Y-87320000D01*
%TO.C,J23*%
X127460000Y-85324000D02*
X121490000Y-85324000D01*
X121490000Y-85324000D02*
X121490000Y-92944000D01*
X121490000Y-92944000D02*
X127460000Y-92944000D01*
X127460000Y-92944000D02*
X127460000Y-85324000D01*
X127450000Y-88634000D02*
X126700000Y-88634000D01*
X126700000Y-88634000D02*
X126700000Y-89634000D01*
X126700000Y-89634000D02*
X127450000Y-89634000D01*
X127450000Y-89634000D02*
X127450000Y-88634000D01*
X127450000Y-85334000D02*
X126700000Y-85334000D01*
X126700000Y-85334000D02*
X126700000Y-87134000D01*
X126700000Y-87134000D02*
X127450000Y-87134000D01*
X127450000Y-87134000D02*
X127450000Y-85334000D01*
X127450000Y-91134000D02*
X126700000Y-91134000D01*
X126700000Y-91134000D02*
X126700000Y-92934000D01*
X126700000Y-92934000D02*
X127450000Y-92934000D01*
X127450000Y-92934000D02*
X127450000Y-91134000D01*
X125200000Y-85334000D02*
X125200000Y-86084000D01*
X125200000Y-86084000D02*
X122250000Y-86084000D01*
X122250000Y-86084000D02*
X122250000Y-89134000D01*
X125200000Y-92934000D02*
X125200000Y-92184000D01*
X125200000Y-92184000D02*
X122250000Y-92184000D01*
X122250000Y-92184000D02*
X122250000Y-89134000D01*
X127750000Y-86284000D02*
X127750000Y-85034000D01*
X127750000Y-85034000D02*
X126500000Y-85034000D01*
%TO.C,J22*%
X136440000Y-46540000D02*
X136440000Y-52510000D01*
X136440000Y-52510000D02*
X149060000Y-52510000D01*
X149060000Y-52510000D02*
X149060000Y-46540000D01*
X149060000Y-46540000D02*
X136440000Y-46540000D01*
X139750000Y-46550000D02*
X139750000Y-47300000D01*
X139750000Y-47300000D02*
X145750000Y-47300000D01*
X145750000Y-47300000D02*
X145750000Y-46550000D01*
X145750000Y-46550000D02*
X139750000Y-46550000D01*
X136450000Y-46550000D02*
X136450000Y-47300000D01*
X136450000Y-47300000D02*
X138250000Y-47300000D01*
X138250000Y-47300000D02*
X138250000Y-46550000D01*
X138250000Y-46550000D02*
X136450000Y-46550000D01*
X147250000Y-46550000D02*
X147250000Y-47300000D01*
X147250000Y-47300000D02*
X149050000Y-47300000D01*
X149050000Y-47300000D02*
X149050000Y-46550000D01*
X149050000Y-46550000D02*
X147250000Y-46550000D01*
X136450000Y-48800000D02*
X137200000Y-48800000D01*
X137200000Y-48800000D02*
X137200000Y-51750000D01*
X137200000Y-51750000D02*
X142750000Y-51750000D01*
X149050000Y-48800000D02*
X148300000Y-48800000D01*
X148300000Y-48800000D02*
X148300000Y-51750000D01*
X148300000Y-51750000D02*
X142750000Y-51750000D01*
X137400000Y-46250000D02*
X136150000Y-46250000D01*
X136150000Y-46250000D02*
X136150000Y-47500000D01*
%TO.C,J21*%
X143450000Y-101660000D02*
X146110000Y-101660000D01*
X143450000Y-96520000D02*
X143450000Y-101660000D01*
X146110000Y-96520000D02*
X146110000Y-101660000D01*
X143450000Y-96520000D02*
X146110000Y-96520000D01*
X143450000Y-95250000D02*
X143450000Y-93920000D01*
X143450000Y-93920000D02*
X144780000Y-93920000D01*
%TO.C,J19*%
X106532000Y-95188000D02*
X106532000Y-101158000D01*
X106532000Y-101158000D02*
X119152000Y-101158000D01*
X119152000Y-101158000D02*
X119152000Y-95188000D01*
X119152000Y-95188000D02*
X106532000Y-95188000D01*
X109842000Y-95198000D02*
X109842000Y-95948000D01*
X109842000Y-95948000D02*
X115842000Y-95948000D01*
X115842000Y-95948000D02*
X115842000Y-95198000D01*
X115842000Y-95198000D02*
X109842000Y-95198000D01*
X106542000Y-95198000D02*
X106542000Y-95948000D01*
X106542000Y-95948000D02*
X108342000Y-95948000D01*
X108342000Y-95948000D02*
X108342000Y-95198000D01*
X108342000Y-95198000D02*
X106542000Y-95198000D01*
X117342000Y-95198000D02*
X117342000Y-95948000D01*
X117342000Y-95948000D02*
X119142000Y-95948000D01*
X119142000Y-95948000D02*
X119142000Y-95198000D01*
X119142000Y-95198000D02*
X117342000Y-95198000D01*
X106542000Y-97448000D02*
X107292000Y-97448000D01*
X107292000Y-97448000D02*
X107292000Y-100398000D01*
X107292000Y-100398000D02*
X112842000Y-100398000D01*
X119142000Y-97448000D02*
X118392000Y-97448000D01*
X118392000Y-97448000D02*
X118392000Y-100398000D01*
X118392000Y-100398000D02*
X112842000Y-100398000D01*
X107492000Y-94898000D02*
X106242000Y-94898000D01*
X106242000Y-94898000D02*
X106242000Y-96148000D01*
%TO.C,J18*%
X106532000Y-85028000D02*
X106532000Y-90998000D01*
X106532000Y-90998000D02*
X119152000Y-90998000D01*
X119152000Y-90998000D02*
X119152000Y-85028000D01*
X119152000Y-85028000D02*
X106532000Y-85028000D01*
X109842000Y-85038000D02*
X109842000Y-85788000D01*
X109842000Y-85788000D02*
X115842000Y-85788000D01*
X115842000Y-85788000D02*
X115842000Y-85038000D01*
X115842000Y-85038000D02*
X109842000Y-85038000D01*
X106542000Y-85038000D02*
X106542000Y-85788000D01*
X106542000Y-85788000D02*
X108342000Y-85788000D01*
X108342000Y-85788000D02*
X108342000Y-85038000D01*
X108342000Y-85038000D02*
X106542000Y-85038000D01*
X117342000Y-85038000D02*
X117342000Y-85788000D01*
X117342000Y-85788000D02*
X119142000Y-85788000D01*
X119142000Y-85788000D02*
X119142000Y-85038000D01*
X119142000Y-85038000D02*
X117342000Y-85038000D01*
X106542000Y-87288000D02*
X107292000Y-87288000D01*
X107292000Y-87288000D02*
X107292000Y-90238000D01*
X107292000Y-90238000D02*
X112842000Y-90238000D01*
X119142000Y-87288000D02*
X118392000Y-87288000D01*
X118392000Y-87288000D02*
X118392000Y-90238000D01*
X118392000Y-90238000D02*
X112842000Y-90238000D01*
X107492000Y-84738000D02*
X106242000Y-84738000D01*
X106242000Y-84738000D02*
X106242000Y-85988000D01*
%TO.C,J17*%
X106532000Y-74868000D02*
X106532000Y-80838000D01*
X106532000Y-80838000D02*
X119152000Y-80838000D01*
X119152000Y-80838000D02*
X119152000Y-74868000D01*
X119152000Y-74868000D02*
X106532000Y-74868000D01*
X109842000Y-74878000D02*
X109842000Y-75628000D01*
X109842000Y-75628000D02*
X115842000Y-75628000D01*
X115842000Y-75628000D02*
X115842000Y-74878000D01*
X115842000Y-74878000D02*
X109842000Y-74878000D01*
X106542000Y-74878000D02*
X106542000Y-75628000D01*
X106542000Y-75628000D02*
X108342000Y-75628000D01*
X108342000Y-75628000D02*
X108342000Y-74878000D01*
X108342000Y-74878000D02*
X106542000Y-74878000D01*
X117342000Y-74878000D02*
X117342000Y-75628000D01*
X117342000Y-75628000D02*
X119142000Y-75628000D01*
X119142000Y-75628000D02*
X119142000Y-74878000D01*
X119142000Y-74878000D02*
X117342000Y-74878000D01*
X106542000Y-77128000D02*
X107292000Y-77128000D01*
X107292000Y-77128000D02*
X107292000Y-80078000D01*
X107292000Y-80078000D02*
X112842000Y-80078000D01*
X119142000Y-77128000D02*
X118392000Y-77128000D01*
X118392000Y-77128000D02*
X118392000Y-80078000D01*
X118392000Y-80078000D02*
X112842000Y-80078000D01*
X107492000Y-74578000D02*
X106242000Y-74578000D01*
X106242000Y-74578000D02*
X106242000Y-75828000D01*
%TO.C,J14*%
X146070000Y-74850000D02*
X146070000Y-68880000D01*
X146070000Y-68880000D02*
X138450000Y-68880000D01*
X138450000Y-68880000D02*
X138450000Y-74850000D01*
X138450000Y-74850000D02*
X146070000Y-74850000D01*
X142760000Y-74840000D02*
X142760000Y-74090000D01*
X142760000Y-74090000D02*
X141760000Y-74090000D01*
X141760000Y-74090000D02*
X141760000Y-74840000D01*
X141760000Y-74840000D02*
X142760000Y-74840000D01*
X146060000Y-74840000D02*
X146060000Y-74090000D01*
X146060000Y-74090000D02*
X144260000Y-74090000D01*
X144260000Y-74090000D02*
X144260000Y-74840000D01*
X144260000Y-74840000D02*
X146060000Y-74840000D01*
X140260000Y-74840000D02*
X140260000Y-74090000D01*
X140260000Y-74090000D02*
X138460000Y-74090000D01*
X138460000Y-74090000D02*
X138460000Y-74840000D01*
X138460000Y-74840000D02*
X140260000Y-74840000D01*
X146060000Y-72590000D02*
X145310000Y-72590000D01*
X145310000Y-72590000D02*
X145310000Y-69640000D01*
X145310000Y-69640000D02*
X142260000Y-69640000D01*
X138460000Y-72590000D02*
X139210000Y-72590000D01*
X139210000Y-72590000D02*
X139210000Y-69640000D01*
X139210000Y-69640000D02*
X142260000Y-69640000D01*
X145110000Y-75140000D02*
X146360000Y-75140000D01*
X146360000Y-75140000D02*
X146360000Y-73890000D01*
%TO.C,J13*%
X146070000Y-87550000D02*
X146070000Y-81580000D01*
X146070000Y-81580000D02*
X138450000Y-81580000D01*
X138450000Y-81580000D02*
X138450000Y-87550000D01*
X138450000Y-87550000D02*
X146070000Y-87550000D01*
X142760000Y-87540000D02*
X142760000Y-86790000D01*
X142760000Y-86790000D02*
X141760000Y-86790000D01*
X141760000Y-86790000D02*
X141760000Y-87540000D01*
X141760000Y-87540000D02*
X142760000Y-87540000D01*
X146060000Y-87540000D02*
X146060000Y-86790000D01*
X146060000Y-86790000D02*
X144260000Y-86790000D01*
X144260000Y-86790000D02*
X144260000Y-87540000D01*
X144260000Y-87540000D02*
X146060000Y-87540000D01*
X140260000Y-87540000D02*
X140260000Y-86790000D01*
X140260000Y-86790000D02*
X138460000Y-86790000D01*
X138460000Y-86790000D02*
X138460000Y-87540000D01*
X138460000Y-87540000D02*
X140260000Y-87540000D01*
X146060000Y-85290000D02*
X145310000Y-85290000D01*
X145310000Y-85290000D02*
X145310000Y-82340000D01*
X145310000Y-82340000D02*
X142260000Y-82340000D01*
X138460000Y-85290000D02*
X139210000Y-85290000D01*
X139210000Y-85290000D02*
X139210000Y-82340000D01*
X139210000Y-82340000D02*
X142260000Y-82340000D01*
X145110000Y-87840000D02*
X146360000Y-87840000D01*
X146360000Y-87840000D02*
X146360000Y-86590000D01*
%TO.C,J11*%
X139874000Y-100310000D02*
X133904000Y-100310000D01*
X133904000Y-100310000D02*
X133904000Y-112930000D01*
X133904000Y-112930000D02*
X139874000Y-112930000D01*
X139874000Y-112930000D02*
X139874000Y-100310000D01*
X139864000Y-103620000D02*
X139114000Y-103620000D01*
X139114000Y-103620000D02*
X139114000Y-109620000D01*
X139114000Y-109620000D02*
X139864000Y-109620000D01*
X139864000Y-109620000D02*
X139864000Y-103620000D01*
X139864000Y-100320000D02*
X139114000Y-100320000D01*
X139114000Y-100320000D02*
X139114000Y-102120000D01*
X139114000Y-102120000D02*
X139864000Y-102120000D01*
X139864000Y-102120000D02*
X139864000Y-100320000D01*
X139864000Y-111120000D02*
X139114000Y-111120000D01*
X139114000Y-111120000D02*
X139114000Y-112920000D01*
X139114000Y-112920000D02*
X139864000Y-112920000D01*
X139864000Y-112920000D02*
X139864000Y-111120000D01*
X137614000Y-100320000D02*
X137614000Y-101070000D01*
X137614000Y-101070000D02*
X134664000Y-101070000D01*
X134664000Y-101070000D02*
X134664000Y-106620000D01*
X137614000Y-112920000D02*
X137614000Y-112170000D01*
X137614000Y-112170000D02*
X134664000Y-112170000D01*
X134664000Y-112170000D02*
X134664000Y-106620000D01*
X140164000Y-101270000D02*
X140164000Y-100020000D01*
X140164000Y-100020000D02*
X138914000Y-100020000D01*
%TO.C,J6*%
X184460000Y-95440000D02*
X178490000Y-95440000D01*
X178490000Y-95440000D02*
X178490000Y-105560000D01*
X178490000Y-105560000D02*
X184460000Y-105560000D01*
X184460000Y-105560000D02*
X184460000Y-95440000D01*
X184450000Y-98750000D02*
X183700000Y-98750000D01*
X183700000Y-98750000D02*
X183700000Y-102250000D01*
X183700000Y-102250000D02*
X184450000Y-102250000D01*
X184450000Y-102250000D02*
X184450000Y-98750000D01*
X184450000Y-95450000D02*
X183700000Y-95450000D01*
X183700000Y-95450000D02*
X183700000Y-97250000D01*
X183700000Y-97250000D02*
X184450000Y-97250000D01*
X184450000Y-97250000D02*
X184450000Y-95450000D01*
X184450000Y-103750000D02*
X183700000Y-103750000D01*
X183700000Y-103750000D02*
X183700000Y-105550000D01*
X183700000Y-105550000D02*
X184450000Y-105550000D01*
X184450000Y-105550000D02*
X184450000Y-103750000D01*
X182200000Y-95450000D02*
X182200000Y-96200000D01*
X182200000Y-96200000D02*
X179250000Y-96200000D01*
X179250000Y-96200000D02*
X179250000Y-100500000D01*
X182200000Y-105550000D02*
X182200000Y-104800000D01*
X182200000Y-104800000D02*
X179250000Y-104800000D01*
X179250000Y-104800000D02*
X179250000Y-100500000D01*
X184750000Y-96400000D02*
X184750000Y-95150000D01*
X184750000Y-95150000D02*
X183500000Y-95150000D01*
%TO.C,J5*%
X192460000Y-95440000D02*
X186490000Y-95440000D01*
X186490000Y-95440000D02*
X186490000Y-105560000D01*
X186490000Y-105560000D02*
X192460000Y-105560000D01*
X192460000Y-105560000D02*
X192460000Y-95440000D01*
X192450000Y-98750000D02*
X191700000Y-98750000D01*
X191700000Y-98750000D02*
X191700000Y-102250000D01*
X191700000Y-102250000D02*
X192450000Y-102250000D01*
X192450000Y-102250000D02*
X192450000Y-98750000D01*
X192450000Y-95450000D02*
X191700000Y-95450000D01*
X191700000Y-95450000D02*
X191700000Y-97250000D01*
X191700000Y-97250000D02*
X192450000Y-97250000D01*
X192450000Y-97250000D02*
X192450000Y-95450000D01*
X192450000Y-103750000D02*
X191700000Y-103750000D01*
X191700000Y-103750000D02*
X191700000Y-105550000D01*
X191700000Y-105550000D02*
X192450000Y-105550000D01*
X192450000Y-105550000D02*
X192450000Y-103750000D01*
X190200000Y-95450000D02*
X190200000Y-96200000D01*
X190200000Y-96200000D02*
X187250000Y-96200000D01*
X187250000Y-96200000D02*
X187250000Y-100500000D01*
X190200000Y-105550000D02*
X190200000Y-104800000D01*
X190200000Y-104800000D02*
X187250000Y-104800000D01*
X187250000Y-104800000D02*
X187250000Y-100500000D01*
X192750000Y-96400000D02*
X192750000Y-95150000D01*
X192750000Y-95150000D02*
X191500000Y-95150000D01*
%TO.C,J3*%
X184460000Y-107440000D02*
X178490000Y-107440000D01*
X178490000Y-107440000D02*
X178490000Y-117560000D01*
X178490000Y-117560000D02*
X184460000Y-117560000D01*
X184460000Y-117560000D02*
X184460000Y-107440000D01*
X184450000Y-110750000D02*
X183700000Y-110750000D01*
X183700000Y-110750000D02*
X183700000Y-114250000D01*
X183700000Y-114250000D02*
X184450000Y-114250000D01*
X184450000Y-114250000D02*
X184450000Y-110750000D01*
X184450000Y-107450000D02*
X183700000Y-107450000D01*
X183700000Y-107450000D02*
X183700000Y-109250000D01*
X183700000Y-109250000D02*
X184450000Y-109250000D01*
X184450000Y-109250000D02*
X184450000Y-107450000D01*
X184450000Y-115750000D02*
X183700000Y-115750000D01*
X183700000Y-115750000D02*
X183700000Y-117550000D01*
X183700000Y-117550000D02*
X184450000Y-117550000D01*
X184450000Y-117550000D02*
X184450000Y-115750000D01*
X182200000Y-107450000D02*
X182200000Y-108200000D01*
X182200000Y-108200000D02*
X179250000Y-108200000D01*
X179250000Y-108200000D02*
X179250000Y-112500000D01*
X182200000Y-117550000D02*
X182200000Y-116800000D01*
X182200000Y-116800000D02*
X179250000Y-116800000D01*
X179250000Y-116800000D02*
X179250000Y-112500000D01*
X184750000Y-108400000D02*
X184750000Y-107150000D01*
X184750000Y-107150000D02*
X183500000Y-107150000D01*
%TO.C,J2*%
X192460000Y-107440000D02*
X186490000Y-107440000D01*
X186490000Y-107440000D02*
X186490000Y-117560000D01*
X186490000Y-117560000D02*
X192460000Y-117560000D01*
X192460000Y-117560000D02*
X192460000Y-107440000D01*
X192450000Y-110750000D02*
X191700000Y-110750000D01*
X191700000Y-110750000D02*
X191700000Y-114250000D01*
X191700000Y-114250000D02*
X192450000Y-114250000D01*
X192450000Y-114250000D02*
X192450000Y-110750000D01*
X192450000Y-107450000D02*
X191700000Y-107450000D01*
X191700000Y-107450000D02*
X191700000Y-109250000D01*
X191700000Y-109250000D02*
X192450000Y-109250000D01*
X192450000Y-109250000D02*
X192450000Y-107450000D01*
X192450000Y-115750000D02*
X191700000Y-115750000D01*
X191700000Y-115750000D02*
X191700000Y-117550000D01*
X191700000Y-117550000D02*
X192450000Y-117550000D01*
X192450000Y-117550000D02*
X192450000Y-115750000D01*
X190200000Y-107450000D02*
X190200000Y-108200000D01*
X190200000Y-108200000D02*
X187250000Y-108200000D01*
X187250000Y-108200000D02*
X187250000Y-112500000D01*
X190200000Y-117550000D02*
X190200000Y-116800000D01*
X190200000Y-116800000D02*
X187250000Y-116800000D01*
X187250000Y-116800000D02*
X187250000Y-112500000D01*
X192750000Y-108400000D02*
X192750000Y-107150000D01*
X192750000Y-107150000D02*
X191500000Y-107150000D01*
%TO.C,J1*%
X129460000Y-95230000D02*
X123490000Y-95230000D01*
X123490000Y-95230000D02*
X123490000Y-107850000D01*
X123490000Y-107850000D02*
X129460000Y-107850000D01*
X129460000Y-107850000D02*
X129460000Y-95230000D01*
X129450000Y-98540000D02*
X128700000Y-98540000D01*
X128700000Y-98540000D02*
X128700000Y-104540000D01*
X128700000Y-104540000D02*
X129450000Y-104540000D01*
X129450000Y-104540000D02*
X129450000Y-98540000D01*
X129450000Y-95240000D02*
X128700000Y-95240000D01*
X128700000Y-95240000D02*
X128700000Y-97040000D01*
X128700000Y-97040000D02*
X129450000Y-97040000D01*
X129450000Y-97040000D02*
X129450000Y-95240000D01*
X129450000Y-106040000D02*
X128700000Y-106040000D01*
X128700000Y-106040000D02*
X128700000Y-107840000D01*
X128700000Y-107840000D02*
X129450000Y-107840000D01*
X129450000Y-107840000D02*
X129450000Y-106040000D01*
X127200000Y-95240000D02*
X127200000Y-95990000D01*
X127200000Y-95990000D02*
X124250000Y-95990000D01*
X124250000Y-95990000D02*
X124250000Y-101540000D01*
X127200000Y-107840000D02*
X127200000Y-107090000D01*
X127200000Y-107090000D02*
X124250000Y-107090000D01*
X124250000Y-107090000D02*
X124250000Y-101540000D01*
X129750000Y-96190000D02*
X129750000Y-94940000D01*
X129750000Y-94940000D02*
X128500000Y-94940000D01*
%TO.C,D1*%
X119447000Y-56285000D02*
X119447000Y-53825000D01*
X119447000Y-53825000D02*
X117977000Y-53825000D01*
X117977000Y-53825000D02*
X117977000Y-56285000D01*
%TO.C,C2*%
X129372748Y-57202000D02*
X129895252Y-57202000D01*
X129372748Y-58622000D02*
X129895252Y-58622000D01*
%TO.C,C1*%
X124301748Y-57202000D02*
X124824252Y-57202000D01*
X124301748Y-58622000D02*
X124824252Y-58622000D01*
%TD*%
%TO.C,R1*%
D10*
X118815380Y-65562666D02*
X118339190Y-65896000D01*
X118815380Y-66134095D02*
X117815380Y-66134095D01*
X117815380Y-65753142D01*
X117863000Y-65657904D01*
X117910619Y-65610285D01*
X118005857Y-65562666D01*
X118148714Y-65562666D01*
X118243952Y-65610285D01*
X118291571Y-65657904D01*
X118339190Y-65753142D01*
X118339190Y-66134095D01*
X118815380Y-64610285D02*
X118815380Y-65181714D01*
X118815380Y-64896000D02*
X117815380Y-64896000D01*
X117958238Y-64991238D01*
X118053476Y-65086476D01*
X118101095Y-65181714D01*
%TO.C,J10*%
X193442857Y-86547619D02*
X193442857Y-86214285D01*
X193861904Y-86071428D02*
X193861904Y-86547619D01*
X193061904Y-86547619D01*
X193061904Y-86071428D01*
X193328571Y-85642857D02*
X193861904Y-85642857D01*
X193404761Y-85642857D02*
X193366666Y-85595238D01*
X193328571Y-85500000D01*
X193328571Y-85357142D01*
X193366666Y-85261904D01*
X193442857Y-85214285D01*
X193861904Y-85214285D01*
X193823809Y-84309523D02*
X193861904Y-84404761D01*
X193861904Y-84595238D01*
X193823809Y-84690476D01*
X193785714Y-84738095D01*
X193709523Y-84785714D01*
X193480952Y-84785714D01*
X193404761Y-84738095D01*
X193366666Y-84690476D01*
X193328571Y-84595238D01*
X193328571Y-84404761D01*
X193366666Y-84309523D01*
X193861904Y-83738095D02*
X193823809Y-83833333D01*
X193785714Y-83880952D01*
X193709523Y-83928571D01*
X193480952Y-83928571D01*
X193404761Y-83880952D01*
X193366666Y-83833333D01*
X193328571Y-83738095D01*
X193328571Y-83595238D01*
X193366666Y-83500000D01*
X193404761Y-83452380D01*
X193480952Y-83404761D01*
X193709523Y-83404761D01*
X193785714Y-83452380D01*
X193823809Y-83500000D01*
X193861904Y-83595238D01*
X193861904Y-83738095D01*
X193861904Y-82547619D02*
X193061904Y-82547619D01*
X193823809Y-82547619D02*
X193861904Y-82642857D01*
X193861904Y-82833333D01*
X193823809Y-82928571D01*
X193785714Y-82976190D01*
X193709523Y-83023809D01*
X193480952Y-83023809D01*
X193404761Y-82976190D01*
X193366666Y-82928571D01*
X193328571Y-82833333D01*
X193328571Y-82642857D01*
X193366666Y-82547619D01*
X193823809Y-81690476D02*
X193861904Y-81785714D01*
X193861904Y-81976190D01*
X193823809Y-82071428D01*
X193747619Y-82119047D01*
X193442857Y-82119047D01*
X193366666Y-82071428D01*
X193328571Y-81976190D01*
X193328571Y-81785714D01*
X193366666Y-81690476D01*
X193442857Y-81642857D01*
X193519047Y-81642857D01*
X193595238Y-82119047D01*
X193328571Y-80785714D02*
X193861904Y-80785714D01*
X193328571Y-81214285D02*
X193747619Y-81214285D01*
X193823809Y-81166666D01*
X193861904Y-81071428D01*
X193861904Y-80928571D01*
X193823809Y-80833333D01*
X193785714Y-80785714D01*
X193861904Y-80309523D02*
X193328571Y-80309523D01*
X193480952Y-80309523D02*
X193404761Y-80261904D01*
X193366666Y-80214285D01*
X193328571Y-80119047D01*
X193328571Y-80023809D01*
X193861904Y-78404761D02*
X193861904Y-78976190D01*
X193861904Y-78690476D02*
X193061904Y-78690476D01*
X193176190Y-78785714D01*
X193252380Y-78880952D01*
X193290476Y-78976190D01*
%TO.C,J4*%
X169861904Y-114571428D02*
X169061904Y-114571428D01*
X169861904Y-113523809D02*
X169480952Y-113857142D01*
X169861904Y-114095238D02*
X169061904Y-114095238D01*
X169061904Y-113714285D01*
X169100000Y-113619047D01*
X169138095Y-113571428D01*
X169214285Y-113523809D01*
X169328571Y-113523809D01*
X169404761Y-113571428D01*
X169442857Y-113619047D01*
X169480952Y-113714285D01*
X169480952Y-114095238D01*
X169861904Y-111809523D02*
X169861904Y-112380952D01*
X169861904Y-112095238D02*
X169061904Y-112095238D01*
X169176190Y-112190476D01*
X169252380Y-112285714D01*
X169290476Y-112380952D01*
X169785714Y-111380952D02*
X169823809Y-111333333D01*
X169861904Y-111380952D01*
X169823809Y-111428571D01*
X169785714Y-111380952D01*
X169861904Y-111380952D01*
X169061904Y-111000000D02*
X169061904Y-110380952D01*
X169366666Y-110714285D01*
X169366666Y-110571428D01*
X169404761Y-110476190D01*
X169442857Y-110428571D01*
X169519047Y-110380952D01*
X169709523Y-110380952D01*
X169785714Y-110428571D01*
X169823809Y-110476190D01*
X169861904Y-110571428D01*
X169861904Y-110857142D01*
X169823809Y-110952380D01*
X169785714Y-111000000D01*
%TO.C,J15*%
X113561904Y-111619047D02*
X114209523Y-111619047D01*
X114285714Y-111571428D01*
X114323809Y-111523809D01*
X114361904Y-111428571D01*
X114361904Y-111238095D01*
X114323809Y-111142857D01*
X114285714Y-111095238D01*
X114209523Y-111047619D01*
X113561904Y-111047619D01*
X114133333Y-110619047D02*
X114133333Y-110142857D01*
X114361904Y-110714285D02*
X113561904Y-110380952D01*
X114361904Y-110047619D01*
X114361904Y-109142857D02*
X113980952Y-109476190D01*
X114361904Y-109714285D02*
X113561904Y-109714285D01*
X113561904Y-109333333D01*
X113600000Y-109238095D01*
X113638095Y-109190476D01*
X113714285Y-109142857D01*
X113828571Y-109142857D01*
X113904761Y-109190476D01*
X113942857Y-109238095D01*
X113980952Y-109333333D01*
X113980952Y-109714285D01*
X113561904Y-108857142D02*
X113561904Y-108285714D01*
X114361904Y-108571428D02*
X113561904Y-108571428D01*
X114438095Y-108190476D02*
X114438095Y-107428571D01*
X114361904Y-107190476D02*
X113561904Y-107190476D01*
X113866666Y-107190476D02*
X113828571Y-107095238D01*
X113828571Y-106904761D01*
X113866666Y-106809523D01*
X113904761Y-106761904D01*
X113980952Y-106714285D01*
X114209523Y-106714285D01*
X114285714Y-106761904D01*
X114323809Y-106809523D01*
X114361904Y-106904761D01*
X114361904Y-107095238D01*
X114323809Y-107190476D01*
X114361904Y-105857142D02*
X113942857Y-105857142D01*
X113866666Y-105904761D01*
X113828571Y-106000000D01*
X113828571Y-106190476D01*
X113866666Y-106285714D01*
X114323809Y-105857142D02*
X114361904Y-105952380D01*
X114361904Y-106190476D01*
X114323809Y-106285714D01*
X114247619Y-106333333D01*
X114171428Y-106333333D01*
X114095238Y-106285714D01*
X114057142Y-106190476D01*
X114057142Y-105952380D01*
X114019047Y-105857142D01*
X114323809Y-104952380D02*
X114361904Y-105047619D01*
X114361904Y-105238095D01*
X114323809Y-105333333D01*
X114285714Y-105380952D01*
X114209523Y-105428571D01*
X113980952Y-105428571D01*
X113904761Y-105380952D01*
X113866666Y-105333333D01*
X113828571Y-105238095D01*
X113828571Y-105047619D01*
X113866666Y-104952380D01*
X114361904Y-104523809D02*
X113561904Y-104523809D01*
X114057142Y-104428571D02*
X114361904Y-104142857D01*
X113828571Y-104142857D02*
X114133333Y-104523809D01*
X113828571Y-103285714D02*
X114361904Y-103285714D01*
X113828571Y-103714285D02*
X114247619Y-103714285D01*
X114323809Y-103666666D01*
X114361904Y-103571428D01*
X114361904Y-103428571D01*
X114323809Y-103333333D01*
X114285714Y-103285714D01*
X113828571Y-102809523D02*
X114628571Y-102809523D01*
X113866666Y-102809523D02*
X113828571Y-102714285D01*
X113828571Y-102523809D01*
X113866666Y-102428571D01*
X113904761Y-102380952D01*
X113980952Y-102333333D01*
X114209523Y-102333333D01*
X114285714Y-102380952D01*
X114323809Y-102428571D01*
X114361904Y-102523809D01*
X114361904Y-102714285D01*
X114323809Y-102809523D01*
%TO.C,J16*%
X132753380Y-65904857D02*
X133753380Y-65238190D01*
X132753380Y-65238190D02*
X133753380Y-65904857D01*
X133753380Y-64857238D02*
X132753380Y-64857238D01*
X133134333Y-64857238D02*
X133086714Y-64762000D01*
X133086714Y-64571523D01*
X133134333Y-64476285D01*
X133181952Y-64428666D01*
X133277190Y-64381047D01*
X133562904Y-64381047D01*
X133658142Y-64428666D01*
X133705761Y-64476285D01*
X133753380Y-64571523D01*
X133753380Y-64762000D01*
X133705761Y-64857238D01*
X133705761Y-63571523D02*
X133753380Y-63666761D01*
X133753380Y-63857238D01*
X133705761Y-63952476D01*
X133610523Y-64000095D01*
X133229571Y-64000095D01*
X133134333Y-63952476D01*
X133086714Y-63857238D01*
X133086714Y-63666761D01*
X133134333Y-63571523D01*
X133229571Y-63523904D01*
X133324809Y-63523904D01*
X133420047Y-64000095D01*
X133705761Y-62714380D02*
X133753380Y-62809619D01*
X133753380Y-63000095D01*
X133705761Y-63095333D01*
X133610523Y-63142952D01*
X133229571Y-63142952D01*
X133134333Y-63095333D01*
X133086714Y-63000095D01*
X133086714Y-62809619D01*
X133134333Y-62714380D01*
X133229571Y-62666761D01*
X133324809Y-62666761D01*
X133420047Y-63142952D01*
%TO.C,J9*%
X120861904Y-81119047D02*
X120061904Y-81119047D01*
X120633333Y-80785714D01*
X120061904Y-80452380D01*
X120861904Y-80452380D01*
X120861904Y-79833333D02*
X120823809Y-79928571D01*
X120785714Y-79976190D01*
X120709523Y-80023809D01*
X120480952Y-80023809D01*
X120404761Y-79976190D01*
X120366666Y-79928571D01*
X120328571Y-79833333D01*
X120328571Y-79690476D01*
X120366666Y-79595238D01*
X120404761Y-79547619D01*
X120480952Y-79500000D01*
X120709523Y-79500000D01*
X120785714Y-79547619D01*
X120823809Y-79595238D01*
X120861904Y-79690476D01*
X120861904Y-79833333D01*
X120328571Y-79214285D02*
X120328571Y-78833333D01*
X120061904Y-79071428D02*
X120747619Y-79071428D01*
X120823809Y-79023809D01*
X120861904Y-78928571D01*
X120861904Y-78833333D01*
X120823809Y-78119047D02*
X120861904Y-78214285D01*
X120861904Y-78404761D01*
X120823809Y-78500000D01*
X120747619Y-78547619D01*
X120442857Y-78547619D01*
X120366666Y-78500000D01*
X120328571Y-78404761D01*
X120328571Y-78214285D01*
X120366666Y-78119047D01*
X120442857Y-78071428D01*
X120519047Y-78071428D01*
X120595238Y-78547619D01*
X120328571Y-77214285D02*
X120861904Y-77214285D01*
X120328571Y-77642857D02*
X120747619Y-77642857D01*
X120823809Y-77595238D01*
X120861904Y-77500000D01*
X120861904Y-77357142D01*
X120823809Y-77261904D01*
X120785714Y-77214285D01*
X120861904Y-76738095D02*
X120328571Y-76738095D01*
X120480952Y-76738095D02*
X120404761Y-76690476D01*
X120366666Y-76642857D01*
X120328571Y-76547619D01*
X120328571Y-76452380D01*
X120138095Y-75404761D02*
X120100000Y-75357142D01*
X120061904Y-75261904D01*
X120061904Y-75023809D01*
X120100000Y-74928571D01*
X120138095Y-74880952D01*
X120214285Y-74833333D01*
X120290476Y-74833333D01*
X120404761Y-74880952D01*
X120861904Y-75452380D01*
X120861904Y-74833333D01*
%TO.C,J8*%
X129619904Y-78009047D02*
X128819904Y-78009047D01*
X129391333Y-77675714D01*
X128819904Y-77342380D01*
X129619904Y-77342380D01*
X129619904Y-76723333D02*
X129581809Y-76818571D01*
X129543714Y-76866190D01*
X129467523Y-76913809D01*
X129238952Y-76913809D01*
X129162761Y-76866190D01*
X129124666Y-76818571D01*
X129086571Y-76723333D01*
X129086571Y-76580476D01*
X129124666Y-76485238D01*
X129162761Y-76437619D01*
X129238952Y-76390000D01*
X129467523Y-76390000D01*
X129543714Y-76437619D01*
X129581809Y-76485238D01*
X129619904Y-76580476D01*
X129619904Y-76723333D01*
X129086571Y-76104285D02*
X129086571Y-75723333D01*
X128819904Y-75961428D02*
X129505619Y-75961428D01*
X129581809Y-75913809D01*
X129619904Y-75818571D01*
X129619904Y-75723333D01*
X129581809Y-75009047D02*
X129619904Y-75104285D01*
X129619904Y-75294761D01*
X129581809Y-75390000D01*
X129505619Y-75437619D01*
X129200857Y-75437619D01*
X129124666Y-75390000D01*
X129086571Y-75294761D01*
X129086571Y-75104285D01*
X129124666Y-75009047D01*
X129200857Y-74961428D01*
X129277047Y-74961428D01*
X129353238Y-75437619D01*
X129086571Y-74104285D02*
X129619904Y-74104285D01*
X129086571Y-74532857D02*
X129505619Y-74532857D01*
X129581809Y-74485238D01*
X129619904Y-74390000D01*
X129619904Y-74247142D01*
X129581809Y-74151904D01*
X129543714Y-74104285D01*
X129619904Y-73628095D02*
X129086571Y-73628095D01*
X129238952Y-73628095D02*
X129162761Y-73580476D01*
X129124666Y-73532857D01*
X129086571Y-73437619D01*
X129086571Y-73342380D01*
X129619904Y-71723333D02*
X129619904Y-72294761D01*
X129619904Y-72009047D02*
X128819904Y-72009047D01*
X128934190Y-72104285D01*
X129010380Y-72199523D01*
X129048476Y-72294761D01*
%TO.C,J12*%
X107965285Y-49522142D02*
X107917666Y-49569761D01*
X107774809Y-49617380D01*
X107679571Y-49617380D01*
X107536714Y-49569761D01*
X107441476Y-49474523D01*
X107393857Y-49379285D01*
X107346238Y-49188809D01*
X107346238Y-49045952D01*
X107393857Y-48855476D01*
X107441476Y-48760238D01*
X107536714Y-48665000D01*
X107679571Y-48617380D01*
X107774809Y-48617380D01*
X107917666Y-48665000D01*
X107965285Y-48712619D01*
X108536714Y-49617380D02*
X108441476Y-49569761D01*
X108393857Y-49522142D01*
X108346238Y-49426904D01*
X108346238Y-49141190D01*
X108393857Y-49045952D01*
X108441476Y-48998333D01*
X108536714Y-48950714D01*
X108679571Y-48950714D01*
X108774809Y-48998333D01*
X108822428Y-49045952D01*
X108870047Y-49141190D01*
X108870047Y-49426904D01*
X108822428Y-49522142D01*
X108774809Y-49569761D01*
X108679571Y-49617380D01*
X108536714Y-49617380D01*
X109298619Y-48950714D02*
X109298619Y-49617380D01*
X109298619Y-49045952D02*
X109346238Y-48998333D01*
X109441476Y-48950714D01*
X109584333Y-48950714D01*
X109679571Y-48998333D01*
X109727190Y-49093571D01*
X109727190Y-49617380D01*
X110203380Y-48950714D02*
X110203380Y-49617380D01*
X110203380Y-49045952D02*
X110251000Y-48998333D01*
X110346238Y-48950714D01*
X110489095Y-48950714D01*
X110584333Y-48998333D01*
X110631952Y-49093571D01*
X110631952Y-49617380D01*
X110870047Y-49712619D02*
X111631952Y-49712619D01*
X111870047Y-49617380D02*
X111870047Y-48617380D01*
X111870047Y-48998333D02*
X111965285Y-48950714D01*
X112155761Y-48950714D01*
X112251000Y-48998333D01*
X112298619Y-49045952D01*
X112346238Y-49141190D01*
X112346238Y-49426904D01*
X112298619Y-49522142D01*
X112251000Y-49569761D01*
X112155761Y-49617380D01*
X111965285Y-49617380D01*
X111870047Y-49569761D01*
X113203380Y-49617380D02*
X113203380Y-49093571D01*
X113155761Y-48998333D01*
X113060523Y-48950714D01*
X112870047Y-48950714D01*
X112774809Y-48998333D01*
X113203380Y-49569761D02*
X113108142Y-49617380D01*
X112870047Y-49617380D01*
X112774809Y-49569761D01*
X112727190Y-49474523D01*
X112727190Y-49379285D01*
X112774809Y-49284047D01*
X112870047Y-49236428D01*
X113108142Y-49236428D01*
X113203380Y-49188809D01*
X113536714Y-48950714D02*
X113917666Y-48950714D01*
X113679571Y-48617380D02*
X113679571Y-49474523D01*
X113727190Y-49569761D01*
X113822428Y-49617380D01*
X113917666Y-49617380D01*
X114012904Y-49712619D02*
X114774809Y-49712619D01*
X115012904Y-48950714D02*
X115012904Y-49950714D01*
X115012904Y-48998333D02*
X115108142Y-48950714D01*
X115298619Y-48950714D01*
X115393857Y-48998333D01*
X115441476Y-49045952D01*
X115489095Y-49141190D01*
X115489095Y-49426904D01*
X115441476Y-49522142D01*
X115393857Y-49569761D01*
X115298619Y-49617380D01*
X115108142Y-49617380D01*
X115012904Y-49569761D01*
X115822428Y-48950714D02*
X116012904Y-49617380D01*
X116203380Y-49141190D01*
X116393857Y-49617380D01*
X116584333Y-48950714D01*
X116965285Y-49617380D02*
X116965285Y-48950714D01*
X116965285Y-49141190D02*
X117012904Y-49045952D01*
X117060523Y-48998333D01*
X117155761Y-48950714D01*
X117251000Y-48950714D01*
%TO.C,J7*%
X169761904Y-103071428D02*
X168961904Y-103071428D01*
X169761904Y-102023809D02*
X169380952Y-102357142D01*
X169761904Y-102595238D02*
X168961904Y-102595238D01*
X168961904Y-102214285D01*
X169000000Y-102119047D01*
X169038095Y-102071428D01*
X169114285Y-102023809D01*
X169228571Y-102023809D01*
X169304761Y-102071428D01*
X169342857Y-102119047D01*
X169380952Y-102214285D01*
X169380952Y-102595238D01*
X169038095Y-100880952D02*
X169000000Y-100833333D01*
X168961904Y-100738095D01*
X168961904Y-100500000D01*
X169000000Y-100404761D01*
X169038095Y-100357142D01*
X169114285Y-100309523D01*
X169190476Y-100309523D01*
X169304761Y-100357142D01*
X169761904Y-100928571D01*
X169761904Y-100309523D01*
X169685714Y-99880952D02*
X169723809Y-99833333D01*
X169761904Y-99880952D01*
X169723809Y-99928571D01*
X169685714Y-99880952D01*
X169761904Y-99880952D01*
X168961904Y-99500000D02*
X168961904Y-98880952D01*
X169266666Y-99214285D01*
X169266666Y-99071428D01*
X169304761Y-98976190D01*
X169342857Y-98928571D01*
X169419047Y-98880952D01*
X169609523Y-98880952D01*
X169685714Y-98928571D01*
X169723809Y-98976190D01*
X169761904Y-99071428D01*
X169761904Y-99357142D01*
X169723809Y-99452380D01*
X169685714Y-99500000D01*
%TO.C,J20*%
X203843380Y-72762761D02*
X203795761Y-72858000D01*
X203700523Y-72905619D01*
X202843380Y-72905619D01*
X203843380Y-72381809D02*
X203176714Y-72381809D01*
X202843380Y-72381809D02*
X202891000Y-72429428D01*
X202938619Y-72381809D01*
X202891000Y-72334190D01*
X202843380Y-72381809D01*
X202938619Y-72381809D01*
X203843380Y-71477047D02*
X202843380Y-71477047D01*
X203795761Y-71477047D02*
X203843380Y-71572285D01*
X203843380Y-71762761D01*
X203795761Y-71858000D01*
X203748142Y-71905619D01*
X203652904Y-71953238D01*
X203367190Y-71953238D01*
X203271952Y-71905619D01*
X203224333Y-71858000D01*
X203176714Y-71762761D01*
X203176714Y-71572285D01*
X203224333Y-71477047D01*
X203843380Y-70572285D02*
X203319571Y-70572285D01*
X203224333Y-70619904D01*
X203176714Y-70715142D01*
X203176714Y-70905619D01*
X203224333Y-71000857D01*
X203795761Y-70572285D02*
X203843380Y-70667523D01*
X203843380Y-70905619D01*
X203795761Y-71000857D01*
X203700523Y-71048476D01*
X203605285Y-71048476D01*
X203510047Y-71000857D01*
X203462428Y-70905619D01*
X203462428Y-70667523D01*
X203414809Y-70572285D01*
X203843380Y-70096095D02*
X203176714Y-70096095D01*
X203367190Y-70096095D02*
X203271952Y-70048476D01*
X203224333Y-70000857D01*
X203176714Y-69905619D01*
X203176714Y-69810380D01*
X203843380Y-68715142D02*
X203176714Y-68715142D01*
X202843380Y-68715142D02*
X202891000Y-68762761D01*
X202938619Y-68715142D01*
X202891000Y-68667523D01*
X202843380Y-68715142D01*
X202938619Y-68715142D01*
X203176714Y-68238952D02*
X203843380Y-68238952D01*
X203271952Y-68238952D02*
X203224333Y-68191333D01*
X203176714Y-68096095D01*
X203176714Y-67953238D01*
X203224333Y-67858000D01*
X203319571Y-67810380D01*
X203843380Y-67810380D01*
%TO.C,U6*%
X189421095Y-76015904D02*
X189421095Y-76663523D01*
X189468714Y-76739714D01*
X189516333Y-76777809D01*
X189611571Y-76815904D01*
X189802047Y-76815904D01*
X189897285Y-76777809D01*
X189944904Y-76739714D01*
X189992523Y-76663523D01*
X189992523Y-76015904D01*
X190897285Y-76015904D02*
X190706809Y-76015904D01*
X190611571Y-76054000D01*
X190563952Y-76092095D01*
X190468714Y-76206380D01*
X190421095Y-76358761D01*
X190421095Y-76663523D01*
X190468714Y-76739714D01*
X190516333Y-76777809D01*
X190611571Y-76815904D01*
X190802047Y-76815904D01*
X190897285Y-76777809D01*
X190944904Y-76739714D01*
X190992523Y-76663523D01*
X190992523Y-76473047D01*
X190944904Y-76396857D01*
X190897285Y-76358761D01*
X190802047Y-76320666D01*
X190611571Y-76320666D01*
X190516333Y-76358761D01*
X190468714Y-76396857D01*
X190421095Y-76473047D01*
%TO.C,U7*%
X195009095Y-78561904D02*
X195009095Y-79209523D01*
X195056714Y-79285714D01*
X195104333Y-79323809D01*
X195199571Y-79361904D01*
X195390047Y-79361904D01*
X195485285Y-79323809D01*
X195532904Y-79285714D01*
X195580523Y-79209523D01*
X195580523Y-78561904D01*
X195961476Y-78561904D02*
X196628142Y-78561904D01*
X196199571Y-79361904D01*
%TO.C,U3*%
X173292095Y-68395904D02*
X173292095Y-69043523D01*
X173339714Y-69119714D01*
X173387333Y-69157809D01*
X173482571Y-69195904D01*
X173673047Y-69195904D01*
X173768285Y-69157809D01*
X173815904Y-69119714D01*
X173863523Y-69043523D01*
X173863523Y-68395904D01*
X174244476Y-68395904D02*
X174863523Y-68395904D01*
X174530190Y-68700666D01*
X174673047Y-68700666D01*
X174768285Y-68738761D01*
X174815904Y-68776857D01*
X174863523Y-68853047D01*
X174863523Y-69043523D01*
X174815904Y-69119714D01*
X174768285Y-69157809D01*
X174673047Y-69195904D01*
X174387333Y-69195904D01*
X174292095Y-69157809D01*
X174244476Y-69119714D01*
%TO.C,U5*%
X183833095Y-73475904D02*
X183833095Y-74123523D01*
X183880714Y-74199714D01*
X183928333Y-74237809D01*
X184023571Y-74275904D01*
X184214047Y-74275904D01*
X184309285Y-74237809D01*
X184356904Y-74199714D01*
X184404523Y-74123523D01*
X184404523Y-73475904D01*
X185356904Y-73475904D02*
X184880714Y-73475904D01*
X184833095Y-73856857D01*
X184880714Y-73818761D01*
X184975952Y-73780666D01*
X185214047Y-73780666D01*
X185309285Y-73818761D01*
X185356904Y-73856857D01*
X185404523Y-73933047D01*
X185404523Y-74123523D01*
X185356904Y-74199714D01*
X185309285Y-74237809D01*
X185214047Y-74275904D01*
X184975952Y-74275904D01*
X184880714Y-74237809D01*
X184833095Y-74199714D01*
%TO.C,U4*%
X178880095Y-70935904D02*
X178880095Y-71583523D01*
X178927714Y-71659714D01*
X178975333Y-71697809D01*
X179070571Y-71735904D01*
X179261047Y-71735904D01*
X179356285Y-71697809D01*
X179403904Y-71659714D01*
X179451523Y-71583523D01*
X179451523Y-70935904D01*
X180356285Y-71202571D02*
X180356285Y-71735904D01*
X180118190Y-70897809D02*
X179880095Y-71469238D01*
X180499142Y-71469238D01*
%TO.C,U2*%
X155428571Y-69952380D02*
X156000000Y-69952380D01*
X155714285Y-70952380D02*
X155714285Y-69952380D01*
X156714285Y-70904761D02*
X156619047Y-70952380D01*
X156428571Y-70952380D01*
X156333333Y-70904761D01*
X156285714Y-70809523D01*
X156285714Y-70428571D01*
X156333333Y-70333333D01*
X156428571Y-70285714D01*
X156619047Y-70285714D01*
X156714285Y-70333333D01*
X156761904Y-70428571D01*
X156761904Y-70523809D01*
X156285714Y-70619047D01*
X157571428Y-70904761D02*
X157476190Y-70952380D01*
X157285714Y-70952380D01*
X157190476Y-70904761D01*
X157142857Y-70809523D01*
X157142857Y-70428571D01*
X157190476Y-70333333D01*
X157285714Y-70285714D01*
X157476190Y-70285714D01*
X157571428Y-70333333D01*
X157619047Y-70428571D01*
X157619047Y-70523809D01*
X157142857Y-70619047D01*
X158047619Y-70285714D02*
X158047619Y-70952380D01*
X158047619Y-70380952D02*
X158095238Y-70333333D01*
X158190476Y-70285714D01*
X158333333Y-70285714D01*
X158428571Y-70333333D01*
X158476190Y-70428571D01*
X158476190Y-70952380D01*
X158904761Y-70904761D02*
X159000000Y-70952380D01*
X159190476Y-70952380D01*
X159285714Y-70904761D01*
X159333333Y-70809523D01*
X159333333Y-70761904D01*
X159285714Y-70666666D01*
X159190476Y-70619047D01*
X159047619Y-70619047D01*
X158952380Y-70571428D01*
X158904761Y-70476190D01*
X158904761Y-70428571D01*
X158952380Y-70333333D01*
X159047619Y-70285714D01*
X159190476Y-70285714D01*
X159285714Y-70333333D01*
X159666666Y-70285714D02*
X159904761Y-70952380D01*
X160142857Y-70285714D02*
X159904761Y-70952380D01*
X159809523Y-71190476D01*
X159761904Y-71238095D01*
X159666666Y-71285714D01*
X160428571Y-69952380D02*
X161047619Y-69952380D01*
X160714285Y-70333333D01*
X160857142Y-70333333D01*
X160952380Y-70380952D01*
X161000000Y-70428571D01*
X161047619Y-70523809D01*
X161047619Y-70761904D01*
X161000000Y-70857142D01*
X160952380Y-70904761D01*
X160857142Y-70952380D01*
X160571428Y-70952380D01*
X160476190Y-70904761D01*
X160428571Y-70857142D01*
X161476190Y-70857142D02*
X161523809Y-70904761D01*
X161476190Y-70952380D01*
X161428571Y-70904761D01*
X161476190Y-70857142D01*
X161476190Y-70952380D01*
X162428571Y-69952380D02*
X161952380Y-69952380D01*
X161904761Y-70428571D01*
X161952380Y-70380952D01*
X162047619Y-70333333D01*
X162285714Y-70333333D01*
X162380952Y-70380952D01*
X162428571Y-70428571D01*
X162476190Y-70523809D01*
X162476190Y-70761904D01*
X162428571Y-70857142D01*
X162380952Y-70904761D01*
X162285714Y-70952380D01*
X162047619Y-70952380D01*
X161952380Y-70904761D01*
X161904761Y-70857142D01*
%TO.C,U1*%
X120861904Y-51714285D02*
X120480952Y-52047619D01*
X120861904Y-52285714D02*
X120061904Y-52285714D01*
X120061904Y-51904761D01*
X120100000Y-51809523D01*
X120138095Y-51761904D01*
X120214285Y-51714285D01*
X120328571Y-51714285D01*
X120404761Y-51761904D01*
X120442857Y-51809523D01*
X120480952Y-51904761D01*
X120480952Y-52285714D01*
X120557142Y-51285714D02*
X120557142Y-50523809D01*
X120061904Y-50142857D02*
X120061904Y-49476190D01*
X120861904Y-49904761D01*
X120404761Y-48952380D02*
X120366666Y-49047619D01*
X120328571Y-49095238D01*
X120252380Y-49142857D01*
X120214285Y-49142857D01*
X120138095Y-49095238D01*
X120100000Y-49047619D01*
X120061904Y-48952380D01*
X120061904Y-48761904D01*
X120100000Y-48666666D01*
X120138095Y-48619047D01*
X120214285Y-48571428D01*
X120252380Y-48571428D01*
X120328571Y-48619047D01*
X120366666Y-48666666D01*
X120404761Y-48761904D01*
X120404761Y-48952380D01*
X120442857Y-49047619D01*
X120480952Y-49095238D01*
X120557142Y-49142857D01*
X120709523Y-49142857D01*
X120785714Y-49095238D01*
X120823809Y-49047619D01*
X120861904Y-48952380D01*
X120861904Y-48761904D01*
X120823809Y-48666666D01*
X120785714Y-48619047D01*
X120709523Y-48571428D01*
X120557142Y-48571428D01*
X120480952Y-48619047D01*
X120442857Y-48666666D01*
X120404761Y-48761904D01*
X120442857Y-48142857D02*
X120442857Y-47809523D01*
X120861904Y-47666666D02*
X120861904Y-48142857D01*
X120061904Y-48142857D01*
X120061904Y-47666666D01*
X120061904Y-46761904D02*
X120061904Y-47238095D01*
X120442857Y-47285714D01*
X120404761Y-47238095D01*
X120366666Y-47142857D01*
X120366666Y-46904761D01*
X120404761Y-46809523D01*
X120442857Y-46761904D01*
X120519047Y-46714285D01*
X120709523Y-46714285D01*
X120785714Y-46761904D01*
X120823809Y-46809523D01*
X120861904Y-46904761D01*
X120861904Y-47142857D01*
X120823809Y-47238095D01*
X120785714Y-47285714D01*
X120785714Y-46285714D02*
X120823809Y-46238095D01*
X120861904Y-46285714D01*
X120823809Y-46333333D01*
X120785714Y-46285714D01*
X120861904Y-46285714D01*
X120061904Y-45619047D02*
X120061904Y-45523809D01*
X120100000Y-45428571D01*
X120138095Y-45380952D01*
X120214285Y-45333333D01*
X120366666Y-45285714D01*
X120557142Y-45285714D01*
X120709523Y-45333333D01*
X120785714Y-45380952D01*
X120823809Y-45428571D01*
X120861904Y-45523809D01*
X120861904Y-45619047D01*
X120823809Y-45714285D01*
X120785714Y-45761904D01*
X120709523Y-45809523D01*
X120557142Y-45857142D01*
X120366666Y-45857142D01*
X120214285Y-45809523D01*
X120138095Y-45761904D01*
X120100000Y-45714285D01*
X120061904Y-45619047D01*
X120557142Y-44857142D02*
X120557142Y-44095238D01*
X120861904Y-43095238D02*
X120861904Y-43666666D01*
X120861904Y-43380952D02*
X120061904Y-43380952D01*
X120176190Y-43476190D01*
X120252380Y-43571428D01*
X120290476Y-43666666D01*
X120785714Y-42666666D02*
X120823809Y-42619047D01*
X120861904Y-42666666D01*
X120823809Y-42714285D01*
X120785714Y-42666666D01*
X120861904Y-42666666D01*
X120061904Y-42000000D02*
X120061904Y-41904761D01*
X120100000Y-41809523D01*
X120138095Y-41761904D01*
X120214285Y-41714285D01*
X120366666Y-41666666D01*
X120557142Y-41666666D01*
X120709523Y-41714285D01*
X120785714Y-41761904D01*
X120823809Y-41809523D01*
X120861904Y-41904761D01*
X120861904Y-42000000D01*
X120823809Y-42095238D01*
X120785714Y-42142857D01*
X120709523Y-42190476D01*
X120557142Y-42238095D01*
X120366666Y-42238095D01*
X120214285Y-42190476D01*
X120138095Y-42142857D01*
X120100000Y-42095238D01*
X120061904Y-42000000D01*
%TO.C,R3*%
X117514380Y-60872666D02*
X117038190Y-61206000D01*
X117514380Y-61444095D02*
X116514380Y-61444095D01*
X116514380Y-61063142D01*
X116562000Y-60967904D01*
X116609619Y-60920285D01*
X116704857Y-60872666D01*
X116847714Y-60872666D01*
X116942952Y-60920285D01*
X116990571Y-60967904D01*
X117038190Y-61063142D01*
X117038190Y-61444095D01*
X116514380Y-60539333D02*
X116514380Y-59920285D01*
X116895333Y-60253619D01*
X116895333Y-60110761D01*
X116942952Y-60015523D01*
X116990571Y-59967904D01*
X117085809Y-59920285D01*
X117323904Y-59920285D01*
X117419142Y-59967904D01*
X117466761Y-60015523D01*
X117514380Y-60110761D01*
X117514380Y-60396476D01*
X117466761Y-60491714D01*
X117419142Y-60539333D01*
%TO.C,R2*%
X112848380Y-68746666D02*
X112372190Y-69080000D01*
X112848380Y-69318095D02*
X111848380Y-69318095D01*
X111848380Y-68937142D01*
X111896000Y-68841904D01*
X111943619Y-68794285D01*
X112038857Y-68746666D01*
X112181714Y-68746666D01*
X112276952Y-68794285D01*
X112324571Y-68841904D01*
X112372190Y-68937142D01*
X112372190Y-69318095D01*
X111943619Y-68365714D02*
X111896000Y-68318095D01*
X111848380Y-68222857D01*
X111848380Y-67984761D01*
X111896000Y-67889523D01*
X111943619Y-67841904D01*
X112038857Y-67794285D01*
X112134095Y-67794285D01*
X112276952Y-67841904D01*
X112848380Y-68413333D01*
X112848380Y-67794285D01*
%TO.C,J26*%
X177100000Y-90238095D02*
X177061904Y-90333333D01*
X177061904Y-90476190D01*
X177100000Y-90619047D01*
X177176190Y-90714285D01*
X177252380Y-90761904D01*
X177404761Y-90809523D01*
X177519047Y-90809523D01*
X177671428Y-90761904D01*
X177747619Y-90714285D01*
X177823809Y-90619047D01*
X177861904Y-90476190D01*
X177861904Y-90380952D01*
X177823809Y-90238095D01*
X177785714Y-90190476D01*
X177519047Y-90190476D01*
X177519047Y-90380952D01*
X177861904Y-89333333D02*
X177442857Y-89333333D01*
X177366666Y-89380952D01*
X177328571Y-89476190D01*
X177328571Y-89666666D01*
X177366666Y-89761904D01*
X177823809Y-89333333D02*
X177861904Y-89428571D01*
X177861904Y-89666666D01*
X177823809Y-89761904D01*
X177747619Y-89809523D01*
X177671428Y-89809523D01*
X177595238Y-89761904D01*
X177557142Y-89666666D01*
X177557142Y-89428571D01*
X177519047Y-89333333D01*
X177861904Y-88714285D02*
X177823809Y-88809523D01*
X177747619Y-88857142D01*
X177061904Y-88857142D01*
X177823809Y-87952380D02*
X177861904Y-88047619D01*
X177861904Y-88238095D01*
X177823809Y-88333333D01*
X177747619Y-88380952D01*
X177442857Y-88380952D01*
X177366666Y-88333333D01*
X177328571Y-88238095D01*
X177328571Y-88047619D01*
X177366666Y-87952380D01*
X177442857Y-87904761D01*
X177519047Y-87904761D01*
X177595238Y-88380952D01*
X177328571Y-87619047D02*
X177328571Y-87238095D01*
X177061904Y-87476190D02*
X177747619Y-87476190D01*
X177823809Y-87428571D01*
X177861904Y-87333333D01*
X177861904Y-87238095D01*
X177138095Y-86190476D02*
X177100000Y-86142857D01*
X177061904Y-86047619D01*
X177061904Y-85809523D01*
X177100000Y-85714285D01*
X177138095Y-85666666D01*
X177214285Y-85619047D01*
X177290476Y-85619047D01*
X177404761Y-85666666D01*
X177861904Y-86238095D01*
X177861904Y-85619047D01*
X177785714Y-85190476D02*
X177823809Y-85142857D01*
X177861904Y-85190476D01*
X177823809Y-85238095D01*
X177785714Y-85190476D01*
X177861904Y-85190476D01*
X177138095Y-84761904D02*
X177100000Y-84714285D01*
X177061904Y-84619047D01*
X177061904Y-84380952D01*
X177100000Y-84285714D01*
X177138095Y-84238095D01*
X177214285Y-84190476D01*
X177290476Y-84190476D01*
X177404761Y-84238095D01*
X177861904Y-84809523D01*
X177861904Y-84190476D01*
%TO.C,J25*%
X169100000Y-92738095D02*
X169061904Y-92833333D01*
X169061904Y-92976190D01*
X169100000Y-93119047D01*
X169176190Y-93214285D01*
X169252380Y-93261904D01*
X169404761Y-93309523D01*
X169519047Y-93309523D01*
X169671428Y-93261904D01*
X169747619Y-93214285D01*
X169823809Y-93119047D01*
X169861904Y-92976190D01*
X169861904Y-92880952D01*
X169823809Y-92738095D01*
X169785714Y-92690476D01*
X169519047Y-92690476D01*
X169519047Y-92880952D01*
X169861904Y-91833333D02*
X169442857Y-91833333D01*
X169366666Y-91880952D01*
X169328571Y-91976190D01*
X169328571Y-92166666D01*
X169366666Y-92261904D01*
X169823809Y-91833333D02*
X169861904Y-91928571D01*
X169861904Y-92166666D01*
X169823809Y-92261904D01*
X169747619Y-92309523D01*
X169671428Y-92309523D01*
X169595238Y-92261904D01*
X169557142Y-92166666D01*
X169557142Y-91928571D01*
X169519047Y-91833333D01*
X169861904Y-91214285D02*
X169823809Y-91309523D01*
X169747619Y-91357142D01*
X169061904Y-91357142D01*
X169823809Y-90452380D02*
X169861904Y-90547619D01*
X169861904Y-90738095D01*
X169823809Y-90833333D01*
X169747619Y-90880952D01*
X169442857Y-90880952D01*
X169366666Y-90833333D01*
X169328571Y-90738095D01*
X169328571Y-90547619D01*
X169366666Y-90452380D01*
X169442857Y-90404761D01*
X169519047Y-90404761D01*
X169595238Y-90880952D01*
X169328571Y-90119047D02*
X169328571Y-89738095D01*
X169061904Y-89976190D02*
X169747619Y-89976190D01*
X169823809Y-89928571D01*
X169861904Y-89833333D01*
X169861904Y-89738095D01*
X169138095Y-88690476D02*
X169100000Y-88642857D01*
X169061904Y-88547619D01*
X169061904Y-88309523D01*
X169100000Y-88214285D01*
X169138095Y-88166666D01*
X169214285Y-88119047D01*
X169290476Y-88119047D01*
X169404761Y-88166666D01*
X169861904Y-88738095D01*
X169861904Y-88119047D01*
X169785714Y-87690476D02*
X169823809Y-87642857D01*
X169861904Y-87690476D01*
X169823809Y-87738095D01*
X169785714Y-87690476D01*
X169861904Y-87690476D01*
X169861904Y-86690476D02*
X169861904Y-87261904D01*
X169861904Y-86976190D02*
X169061904Y-86976190D01*
X169176190Y-87071428D01*
X169252380Y-87166666D01*
X169290476Y-87261904D01*
%TO.C,J24*%
X129620000Y-93738095D02*
X129581904Y-93833333D01*
X129581904Y-93976190D01*
X129620000Y-94119047D01*
X129696190Y-94214285D01*
X129772380Y-94261904D01*
X129924761Y-94309523D01*
X130039047Y-94309523D01*
X130191428Y-94261904D01*
X130267619Y-94214285D01*
X130343809Y-94119047D01*
X130381904Y-93976190D01*
X130381904Y-93880952D01*
X130343809Y-93738095D01*
X130305714Y-93690476D01*
X130039047Y-93690476D01*
X130039047Y-93880952D01*
X130381904Y-92833333D02*
X129962857Y-92833333D01*
X129886666Y-92880952D01*
X129848571Y-92976190D01*
X129848571Y-93166666D01*
X129886666Y-93261904D01*
X130343809Y-92833333D02*
X130381904Y-92928571D01*
X130381904Y-93166666D01*
X130343809Y-93261904D01*
X130267619Y-93309523D01*
X130191428Y-93309523D01*
X130115238Y-93261904D01*
X130077142Y-93166666D01*
X130077142Y-92928571D01*
X130039047Y-92833333D01*
X130381904Y-92214285D02*
X130343809Y-92309523D01*
X130267619Y-92357142D01*
X129581904Y-92357142D01*
X130343809Y-91452380D02*
X130381904Y-91547619D01*
X130381904Y-91738095D01*
X130343809Y-91833333D01*
X130267619Y-91880952D01*
X129962857Y-91880952D01*
X129886666Y-91833333D01*
X129848571Y-91738095D01*
X129848571Y-91547619D01*
X129886666Y-91452380D01*
X129962857Y-91404761D01*
X130039047Y-91404761D01*
X130115238Y-91880952D01*
X129848571Y-91119047D02*
X129848571Y-90738095D01*
X129581904Y-90976190D02*
X130267619Y-90976190D01*
X130343809Y-90928571D01*
X130381904Y-90833333D01*
X130381904Y-90738095D01*
X130381904Y-89119047D02*
X130381904Y-89690476D01*
X130381904Y-89404761D02*
X129581904Y-89404761D01*
X129696190Y-89500000D01*
X129772380Y-89595238D01*
X129810476Y-89690476D01*
X130305714Y-88690476D02*
X130343809Y-88642857D01*
X130381904Y-88690476D01*
X130343809Y-88738095D01*
X130305714Y-88690476D01*
X130381904Y-88690476D01*
X129658095Y-88261904D02*
X129620000Y-88214285D01*
X129581904Y-88119047D01*
X129581904Y-87880952D01*
X129620000Y-87785714D01*
X129658095Y-87738095D01*
X129734285Y-87690476D01*
X129810476Y-87690476D01*
X129924761Y-87738095D01*
X130381904Y-88309523D01*
X130381904Y-87690476D01*
%TO.C,J23*%
X120000000Y-91872095D02*
X119961904Y-91967333D01*
X119961904Y-92110190D01*
X120000000Y-92253047D01*
X120076190Y-92348285D01*
X120152380Y-92395904D01*
X120304761Y-92443523D01*
X120419047Y-92443523D01*
X120571428Y-92395904D01*
X120647619Y-92348285D01*
X120723809Y-92253047D01*
X120761904Y-92110190D01*
X120761904Y-92014952D01*
X120723809Y-91872095D01*
X120685714Y-91824476D01*
X120419047Y-91824476D01*
X120419047Y-92014952D01*
X120761904Y-90967333D02*
X120342857Y-90967333D01*
X120266666Y-91014952D01*
X120228571Y-91110190D01*
X120228571Y-91300666D01*
X120266666Y-91395904D01*
X120723809Y-90967333D02*
X120761904Y-91062571D01*
X120761904Y-91300666D01*
X120723809Y-91395904D01*
X120647619Y-91443523D01*
X120571428Y-91443523D01*
X120495238Y-91395904D01*
X120457142Y-91300666D01*
X120457142Y-91062571D01*
X120419047Y-90967333D01*
X120761904Y-90348285D02*
X120723809Y-90443523D01*
X120647619Y-90491142D01*
X119961904Y-90491142D01*
X120723809Y-89586380D02*
X120761904Y-89681619D01*
X120761904Y-89872095D01*
X120723809Y-89967333D01*
X120647619Y-90014952D01*
X120342857Y-90014952D01*
X120266666Y-89967333D01*
X120228571Y-89872095D01*
X120228571Y-89681619D01*
X120266666Y-89586380D01*
X120342857Y-89538761D01*
X120419047Y-89538761D01*
X120495238Y-90014952D01*
X120228571Y-89253047D02*
X120228571Y-88872095D01*
X119961904Y-89110190D02*
X120647619Y-89110190D01*
X120723809Y-89062571D01*
X120761904Y-88967333D01*
X120761904Y-88872095D01*
X120761904Y-87253047D02*
X120761904Y-87824476D01*
X120761904Y-87538761D02*
X119961904Y-87538761D01*
X120076190Y-87634000D01*
X120152380Y-87729238D01*
X120190476Y-87824476D01*
X120685714Y-86824476D02*
X120723809Y-86776857D01*
X120761904Y-86824476D01*
X120723809Y-86872095D01*
X120685714Y-86824476D01*
X120761904Y-86824476D01*
X120761904Y-85824476D02*
X120761904Y-86395904D01*
X120761904Y-86110190D02*
X119961904Y-86110190D01*
X120076190Y-86205428D01*
X120152380Y-86300666D01*
X120190476Y-86395904D01*
%TO.C,J22*%
X139032142Y-45678904D02*
X138555952Y-45678904D01*
X138555952Y-44878904D01*
X139365476Y-45678904D02*
X139365476Y-45145571D01*
X139365476Y-44878904D02*
X139317857Y-44917000D01*
X139365476Y-44955095D01*
X139413095Y-44917000D01*
X139365476Y-44878904D01*
X139365476Y-44955095D01*
X140270238Y-45678904D02*
X140270238Y-44878904D01*
X140270238Y-45640809D02*
X140175000Y-45678904D01*
X139984523Y-45678904D01*
X139889285Y-45640809D01*
X139841666Y-45602714D01*
X139794047Y-45526523D01*
X139794047Y-45297952D01*
X139841666Y-45221761D01*
X139889285Y-45183666D01*
X139984523Y-45145571D01*
X140175000Y-45145571D01*
X140270238Y-45183666D01*
X141175000Y-45678904D02*
X141175000Y-45259857D01*
X141127380Y-45183666D01*
X141032142Y-45145571D01*
X140841666Y-45145571D01*
X140746428Y-45183666D01*
X141175000Y-45640809D02*
X141079761Y-45678904D01*
X140841666Y-45678904D01*
X140746428Y-45640809D01*
X140698809Y-45564619D01*
X140698809Y-45488428D01*
X140746428Y-45412238D01*
X140841666Y-45374142D01*
X141079761Y-45374142D01*
X141175000Y-45336047D01*
X141651190Y-45678904D02*
X141651190Y-45145571D01*
X141651190Y-45297952D02*
X141698809Y-45221761D01*
X141746428Y-45183666D01*
X141841666Y-45145571D01*
X141936904Y-45145571D01*
X143460714Y-45678904D02*
X143460714Y-45259857D01*
X143413095Y-45183666D01*
X143317857Y-45145571D01*
X143127380Y-45145571D01*
X143032142Y-45183666D01*
X143460714Y-45640809D02*
X143365476Y-45678904D01*
X143127380Y-45678904D01*
X143032142Y-45640809D01*
X142984523Y-45564619D01*
X142984523Y-45488428D01*
X143032142Y-45412238D01*
X143127380Y-45374142D01*
X143365476Y-45374142D01*
X143460714Y-45336047D01*
X144079761Y-45678904D02*
X143984523Y-45640809D01*
X143936904Y-45564619D01*
X143936904Y-44878904D01*
X144460714Y-45678904D02*
X144460714Y-45145571D01*
X144460714Y-44878904D02*
X144413095Y-44917000D01*
X144460714Y-44955095D01*
X144508333Y-44917000D01*
X144460714Y-44878904D01*
X144460714Y-44955095D01*
X144936904Y-45678904D02*
X144936904Y-45145571D01*
X144936904Y-45221761D02*
X144984523Y-45183666D01*
X145079761Y-45145571D01*
X145222619Y-45145571D01*
X145317857Y-45183666D01*
X145365476Y-45259857D01*
X145365476Y-45678904D01*
X145365476Y-45259857D02*
X145413095Y-45183666D01*
X145508333Y-45145571D01*
X145651190Y-45145571D01*
X145746428Y-45183666D01*
X145794047Y-45259857D01*
X145794047Y-45678904D01*
%TO.C,J21*%
X142361904Y-96904761D02*
X142323809Y-97000000D01*
X142247619Y-97047619D01*
X141561904Y-97047619D01*
X142361904Y-96523809D02*
X141828571Y-96523809D01*
X141561904Y-96523809D02*
X141600000Y-96571428D01*
X141638095Y-96523809D01*
X141600000Y-96476190D01*
X141561904Y-96523809D01*
X141638095Y-96523809D01*
X142361904Y-95619047D02*
X141561904Y-95619047D01*
X142323809Y-95619047D02*
X142361904Y-95714285D01*
X142361904Y-95904761D01*
X142323809Y-96000000D01*
X142285714Y-96047619D01*
X142209523Y-96095238D01*
X141980952Y-96095238D01*
X141904761Y-96047619D01*
X141866666Y-96000000D01*
X141828571Y-95904761D01*
X141828571Y-95714285D01*
X141866666Y-95619047D01*
X142361904Y-94714285D02*
X141942857Y-94714285D01*
X141866666Y-94761904D01*
X141828571Y-94857142D01*
X141828571Y-95047619D01*
X141866666Y-95142857D01*
X142323809Y-94714285D02*
X142361904Y-94809523D01*
X142361904Y-95047619D01*
X142323809Y-95142857D01*
X142247619Y-95190476D01*
X142171428Y-95190476D01*
X142095238Y-95142857D01*
X142057142Y-95047619D01*
X142057142Y-94809523D01*
X142019047Y-94714285D01*
X142361904Y-94238095D02*
X141828571Y-94238095D01*
X141980952Y-94238095D02*
X141904761Y-94190476D01*
X141866666Y-94142857D01*
X141828571Y-94047619D01*
X141828571Y-93952380D01*
X142438095Y-93857142D02*
X142438095Y-93095238D01*
X142361904Y-92714285D02*
X142323809Y-92809523D01*
X142285714Y-92857142D01*
X142209523Y-92904761D01*
X141980952Y-92904761D01*
X141904761Y-92857142D01*
X141866666Y-92809523D01*
X141828571Y-92714285D01*
X141828571Y-92571428D01*
X141866666Y-92476190D01*
X141904761Y-92428571D01*
X141980952Y-92380952D01*
X142209523Y-92380952D01*
X142285714Y-92428571D01*
X142323809Y-92476190D01*
X142361904Y-92571428D01*
X142361904Y-92714285D01*
X141828571Y-91523809D02*
X142361904Y-91523809D01*
X141828571Y-91952380D02*
X142247619Y-91952380D01*
X142323809Y-91904761D01*
X142361904Y-91809523D01*
X142361904Y-91666666D01*
X142323809Y-91571428D01*
X142285714Y-91523809D01*
X141828571Y-91190476D02*
X141828571Y-90809523D01*
X141561904Y-91047619D02*
X142247619Y-91047619D01*
X142323809Y-91000000D01*
X142361904Y-90904761D01*
X142361904Y-90809523D01*
%TO.C,J19*%
X108521000Y-94199904D02*
X108521000Y-93399904D01*
X108949571Y-93476095D02*
X108997190Y-93438000D01*
X109092428Y-93399904D01*
X109330523Y-93399904D01*
X109425761Y-93438000D01*
X109473380Y-93476095D01*
X109521000Y-93552285D01*
X109521000Y-93628476D01*
X109473380Y-93742761D01*
X108901952Y-94199904D01*
X109521000Y-94199904D01*
X110521000Y-94123714D02*
X110473380Y-94161809D01*
X110330523Y-94199904D01*
X110235285Y-94199904D01*
X110092428Y-94161809D01*
X109997190Y-94085619D01*
X109949571Y-94009428D01*
X109901952Y-93857047D01*
X109901952Y-93742761D01*
X109949571Y-93590380D01*
X109997190Y-93514190D01*
X110092428Y-93438000D01*
X110235285Y-93399904D01*
X110330523Y-93399904D01*
X110473380Y-93438000D01*
X110521000Y-93476095D01*
X110711476Y-94276095D02*
X111473380Y-94276095D01*
X111711476Y-94199904D02*
X111711476Y-93399904D01*
X111711476Y-93704666D02*
X111806714Y-93666571D01*
X111997190Y-93666571D01*
X112092428Y-93704666D01*
X112140047Y-93742761D01*
X112187666Y-93818952D01*
X112187666Y-94047523D01*
X112140047Y-94123714D01*
X112092428Y-94161809D01*
X111997190Y-94199904D01*
X111806714Y-94199904D01*
X111711476Y-94161809D01*
X113044809Y-94199904D02*
X113044809Y-93780857D01*
X112997190Y-93704666D01*
X112901952Y-93666571D01*
X112711476Y-93666571D01*
X112616238Y-93704666D01*
X113044809Y-94161809D02*
X112949571Y-94199904D01*
X112711476Y-94199904D01*
X112616238Y-94161809D01*
X112568619Y-94085619D01*
X112568619Y-94009428D01*
X112616238Y-93933238D01*
X112711476Y-93895142D01*
X112949571Y-93895142D01*
X113044809Y-93857047D01*
X113949571Y-94161809D02*
X113854333Y-94199904D01*
X113663857Y-94199904D01*
X113568619Y-94161809D01*
X113521000Y-94123714D01*
X113473380Y-94047523D01*
X113473380Y-93818952D01*
X113521000Y-93742761D01*
X113568619Y-93704666D01*
X113663857Y-93666571D01*
X113854333Y-93666571D01*
X113949571Y-93704666D01*
X114378142Y-94199904D02*
X114378142Y-93399904D01*
X114473380Y-93895142D02*
X114759095Y-94199904D01*
X114759095Y-93666571D02*
X114378142Y-93971333D01*
X115616238Y-93666571D02*
X115616238Y-94199904D01*
X115187666Y-93666571D02*
X115187666Y-94085619D01*
X115235285Y-94161809D01*
X115330523Y-94199904D01*
X115473380Y-94199904D01*
X115568619Y-94161809D01*
X115616238Y-94123714D01*
X116092428Y-93666571D02*
X116092428Y-94466571D01*
X116092428Y-93704666D02*
X116187666Y-93666571D01*
X116378142Y-93666571D01*
X116473380Y-93704666D01*
X116521000Y-93742761D01*
X116568619Y-93818952D01*
X116568619Y-94047523D01*
X116521000Y-94123714D01*
X116473380Y-94161809D01*
X116378142Y-94199904D01*
X116187666Y-94199904D01*
X116092428Y-94161809D01*
%TO.C,J18*%
X110640095Y-83963714D02*
X110592476Y-84001809D01*
X110449619Y-84039904D01*
X110354380Y-84039904D01*
X110211523Y-84001809D01*
X110116285Y-83925619D01*
X110068666Y-83849428D01*
X110021047Y-83697047D01*
X110021047Y-83582761D01*
X110068666Y-83430380D01*
X110116285Y-83354190D01*
X110211523Y-83278000D01*
X110354380Y-83239904D01*
X110449619Y-83239904D01*
X110592476Y-83278000D01*
X110640095Y-83316095D01*
X111497238Y-84039904D02*
X111497238Y-83620857D01*
X111449619Y-83544666D01*
X111354380Y-83506571D01*
X111163904Y-83506571D01*
X111068666Y-83544666D01*
X111497238Y-84001809D02*
X111402000Y-84039904D01*
X111163904Y-84039904D01*
X111068666Y-84001809D01*
X111021047Y-83925619D01*
X111021047Y-83849428D01*
X111068666Y-83773238D01*
X111163904Y-83735142D01*
X111402000Y-83735142D01*
X111497238Y-83697047D01*
X111973428Y-83506571D02*
X111973428Y-84306571D01*
X111973428Y-83544666D02*
X112068666Y-83506571D01*
X112259142Y-83506571D01*
X112354380Y-83544666D01*
X112402000Y-83582761D01*
X112449619Y-83658952D01*
X112449619Y-83887523D01*
X112402000Y-83963714D01*
X112354380Y-84001809D01*
X112259142Y-84039904D01*
X112068666Y-84039904D01*
X111973428Y-84001809D01*
X112735333Y-83506571D02*
X113116285Y-83506571D01*
X112878190Y-83239904D02*
X112878190Y-83925619D01*
X112925809Y-84001809D01*
X113021047Y-84039904D01*
X113116285Y-84039904D01*
X113211523Y-84116095D02*
X113973428Y-84116095D01*
X114211523Y-83239904D02*
X114211523Y-83887523D01*
X114259142Y-83963714D01*
X114306761Y-84001809D01*
X114402000Y-84039904D01*
X114592476Y-84039904D01*
X114687714Y-84001809D01*
X114735333Y-83963714D01*
X114782952Y-83887523D01*
X114782952Y-83239904D01*
X115211523Y-84001809D02*
X115354380Y-84039904D01*
X115592476Y-84039904D01*
X115687714Y-84001809D01*
X115735333Y-83963714D01*
X115782952Y-83887523D01*
X115782952Y-83811333D01*
X115735333Y-83735142D01*
X115687714Y-83697047D01*
X115592476Y-83658952D01*
X115402000Y-83620857D01*
X115306761Y-83582761D01*
X115259142Y-83544666D01*
X115211523Y-83468476D01*
X115211523Y-83392285D01*
X115259142Y-83316095D01*
X115306761Y-83278000D01*
X115402000Y-83239904D01*
X115640095Y-83239904D01*
X115782952Y-83278000D01*
%TO.C,J17*%
X109044761Y-73861904D02*
X109044761Y-73061904D01*
X109425714Y-73061904D01*
X109520952Y-73100000D01*
X109568571Y-73138095D01*
X109616190Y-73214285D01*
X109616190Y-73328571D01*
X109568571Y-73404761D01*
X109520952Y-73442857D01*
X109425714Y-73480952D01*
X109044761Y-73480952D01*
X110616190Y-73785714D02*
X110568571Y-73823809D01*
X110425714Y-73861904D01*
X110330476Y-73861904D01*
X110187619Y-73823809D01*
X110092380Y-73747619D01*
X110044761Y-73671428D01*
X109997142Y-73519047D01*
X109997142Y-73404761D01*
X110044761Y-73252380D01*
X110092380Y-73176190D01*
X110187619Y-73100000D01*
X110330476Y-73061904D01*
X110425714Y-73061904D01*
X110568571Y-73100000D01*
X110616190Y-73138095D01*
X110997142Y-73633333D02*
X111473333Y-73633333D01*
X110901904Y-73861904D02*
X111235238Y-73061904D01*
X111568571Y-73861904D01*
X111949523Y-73861904D02*
X112140000Y-73861904D01*
X112235238Y-73823809D01*
X112282857Y-73785714D01*
X112378095Y-73671428D01*
X112425714Y-73519047D01*
X112425714Y-73214285D01*
X112378095Y-73138095D01*
X112330476Y-73100000D01*
X112235238Y-73061904D01*
X112044761Y-73061904D01*
X111949523Y-73100000D01*
X111901904Y-73138095D01*
X111854285Y-73214285D01*
X111854285Y-73404761D01*
X111901904Y-73480952D01*
X111949523Y-73519047D01*
X112044761Y-73557142D01*
X112235238Y-73557142D01*
X112330476Y-73519047D01*
X112378095Y-73480952D01*
X112425714Y-73404761D01*
X113282857Y-73061904D02*
X113092380Y-73061904D01*
X112997142Y-73100000D01*
X112949523Y-73138095D01*
X112854285Y-73252380D01*
X112806666Y-73404761D01*
X112806666Y-73709523D01*
X112854285Y-73785714D01*
X112901904Y-73823809D01*
X112997142Y-73861904D01*
X113187619Y-73861904D01*
X113282857Y-73823809D01*
X113330476Y-73785714D01*
X113378095Y-73709523D01*
X113378095Y-73519047D01*
X113330476Y-73442857D01*
X113282857Y-73404761D01*
X113187619Y-73366666D01*
X112997142Y-73366666D01*
X112901904Y-73404761D01*
X112854285Y-73442857D01*
X112806666Y-73519047D01*
X113949523Y-73404761D02*
X113854285Y-73366666D01*
X113806666Y-73328571D01*
X113759047Y-73252380D01*
X113759047Y-73214285D01*
X113806666Y-73138095D01*
X113854285Y-73100000D01*
X113949523Y-73061904D01*
X114140000Y-73061904D01*
X114235238Y-73100000D01*
X114282857Y-73138095D01*
X114330476Y-73214285D01*
X114330476Y-73252380D01*
X114282857Y-73328571D01*
X114235238Y-73366666D01*
X114140000Y-73404761D01*
X113949523Y-73404761D01*
X113854285Y-73442857D01*
X113806666Y-73480952D01*
X113759047Y-73557142D01*
X113759047Y-73709523D01*
X113806666Y-73785714D01*
X113854285Y-73823809D01*
X113949523Y-73861904D01*
X114140000Y-73861904D01*
X114235238Y-73823809D01*
X114282857Y-73785714D01*
X114330476Y-73709523D01*
X114330476Y-73557142D01*
X114282857Y-73480952D01*
X114235238Y-73442857D01*
X114140000Y-73404761D01*
X115235238Y-73061904D02*
X114759047Y-73061904D01*
X114711428Y-73442857D01*
X114759047Y-73404761D01*
X114854285Y-73366666D01*
X115092380Y-73366666D01*
X115187619Y-73404761D01*
X115235238Y-73442857D01*
X115282857Y-73519047D01*
X115282857Y-73709523D01*
X115235238Y-73785714D01*
X115187619Y-73823809D01*
X115092380Y-73861904D01*
X114854285Y-73861904D01*
X114759047Y-73823809D01*
X114711428Y-73785714D01*
%TO.C,J14*%
X137785714Y-74047619D02*
X137823809Y-74095238D01*
X137861904Y-74238095D01*
X137861904Y-74333333D01*
X137823809Y-74476190D01*
X137747619Y-74571428D01*
X137671428Y-74619047D01*
X137519047Y-74666666D01*
X137404761Y-74666666D01*
X137252380Y-74619047D01*
X137176190Y-74571428D01*
X137100000Y-74476190D01*
X137061904Y-74333333D01*
X137061904Y-74238095D01*
X137100000Y-74095238D01*
X137138095Y-74047619D01*
X137861904Y-73476190D02*
X137823809Y-73571428D01*
X137785714Y-73619047D01*
X137709523Y-73666666D01*
X137480952Y-73666666D01*
X137404761Y-73619047D01*
X137366666Y-73571428D01*
X137328571Y-73476190D01*
X137328571Y-73333333D01*
X137366666Y-73238095D01*
X137404761Y-73190476D01*
X137480952Y-73142857D01*
X137709523Y-73142857D01*
X137785714Y-73190476D01*
X137823809Y-73238095D01*
X137861904Y-73333333D01*
X137861904Y-73476190D01*
X137328571Y-72285714D02*
X137861904Y-72285714D01*
X137328571Y-72714285D02*
X137747619Y-72714285D01*
X137823809Y-72666666D01*
X137861904Y-72571428D01*
X137861904Y-72428571D01*
X137823809Y-72333333D01*
X137785714Y-72285714D01*
X137861904Y-71666666D02*
X137823809Y-71761904D01*
X137747619Y-71809523D01*
X137061904Y-71809523D01*
X137823809Y-70904761D02*
X137861904Y-71000000D01*
X137861904Y-71190476D01*
X137823809Y-71285714D01*
X137747619Y-71333333D01*
X137442857Y-71333333D01*
X137366666Y-71285714D01*
X137328571Y-71190476D01*
X137328571Y-71000000D01*
X137366666Y-70904761D01*
X137442857Y-70857142D01*
X137519047Y-70857142D01*
X137595238Y-71333333D01*
X137328571Y-70000000D02*
X137861904Y-70000000D01*
X137328571Y-70428571D02*
X137747619Y-70428571D01*
X137823809Y-70380952D01*
X137861904Y-70285714D01*
X137861904Y-70142857D01*
X137823809Y-70047619D01*
X137785714Y-70000000D01*
X137861904Y-69523809D02*
X137328571Y-69523809D01*
X137480952Y-69523809D02*
X137404761Y-69476190D01*
X137366666Y-69428571D01*
X137328571Y-69333333D01*
X137328571Y-69238095D01*
%TO.C,J13*%
X137061904Y-86761904D02*
X137061904Y-86190476D01*
X137861904Y-86476190D02*
X137061904Y-86476190D01*
X137861904Y-85857142D02*
X137328571Y-85857142D01*
X137061904Y-85857142D02*
X137100000Y-85904761D01*
X137138095Y-85857142D01*
X137100000Y-85809523D01*
X137061904Y-85857142D01*
X137138095Y-85857142D01*
X137861904Y-85380952D02*
X137328571Y-85380952D01*
X137480952Y-85380952D02*
X137404761Y-85333333D01*
X137366666Y-85285714D01*
X137328571Y-85190476D01*
X137328571Y-85095238D01*
X137823809Y-84380952D02*
X137861904Y-84476190D01*
X137861904Y-84666666D01*
X137823809Y-84761904D01*
X137747619Y-84809523D01*
X137442857Y-84809523D01*
X137366666Y-84761904D01*
X137328571Y-84666666D01*
X137328571Y-84476190D01*
X137366666Y-84380952D01*
X137442857Y-84333333D01*
X137519047Y-84333333D01*
X137595238Y-84809523D01*
X137328571Y-84047619D02*
X137328571Y-83666666D01*
X137061904Y-83904761D02*
X137747619Y-83904761D01*
X137823809Y-83857142D01*
X137861904Y-83761904D01*
X137861904Y-83666666D01*
X137328571Y-83476190D02*
X137328571Y-83095238D01*
X137061904Y-83333333D02*
X137747619Y-83333333D01*
X137823809Y-83285714D01*
X137861904Y-83190476D01*
X137861904Y-83095238D01*
X137823809Y-82380952D02*
X137861904Y-82476190D01*
X137861904Y-82666666D01*
X137823809Y-82761904D01*
X137747619Y-82809523D01*
X137442857Y-82809523D01*
X137366666Y-82761904D01*
X137328571Y-82666666D01*
X137328571Y-82476190D01*
X137366666Y-82380952D01*
X137442857Y-82333333D01*
X137519047Y-82333333D01*
X137595238Y-82809523D01*
%TO.C,J11*%
X132442857Y-112047619D02*
X132442857Y-111714285D01*
X132861904Y-111571428D02*
X132861904Y-112047619D01*
X132061904Y-112047619D01*
X132061904Y-111571428D01*
X132328571Y-111142857D02*
X132861904Y-111142857D01*
X132404761Y-111142857D02*
X132366666Y-111095238D01*
X132328571Y-111000000D01*
X132328571Y-110857142D01*
X132366666Y-110761904D01*
X132442857Y-110714285D01*
X132861904Y-110714285D01*
X132823809Y-109809523D02*
X132861904Y-109904761D01*
X132861904Y-110095238D01*
X132823809Y-110190476D01*
X132785714Y-110238095D01*
X132709523Y-110285714D01*
X132480952Y-110285714D01*
X132404761Y-110238095D01*
X132366666Y-110190476D01*
X132328571Y-110095238D01*
X132328571Y-109904761D01*
X132366666Y-109809523D01*
X132861904Y-109238095D02*
X132823809Y-109333333D01*
X132785714Y-109380952D01*
X132709523Y-109428571D01*
X132480952Y-109428571D01*
X132404761Y-109380952D01*
X132366666Y-109333333D01*
X132328571Y-109238095D01*
X132328571Y-109095238D01*
X132366666Y-109000000D01*
X132404761Y-108952380D01*
X132480952Y-108904761D01*
X132709523Y-108904761D01*
X132785714Y-108952380D01*
X132823809Y-109000000D01*
X132861904Y-109095238D01*
X132861904Y-109238095D01*
X132861904Y-108047619D02*
X132061904Y-108047619D01*
X132823809Y-108047619D02*
X132861904Y-108142857D01*
X132861904Y-108333333D01*
X132823809Y-108428571D01*
X132785714Y-108476190D01*
X132709523Y-108523809D01*
X132480952Y-108523809D01*
X132404761Y-108476190D01*
X132366666Y-108428571D01*
X132328571Y-108333333D01*
X132328571Y-108142857D01*
X132366666Y-108047619D01*
X132823809Y-107190476D02*
X132861904Y-107285714D01*
X132861904Y-107476190D01*
X132823809Y-107571428D01*
X132747619Y-107619047D01*
X132442857Y-107619047D01*
X132366666Y-107571428D01*
X132328571Y-107476190D01*
X132328571Y-107285714D01*
X132366666Y-107190476D01*
X132442857Y-107142857D01*
X132519047Y-107142857D01*
X132595238Y-107619047D01*
X132328571Y-106285714D02*
X132861904Y-106285714D01*
X132328571Y-106714285D02*
X132747619Y-106714285D01*
X132823809Y-106666666D01*
X132861904Y-106571428D01*
X132861904Y-106428571D01*
X132823809Y-106333333D01*
X132785714Y-106285714D01*
X132861904Y-105809523D02*
X132328571Y-105809523D01*
X132480952Y-105809523D02*
X132404761Y-105761904D01*
X132366666Y-105714285D01*
X132328571Y-105619047D01*
X132328571Y-105523809D01*
X132138095Y-104476190D02*
X132100000Y-104428571D01*
X132061904Y-104333333D01*
X132061904Y-104095238D01*
X132100000Y-104000000D01*
X132138095Y-103952380D01*
X132214285Y-103904761D01*
X132290476Y-103904761D01*
X132404761Y-103952380D01*
X132861904Y-104523809D01*
X132861904Y-103904761D01*
%TO.C,J6*%
X177861904Y-103071428D02*
X177061904Y-103071428D01*
X177861904Y-102023809D02*
X177480952Y-102357142D01*
X177861904Y-102595238D02*
X177061904Y-102595238D01*
X177061904Y-102214285D01*
X177100000Y-102119047D01*
X177138095Y-102071428D01*
X177214285Y-102023809D01*
X177328571Y-102023809D01*
X177404761Y-102071428D01*
X177442857Y-102119047D01*
X177480952Y-102214285D01*
X177480952Y-102595238D01*
X177138095Y-100880952D02*
X177100000Y-100833333D01*
X177061904Y-100738095D01*
X177061904Y-100500000D01*
X177100000Y-100404761D01*
X177138095Y-100357142D01*
X177214285Y-100309523D01*
X177290476Y-100309523D01*
X177404761Y-100357142D01*
X177861904Y-100928571D01*
X177861904Y-100309523D01*
X177785714Y-99880952D02*
X177823809Y-99833333D01*
X177861904Y-99880952D01*
X177823809Y-99928571D01*
X177785714Y-99880952D01*
X177861904Y-99880952D01*
X177138095Y-99452380D02*
X177100000Y-99404761D01*
X177061904Y-99309523D01*
X177061904Y-99071428D01*
X177100000Y-98976190D01*
X177138095Y-98928571D01*
X177214285Y-98880952D01*
X177290476Y-98880952D01*
X177404761Y-98928571D01*
X177861904Y-99500000D01*
X177861904Y-98880952D01*
%TO.C,J5*%
X185861904Y-103071428D02*
X185061904Y-103071428D01*
X185861904Y-102023809D02*
X185480952Y-102357142D01*
X185861904Y-102595238D02*
X185061904Y-102595238D01*
X185061904Y-102214285D01*
X185100000Y-102119047D01*
X185138095Y-102071428D01*
X185214285Y-102023809D01*
X185328571Y-102023809D01*
X185404761Y-102071428D01*
X185442857Y-102119047D01*
X185480952Y-102214285D01*
X185480952Y-102595238D01*
X185138095Y-100880952D02*
X185100000Y-100833333D01*
X185061904Y-100738095D01*
X185061904Y-100500000D01*
X185100000Y-100404761D01*
X185138095Y-100357142D01*
X185214285Y-100309523D01*
X185290476Y-100309523D01*
X185404761Y-100357142D01*
X185861904Y-100928571D01*
X185861904Y-100309523D01*
X185785714Y-99880952D02*
X185823809Y-99833333D01*
X185861904Y-99880952D01*
X185823809Y-99928571D01*
X185785714Y-99880952D01*
X185861904Y-99880952D01*
X185861904Y-98880952D02*
X185861904Y-99452380D01*
X185861904Y-99166666D02*
X185061904Y-99166666D01*
X185176190Y-99261904D01*
X185252380Y-99357142D01*
X185290476Y-99452380D01*
%TO.C,J3*%
X177861904Y-115071428D02*
X177061904Y-115071428D01*
X177861904Y-114023809D02*
X177480952Y-114357142D01*
X177861904Y-114595238D02*
X177061904Y-114595238D01*
X177061904Y-114214285D01*
X177100000Y-114119047D01*
X177138095Y-114071428D01*
X177214285Y-114023809D01*
X177328571Y-114023809D01*
X177404761Y-114071428D01*
X177442857Y-114119047D01*
X177480952Y-114214285D01*
X177480952Y-114595238D01*
X177861904Y-112309523D02*
X177861904Y-112880952D01*
X177861904Y-112595238D02*
X177061904Y-112595238D01*
X177176190Y-112690476D01*
X177252380Y-112785714D01*
X177290476Y-112880952D01*
X177785714Y-111880952D02*
X177823809Y-111833333D01*
X177861904Y-111880952D01*
X177823809Y-111928571D01*
X177785714Y-111880952D01*
X177861904Y-111880952D01*
X177138095Y-111452380D02*
X177100000Y-111404761D01*
X177061904Y-111309523D01*
X177061904Y-111071428D01*
X177100000Y-110976190D01*
X177138095Y-110928571D01*
X177214285Y-110880952D01*
X177290476Y-110880952D01*
X177404761Y-110928571D01*
X177861904Y-111500000D01*
X177861904Y-110880952D01*
%TO.C,J2*%
X185861904Y-115071428D02*
X185061904Y-115071428D01*
X185861904Y-114023809D02*
X185480952Y-114357142D01*
X185861904Y-114595238D02*
X185061904Y-114595238D01*
X185061904Y-114214285D01*
X185100000Y-114119047D01*
X185138095Y-114071428D01*
X185214285Y-114023809D01*
X185328571Y-114023809D01*
X185404761Y-114071428D01*
X185442857Y-114119047D01*
X185480952Y-114214285D01*
X185480952Y-114595238D01*
X185861904Y-112309523D02*
X185861904Y-112880952D01*
X185861904Y-112595238D02*
X185061904Y-112595238D01*
X185176190Y-112690476D01*
X185252380Y-112785714D01*
X185290476Y-112880952D01*
X185785714Y-111880952D02*
X185823809Y-111833333D01*
X185861904Y-111880952D01*
X185823809Y-111928571D01*
X185785714Y-111880952D01*
X185861904Y-111880952D01*
X185861904Y-110880952D02*
X185861904Y-111452380D01*
X185861904Y-111166666D02*
X185061904Y-111166666D01*
X185176190Y-111261904D01*
X185252380Y-111357142D01*
X185290476Y-111452380D01*
%TO.C,J1*%
X122861904Y-97190476D02*
X122861904Y-97666666D01*
X122061904Y-97666666D01*
X122785714Y-96285714D02*
X122823809Y-96333333D01*
X122861904Y-96476190D01*
X122861904Y-96571428D01*
X122823809Y-96714285D01*
X122747619Y-96809523D01*
X122671428Y-96857142D01*
X122519047Y-96904761D01*
X122404761Y-96904761D01*
X122252380Y-96857142D01*
X122176190Y-96809523D01*
X122100000Y-96714285D01*
X122061904Y-96571428D01*
X122061904Y-96476190D01*
X122100000Y-96333333D01*
X122138095Y-96285714D01*
X122861904Y-95857142D02*
X122061904Y-95857142D01*
X122061904Y-95619047D01*
X122100000Y-95476190D01*
X122176190Y-95380952D01*
X122252380Y-95333333D01*
X122404761Y-95285714D01*
X122519047Y-95285714D01*
X122671428Y-95333333D01*
X122747619Y-95380952D01*
X122823809Y-95476190D01*
X122861904Y-95619047D01*
X122861904Y-95857142D01*
%TO.C,D1*%
X117422904Y-57459238D02*
X117422904Y-57935428D01*
X116622904Y-57935428D01*
X117003857Y-57125904D02*
X117003857Y-56792571D01*
X117422904Y-56649714D02*
X117422904Y-57125904D01*
X116622904Y-57125904D01*
X116622904Y-56649714D01*
X117422904Y-56221142D02*
X116622904Y-56221142D01*
X116622904Y-55983047D01*
X116661000Y-55840190D01*
X116737190Y-55744952D01*
X116813380Y-55697333D01*
X116965761Y-55649714D01*
X117080047Y-55649714D01*
X117232428Y-55697333D01*
X117308619Y-55744952D01*
X117384809Y-55840190D01*
X117422904Y-55983047D01*
X117422904Y-56221142D01*
X117422904Y-54459238D02*
X116622904Y-54459238D01*
X116622904Y-54078285D01*
X116661000Y-53983047D01*
X116699095Y-53935428D01*
X116775285Y-53887809D01*
X116889571Y-53887809D01*
X116965761Y-53935428D01*
X117003857Y-53983047D01*
X117041952Y-54078285D01*
X117041952Y-54459238D01*
X116622904Y-53554476D02*
X117422904Y-53316380D01*
X116851476Y-53125904D01*
X117422904Y-52935428D01*
X116622904Y-52697333D01*
X117422904Y-51744952D02*
X117041952Y-52078285D01*
X117422904Y-52316380D02*
X116622904Y-52316380D01*
X116622904Y-51935428D01*
X116661000Y-51840190D01*
X116699095Y-51792571D01*
X116775285Y-51744952D01*
X116889571Y-51744952D01*
X116965761Y-51792571D01*
X117003857Y-51840190D01*
X117041952Y-51935428D01*
X117041952Y-52316380D01*
%TO.C,C2*%
X133039142Y-58078666D02*
X133086761Y-58126285D01*
X133134380Y-58269142D01*
X133134380Y-58364380D01*
X133086761Y-58507238D01*
X132991523Y-58602476D01*
X132896285Y-58650095D01*
X132705809Y-58697714D01*
X132562952Y-58697714D01*
X132372476Y-58650095D01*
X132277238Y-58602476D01*
X132182000Y-58507238D01*
X132134380Y-58364380D01*
X132134380Y-58269142D01*
X132182000Y-58126285D01*
X132229619Y-58078666D01*
X132229619Y-57697714D02*
X132182000Y-57650095D01*
X132134380Y-57554857D01*
X132134380Y-57316761D01*
X132182000Y-57221523D01*
X132229619Y-57173904D01*
X132324857Y-57126285D01*
X132420095Y-57126285D01*
X132562952Y-57173904D01*
X133134380Y-57745333D01*
X133134380Y-57126285D01*
%TO.C,C1*%
X122117142Y-58205666D02*
X122164761Y-58253285D01*
X122212380Y-58396142D01*
X122212380Y-58491380D01*
X122164761Y-58634238D01*
X122069523Y-58729476D01*
X121974285Y-58777095D01*
X121783809Y-58824714D01*
X121640952Y-58824714D01*
X121450476Y-58777095D01*
X121355238Y-58729476D01*
X121260000Y-58634238D01*
X121212380Y-58491380D01*
X121212380Y-58396142D01*
X121260000Y-58253285D01*
X121307619Y-58205666D01*
X122212380Y-57253285D02*
X122212380Y-57824714D01*
X122212380Y-57539000D02*
X121212380Y-57539000D01*
X121355238Y-57634238D01*
X121450476Y-57729476D01*
X121498095Y-57824714D01*
%TD*%
M02*
