M48
; DRILL file {KiCad 5.1.6+dfsg1-1} date Thu Mar  4 16:55:33 2021
; FORMAT={-:-/ absolute / inch / decimal}
; #@! TF.CreationDate,2021-03-04T16:55:33+01:00
; #@! TF.GenerationSoftware,Kicad,Pcbnew,5.1.6+dfsg1-1
; #@! TF.FileFunction,Plated,1,2,PTH
FMAT,2
INCH
T1C0.0157
T2C0.0374
T3C0.0394
T4C0.0433
T5C0.0598
%
G90
G05
T1
X4.5902Y-2.6952
X4.5902Y-2.8702
X4.6737Y-2.085
X4.9Y-4.35
X4.9444Y-2.2107
X5.1Y-4.55
X5.129Y-3.189
X5.1441Y-2.2054
X5.441Y-3.189
X5.5947Y-2.5503
X5.79Y-2.355
X6.9408Y-2.6533
X7.1608Y-2.7533
X7.3575Y-2.85
X7.5775Y-2.95
X7.7975Y-3.05
T2
X7.4803Y-3.8583
X7.4803Y-3.9567
X7.4803Y-4.0551
X7.1654Y-3.8583
X7.1654Y-3.9567
X7.1654Y-4.0551
X4.295Y-3.0444
X4.3934Y-3.0444
X4.4918Y-3.0444
X4.5902Y-3.0444
X4.9213Y-2.9921
X4.9213Y-3.0906
X4.9213Y-3.189
X5.27Y-2.85
X5.27Y-2.9484
X5.27Y-3.0469
X7.4803Y-4.3307
X7.4803Y-4.4291
X7.4803Y-4.5276
X5.4331Y-2.255
X5.4331Y-2.3534
X5.4331Y-2.4519
X5.4331Y-2.5503
X4.67Y-4.15
X4.67Y-4.2484
X4.67Y-4.3469
X4.67Y-4.4453
X7.43Y-3.1497
X7.43Y-3.2481
X7.43Y-3.3466
X7.43Y-3.445
X5.41Y-4.05
X5.41Y-4.1484
X5.41Y-4.2469
X5.41Y-4.3453
X5.0Y-3.85
X5.0Y-3.9484
X5.0Y-4.0469
X5.0Y-4.1453
X6.8504Y-3.855
X6.8504Y-3.9534
X6.8504Y-4.0519
X5.4724Y-1.9291
X5.5709Y-1.9291
X5.6693Y-1.9291
X5.7677Y-1.9291
X4.295Y-3.8444
X4.3934Y-3.8444
X4.4918Y-3.8444
X4.5902Y-3.8444
X4.295Y-3.4444
X4.3934Y-3.4444
X4.4918Y-3.4444
X4.5902Y-3.4444
X7.1654Y-4.3307
X7.1654Y-4.4291
X7.1654Y-4.5276
X6.8504Y-4.3307
X6.8504Y-4.4291
X6.8504Y-4.5276
T3
X7.9125Y-2.57
X7.9125Y-2.67
X7.9125Y-2.77
X7.9125Y-2.87
X7.9125Y-2.97
X7.1654Y-3.35
X7.1654Y-3.4484
X5.5516Y-2.85
X5.65Y-2.85
X5.3Y-3.55
X5.3Y-3.6484
X4.9213Y-3.46
X4.9213Y-3.5584
X6.8504Y-3.45
X6.8504Y-3.5484
X4.9213Y-1.9291
X5.0213Y-1.9291
X5.1213Y-1.9291
X5.7Y-3.75
X5.7Y-3.85
X5.7Y-3.95
X5.5516Y-3.35
X5.65Y-3.35
T4
X5.95Y-2.25
X5.95Y-2.35
X5.95Y-2.45
X5.95Y-2.55
X5.95Y-2.65
X5.95Y-2.75
X5.95Y-2.85
X5.95Y-2.95
X5.95Y-3.05
X5.95Y-3.15
X5.95Y-3.25
X5.95Y-3.35
X5.95Y-3.45
X5.95Y-3.55
X5.95Y-3.65
X5.95Y-3.75
X5.95Y-3.85
X5.95Y-3.95
X5.95Y-4.05
X5.95Y-4.15
X5.95Y-4.25
X5.95Y-4.35
X5.95Y-4.45
X5.95Y-4.55
X6.55Y-2.25
X6.55Y-2.35
X6.55Y-2.45
X6.55Y-2.55
X6.55Y-2.65
X6.55Y-2.75
X6.55Y-2.85
X6.55Y-2.95
X6.55Y-3.05
X6.55Y-3.15
X6.55Y-3.25
X6.55Y-3.35
X6.55Y-3.45
X6.55Y-3.55
X6.55Y-3.65
X6.55Y-3.75
X6.55Y-3.85
X6.55Y-3.95
X6.55Y-4.05
X6.55Y-4.15
X6.55Y-4.25
X6.55Y-4.35
X6.55Y-4.45
X6.55Y-4.55
T5
X4.3701Y-2.0866
X4.3701Y-2.2866
T0
M30
