%TF.GenerationSoftware,KiCad,Pcbnew,5.1.6+dfsg1-1*%
%TF.CreationDate,2021-03-04T16:54:05+01:00*%
%TF.ProjectId,pcb_robot_2021A,7063625f-726f-4626-9f74-5f3230323141,2.0*%
%TF.SameCoordinates,Original*%
%TF.FileFunction,Copper,L1,Top*%
%TF.FilePolarity,Positive*%
%FSLAX46Y46*%
G04 Gerber Fmt 4.6, Leading zero omitted, Abs format (unit mm)*
G04 Created by KiCad (PCBNEW 5.1.6+dfsg1-1) date 2021-03-04 16:54:05*
%MOMM*%
%LPD*%
G01*
G04 APERTURE LIST*
%TA.AperFunction,ComponentPad*%
%ADD10O,1.950000X1.700000*%
%TD*%
%TA.AperFunction,ComponentPad*%
%ADD11C,3.000000*%
%TD*%
%TA.AperFunction,ComponentPad*%
%ADD12R,3.000000X3.000000*%
%TD*%
%TA.AperFunction,ComponentPad*%
%ADD13O,1.700000X1.700000*%
%TD*%
%TA.AperFunction,ComponentPad*%
%ADD14R,1.700000X1.700000*%
%TD*%
%TA.AperFunction,SMDPad,CuDef*%
%ADD15R,0.800000X1.200000*%
%TD*%
%TA.AperFunction,ComponentPad*%
%ADD16C,1.600000*%
%TD*%
%TA.AperFunction,ComponentPad*%
%ADD17R,1.600000X1.600000*%
%TD*%
%TA.AperFunction,ComponentPad*%
%ADD18O,1.500000X2.300000*%
%TD*%
%TA.AperFunction,ComponentPad*%
%ADD19R,1.500000X2.300000*%
%TD*%
%TA.AperFunction,ComponentPad*%
%ADD20O,2.000000X1.700000*%
%TD*%
%TA.AperFunction,ComponentPad*%
%ADD21O,1.700000X1.950000*%
%TD*%
%TA.AperFunction,ComponentPad*%
%ADD22O,1.700000X2.000000*%
%TD*%
%TA.AperFunction,ViaPad*%
%ADD23C,0.800000*%
%TD*%
%TA.AperFunction,Conductor*%
%ADD24C,0.600000*%
%TD*%
%TA.AperFunction,Conductor*%
%ADD25C,0.800000*%
%TD*%
%TA.AperFunction,Conductor*%
%ADD26C,1.200000*%
%TD*%
%TA.AperFunction,Conductor*%
%ADD27C,1.000000*%
%TD*%
%TA.AperFunction,Conductor*%
%ADD28C,0.500000*%
%TD*%
G04 APERTURE END LIST*
%TO.P,R1,2*%
%TO.N,/SCL*%
%TA.AperFunction,SMDPad,CuDef*%
G36*
G01*
X116262999Y-65846000D02*
X117163001Y-65846000D01*
G75*
G02*
X117413000Y-66095999I0J-249999D01*
G01*
X117413000Y-66746001D01*
G75*
G02*
X117163001Y-66996000I-249999J0D01*
G01*
X116262999Y-66996000D01*
G75*
G02*
X116013000Y-66746001I0J249999D01*
G01*
X116013000Y-66095999D01*
G75*
G02*
X116262999Y-65846000I249999J0D01*
G01*
G37*
%TD.AperFunction*%
%TO.P,R1,1*%
%TO.N,+5V*%
%TA.AperFunction,SMDPad,CuDef*%
G36*
G01*
X116262999Y-63796000D02*
X117163001Y-63796000D01*
G75*
G02*
X117413000Y-64045999I0J-249999D01*
G01*
X117413000Y-64696001D01*
G75*
G02*
X117163001Y-64946000I-249999J0D01*
G01*
X116262999Y-64946000D01*
G75*
G02*
X116013000Y-64696001I0J249999D01*
G01*
X116013000Y-64045999D01*
G75*
G02*
X116262999Y-63796000I249999J0D01*
G01*
G37*
%TD.AperFunction*%
%TD*%
D10*
%TO.P,J10,4*%
%TO.N,/enc1_B*%
X188722000Y-80003000D03*
%TO.P,J10,3*%
%TO.N,/enc1_A*%
X188722000Y-82503000D03*
%TO.P,J10,2*%
%TO.N,GND*%
X188722000Y-85003000D03*
%TO.P,J10,1*%
%TO.N,+5V*%
%TA.AperFunction,ComponentPad*%
G36*
G01*
X189447000Y-88353000D02*
X187997000Y-88353000D01*
G75*
G02*
X187747000Y-88103000I0J250000D01*
G01*
X187747000Y-86903000D01*
G75*
G02*
X187997000Y-86653000I250000J0D01*
G01*
X189447000Y-86653000D01*
G75*
G02*
X189697000Y-86903000I0J-250000D01*
G01*
X189697000Y-88103000D01*
G75*
G02*
X189447000Y-88353000I-250000J0D01*
G01*
G37*
%TD.AperFunction*%
%TD*%
%TO.P,J4,3*%
%TO.N,/IR_out1.3*%
X174000000Y-115000000D03*
%TO.P,J4,2*%
%TO.N,GND*%
X174000000Y-112500000D03*
%TO.P,J4,1*%
%TO.N,+5V*%
%TA.AperFunction,ComponentPad*%
G36*
G01*
X173275000Y-109150000D02*
X174725000Y-109150000D01*
G75*
G02*
X174975000Y-109400000I0J-250000D01*
G01*
X174975000Y-110600000D01*
G75*
G02*
X174725000Y-110850000I-250000J0D01*
G01*
X173275000Y-110850000D01*
G75*
G02*
X173025000Y-110600000I0J250000D01*
G01*
X173025000Y-109400000D01*
G75*
G02*
X173275000Y-109150000I250000J0D01*
G01*
G37*
%TD.AperFunction*%
%TD*%
%TO.P,J15,4*%
%TO.N,/RX4*%
X118618000Y-112910000D03*
%TO.P,J15,3*%
%TO.N,/TX4*%
X118618000Y-110410000D03*
%TO.P,J15,2*%
%TO.N,GND*%
X118618000Y-107910000D03*
%TO.P,J15,1*%
%TO.N,+5V*%
%TA.AperFunction,ComponentPad*%
G36*
G01*
X117893000Y-104560000D02*
X119343000Y-104560000D01*
G75*
G02*
X119593000Y-104810000I0J-250000D01*
G01*
X119593000Y-106010000D01*
G75*
G02*
X119343000Y-106260000I-250000J0D01*
G01*
X117893000Y-106260000D01*
G75*
G02*
X117643000Y-106010000I0J250000D01*
G01*
X117643000Y-104810000D01*
G75*
G02*
X117893000Y-104560000I250000J0D01*
G01*
G37*
%TD.AperFunction*%
%TD*%
%TO.P,J16,4*%
%TO.N,/Xbee_RX*%
X138000000Y-64777000D03*
%TO.P,J16,3*%
%TO.N,/Xbee_TX*%
X138000000Y-62277000D03*
%TO.P,J16,2*%
%TO.N,GND*%
X138000000Y-59777000D03*
%TO.P,J16,1*%
%TO.N,+5V*%
%TA.AperFunction,ComponentPad*%
G36*
G01*
X137275000Y-56427000D02*
X138725000Y-56427000D01*
G75*
G02*
X138975000Y-56677000I0J-250000D01*
G01*
X138975000Y-57877000D01*
G75*
G02*
X138725000Y-58127000I-250000J0D01*
G01*
X137275000Y-58127000D01*
G75*
G02*
X137025000Y-57877000I0J250000D01*
G01*
X137025000Y-56677000D01*
G75*
G02*
X137275000Y-56427000I250000J0D01*
G01*
G37*
%TD.AperFunction*%
%TD*%
%TO.P,J9,3*%
%TO.N,/mot2_dir*%
X125000000Y-81000000D03*
%TO.P,J9,2*%
%TO.N,/mot2_PWM*%
X125000000Y-78500000D03*
%TO.P,J9,1*%
%TO.N,GND*%
%TA.AperFunction,ComponentPad*%
G36*
G01*
X124275000Y-75150000D02*
X125725000Y-75150000D01*
G75*
G02*
X125975000Y-75400000I0J-250000D01*
G01*
X125975000Y-76600000D01*
G75*
G02*
X125725000Y-76850000I-250000J0D01*
G01*
X124275000Y-76850000D01*
G75*
G02*
X124025000Y-76600000I0J250000D01*
G01*
X124025000Y-75400000D01*
G75*
G02*
X124275000Y-75150000I250000J0D01*
G01*
G37*
%TD.AperFunction*%
%TD*%
%TO.P,J8,3*%
%TO.N,/mot1_dir*%
X133858000Y-77390000D03*
%TO.P,J8,2*%
%TO.N,/mot1_PWM*%
X133858000Y-74890000D03*
%TO.P,J8,1*%
%TO.N,GND*%
%TA.AperFunction,ComponentPad*%
G36*
G01*
X133133000Y-71540000D02*
X134583000Y-71540000D01*
G75*
G02*
X134833000Y-71790000I0J-250000D01*
G01*
X134833000Y-72990000D01*
G75*
G02*
X134583000Y-73240000I-250000J0D01*
G01*
X133133000Y-73240000D01*
G75*
G02*
X132883000Y-72990000I0J250000D01*
G01*
X132883000Y-71790000D01*
G75*
G02*
X133133000Y-71540000I250000J0D01*
G01*
G37*
%TD.AperFunction*%
%TD*%
D11*
%TO.P,J12,2*%
%TO.N,GND*%
X111000000Y-58080000D03*
D12*
%TO.P,J12,1*%
%TO.N,+12V*%
X111000000Y-53000000D03*
%TD*%
D10*
%TO.P,J7,3*%
%TO.N,/IR_out2.3*%
X174000000Y-102917000D03*
%TO.P,J7,2*%
%TO.N,GND*%
X174000000Y-100417000D03*
%TO.P,J7,1*%
%TO.N,+5V*%
%TA.AperFunction,ComponentPad*%
G36*
G01*
X173275000Y-97067000D02*
X174725000Y-97067000D01*
G75*
G02*
X174975000Y-97317000I0J-250000D01*
G01*
X174975000Y-98517000D01*
G75*
G02*
X174725000Y-98767000I-250000J0D01*
G01*
X173275000Y-98767000D01*
G75*
G02*
X173025000Y-98517000I0J250000D01*
G01*
X173025000Y-97317000D01*
G75*
G02*
X173275000Y-97067000I250000J0D01*
G01*
G37*
%TD.AperFunction*%
%TD*%
D13*
%TO.P,J20,5*%
%TO.N,Net-(J20-Pad5)*%
X200978000Y-75438000D03*
%TO.P,J20,4*%
%TO.N,Net-(J20-Pad4)*%
X200978000Y-72898000D03*
%TO.P,J20,3*%
%TO.N,Net-(J20-Pad3)*%
X200978000Y-70358000D03*
%TO.P,J20,2*%
%TO.N,Net-(J20-Pad2)*%
X200978000Y-67818000D03*
D14*
%TO.P,J20,1*%
%TO.N,Net-(J20-Pad1)*%
X200978000Y-65278000D03*
%TD*%
D15*
%TO.P,U6,1*%
%TO.N,/lidar_in4*%
X189294000Y-74930000D03*
%TO.P,U6,2*%
%TO.N,GND*%
X191194000Y-74930000D03*
%TO.P,U6,3*%
%TO.N,Net-(J20-Pad4)*%
X190244000Y-72730000D03*
%TD*%
%TO.P,U7,1*%
%TO.N,/lidar_in5*%
X194882000Y-77470000D03*
%TO.P,U7,2*%
%TO.N,GND*%
X196782000Y-77470000D03*
%TO.P,U7,3*%
%TO.N,Net-(J20-Pad5)*%
X195832000Y-75270000D03*
%TD*%
%TO.P,U3,1*%
%TO.N,/lidar_in1*%
X173104000Y-67394000D03*
%TO.P,U3,2*%
%TO.N,GND*%
X175004000Y-67394000D03*
%TO.P,U3,3*%
%TO.N,Net-(J20-Pad1)*%
X174054000Y-65194000D03*
%TD*%
%TO.P,U5,1*%
%TO.N,/lidar_in3*%
X183706000Y-72390000D03*
%TO.P,U5,2*%
%TO.N,GND*%
X185606000Y-72390000D03*
%TO.P,U5,3*%
%TO.N,Net-(J20-Pad3)*%
X184656000Y-70190000D03*
%TD*%
%TO.P,U4,1*%
%TO.N,/lidar_in2*%
X178692000Y-69934000D03*
%TO.P,U4,2*%
%TO.N,GND*%
X180592000Y-69934000D03*
%TO.P,U4,3*%
%TO.N,Net-(J20-Pad2)*%
X179642000Y-67734000D03*
%TD*%
D16*
%TO.P,U2,53*%
%TO.N,+5V*%
X166370000Y-57150000D03*
%TO.P,U2,52*%
%TO.N,Net-(U2-Pad52)*%
X166370000Y-59690000D03*
%TO.P,U2,51*%
%TO.N,Net-(U2-Pad51)*%
X166370000Y-62230000D03*
%TO.P,U2,50*%
%TO.N,Net-(U2-Pad50)*%
X166370000Y-64770000D03*
%TO.P,U2,49*%
%TO.N,/lidar_in1*%
X166370000Y-67310000D03*
%TO.P,U2,48*%
%TO.N,/lidar_in2*%
X166370000Y-69850000D03*
%TO.P,U2,47*%
%TO.N,/lidar_in3*%
X166370000Y-72390000D03*
%TO.P,U2,46*%
%TO.N,/lidar_in4*%
X166370000Y-74930000D03*
%TO.P,U2,45*%
%TO.N,/lidar_in5*%
X166370000Y-77470000D03*
%TO.P,U2,44*%
%TO.N,/enc1_B*%
X166370000Y-80010000D03*
%TO.P,U2,43*%
%TO.N,/enc1_A*%
X166370000Y-82550000D03*
%TO.P,U2,42*%
%TO.N,/galet_2.2*%
X166370000Y-85090000D03*
%TO.P,U2,41*%
%TO.N,/galet_2.1*%
X166370000Y-87630000D03*
%TO.P,U2,40*%
%TO.N,Net-(U2-Pad40)*%
X166370000Y-90170000D03*
%TO.P,U2,39*%
%TO.N,Net-(U2-Pad39)*%
X166370000Y-92710000D03*
%TO.P,U2,38*%
%TO.N,Net-(U2-Pad38)*%
X166370000Y-95250000D03*
D17*
%TO.P,U2,1*%
%TO.N,GND*%
X151130000Y-57150000D03*
D16*
%TO.P,U2,2*%
%TO.N,/Xbee_RX*%
X151130000Y-59690000D03*
%TO.P,U2,3*%
%TO.N,/Xbee_TX*%
X151130000Y-62230000D03*
%TO.P,U2,4*%
%TO.N,Net-(U2-Pad4)*%
X151130000Y-64770000D03*
%TO.P,U2,5*%
%TO.N,/SCL*%
X151130000Y-67310000D03*
%TO.P,U2,6*%
%TO.N,/SDA*%
X151130000Y-69850000D03*
%TO.P,U2,7*%
%TO.N,/couleur*%
X151130000Y-72390000D03*
%TO.P,U2,8*%
%TO.N,/mot1_PWM*%
X151130000Y-74930000D03*
%TO.P,U2,9*%
%TO.N,/mot1_dir*%
X151130000Y-77470000D03*
%TO.P,U2,10*%
%TO.N,/mot2_dir*%
X151130000Y-80010000D03*
%TO.P,U2,11*%
%TO.N,/mot2_PWM*%
X151130000Y-82550000D03*
%TO.P,U2,12*%
%TO.N,/tirette*%
X151130000Y-85090000D03*
%TO.P,U2,13*%
%TO.N,/galet_1.1*%
X151130000Y-87630000D03*
%TO.P,U2,37*%
%TO.N,Net-(U2-Pad37)*%
X166370000Y-97790000D03*
%TO.P,U2,36*%
%TO.N,Net-(U2-Pad36)*%
X166370000Y-100330000D03*
%TO.P,U2,35*%
%TO.N,/IR_out2.3*%
X166370000Y-102870000D03*
%TO.P,U2,34*%
%TO.N,/IR_out2.2*%
X166370000Y-105410000D03*
%TO.P,U2,33*%
%TO.N,/IR_out2.1*%
X166370000Y-107950000D03*
%TO.P,U2,32*%
%TO.N,/IR_out1.3*%
X166370000Y-110490000D03*
%TO.P,U2,31*%
%TO.N,/IR_out1.2*%
X166370000Y-113030000D03*
%TO.P,U2,30*%
%TO.N,/IR_out1.1*%
X166370000Y-115570000D03*
%TO.P,U2,24*%
%TO.N,/TX4*%
X151130000Y-115570000D03*
%TO.P,U2,23*%
%TO.N,/RX4*%
X151130000Y-113030000D03*
%TO.P,U2,22*%
%TO.N,/enc2_B*%
X151130000Y-110490000D03*
%TO.P,U2,21*%
%TO.N,/enc2_A*%
X151130000Y-107950000D03*
%TO.P,U2,14*%
%TO.N,/galet_1.2*%
X151130000Y-90170000D03*
%TO.P,U2,15*%
%TO.N,Net-(U2-Pad15)*%
X151130000Y-92710000D03*
%TO.P,U2,16*%
%TO.N,/lidar_out1*%
X151130000Y-95250000D03*
%TO.P,U2,20*%
%TO.N,/LCD_2*%
X151130000Y-105410000D03*
%TO.P,U2,19*%
%TO.N,/LCD_1*%
X151130000Y-102870000D03*
%TO.P,U2,18*%
%TO.N,/lidar_out3*%
X151130000Y-100330000D03*
%TO.P,U2,17*%
%TO.N,/lidar_out2*%
X151130000Y-97790000D03*
%TD*%
D18*
%TO.P,U1,3*%
%TO.N,+5V*%
X130080000Y-49000000D03*
%TO.P,U1,2*%
%TO.N,GND*%
X127540000Y-49000000D03*
D19*
%TO.P,U1,1*%
%TO.N,+12V*%
X125000000Y-49000000D03*
%TD*%
%TO.P,R3,2*%
%TO.N,Net-(D1-Pad2)*%
%TA.AperFunction,SMDPad,CuDef*%
G36*
G01*
X119162001Y-60256000D02*
X118261999Y-60256000D01*
G75*
G02*
X118012000Y-60006001I0J249999D01*
G01*
X118012000Y-59355999D01*
G75*
G02*
X118261999Y-59106000I249999J0D01*
G01*
X119162001Y-59106000D01*
G75*
G02*
X119412000Y-59355999I0J-249999D01*
G01*
X119412000Y-60006001D01*
G75*
G02*
X119162001Y-60256000I-249999J0D01*
G01*
G37*
%TD.AperFunction*%
%TO.P,R3,1*%
%TO.N,+5V*%
%TA.AperFunction,SMDPad,CuDef*%
G36*
G01*
X119162001Y-62306000D02*
X118261999Y-62306000D01*
G75*
G02*
X118012000Y-62056001I0J249999D01*
G01*
X118012000Y-61405999D01*
G75*
G02*
X118261999Y-61156000I249999J0D01*
G01*
X119162001Y-61156000D01*
G75*
G02*
X119412000Y-61405999I0J-249999D01*
G01*
X119412000Y-62056001D01*
G75*
G02*
X119162001Y-62306000I-249999J0D01*
G01*
G37*
%TD.AperFunction*%
%TD*%
%TO.P,R2,2*%
%TO.N,+5V*%
%TA.AperFunction,SMDPad,CuDef*%
G36*
G01*
X114496001Y-68130000D02*
X113595999Y-68130000D01*
G75*
G02*
X113346000Y-67880001I0J249999D01*
G01*
X113346000Y-67229999D01*
G75*
G02*
X113595999Y-66980000I249999J0D01*
G01*
X114496001Y-66980000D01*
G75*
G02*
X114746000Y-67229999I0J-249999D01*
G01*
X114746000Y-67880001D01*
G75*
G02*
X114496001Y-68130000I-249999J0D01*
G01*
G37*
%TD.AperFunction*%
%TO.P,R2,1*%
%TO.N,/SDA*%
%TA.AperFunction,SMDPad,CuDef*%
G36*
G01*
X114496001Y-70180000D02*
X113595999Y-70180000D01*
G75*
G02*
X113346000Y-69930001I0J249999D01*
G01*
X113346000Y-69279999D01*
G75*
G02*
X113595999Y-69030000I249999J0D01*
G01*
X114496001Y-69030000D01*
G75*
G02*
X114746000Y-69279999I0J-249999D01*
G01*
X114746000Y-69930001D01*
G75*
G02*
X114496001Y-70180000I-249999J0D01*
G01*
G37*
%TD.AperFunction*%
%TD*%
%TO.P,J26,1*%
%TO.N,/galet_2.2*%
%TA.AperFunction,ComponentPad*%
G36*
G01*
X181250000Y-84240000D02*
X182750000Y-84240000D01*
G75*
G02*
X183000000Y-84490000I0J-250000D01*
G01*
X183000000Y-85690000D01*
G75*
G02*
X182750000Y-85940000I-250000J0D01*
G01*
X181250000Y-85940000D01*
G75*
G02*
X181000000Y-85690000I0J250000D01*
G01*
X181000000Y-84490000D01*
G75*
G02*
X181250000Y-84240000I250000J0D01*
G01*
G37*
%TD.AperFunction*%
D20*
%TO.P,J26,2*%
%TO.N,GND*%
X182000000Y-87590000D03*
%TD*%
%TO.P,J25,2*%
%TO.N,GND*%
X174000000Y-90130000D03*
%TO.P,J25,1*%
%TO.N,/galet_2.1*%
%TA.AperFunction,ComponentPad*%
G36*
G01*
X173250000Y-86780000D02*
X174750000Y-86780000D01*
G75*
G02*
X175000000Y-87030000I0J-250000D01*
G01*
X175000000Y-88230000D01*
G75*
G02*
X174750000Y-88480000I-250000J0D01*
G01*
X173250000Y-88480000D01*
G75*
G02*
X173000000Y-88230000I0J250000D01*
G01*
X173000000Y-87030000D01*
G75*
G02*
X173250000Y-86780000I250000J0D01*
G01*
G37*
%TD.AperFunction*%
%TD*%
%TO.P,J24,2*%
%TO.N,GND*%
X134620000Y-92670000D03*
%TO.P,J24,1*%
%TO.N,/galet_1.2*%
%TA.AperFunction,ComponentPad*%
G36*
G01*
X133870000Y-89320000D02*
X135370000Y-89320000D01*
G75*
G02*
X135620000Y-89570000I0J-250000D01*
G01*
X135620000Y-90770000D01*
G75*
G02*
X135370000Y-91020000I-250000J0D01*
G01*
X133870000Y-91020000D01*
G75*
G02*
X133620000Y-90770000I0J250000D01*
G01*
X133620000Y-89570000D01*
G75*
G02*
X133870000Y-89320000I250000J0D01*
G01*
G37*
%TD.AperFunction*%
%TD*%
%TO.P,J23,2*%
%TO.N,GND*%
X125000000Y-90384000D03*
%TO.P,J23,1*%
%TO.N,/galet_1.1*%
%TA.AperFunction,ComponentPad*%
G36*
G01*
X124250000Y-87034000D02*
X125750000Y-87034000D01*
G75*
G02*
X126000000Y-87284000I0J-250000D01*
G01*
X126000000Y-88484000D01*
G75*
G02*
X125750000Y-88734000I-250000J0D01*
G01*
X124250000Y-88734000D01*
G75*
G02*
X124000000Y-88484000I0J250000D01*
G01*
X124000000Y-87284000D01*
G75*
G02*
X124250000Y-87034000I250000J0D01*
G01*
G37*
%TD.AperFunction*%
%TD*%
D21*
%TO.P,J22,4*%
%TO.N,GND*%
X146500000Y-49000000D03*
%TO.P,J22,3*%
X144000000Y-49000000D03*
%TO.P,J22,2*%
%TO.N,+12V*%
X141500000Y-49000000D03*
%TO.P,J22,1*%
%TA.AperFunction,ComponentPad*%
G36*
G01*
X138150000Y-49725000D02*
X138150000Y-48275000D01*
G75*
G02*
X138400000Y-48025000I250000J0D01*
G01*
X139600000Y-48025000D01*
G75*
G02*
X139850000Y-48275000I0J-250000D01*
G01*
X139850000Y-49725000D01*
G75*
G02*
X139600000Y-49975000I-250000J0D01*
G01*
X138400000Y-49975000D01*
G75*
G02*
X138150000Y-49725000I0J250000D01*
G01*
G37*
%TD.AperFunction*%
%TD*%
D13*
%TO.P,J21,3*%
%TO.N,/lidar_out3*%
X144780000Y-100330000D03*
%TO.P,J21,2*%
%TO.N,/lidar_out2*%
X144780000Y-97790000D03*
D14*
%TO.P,J21,1*%
%TO.N,/lidar_out1*%
X144780000Y-95250000D03*
%TD*%
D21*
%TO.P,J19,4*%
%TO.N,/SCL*%
X116592000Y-97648000D03*
%TO.P,J19,3*%
%TO.N,/SDA*%
X114092000Y-97648000D03*
%TO.P,J19,2*%
%TO.N,GND*%
X111592000Y-97648000D03*
%TO.P,J19,1*%
%TO.N,+5V*%
%TA.AperFunction,ComponentPad*%
G36*
G01*
X108242000Y-98373000D02*
X108242000Y-96923000D01*
G75*
G02*
X108492000Y-96673000I250000J0D01*
G01*
X109692000Y-96673000D01*
G75*
G02*
X109942000Y-96923000I0J-250000D01*
G01*
X109942000Y-98373000D01*
G75*
G02*
X109692000Y-98623000I-250000J0D01*
G01*
X108492000Y-98623000D01*
G75*
G02*
X108242000Y-98373000I0J250000D01*
G01*
G37*
%TD.AperFunction*%
%TD*%
%TO.P,J18,4*%
%TO.N,/SCL*%
X116592000Y-87488000D03*
%TO.P,J18,3*%
%TO.N,/SDA*%
X114092000Y-87488000D03*
%TO.P,J18,2*%
%TO.N,GND*%
X111592000Y-87488000D03*
%TO.P,J18,1*%
%TO.N,+5V*%
%TA.AperFunction,ComponentPad*%
G36*
G01*
X108242000Y-88213000D02*
X108242000Y-86763000D01*
G75*
G02*
X108492000Y-86513000I250000J0D01*
G01*
X109692000Y-86513000D01*
G75*
G02*
X109942000Y-86763000I0J-250000D01*
G01*
X109942000Y-88213000D01*
G75*
G02*
X109692000Y-88463000I-250000J0D01*
G01*
X108492000Y-88463000D01*
G75*
G02*
X108242000Y-88213000I0J250000D01*
G01*
G37*
%TD.AperFunction*%
%TD*%
%TO.P,J17,4*%
%TO.N,/SCL*%
X116592000Y-77328000D03*
%TO.P,J17,3*%
%TO.N,/SDA*%
X114092000Y-77328000D03*
%TO.P,J17,2*%
%TO.N,GND*%
X111592000Y-77328000D03*
%TO.P,J17,1*%
%TO.N,+5V*%
%TA.AperFunction,ComponentPad*%
G36*
G01*
X108242000Y-78053000D02*
X108242000Y-76603000D01*
G75*
G02*
X108492000Y-76353000I250000J0D01*
G01*
X109692000Y-76353000D01*
G75*
G02*
X109942000Y-76603000I0J-250000D01*
G01*
X109942000Y-78053000D01*
G75*
G02*
X109692000Y-78303000I-250000J0D01*
G01*
X108492000Y-78303000D01*
G75*
G02*
X108242000Y-78053000I0J250000D01*
G01*
G37*
%TD.AperFunction*%
%TD*%
D22*
%TO.P,J14,2*%
%TO.N,GND*%
X141010000Y-72390000D03*
%TO.P,J14,1*%
%TO.N,/couleur*%
%TA.AperFunction,ComponentPad*%
G36*
G01*
X144360000Y-71640000D02*
X144360000Y-73140000D01*
G75*
G02*
X144110000Y-73390000I-250000J0D01*
G01*
X142910000Y-73390000D01*
G75*
G02*
X142660000Y-73140000I0J250000D01*
G01*
X142660000Y-71640000D01*
G75*
G02*
X142910000Y-71390000I250000J0D01*
G01*
X144110000Y-71390000D01*
G75*
G02*
X144360000Y-71640000I0J-250000D01*
G01*
G37*
%TD.AperFunction*%
%TD*%
%TO.P,J13,2*%
%TO.N,GND*%
X141010000Y-85090000D03*
%TO.P,J13,1*%
%TO.N,/tirette*%
%TA.AperFunction,ComponentPad*%
G36*
G01*
X144360000Y-84340000D02*
X144360000Y-85840000D01*
G75*
G02*
X144110000Y-86090000I-250000J0D01*
G01*
X142910000Y-86090000D01*
G75*
G02*
X142660000Y-85840000I0J250000D01*
G01*
X142660000Y-84340000D01*
G75*
G02*
X142910000Y-84090000I250000J0D01*
G01*
X144110000Y-84090000D01*
G75*
G02*
X144360000Y-84340000I0J-250000D01*
G01*
G37*
%TD.AperFunction*%
%TD*%
D10*
%TO.P,J11,4*%
%TO.N,/enc2_B*%
X137414000Y-110370000D03*
%TO.P,J11,3*%
%TO.N,/enc2_A*%
X137414000Y-107870000D03*
%TO.P,J11,2*%
%TO.N,GND*%
X137414000Y-105370000D03*
%TO.P,J11,1*%
%TO.N,+5V*%
%TA.AperFunction,ComponentPad*%
G36*
G01*
X136689000Y-102020000D02*
X138139000Y-102020000D01*
G75*
G02*
X138389000Y-102270000I0J-250000D01*
G01*
X138389000Y-103470000D01*
G75*
G02*
X138139000Y-103720000I-250000J0D01*
G01*
X136689000Y-103720000D01*
G75*
G02*
X136439000Y-103470000I0J250000D01*
G01*
X136439000Y-102270000D01*
G75*
G02*
X136689000Y-102020000I250000J0D01*
G01*
G37*
%TD.AperFunction*%
%TD*%
%TO.P,J6,3*%
%TO.N,/IR_out2.2*%
X182000000Y-103000000D03*
%TO.P,J6,2*%
%TO.N,GND*%
X182000000Y-100500000D03*
%TO.P,J6,1*%
%TO.N,+5V*%
%TA.AperFunction,ComponentPad*%
G36*
G01*
X181275000Y-97150000D02*
X182725000Y-97150000D01*
G75*
G02*
X182975000Y-97400000I0J-250000D01*
G01*
X182975000Y-98600000D01*
G75*
G02*
X182725000Y-98850000I-250000J0D01*
G01*
X181275000Y-98850000D01*
G75*
G02*
X181025000Y-98600000I0J250000D01*
G01*
X181025000Y-97400000D01*
G75*
G02*
X181275000Y-97150000I250000J0D01*
G01*
G37*
%TD.AperFunction*%
%TD*%
%TO.P,J5,3*%
%TO.N,/IR_out2.1*%
X190000000Y-103000000D03*
%TO.P,J5,2*%
%TO.N,GND*%
X190000000Y-100500000D03*
%TO.P,J5,1*%
%TO.N,+5V*%
%TA.AperFunction,ComponentPad*%
G36*
G01*
X189275000Y-97150000D02*
X190725000Y-97150000D01*
G75*
G02*
X190975000Y-97400000I0J-250000D01*
G01*
X190975000Y-98600000D01*
G75*
G02*
X190725000Y-98850000I-250000J0D01*
G01*
X189275000Y-98850000D01*
G75*
G02*
X189025000Y-98600000I0J250000D01*
G01*
X189025000Y-97400000D01*
G75*
G02*
X189275000Y-97150000I250000J0D01*
G01*
G37*
%TD.AperFunction*%
%TD*%
%TO.P,J3,3*%
%TO.N,/IR_out1.2*%
X182000000Y-115000000D03*
%TO.P,J3,2*%
%TO.N,GND*%
X182000000Y-112500000D03*
%TO.P,J3,1*%
%TO.N,+5V*%
%TA.AperFunction,ComponentPad*%
G36*
G01*
X181275000Y-109150000D02*
X182725000Y-109150000D01*
G75*
G02*
X182975000Y-109400000I0J-250000D01*
G01*
X182975000Y-110600000D01*
G75*
G02*
X182725000Y-110850000I-250000J0D01*
G01*
X181275000Y-110850000D01*
G75*
G02*
X181025000Y-110600000I0J250000D01*
G01*
X181025000Y-109400000D01*
G75*
G02*
X181275000Y-109150000I250000J0D01*
G01*
G37*
%TD.AperFunction*%
%TD*%
%TO.P,J2,3*%
%TO.N,/IR_out1.1*%
X190000000Y-115000000D03*
%TO.P,J2,2*%
%TO.N,GND*%
X190000000Y-112500000D03*
%TO.P,J2,1*%
%TO.N,+5V*%
%TA.AperFunction,ComponentPad*%
G36*
G01*
X189275000Y-109150000D02*
X190725000Y-109150000D01*
G75*
G02*
X190975000Y-109400000I0J-250000D01*
G01*
X190975000Y-110600000D01*
G75*
G02*
X190725000Y-110850000I-250000J0D01*
G01*
X189275000Y-110850000D01*
G75*
G02*
X189025000Y-110600000I0J250000D01*
G01*
X189025000Y-109400000D01*
G75*
G02*
X189275000Y-109150000I250000J0D01*
G01*
G37*
%TD.AperFunction*%
%TD*%
%TO.P,J1,4*%
%TO.N,/LCD_2*%
X127000000Y-105290000D03*
%TO.P,J1,3*%
%TO.N,/LCD_1*%
X127000000Y-102790000D03*
%TO.P,J1,2*%
%TO.N,GND*%
X127000000Y-100290000D03*
%TO.P,J1,1*%
%TO.N,+5V*%
%TA.AperFunction,ComponentPad*%
G36*
G01*
X126275000Y-96940000D02*
X127725000Y-96940000D01*
G75*
G02*
X127975000Y-97190000I0J-250000D01*
G01*
X127975000Y-98390000D01*
G75*
G02*
X127725000Y-98640000I-250000J0D01*
G01*
X126275000Y-98640000D01*
G75*
G02*
X126025000Y-98390000I0J250000D01*
G01*
X126025000Y-97190000D01*
G75*
G02*
X126275000Y-96940000I250000J0D01*
G01*
G37*
%TD.AperFunction*%
%TD*%
%TO.P,D1,2*%
%TO.N,Net-(D1-Pad2)*%
%TA.AperFunction,SMDPad,CuDef*%
G36*
G01*
X118474500Y-55835000D02*
X118949500Y-55835000D01*
G75*
G02*
X119187000Y-56072500I0J-237500D01*
G01*
X119187000Y-56647500D01*
G75*
G02*
X118949500Y-56885000I-237500J0D01*
G01*
X118474500Y-56885000D01*
G75*
G02*
X118237000Y-56647500I0J237500D01*
G01*
X118237000Y-56072500D01*
G75*
G02*
X118474500Y-55835000I237500J0D01*
G01*
G37*
%TD.AperFunction*%
%TO.P,D1,1*%
%TO.N,GND*%
%TA.AperFunction,SMDPad,CuDef*%
G36*
G01*
X118474500Y-54085000D02*
X118949500Y-54085000D01*
G75*
G02*
X119187000Y-54322500I0J-237500D01*
G01*
X119187000Y-54897500D01*
G75*
G02*
X118949500Y-55135000I-237500J0D01*
G01*
X118474500Y-55135000D01*
G75*
G02*
X118237000Y-54897500I0J237500D01*
G01*
X118237000Y-54322500D01*
G75*
G02*
X118474500Y-54085000I237500J0D01*
G01*
G37*
%TD.AperFunction*%
%TD*%
%TO.P,C2,2*%
%TO.N,GND*%
%TA.AperFunction,SMDPad,CuDef*%
G36*
G01*
X130084000Y-58362001D02*
X130084000Y-57461999D01*
G75*
G02*
X130333999Y-57212000I249999J0D01*
G01*
X130984001Y-57212000D01*
G75*
G02*
X131234000Y-57461999I0J-249999D01*
G01*
X131234000Y-58362001D01*
G75*
G02*
X130984001Y-58612000I-249999J0D01*
G01*
X130333999Y-58612000D01*
G75*
G02*
X130084000Y-58362001I0J249999D01*
G01*
G37*
%TD.AperFunction*%
%TO.P,C2,1*%
%TO.N,+5V*%
%TA.AperFunction,SMDPad,CuDef*%
G36*
G01*
X128034000Y-58362001D02*
X128034000Y-57461999D01*
G75*
G02*
X128283999Y-57212000I249999J0D01*
G01*
X128934001Y-57212000D01*
G75*
G02*
X129184000Y-57461999I0J-249999D01*
G01*
X129184000Y-58362001D01*
G75*
G02*
X128934001Y-58612000I-249999J0D01*
G01*
X128283999Y-58612000D01*
G75*
G02*
X128034000Y-58362001I0J249999D01*
G01*
G37*
%TD.AperFunction*%
%TD*%
%TO.P,C1,2*%
%TO.N,GND*%
%TA.AperFunction,SMDPad,CuDef*%
G36*
G01*
X125013000Y-58362001D02*
X125013000Y-57461999D01*
G75*
G02*
X125262999Y-57212000I249999J0D01*
G01*
X125913001Y-57212000D01*
G75*
G02*
X126163000Y-57461999I0J-249999D01*
G01*
X126163000Y-58362001D01*
G75*
G02*
X125913001Y-58612000I-249999J0D01*
G01*
X125262999Y-58612000D01*
G75*
G02*
X125013000Y-58362001I0J249999D01*
G01*
G37*
%TD.AperFunction*%
%TO.P,C1,1*%
%TO.N,+12V*%
%TA.AperFunction,SMDPad,CuDef*%
G36*
G01*
X122963000Y-58362001D02*
X122963000Y-57461999D01*
G75*
G02*
X123212999Y-57212000I249999J0D01*
G01*
X123863001Y-57212000D01*
G75*
G02*
X124113000Y-57461999I0J-249999D01*
G01*
X124113000Y-58362001D01*
G75*
G02*
X123863001Y-58612000I-249999J0D01*
G01*
X123212999Y-58612000D01*
G75*
G02*
X122963000Y-58362001I0J249999D01*
G01*
G37*
%TD.AperFunction*%
%TD*%
D23*
%TO.N,GND*%
X181885000Y-69934000D03*
X176297000Y-67394000D03*
X186881000Y-72390000D03*
X198057000Y-77470000D03*
X192469000Y-74930000D03*
X130659000Y-56016000D03*
X125588000Y-56152000D03*
X118712000Y-52959000D03*
%TO.N,/mot2_dir*%
X130276000Y-81000000D03*
X138202000Y-81000000D03*
%TO.N,/TX4*%
X129540000Y-115570000D03*
X124460000Y-110490000D03*
%TO.N,/Xbee_RX*%
X142106000Y-64777000D03*
X147066000Y-59817000D03*
%TO.N,/SCL*%
X116592000Y-72904000D03*
X116592000Y-68459000D03*
%TD*%
D24*
%TO.N,GND*%
X185606000Y-72390000D02*
X186881000Y-72390000D01*
X191194000Y-74930000D02*
X192469000Y-74930000D01*
X196782000Y-77470000D02*
X198057000Y-77470000D01*
X175004000Y-67394000D02*
X176297000Y-67394000D01*
X180592000Y-69934000D02*
X181885000Y-69934000D01*
X181885000Y-69934000D02*
X181885000Y-69934000D01*
X176297000Y-67394000D02*
X176297000Y-67394000D01*
X186881000Y-72390000D02*
X186881000Y-72390000D01*
X198057000Y-77470000D02*
X198057000Y-77470000D01*
X192469000Y-74930000D02*
X192469000Y-74930000D01*
X125588000Y-57912000D02*
X125588000Y-56152000D01*
X130659000Y-57912000D02*
X130659000Y-56016000D01*
X118712000Y-54610000D02*
X118712000Y-52959000D01*
X130659000Y-56016000D02*
X130659000Y-56016000D01*
X125588000Y-56152000D02*
X125588000Y-56152000D01*
X118712000Y-52959000D02*
X118712000Y-52959000D01*
D25*
X175020000Y-67310000D02*
X175104000Y-67394000D01*
D26*
%TO.N,+12V*%
X111000000Y-53000000D02*
X111084000Y-53000000D01*
X115084000Y-49000000D02*
X125000000Y-49000000D01*
X111084000Y-53000000D02*
X115084000Y-49000000D01*
X125000000Y-49000000D02*
X125000000Y-51530000D01*
X123538000Y-52992000D02*
X123538000Y-57912000D01*
X125000000Y-51530000D02*
X123538000Y-52992000D01*
X125000000Y-49000000D02*
X125000000Y-47593000D01*
X125000000Y-47593000D02*
X126746000Y-45847000D01*
X135847000Y-45847000D02*
X139000000Y-49000000D01*
X126746000Y-45847000D02*
X135847000Y-45847000D01*
X139000000Y-49000000D02*
X141500000Y-49000000D01*
D27*
%TO.N,+5V*%
X109092000Y-77328000D02*
X109092000Y-87488000D01*
X109092000Y-87488000D02*
X109092000Y-97648000D01*
X135763000Y-102870000D02*
X137414000Y-102870000D01*
X134747000Y-106172000D02*
X134747000Y-103886000D01*
X133350000Y-107569000D02*
X134747000Y-106172000D01*
X123698000Y-107569000D02*
X133350000Y-107569000D01*
X121539000Y-105410000D02*
X123698000Y-107569000D01*
X134747000Y-103886000D02*
X135763000Y-102870000D01*
X118618000Y-105410000D02*
X121539000Y-105410000D01*
X118712000Y-61731000D02*
X127720000Y-61731000D01*
X163957000Y-54737000D02*
X166370000Y-57150000D01*
X145923000Y-57277000D02*
X148463000Y-54737000D01*
X148463000Y-54737000D02*
X163957000Y-54737000D01*
X128609000Y-60842000D02*
X127720000Y-61731000D01*
X128609000Y-60443000D02*
X130142000Y-61976000D01*
X128609000Y-59826000D02*
X128609000Y-60443000D01*
X128609000Y-57912000D02*
X128609000Y-59826000D01*
X128609000Y-59826000D02*
X128609000Y-60842000D01*
X174083000Y-98000000D02*
X174000000Y-97917000D01*
X190000000Y-98000000D02*
X174083000Y-98000000D01*
X190000000Y-110000000D02*
X182000000Y-110000000D01*
X182000000Y-110000000D02*
X174000000Y-110000000D01*
X166370000Y-57150000D02*
X198882000Y-57150000D01*
X198882000Y-57150000D02*
X203327000Y-61595000D01*
X203327000Y-61595000D02*
X203327000Y-81788000D01*
X197612000Y-87503000D02*
X188722000Y-87503000D01*
X203327000Y-81788000D02*
X197612000Y-87503000D01*
X188722000Y-96722000D02*
X190000000Y-98000000D01*
X188722000Y-87503000D02*
X188722000Y-96722000D01*
X192641000Y-110000000D02*
X190000000Y-110000000D01*
X194310000Y-108331000D02*
X192641000Y-110000000D01*
X194310000Y-99187000D02*
X194310000Y-108331000D01*
X193123000Y-98000000D02*
X194310000Y-99187000D01*
X190000000Y-98000000D02*
X193123000Y-98000000D01*
X130142000Y-61976000D02*
X133731000Y-61976000D01*
X133731000Y-61976000D02*
X134874000Y-60833000D01*
X134874000Y-60833000D02*
X134874000Y-58547000D01*
X136144000Y-57277000D02*
X138000000Y-57277000D01*
X134874000Y-58547000D02*
X136144000Y-57277000D01*
X138000000Y-57277000D02*
X145923000Y-57277000D01*
X130080000Y-49000000D02*
X130080000Y-51784000D01*
X128609000Y-53255000D02*
X128609000Y-57912000D01*
X130080000Y-51784000D02*
X128609000Y-53255000D01*
X114173000Y-105410000D02*
X118618000Y-105410000D01*
X109092000Y-100329000D02*
X114173000Y-105410000D01*
X109092000Y-97648000D02*
X109092000Y-100329000D01*
X118712000Y-62372000D02*
X116713000Y-64371000D01*
X118712000Y-61731000D02*
X118712000Y-62372000D01*
X114046000Y-66338000D02*
X114046000Y-67555000D01*
X116013000Y-64371000D02*
X114046000Y-66338000D01*
X116713000Y-64371000D02*
X116013000Y-64371000D01*
X109092000Y-71809000D02*
X109092000Y-77328000D01*
X113346000Y-67555000D02*
X109092000Y-71809000D01*
X114046000Y-67555000D02*
X113346000Y-67555000D01*
X121539000Y-105410000D02*
X121539000Y-100330000D01*
X124079000Y-97790000D02*
X127000000Y-97790000D01*
X121539000Y-100330000D02*
X124079000Y-97790000D01*
D25*
%TO.N,Net-(D1-Pad2)*%
X118712000Y-56360000D02*
X118712000Y-59681000D01*
%TO.N,/LCD_2*%
X151130000Y-105410000D02*
X145034000Y-105410000D01*
X145034000Y-105410000D02*
X149352000Y-105410000D01*
X145034000Y-105410000D02*
X145034000Y-105410000D01*
X127000000Y-105290000D02*
X131706000Y-105290000D01*
X131706000Y-105290000D02*
X133096000Y-103900000D01*
X133096000Y-103900000D02*
X133096000Y-100330000D01*
X133096000Y-100330000D02*
X134366000Y-99060000D01*
X134366000Y-99060000D02*
X139954000Y-99060000D01*
X139954000Y-99060000D02*
X141224000Y-100330000D01*
X141224000Y-100330000D02*
X141224000Y-103886000D01*
X142748000Y-105410000D02*
X145034000Y-105410000D01*
X141224000Y-103886000D02*
X142748000Y-105410000D01*
D28*
%TO.N,/LCD_1*%
X151050000Y-102790000D02*
X151130000Y-102870000D01*
D25*
X131826000Y-101346000D02*
X130382000Y-102790000D01*
X133858000Y-97282000D02*
X131826000Y-99314000D01*
X131826000Y-99314000D02*
X131826000Y-101346000D01*
X140716000Y-97282000D02*
X133858000Y-97282000D01*
X130382000Y-102790000D02*
X127000000Y-102790000D01*
X142494000Y-99060000D02*
X140716000Y-97282000D01*
X142494000Y-101854000D02*
X142494000Y-99060000D01*
X143510000Y-102870000D02*
X142494000Y-101854000D01*
X151130000Y-102870000D02*
X143510000Y-102870000D01*
%TO.N,/IR_out1.1*%
X186436000Y-118564000D02*
X190000000Y-115000000D01*
X171577000Y-118618000D02*
X186436000Y-118618000D01*
X168529000Y-115570000D02*
X171577000Y-118618000D01*
X186436000Y-118618000D02*
X186436000Y-118564000D01*
X166370000Y-115570000D02*
X168529000Y-115570000D01*
%TO.N,/IR_out1.2*%
X166370000Y-113030000D02*
X169418000Y-113030000D01*
X169418000Y-113030000D02*
X170942000Y-114554000D01*
X170942000Y-114554000D02*
X170942000Y-115951000D01*
X170942000Y-115951000D02*
X172212000Y-117221000D01*
X179779000Y-117221000D02*
X182000000Y-115000000D01*
X172212000Y-117221000D02*
X179779000Y-117221000D01*
%TO.N,/IR_out1.3*%
X166370000Y-110490000D02*
X169291000Y-110490000D01*
X169291000Y-110490000D02*
X172212000Y-113411000D01*
X172212000Y-113411000D02*
X172212000Y-114427000D01*
X172785000Y-115000000D02*
X174000000Y-115000000D01*
X172212000Y-114427000D02*
X172785000Y-115000000D01*
%TO.N,/IR_out2.1*%
X185050000Y-107950000D02*
X190000000Y-103000000D01*
X166370000Y-107950000D02*
X185050000Y-107950000D01*
%TO.N,/IR_out2.2*%
X179590000Y-105410000D02*
X182000000Y-103000000D01*
X166370000Y-105410000D02*
X179590000Y-105410000D01*
%TO.N,/IR_out2.3*%
X173953000Y-102870000D02*
X174000000Y-102917000D01*
X166370000Y-102870000D02*
X173953000Y-102870000D01*
%TO.N,/mot1_dir*%
X151050000Y-77390000D02*
X151130000Y-77470000D01*
X133858000Y-77390000D02*
X151050000Y-77390000D01*
%TO.N,/mot1_PWM*%
X133898000Y-74930000D02*
X133858000Y-74890000D01*
X151130000Y-74930000D02*
X133898000Y-74930000D01*
%TO.N,/mot2_dir*%
X151050000Y-80090000D02*
X151130000Y-80010000D01*
X125000000Y-81000000D02*
X130276000Y-81000000D01*
X130276000Y-81000000D02*
X130276000Y-81000000D01*
X138202000Y-81000000D02*
X138938000Y-80264000D01*
X150876000Y-80264000D02*
X151130000Y-80010000D01*
X138938000Y-80264000D02*
X150876000Y-80264000D01*
%TO.N,/mot2_PWM*%
X125000000Y-78500000D02*
X130951000Y-78500000D01*
X130951000Y-78500000D02*
X134747000Y-82296000D01*
X150876000Y-82296000D02*
X151130000Y-82550000D01*
X134747000Y-82296000D02*
X150876000Y-82296000D01*
%TO.N,/enc1_B*%
X166490000Y-80130000D02*
X166370000Y-80010000D01*
X188715000Y-80010000D02*
X188722000Y-80003000D01*
X166370000Y-80010000D02*
X188715000Y-80010000D01*
%TO.N,/enc1_A*%
X166450000Y-82630000D02*
X166370000Y-82550000D01*
X188675000Y-82550000D02*
X188722000Y-82503000D01*
X166370000Y-82550000D02*
X188675000Y-82550000D01*
%TO.N,/enc2_B*%
X151010000Y-110370000D02*
X151130000Y-110490000D01*
X137414000Y-110370000D02*
X151010000Y-110370000D01*
D28*
%TO.N,/enc2_A*%
X151050000Y-107870000D02*
X151130000Y-107950000D01*
D25*
X137494000Y-107950000D02*
X137414000Y-107870000D01*
X151130000Y-107950000D02*
X137494000Y-107950000D01*
%TO.N,/tirette*%
X151130000Y-85090000D02*
X143510000Y-85090000D01*
%TO.N,/couleur*%
X151130000Y-72390000D02*
X143510000Y-72390000D01*
%TO.N,/RX4*%
X151010000Y-112910000D02*
X151130000Y-113030000D01*
X118618000Y-112910000D02*
X151010000Y-112910000D01*
D28*
%TO.N,/TX4*%
X151050000Y-115650000D02*
X151130000Y-115570000D01*
D25*
X151130000Y-115570000D02*
X129540000Y-115570000D01*
X129540000Y-115570000D02*
X129540000Y-115570000D01*
X118698000Y-110490000D02*
X118618000Y-110410000D01*
X124460000Y-110490000D02*
X118698000Y-110490000D01*
%TO.N,/Xbee_RX*%
X138000000Y-64777000D02*
X142106000Y-64777000D01*
X142106000Y-64777000D02*
X142106000Y-64777000D01*
X151003000Y-59817000D02*
X151130000Y-59690000D01*
X147066000Y-59817000D02*
X151003000Y-59817000D01*
D24*
%TO.N,/Xbee_TX*%
X151050000Y-62310000D02*
X151130000Y-62230000D01*
D25*
X151083000Y-62277000D02*
X151130000Y-62230000D01*
X138047000Y-62230000D02*
X138000000Y-62277000D01*
X151130000Y-62230000D02*
X138047000Y-62230000D01*
%TO.N,/SCL*%
X116712000Y-77208000D02*
X116592000Y-77328000D01*
X116592000Y-77328000D02*
X116592000Y-87488000D01*
X116592000Y-97648000D02*
X116592000Y-87488000D01*
X134493000Y-67310000D02*
X151130000Y-67310000D01*
X133604000Y-66421000D02*
X134493000Y-67310000D01*
X116713000Y-66421000D02*
X133604000Y-66421000D01*
X116592000Y-77328000D02*
X116592000Y-72904000D01*
X116592000Y-72904000D02*
X116592000Y-72904000D01*
X116592000Y-66542000D02*
X116713000Y-66421000D01*
X116592000Y-68459000D02*
X116592000Y-66542000D01*
%TO.N,/SDA*%
X114092000Y-97648000D02*
X114092000Y-87488000D01*
X114092000Y-87488000D02*
X114092000Y-77328000D01*
X150885000Y-69605000D02*
X151130000Y-69850000D01*
X114046000Y-69605000D02*
X150885000Y-69605000D01*
X114046000Y-77282000D02*
X114092000Y-77328000D01*
X114046000Y-69605000D02*
X114046000Y-77282000D01*
%TO.N,Net-(J20-Pad5)*%
X200810000Y-75270000D02*
X200978000Y-75438000D01*
X195832000Y-75270000D02*
X200810000Y-75270000D01*
%TO.N,Net-(J20-Pad4)*%
X190412000Y-72898000D02*
X190244000Y-72730000D01*
X200978000Y-72898000D02*
X190412000Y-72898000D01*
%TO.N,Net-(J20-Pad3)*%
X184824000Y-70358000D02*
X184656000Y-70190000D01*
X200978000Y-70358000D02*
X184824000Y-70358000D01*
%TO.N,Net-(J20-Pad2)*%
X200894000Y-67734000D02*
X200978000Y-67818000D01*
X179642000Y-67734000D02*
X200894000Y-67734000D01*
%TO.N,Net-(J20-Pad1)*%
X176138000Y-65278000D02*
X176054000Y-65194000D01*
X200978000Y-65278000D02*
X174138000Y-65278000D01*
%TO.N,/lidar_out3*%
X151130000Y-100330000D02*
X144780000Y-100330000D01*
%TO.N,/lidar_out2*%
X144780000Y-97790000D02*
X151130000Y-97790000D01*
%TO.N,/lidar_out1*%
X151130000Y-95250000D02*
X144780000Y-95250000D01*
%TO.N,/galet_1.1*%
X150876000Y-87884000D02*
X151130000Y-87630000D01*
X125000000Y-87884000D02*
X150876000Y-87884000D01*
%TO.N,/galet_1.2*%
X151130000Y-90170000D02*
X134620000Y-90170000D01*
%TO.N,/galet_2.1*%
X166370000Y-87630000D02*
X174000000Y-87630000D01*
%TO.N,/galet_2.2*%
X166370000Y-85090000D02*
X182000000Y-85090000D01*
%TO.N,/lidar_in1*%
X173020000Y-67310000D02*
X173104000Y-67394000D01*
X166370000Y-67310000D02*
X173020000Y-67310000D01*
%TO.N,/lidar_in2*%
X178608000Y-69850000D02*
X178692000Y-69934000D01*
X166370000Y-69850000D02*
X178608000Y-69850000D01*
%TO.N,/lidar_in3*%
X166370000Y-72390000D02*
X183706000Y-72390000D01*
%TO.N,/lidar_in4*%
X166370000Y-74930000D02*
X189294000Y-74930000D01*
%TO.N,/lidar_in5*%
X166370000Y-77470000D02*
X194882000Y-77470000D01*
%TD*%
M02*
