%TF.GenerationSoftware,KiCad,Pcbnew,5.1.6+dfsg1-1*%
%TF.CreationDate,2021-03-04T16:54:05+01:00*%
%TF.ProjectId,pcb_robot_2021A,7063625f-726f-4626-9f74-5f3230323141,2.0*%
%TF.SameCoordinates,Original*%
%TF.FileFunction,Paste,Top*%
%TF.FilePolarity,Positive*%
%FSLAX46Y46*%
G04 Gerber Fmt 4.6, Leading zero omitted, Abs format (unit mm)*
G04 Created by KiCad (PCBNEW 5.1.6+dfsg1-1) date 2021-03-04 16:54:05*
%MOMM*%
%LPD*%
G01*
G04 APERTURE LIST*
%ADD10R,0.800000X1.200000*%
G04 APERTURE END LIST*
%TO.C,R1*%
G36*
G01*
X116262999Y-65846000D02*
X117163001Y-65846000D01*
G75*
G02*
X117413000Y-66095999I0J-249999D01*
G01*
X117413000Y-66746001D01*
G75*
G02*
X117163001Y-66996000I-249999J0D01*
G01*
X116262999Y-66996000D01*
G75*
G02*
X116013000Y-66746001I0J249999D01*
G01*
X116013000Y-66095999D01*
G75*
G02*
X116262999Y-65846000I249999J0D01*
G01*
G37*
G36*
G01*
X116262999Y-63796000D02*
X117163001Y-63796000D01*
G75*
G02*
X117413000Y-64045999I0J-249999D01*
G01*
X117413000Y-64696001D01*
G75*
G02*
X117163001Y-64946000I-249999J0D01*
G01*
X116262999Y-64946000D01*
G75*
G02*
X116013000Y-64696001I0J249999D01*
G01*
X116013000Y-64045999D01*
G75*
G02*
X116262999Y-63796000I249999J0D01*
G01*
G37*
%TD*%
D10*
%TO.C,U6*%
X189294000Y-74930000D03*
X191194000Y-74930000D03*
X190244000Y-72730000D03*
%TD*%
%TO.C,U7*%
X194882000Y-77470000D03*
X196782000Y-77470000D03*
X195832000Y-75270000D03*
%TD*%
%TO.C,U3*%
X173104000Y-67394000D03*
X175004000Y-67394000D03*
X174054000Y-65194000D03*
%TD*%
%TO.C,U5*%
X183706000Y-72390000D03*
X185606000Y-72390000D03*
X184656000Y-70190000D03*
%TD*%
%TO.C,U4*%
X178692000Y-69934000D03*
X180592000Y-69934000D03*
X179642000Y-67734000D03*
%TD*%
%TO.C,R3*%
G36*
G01*
X119162001Y-60256000D02*
X118261999Y-60256000D01*
G75*
G02*
X118012000Y-60006001I0J249999D01*
G01*
X118012000Y-59355999D01*
G75*
G02*
X118261999Y-59106000I249999J0D01*
G01*
X119162001Y-59106000D01*
G75*
G02*
X119412000Y-59355999I0J-249999D01*
G01*
X119412000Y-60006001D01*
G75*
G02*
X119162001Y-60256000I-249999J0D01*
G01*
G37*
G36*
G01*
X119162001Y-62306000D02*
X118261999Y-62306000D01*
G75*
G02*
X118012000Y-62056001I0J249999D01*
G01*
X118012000Y-61405999D01*
G75*
G02*
X118261999Y-61156000I249999J0D01*
G01*
X119162001Y-61156000D01*
G75*
G02*
X119412000Y-61405999I0J-249999D01*
G01*
X119412000Y-62056001D01*
G75*
G02*
X119162001Y-62306000I-249999J0D01*
G01*
G37*
%TD*%
%TO.C,R2*%
G36*
G01*
X114496001Y-68130000D02*
X113595999Y-68130000D01*
G75*
G02*
X113346000Y-67880001I0J249999D01*
G01*
X113346000Y-67229999D01*
G75*
G02*
X113595999Y-66980000I249999J0D01*
G01*
X114496001Y-66980000D01*
G75*
G02*
X114746000Y-67229999I0J-249999D01*
G01*
X114746000Y-67880001D01*
G75*
G02*
X114496001Y-68130000I-249999J0D01*
G01*
G37*
G36*
G01*
X114496001Y-70180000D02*
X113595999Y-70180000D01*
G75*
G02*
X113346000Y-69930001I0J249999D01*
G01*
X113346000Y-69279999D01*
G75*
G02*
X113595999Y-69030000I249999J0D01*
G01*
X114496001Y-69030000D01*
G75*
G02*
X114746000Y-69279999I0J-249999D01*
G01*
X114746000Y-69930001D01*
G75*
G02*
X114496001Y-70180000I-249999J0D01*
G01*
G37*
%TD*%
%TO.C,D1*%
G36*
G01*
X118474500Y-55835000D02*
X118949500Y-55835000D01*
G75*
G02*
X119187000Y-56072500I0J-237500D01*
G01*
X119187000Y-56647500D01*
G75*
G02*
X118949500Y-56885000I-237500J0D01*
G01*
X118474500Y-56885000D01*
G75*
G02*
X118237000Y-56647500I0J237500D01*
G01*
X118237000Y-56072500D01*
G75*
G02*
X118474500Y-55835000I237500J0D01*
G01*
G37*
G36*
G01*
X118474500Y-54085000D02*
X118949500Y-54085000D01*
G75*
G02*
X119187000Y-54322500I0J-237500D01*
G01*
X119187000Y-54897500D01*
G75*
G02*
X118949500Y-55135000I-237500J0D01*
G01*
X118474500Y-55135000D01*
G75*
G02*
X118237000Y-54897500I0J237500D01*
G01*
X118237000Y-54322500D01*
G75*
G02*
X118474500Y-54085000I237500J0D01*
G01*
G37*
%TD*%
%TO.C,C2*%
G36*
G01*
X130084000Y-58362001D02*
X130084000Y-57461999D01*
G75*
G02*
X130333999Y-57212000I249999J0D01*
G01*
X130984001Y-57212000D01*
G75*
G02*
X131234000Y-57461999I0J-249999D01*
G01*
X131234000Y-58362001D01*
G75*
G02*
X130984001Y-58612000I-249999J0D01*
G01*
X130333999Y-58612000D01*
G75*
G02*
X130084000Y-58362001I0J249999D01*
G01*
G37*
G36*
G01*
X128034000Y-58362001D02*
X128034000Y-57461999D01*
G75*
G02*
X128283999Y-57212000I249999J0D01*
G01*
X128934001Y-57212000D01*
G75*
G02*
X129184000Y-57461999I0J-249999D01*
G01*
X129184000Y-58362001D01*
G75*
G02*
X128934001Y-58612000I-249999J0D01*
G01*
X128283999Y-58612000D01*
G75*
G02*
X128034000Y-58362001I0J249999D01*
G01*
G37*
%TD*%
%TO.C,C1*%
G36*
G01*
X125013000Y-58362001D02*
X125013000Y-57461999D01*
G75*
G02*
X125262999Y-57212000I249999J0D01*
G01*
X125913001Y-57212000D01*
G75*
G02*
X126163000Y-57461999I0J-249999D01*
G01*
X126163000Y-58362001D01*
G75*
G02*
X125913001Y-58612000I-249999J0D01*
G01*
X125262999Y-58612000D01*
G75*
G02*
X125013000Y-58362001I0J249999D01*
G01*
G37*
G36*
G01*
X122963000Y-58362001D02*
X122963000Y-57461999D01*
G75*
G02*
X123212999Y-57212000I249999J0D01*
G01*
X123863001Y-57212000D01*
G75*
G02*
X124113000Y-57461999I0J-249999D01*
G01*
X124113000Y-58362001D01*
G75*
G02*
X123863001Y-58612000I-249999J0D01*
G01*
X123212999Y-58612000D01*
G75*
G02*
X122963000Y-58362001I0J249999D01*
G01*
G37*
%TD*%
M02*
